<svg xmlns="http://www.w3.org/2000/svg" xmlns:xlink="http://www.w3.org/1999/xlink" width="118" height="118" viewBox="0 0 118 118">
  <defs>
    <filter id="Trazado_896985" x="0" y="0" width="118" height="118" filterUnits="userSpaceOnUse">
      <feOffset dy="3" input="SourceAlpha"/>
      <feGaussianBlur stdDeviation="3" result="blur"/>
      <feFlood flood-opacity="0.161"/>
      <feComposite operator="in" in2="blur"/>
      <feComposite in="SourceGraphic"/>
    </filter>
  </defs>
  <g id="Grupo_1119285" data-name="Grupo 1119285" transform="translate(-269.051 -7797)">
    <g id="Grupo_1111318" data-name="Grupo 1111318" transform="translate(278.051 7803)">
      <g id="Grupo_1109826" data-name="Grupo 1109826" transform="translate(0 0)">
        <g id="Grupo_1098742" data-name="Grupo 1098742">
          <g transform="matrix(1, 0, 0, 1, -9, -6)" filter="url(#Trazado_896985)">
            <g id="Trazado_896985-2" data-name="Trazado 896985" transform="translate(9 6)" fill="#9ad354" opacity="0.859">
              <path d="M 49.99993515014648 98.5 C 43.45182037353516 98.5 37.10037612915039 97.21788024902344 31.12203598022461 94.68925476074219 C 25.34687805175781 92.24656677246094 20.15993499755859 88.74932098388672 15.70530700683594 84.29469299316406 C 11.25067806243896 79.84006500244141 7.753435134887695 74.65312194824219 5.310749530792236 68.87796783447266 C 2.782120943069458 62.89962387084961 1.500006556510925 56.54818344116211 1.500006556510925 50.00006866455078 C 1.500006556510925 43.45180892944336 2.782120943069458 37.10036849975586 5.310749530792236 31.12202453613281 C 7.753435134887695 25.34686851501465 11.25067806243896 20.15992546081543 15.70530700683594 15.70529651641846 C 20.15993499755859 11.25066757202148 25.34687805175781 7.753424644470215 31.12203598022461 5.310739040374756 C 37.10037612915039 2.782110452651978 43.45182037353516 1.499996185302734 49.99993515014648 1.499996185302734 C 56.54804992675781 1.499996185302734 62.89949417114258 2.782110452651978 68.87783813476562 5.310739040374756 C 74.65299224853516 7.753424644470215 79.83993530273438 11.25066757202148 84.29457855224609 15.70529651641846 C 88.74920654296875 20.15992546081543 92.24643707275391 25.34686851501465 94.68911743164062 31.12202453613281 C 97.21775054931641 37.10036849975586 98.4998779296875 43.45180892944336 98.4998779296875 49.99992370605469 C 98.4998779296875 56.54818344116211 97.21775054931641 62.89962387084961 94.68911743164062 68.87796783447266 C 92.24643707275391 74.65312194824219 88.74920654296875 79.84006500244141 84.29457855224609 84.29469299316406 C 79.83993530273438 88.74932098388672 74.65299224853516 92.24656677246094 68.87783813476562 94.68925476074219 C 62.89949417114258 97.21788024902344 56.54804992675781 98.5 49.99993515014648 98.5 Z" stroke="none"/>
              <path d="M 49.99993515014648 2.999992370605469 C 43.65365982055664 2.999992370605469 37.49881362915039 4.242256164550781 31.70636749267578 6.6922607421875 C 26.10999298095703 9.059318542480469 21.08332061767578 12.44859313964844 16.76596832275391 16.76596832275391 C 12.44859313964844 21.08332061767578 9.059318542480469 26.10999298095703 6.6922607421875 31.70636749267578 C 4.242256164550781 37.49880981445312 3 43.65365600585938 3 50.00005722045898 C 3 56.34633636474609 4.242256164550781 62.50118255615234 6.6922607421875 68.29362487792969 C 9.059318542480469 73.88999938964844 12.44859313964844 78.91667175292969 16.76596832275391 83.23402404785156 C 21.08332061767578 87.55139923095703 26.10999298095703 90.940673828125 31.70636749267578 93.30773162841797 C 37.49881362915039 95.75773620605469 43.65365982055664 97 49.99993515014648 97 C 56.34621047973633 97 62.50105667114258 95.75773620605469 68.29350280761719 93.30773162841797 C 73.88987731933594 90.940673828125 78.91654968261719 87.55139923095703 83.23390197753906 83.23402404785156 C 87.55126953125 78.91667175292969 90.9405517578125 73.88999938964844 93.30760955810547 68.29362487792969 C 95.75761413574219 62.50118255615234 96.99987030029297 56.34633636474609 96.99987030029297 49.99993515014648 C 96.99987030029297 43.65365600585938 95.75761413574219 37.49880981445312 93.30760955810547 31.70636749267578 C 90.9405517578125 26.10999298095703 87.55126953125 21.08332061767578 83.23390197753906 16.76596832275391 C 78.91654968261719 12.44859313964844 73.88987731933594 9.059318542480469 68.29350280761719 6.6922607421875 C 62.50105667114258 4.242256164550781 56.34621047973633 2.999992370605469 49.99993515014648 2.999992370605469 M 49.99993515014648 -7.62939453125e-06 C 77.6141357421875 -7.62939453125e-06 99.99987030029297 22.38573455810547 99.99987030029297 49.99993515014648 L 99.99987030029297 50.00005722045898 C 99.99987030029297 77.6142578125 77.6141357421875 100 49.99993515014648 100 C 22.38573455810547 100 0 77.6142578125 0 50.00005722045898 L 0 49.99993515014648 C 0 22.38573455810547 22.38573455810547 -7.62939453125e-06 49.99993515014648 -7.62939453125e-06 Z" stroke="none" fill="#fff"/>
            </g>
          </g>
          <g id="Rectángulo_400907" data-name="Rectángulo 400907" transform="translate(0)" fill="none" stroke="#fff" stroke-width="3">
            <rect width="100" height="100" rx="50" stroke="none"/>
            <rect x="1.5" y="1.5" width="97" height="97" rx="48.5" fill="none"/>
          </g>
        </g>
      </g>
    </g>
    <g id="Grupo_1119284" data-name="Grupo 1119284" transform="translate(296.051 7814.642)">
      <path id="Trazado_916660" data-name="Trazado 916660" d="M29.077,308.846v11.675a9.7,9.7,0,0,1-13.708,8.82h0a9.7,9.7,0,0,1-5.582-7.49,3.126,3.126,0,1,1,3.242-5.161l.814-4.666.555-3.177H29.077Z" transform="translate(-6.737 -264.071)" fill="#fcd2be"/>
      <path id="Trazado_916661" data-name="Trazado 916661" d="M15.367,351.763a9.7,9.7,0,0,1-5.582-7.49,3.126,3.126,0,1,1,3.242-5.161l.814-4.666,2.551.518C15.32,336.818,10.789,343.587,15.367,351.763Z" transform="translate(-6.736 -286.494)" fill="#fab998"/>
      <path id="Trazado_916662" data-name="Trazado 916662" d="M47.748,270.779a8.42,8.42,0,0,1-8.42,8.42H30.535v.781a3.366,3.366,0,0,1-3.367,3.365,3.126,3.126,0,0,0-3.331-.708V279.2a8.421,8.421,0,0,1,8.42-8.42Z" transform="translate(-20.879 -230.728)" fill="#f9ce55"/>
      <path id="Trazado_916663" data-name="Trazado 916663" d="M39.128,270.779H32.257a8.421,8.421,0,0,0-8.42,8.42v3.439a3.127,3.127,0,0,1,3.331.708,3.366,3.366,0,0,0,3.367-3.365V279.2h.174A8.421,8.421,0,0,1,39.128,270.779Z" transform="translate(-20.879 -230.728)" fill="#e2a11e"/>
      <path id="Trazado_916664" data-name="Trazado 916664" d="M73.935,64.264H50.03a2.745,2.745,0,0,0-2.745,2.745V79.08a2.745,2.745,0,0,0,2.745,2.745h13.48v4.963l4.426-4.963h6A2.745,2.745,0,0,0,76.68,79.08V67.009A2.745,2.745,0,0,0,73.935,64.264Z" transform="translate(-41.417 -49.843)" fill="#3facc9"/>
      <path id="Trazado_916665" data-name="Trazado 916665" d="M245.425,15.048h23.906a2.745,2.745,0,0,1,2.745,2.745V29.864a2.745,2.745,0,0,1-2.745,2.745H255.85v4.963l-4.426-4.963h-6a2.745,2.745,0,0,1-2.745-2.745V17.793A2.745,2.745,0,0,1,245.425,15.048Z" transform="translate(-212.561 -6.736)" fill="#00c7a9"/>
      <path id="Trazado_916666" data-name="Trazado 916666" d="M330.226,284.47l-.048-.02a8.747,8.747,0,0,1-4.962-8.025L310.55,261.936c-.687-2.543-.476-7.009,5.837-7.523q.59-.05,1.252-.05c7.535,0,14.929.606,16.493,11.7C335.178,273.48,332.458,280.689,330.226,284.47Z" transform="translate(-271.773 -216.35)" fill="#6b4b3d"/>
      <path id="Trazado_916667" data-name="Trazado 916667" d="M373.316,284.47l-.048-.02a.017.017,0,0,0,0-.008c2.545-21.634-7.254-30.029-13.792-30.029q.59-.05,1.252-.05c7.535,0,14.929.606,16.493,11.7C378.268,273.48,375.548,280.689,373.316,284.47Z" transform="translate(-314.863 -216.35)" fill="#5b3d2d"/>
      <path id="Trazado_916668" data-name="Trazado 916668" d="M331.317,313.434a2.888,2.888,0,0,1-1.088.685,8.938,8.938,0,0,1-17.792-1.226v-7.545s3.962.142,5.526-1.422a8.072,8.072,0,0,0,7.177,3.23h0a8.482,8.482,0,0,0,2.1-.385v2.589h0a2.882,2.882,0,0,1,4.076,4.076Z" transform="translate(-273.661 -259.762)" fill="#fcd2be"/>
      <path id="Trazado_916669" data-name="Trazado 916669" d="M409.342,333.5a2.888,2.888,0,0,1-1.088.685,8.941,8.941,0,0,1-6.736,7.459c4.642-2.546,1.688-14.263,1.648-14.421h0a8.482,8.482,0,0,0,2.1-.385v2.589h0a2.882,2.882,0,0,1,4.076,4.076Z" transform="translate(-351.686 -279.83)" fill="#fab998"/>
      <path id="Trazado_916670" data-name="Trazado 916670" d="M107.578,366.626v-1.6a.954.954,0,1,0-1.909,0v1.6a.954.954,0,0,0,1.909,0Z" transform="translate(-92.555 -312.44)"/>
      <path id="Trazado_916671" data-name="Trazado 916671" d="M139.244,365.023v1.6a.954.954,0,0,0,1.909,0v-1.6a.954.954,0,1,0-1.909,0Z" transform="translate(-121.963 -312.44)"/>
      <path id="Trazado_916672" data-name="Trazado 916672" d="M79.038,417.657a.954.954,0,1,0-1.657.947,5.5,5.5,0,0,0,4.744,2.731h.052a.954.954,0,0,0,.05-1.907A3.628,3.628,0,0,1,79.038,417.657Z" transform="translate(-67.667 -358.956)"/>
      <path id="Trazado_916673" data-name="Trazado 916673" d="M26.869,263.094H11.378A9.384,9.384,0,0,0,2,272.467a.954.954,0,1,0,1.909,0A7.473,7.473,0,0,1,11.378,265H25.854a7.476,7.476,0,0,1-7.4,6.51H9.656a.954.954,0,0,0-.954.954v.781a2.415,2.415,0,0,1-2.075,2.388,4.084,4.084,0,0,0-4.008-.622,4.083,4.083,0,0,0-.427,7.427,10.646,10.646,0,0,0,21.1-1.994V275a.954.954,0,1,0-1.909,0v5.449a8.736,8.736,0,0,1-17.39,1.2.955.955,0,0,0-.629-.771,2.171,2.171,0,0,1-.821-3.585A2.143,2.143,0,0,1,3.3,276.8a2.174,2.174,0,0,1,2.31.487.954.954,0,0,0,.726.284,4.326,4.326,0,0,0,4.271-4.147H18.45a9.384,9.384,0,0,0,9.373-9.373A.955.955,0,0,0,26.869,263.094Z" transform="translate(0 -223.997)"/>
      <path id="Trazado_916674" data-name="Trazado 916674" d="M69.943,71.39a.954.954,0,0,0-.954.954,1.792,1.792,0,0,1-1.79,1.79h-6a.954.954,0,0,0-.712.319l-2.76,3.094V75.089a.954.954,0,0,0-.954-.954H43.293a1.792,1.792,0,0,1-1.79-1.79V60.273a1.792,1.792,0,0,1,1.79-1.79H61.545a.954.954,0,0,0,0-1.909H43.293a3.7,3.7,0,0,0-3.7,3.7V72.345a3.7,3.7,0,0,0,3.7,3.7H55.819v4.008a.955.955,0,0,0,1.667.635l4.142-4.644H67.2a3.7,3.7,0,0,0,3.7-3.7A.955.955,0,0,0,69.943,71.39Z" transform="translate(-34.68 -43.108)"/>
      <path id="Trazado_916675" data-name="Trazado 916675" d="M238.688,26.828h5.572l4.142,4.644a.955.955,0,0,0,1.667-.635V26.828h12.526a3.7,3.7,0,0,0,3.7-3.7V11.057a3.7,3.7,0,0,0-3.7-3.7h-2.17a.954.954,0,1,0,0,1.909h2.17a1.792,1.792,0,0,1,1.79,1.79V23.128a1.792,1.792,0,0,1-1.79,1.79h-13.48a.954.954,0,0,0-.954.954v2.459l-2.76-3.094a.955.955,0,0,0-.712-.319h-6a1.792,1.792,0,0,1-1.79-1.79V11.057a1.792,1.792,0,0,1,1.79-1.79H257.37a.954.954,0,0,0,0-1.909H238.688a3.7,3.7,0,0,0-3.7,3.7V23.129A3.7,3.7,0,0,0,238.688,26.828Z" transform="translate(-205.825)"/>
      <path id="Trazado_916676" data-name="Trazado 916676" d="M356.86,46.32H346.1a.954.954,0,0,0,0,1.909H356.86a.954.954,0,1,0,0-1.909Z" transform="translate(-302.309 -34.126)"/>
      <path id="Trazado_916677" data-name="Trazado 916677" d="M275.932,48.23h5.527a.954.954,0,1,0,0-1.909h-5.527a.954.954,0,1,0,0,1.909Z" transform="translate(-240.851 -34.127)"/>
      <path id="Trazado_916678" data-name="Trazado 916678" d="M409.4,77.849H406.08a.954.954,0,1,0,0,1.909H409.4a.954.954,0,1,0,0-1.909Z" transform="translate(-354.846 -61.742)"/>
      <path id="Trazado_916679" data-name="Trazado 916679" d="M275.932,79.759H288.9a.954.954,0,0,0,0-1.909H275.932a.954.954,0,1,0,0,1.909Z" transform="translate(-240.851 -61.743)"/>
      <path id="Trazado_916680" data-name="Trazado 916680" d="M275.932,111.287h13.543a.954.954,0,1,0,0-1.909H275.932a.954.954,0,1,0,0,1.909Z" transform="translate(-240.851 -89.358)"/>
      <path id="Trazado_916681" data-name="Trazado 916681" d="M78.042,94.369h5.527a.954.954,0,0,0,0-1.909H78.042a.954.954,0,1,0,0,1.909Z" transform="translate(-67.521 -74.54)"/>
      <path id="Trazado_916682" data-name="Trazado 916682" d="M158.931,94.369a.954.954,0,0,0,0-1.909H153.4a.954.954,0,0,0,0,1.909Z" transform="translate(-133.53 -74.54)"/>
      <path id="Trazado_916683" data-name="Trazado 916683" d="M78.042,123.988a.954.954,0,1,0,0,1.909H94.767a.954.954,0,1,0,0-1.909Z" transform="translate(-67.521 -102.155)"/>
      <path id="Trazado_916684" data-name="Trazado 916684" d="M125.651,155.517a.954.954,0,0,0,0,1.909h7.635a.954.954,0,1,0,0-1.909Z" transform="translate(-109.221 -129.771)"/>
      <path id="Trazado_916685" data-name="Trazado 916685" d="M78.042,155.517a.954.954,0,1,0,0,1.909h2.727a.954.954,0,0,0,0-1.909Z" transform="translate(-67.521 -129.771)"/>
      <path id="Trazado_916686" data-name="Trazado 916686" d="M368.126,342.181V340.7a.954.954,0,0,0-1.909,0v1.478a.954.954,0,1,0,1.909,0Z" transform="translate(-320.766 -291.138)"/>
      <path id="Trazado_916687" data-name="Trazado 916687" d="M337.157,342.181V340.7a.954.954,0,0,0-1.909,0v1.478a.954.954,0,1,0,1.909,0Z" transform="translate(-293.641 -291.138)"/>
      <path id="Trazado_916688" data-name="Trazado 916688" d="M362.944,391.813a.954.954,0,0,0,.952.9h.052a5.14,5.14,0,0,0,4.436-2.556.954.954,0,1,0-1.657-.947,3.277,3.277,0,0,1-2.881,1.6A.954.954,0,0,0,362.944,391.813Z" transform="translate(-317.899 -334.042)"/>
      <path id="Trazado_916689" data-name="Trazado 916689" d="M436.7,279.678c-.6-4.289-2.078-7.361-4.5-9.392a.954.954,0,0,0-1.225,1.464c2.047,1.714,3.3,4.395,3.839,8.195a28.9,28.9,0,0,1-3.333,17,7.8,7.8,0,0,1-3.308-4.22.954.954,0,1,0-1.82.574,9.717,9.717,0,0,0,5.137,5.81.954.954,0,0,0,1.185-.4C435.291,294.27,437.725,286.941,436.7,279.678Z" transform="translate(-373.396 -230.101)"/>
      <path id="Trazado_916690" data-name="Trazado 916690" d="M322.46,264.625a3.837,3.837,0,0,0-2.893-7.066v-.946a.955.955,0,0,0-1.277-.9,7.508,7.508,0,0,1-8.2-2.527.954.954,0,0,0-1.431-.093c-.774.774-2.681,1.088-4.085,1.14a4.707,4.707,0,0,1,.741-3.713c.99-1.293,2.868-1.949,5.582-1.949,3.111,0,6.373.088,9.066,1.142a.955.955,0,0,0,.7-1.778c-3-1.174-6.469-1.273-9.762-1.273-3.339,0-5.727.908-7.1,2.7a7.12,7.12,0,0,0-.913,6.079.955.955,0,0,0,.887.7,11.557,11.557,0,0,0,5.41-1.075,8.891,8.891,0,0,0,6.129,2.887,10.48,10.48,0,0,0,2.343-.134V259.2a.955.955,0,0,0,1.632.672,1.932,1.932,0,0,1,2.056-.434,1.928,1.928,0,0,1,.669,3.162,1.925,1.925,0,0,1-.729.46.955.955,0,0,0-.629.771,7.984,7.984,0,0,1-15.892-1.1v-4.315a.954.954,0,0,0-1.909,0v4.315a9.893,9.893,0,0,0,19.6,1.888Z" transform="translate(-265.034 -209.605)"/>
    </g>
  </g>
</svg>
