<svg xmlns="http://www.w3.org/2000/svg" xmlns:xlink="http://www.w3.org/1999/xlink" width="118" height="118" viewBox="0 0 118 118">
  <defs>
    <filter id="Trazado_896985" x="0" y="0" width="118" height="118" filterUnits="userSpaceOnUse">
      <feOffset dy="3" input="SourceAlpha"/>
      <feGaussianBlur stdDeviation="3" result="blur"/>
      <feFlood flood-opacity="0.161"/>
      <feComposite operator="in" in2="blur"/>
      <feComposite in="SourceGraphic"/>
    </filter>
  </defs>
  <g id="Grupo_1119312" data-name="Grupo 1119312" transform="translate(-899.051 -7797.184)">
    <g id="Grupo_1111318" data-name="Grupo 1111318" transform="translate(908.051 7803.184)">
      <g id="Grupo_1109826" data-name="Grupo 1109826" transform="translate(0 0)">
        <g id="Grupo_1098742" data-name="Grupo 1098742">
          <g transform="matrix(1, 0, 0, 1, -9, -6)" filter="url(#Trazado_896985)">
            <g id="Trazado_896985-2" data-name="Trazado 896985" transform="translate(9 6)" fill="#9ad354" opacity="0.859">
              <path d="M 49.99993515014648 98.5 C 43.45182037353516 98.5 37.10037612915039 97.21788024902344 31.12203598022461 94.68925476074219 C 25.34687805175781 92.24656677246094 20.15993499755859 88.74932098388672 15.70530700683594 84.29469299316406 C 11.25067806243896 79.84006500244141 7.753435134887695 74.65312194824219 5.310749530792236 68.87796783447266 C 2.782120943069458 62.89962387084961 1.500006556510925 56.54818344116211 1.500006556510925 50.00006866455078 C 1.500006556510925 43.45180892944336 2.782120943069458 37.10036849975586 5.310749530792236 31.12202453613281 C 7.753435134887695 25.34686851501465 11.25067806243896 20.15992546081543 15.70530700683594 15.70529651641846 C 20.15993499755859 11.25066757202148 25.34687805175781 7.753424644470215 31.12203598022461 5.310739040374756 C 37.10037612915039 2.782110452651978 43.45182037353516 1.499996185302734 49.99993515014648 1.499996185302734 C 56.54804992675781 1.499996185302734 62.89949417114258 2.782110452651978 68.87783813476562 5.310739040374756 C 74.65299224853516 7.753424644470215 79.83993530273438 11.25066757202148 84.29457855224609 15.70529651641846 C 88.74920654296875 20.15992546081543 92.24643707275391 25.34686851501465 94.68911743164062 31.12202453613281 C 97.21775054931641 37.10036849975586 98.4998779296875 43.45180892944336 98.4998779296875 49.99992370605469 C 98.4998779296875 56.54818344116211 97.21775054931641 62.89962387084961 94.68911743164062 68.87796783447266 C 92.24643707275391 74.65312194824219 88.74920654296875 79.84006500244141 84.29457855224609 84.29469299316406 C 79.83993530273438 88.74932098388672 74.65299224853516 92.24656677246094 68.87783813476562 94.68925476074219 C 62.89949417114258 97.21788024902344 56.54804992675781 98.5 49.99993515014648 98.5 Z" stroke="none"/>
              <path d="M 49.99993515014648 2.999992370605469 C 43.65365982055664 2.999992370605469 37.49881362915039 4.242256164550781 31.70636749267578 6.6922607421875 C 26.10999298095703 9.059318542480469 21.08332061767578 12.44859313964844 16.76596832275391 16.76596832275391 C 12.44859313964844 21.08332061767578 9.059318542480469 26.10999298095703 6.6922607421875 31.70636749267578 C 4.242256164550781 37.49880981445312 3 43.65365600585938 3 50.00005722045898 C 3 56.34633636474609 4.242256164550781 62.50118255615234 6.6922607421875 68.29362487792969 C 9.059318542480469 73.88999938964844 12.44859313964844 78.91667175292969 16.76596832275391 83.23402404785156 C 21.08332061767578 87.55139923095703 26.10999298095703 90.940673828125 31.70636749267578 93.30773162841797 C 37.49881362915039 95.75773620605469 43.65365982055664 97 49.99993515014648 97 C 56.34621047973633 97 62.50105667114258 95.75773620605469 68.29350280761719 93.30773162841797 C 73.88987731933594 90.940673828125 78.91654968261719 87.55139923095703 83.23390197753906 83.23402404785156 C 87.55126953125 78.91667175292969 90.9405517578125 73.88999938964844 93.30760955810547 68.29362487792969 C 95.75761413574219 62.50118255615234 96.99987030029297 56.34633636474609 96.99987030029297 49.99993515014648 C 96.99987030029297 43.65365600585938 95.75761413574219 37.49880981445312 93.30760955810547 31.70636749267578 C 90.9405517578125 26.10999298095703 87.55126953125 21.08332061767578 83.23390197753906 16.76596832275391 C 78.91654968261719 12.44859313964844 73.88987731933594 9.059318542480469 68.29350280761719 6.6922607421875 C 62.50105667114258 4.242256164550781 56.34621047973633 2.999992370605469 49.99993515014648 2.999992370605469 M 49.99993515014648 -7.62939453125e-06 C 77.6141357421875 -7.62939453125e-06 99.99987030029297 22.38573455810547 99.99987030029297 49.99993515014648 L 99.99987030029297 50.00005722045898 C 99.99987030029297 77.6142578125 77.6141357421875 100 49.99993515014648 100 C 22.38573455810547 100 0 77.6142578125 0 50.00005722045898 L 0 49.99993515014648 C 0 22.38573455810547 22.38573455810547 -7.62939453125e-06 49.99993515014648 -7.62939453125e-06 Z" stroke="none" fill="#fff"/>
            </g>
          </g>
          <g id="Rectángulo_400907" data-name="Rectángulo 400907" transform="translate(0)" fill="none" stroke="#fff" stroke-width="3">
            <rect width="100" height="100" rx="50" stroke="none"/>
            <rect x="1.5" y="1.5" width="97" height="97" rx="48.5" fill="none"/>
          </g>
        </g>
      </g>
    </g>
    <g id="Grupo_1119311" data-name="Grupo 1119311" transform="translate(926.051 7821)">
      <g id="Grupo_1119309" data-name="Grupo 1119309">
        <g id="Grupo_1119291" data-name="Grupo 1119291">
          <path id="Trazado_916704" data-name="Trazado 916704" d="M45,58H55V56l1.79.89A4.02,4.02,0,0,1,59,60.47V62H41V60.47a4.02,4.02,0,0,1,2.21-3.58L45,56Z" fill="#ff826e"/>
        </g>
        <g id="Grupo_1119292" data-name="Grupo 1119292">
          <path id="Trazado_916705" data-name="Trazado 916705" d="M41,60.88V62H23V60.88a3.987,3.987,0,0,1,2.74-3.79L29,56h6l3.26,1.09A3.987,3.987,0,0,1,41,60.88Z" fill="#fcd770"/>
        </g>
        <g id="Grupo_1119293" data-name="Grupo 1119293">
          <path id="Trazado_916706" data-name="Trazado 916706" d="M20.79,56.89A4.02,4.02,0,0,1,23,60.47V62H5V60.47a4.02,4.02,0,0,1,2.21-3.58L9,56v2H19V56Z" fill="#b4dd7f"/>
        </g>
        <g id="Grupo_1119294" data-name="Grupo 1119294">
          <ellipse id="Elipse_11862" data-name="Elipse 11862" cx="30" cy="8" rx="30" ry="8" transform="translate(2 36)" fill="#d3a06c"/>
        </g>
        <g id="Grupo_1119295" data-name="Grupo 1119295">
          <path id="Trazado_916707" data-name="Trazado 916707" d="M41,38V48H37l-.1.01A5,5,0,0,0,27.1,48H23V34h9.77A2.965,2.965,0,0,0,32,36v2h9Z" fill="#e6e9ed"/>
        </g>
        <g id="Grupo_1119296" data-name="Grupo 1119296">
          <path id="Trazado_916708" data-name="Trazado 916708" d="M19,56v2H9V49a5,5,0,1,1,10,0v7Z" fill="#656d78"/>
        </g>
        <g id="Grupo_1119297" data-name="Grupo 1119297">
          <path id="Trazado_916709" data-name="Trazado 916709" d="M36.9,48.01A4.619,4.619,0,0,1,37,49a12.3,12.3,0,0,1-.34,2.9,12.654,12.654,0,0,1-1,2.78L35,56H29l-.66-1.32a12.654,12.654,0,0,1-1-2.78A12.3,12.3,0,0,1,27,49a4.712,4.712,0,0,1,.1-1,5,5,0,0,1,9.8.01Z" fill="#656d78"/>
        </g>
        <g id="Grupo_1119298" data-name="Grupo 1119298">
          <path id="Trazado_916710" data-name="Trazado 916710" d="M55,56v2H45V49a5,5,0,0,1,10,0v7Z" fill="#656d78"/>
        </g>
        <g id="Grupo_1119299" data-name="Grupo 1119299">
          <path id="Trazado_916711" data-name="Trazado 916711" d="M16,6v5.05a2.527,2.527,0,0,0-1.5.95H10v2.76a1.236,1.236,0,0,1-2.34.56L6,12H4a2.006,2.006,0,0,1-2-2V6A2.006,2.006,0,0,1,4,4H14A2.006,2.006,0,0,1,16,6Z" fill="#e6e9ed"/>
        </g>
        <g id="Grupo_1119300" data-name="Grupo 1119300">
          <path id="Trazado_916712" data-name="Trazado 916712" d="M62,15v4a2.006,2.006,0,0,1-2,2H58l-1.66,3.32A1.236,1.236,0,0,1,54,23.76V21H50a2.006,2.006,0,0,1-2-2V15a2.006,2.006,0,0,1,2-2H60A2.006,2.006,0,0,1,62,15Z" fill="#e6e9ed"/>
        </g>
        <g id="Grupo_1119301" data-name="Grupo 1119301">
          <path id="Trazado_916713" data-name="Trazado 916713" d="M35.19,4h1.15a5.663,5.663,0,0,1,5.06,8.2l-.93,1.86A1.835,1.835,0,0,0,40,14H38V12h-.17A6.835,6.835,0,0,1,33,10l-.02.02A6.829,6.829,0,0,1,28.17,12H28v2H26a1.835,1.835,0,0,0-.47.06l-.41-.82A10.557,10.557,0,0,1,24,8.5,6.5,6.5,0,0,1,35.19,4Z" fill="#656d78"/>
        </g>
        <g id="Grupo_1119302" data-name="Grupo 1119302">
          <path id="Trazado_916714" data-name="Trazado 916714" d="M46,35a3.019,3.019,0,0,1-3,3H38V33H35a2.94,2.94,0,0,0-2.23,1H25V30H19.12A5.121,5.121,0,0,1,14,24.88V17h5v6.1A1.9,1.9,0,0,0,20.9,25a1.408,1.408,0,0,0,.2-.01L30,24l.37,1.1a2.77,2.77,0,0,0,5.26,0L36,24l6.4.64A4,4,0,0,1,46,28.62Z" fill="#4fc1e9"/>
        </g>
        <g id="Grupo_1119303" data-name="Grupo 1119303">
          <path id="Trazado_916715" data-name="Trazado 916715" d="M19,13.5V17H14V13.5a2.5,2.5,0,0,1,2-2.45,2.734,2.734,0,0,1,.5-.05A2.492,2.492,0,0,1,19,13.5Z" fill="#f0d0b4"/>
        </g>
        <g id="Grupo_1119304" data-name="Grupo 1119304">
          <path id="Trazado_916716" data-name="Trazado 916716" d="M38,33v5H32V36a3.011,3.011,0,0,1,3-3Z" fill="#f0d0b4"/>
        </g>
        <g id="Grupo_1119305" data-name="Grupo 1119305">
          <path id="Trazado_916717" data-name="Trazado 916717" d="M40.47,14.06A1.994,1.994,0,0,1,42,16a2.015,2.015,0,0,1-2,2H37.9a4.712,4.712,0,0,0,.1-1V14h2a1.835,1.835,0,0,1,.47.06Z" fill="#f0d0b4"/>
        </g>
        <g id="Grupo_1119306" data-name="Grupo 1119306">
          <path id="Trazado_916718" data-name="Trazado 916718" d="M30.7,21.44,33,22a4.949,4.949,0,0,0,2.3-.56L36,24l-.37,1.1a2.77,2.77,0,0,1-5.26,0L30,24Z" fill="#f0d0b4"/>
        </g>
        <g id="Grupo_1119307" data-name="Grupo 1119307">
          <path id="Trazado_916719" data-name="Trazado 916719" d="M38,14v3a4.712,4.712,0,0,1-.1,1,5,5,0,0,1-2.6,3.44A4.949,4.949,0,0,1,33,22l-2.3-.56A4.943,4.943,0,0,1,28.1,18a4.712,4.712,0,0,1-.1-1V12h.17a6.829,6.829,0,0,0,4.81-1.98L33,10a6.835,6.835,0,0,0,4.83,2H38Z" fill="#f0d0b4"/>
        </g>
        <g id="Grupo_1119308" data-name="Grupo 1119308">
          <path id="Trazado_916720" data-name="Trazado 916720" d="M28,14v3a4.712,4.712,0,0,0,.1,1H26a2.006,2.006,0,0,1-2-2,1.955,1.955,0,0,1,.59-1.41,1.881,1.881,0,0,1,.94-.53A1.835,1.835,0,0,1,26,14Z" fill="#f0d0b4"/>
        </g>
      </g>
      <g id="Grupo_1119310" data-name="Grupo 1119310">
        <path id="Trazado_916721" data-name="Trazado 916721" d="M5,7h8V9H5Z"/>
        <path id="Trazado_916722" data-name="Trazado 916722" d="M60,12H50a3,3,0,0,0-3,3v4a3,3,0,0,0,3,3h3v1.764a2.236,2.236,0,0,0,4.236,1L58.618,22H60a3,3,0,0,0,3-3V15A3,3,0,0,0,60,12Zm1,7a1,1,0,0,1-1,1H57.382l-1.934,3.868a.245.245,0,0,1-.448-.1V20H50a1,1,0,0,1-1-1V15a1,1,0,0,1,1-1H60a1,1,0,0,1,1,1Z"/>
        <path id="Trazado_916723" data-name="Trazado 916723" d="M51,16h8v2H51Z"/>
        <path id="Trazado_916724" data-name="Trazado 916724" d="M46.846,36.037A3.91,3.91,0,0,0,47,35V28.62a4.987,4.987,0,0,0-4.5-4.976l-5.716-.571-.324-1.179A6.026,6.026,0,0,0,38.649,19H40a2.99,2.99,0,0,0,1.807-5.379l.49-.98A6.662,6.662,0,0,0,36.337,3h-.755A7.488,7.488,0,0,0,23,8.5a11.644,11.644,0,0,0,1.2,5.119A2.989,2.989,0,0,0,26,19h1.35a6.022,6.022,0,0,0,2.191,2.894l-.326,1.187L20.9,24a.9.9,0,0,1-.9-.9V13.5a3.494,3.494,0,0,0-3-3.449V6a3,3,0,0,0-3-3H4A3,3,0,0,0,1,6v4a3,3,0,0,0,3,3H5.382l1.383,2.765a2.236,2.236,0,0,0,4.235-1V13h2.051a3.443,3.443,0,0,0-.051.5V24.879A6.122,6.122,0,0,0,19.121,31H24v2H22v2.452C11.679,36.417,1,39.135,1,44c0,2.3,2.358,4.271,7,5.857v5.525L6.764,56A4.974,4.974,0,0,0,4,60.472V63H60V60.472A4.975,4.975,0,0,0,57.236,56L56,55.382V49.857C60.642,48.271,63,46.3,63,44c0-4.851-10.406-7.1-16.154-7.963ZM40,17H39V15h1a1,1,0,0,1,0,2ZM26,17a1,1,0,0,1,0-2h1v2Zm2.172-6H27v2h-.882l-.106-.211A9.659,9.659,0,0,1,25,8.5a5.5,5.5,0,0,1,11,0V9h2V8.5a7.453,7.453,0,0,0-.831-3.416,4.655,4.655,0,0,1,3.339,6.664L39.882,13H39V11H37.828a5.868,5.868,0,0,1-4.121-1.707l-.725-.684-.707.7A5.8,5.8,0,0,1,28.172,11ZM29,12.957a7.769,7.769,0,0,0,4-1.625,7.913,7.913,0,0,0,4,1.623V17a4,4,0,0,1-8,0ZM33,23a5.981,5.981,0,0,0,1.626-.23l.329,1.2-.271.815a1.775,1.775,0,0,1-3.368,0l-.271-.815.329-1.2A5.981,5.981,0,0,0,33,23ZM18,13.5V16H15V13.5a1.5,1.5,0,0,1,3,0ZM9,11v3.764a.244.244,0,0,1-.447.1L6.618,11H4a1,1,0,0,1-1-1V6A1,1,0,0,1,4,5H14a1,1,0,0,1,1,1v4.351a3.516,3.516,0,0,0-.942.649ZM19.121,29a4.1,4.1,0,0,1-2.914-1.207A4.151,4.151,0,0,1,15,24.879V18h3v5.1A2.9,2.9,0,0,0,20.9,26a2.816,2.816,0,0,0,.319-.018l8.092-.9.112.336a3.775,3.775,0,0,0,7.163,0l.115-.344,5.6.56A2.99,2.99,0,0,1,45,28.62V35a2,2,0,0,1-2,2H39V34h.758a2.015,2.015,0,0,1,1.414.586l1.121,1.121,1.414-1.414-1.121-1.121a3.96,3.96,0,0,0-.586-.48V28H40v4.024c-.081-.005-.161-.024-.242-.024H35a3.962,3.962,0,0,0-2.618,1H26V29ZM33,37V36a2,2,0,0,1,2-2h2v3Zm-9-2h7.142A3.939,3.939,0,0,0,31,36v3h9v8H37.65a5.99,5.99,0,0,0-11.3,0H24ZM44,55.382,42.764,56a5,5,0,0,0-1.922,1.7,4.977,4.977,0,0,0-2.261-1.564l-2.171-.723.143-.285a13.616,13.616,0,0,0,.865-2.264c2.267-.11,4.471-.288,6.582-.531ZM23.158,57.7A4.981,4.981,0,0,0,21.236,56L20,55.382V52.336c2.111.243,4.315.421,6.582.531a13.67,13.67,0,0,0,.865,2.264l.143.285-2.171.723A4.983,4.983,0,0,0,23.158,57.7Zm6.078-3.467A11.769,11.769,0,0,1,28,49a4,4,0,0,1,8,0,11.769,11.769,0,0,1-1.236,5.236L34.382,55H29.618ZM3,44c0-2.334,6.661-5.361,19-6.534V49h4a13.68,13.68,0,0,0,.138,1.841c-2.115-.113-4.17-.287-6.138-.519V49A6,6,0,0,0,8.126,47.778C4.9,46.6,3,45.221,3,44Zm15,5v8H10V49a4,4,0,0,1,8,0Zm4,12H6v-.528a2.986,2.986,0,0,1,1.658-2.683L8,57.618V59H20V57.618l.342.171A2.986,2.986,0,0,1,22,60.472V61Zm18,0H24v-.117a3,3,0,0,1,2.052-2.847L29.161,57h5.678l3.109,1.036A3,3,0,0,1,40,60.883Zm16.342-3.211A2.986,2.986,0,0,1,58,60.472V61H42v-.528a2.986,2.986,0,0,1,1.658-2.683L44,57.618V59H56V57.618ZM46,57V49a4,4,0,0,1,8,0v8Zm9.874-9.222A6,6,0,0,0,44,49v1.322c-1.968.232-4.023.406-6.138.519A13.68,13.68,0,0,0,38,49h4V39h1a3.973,3.973,0,0,0,2.738-1.1C55.753,39.3,61,42.008,61,44,61,45.221,59.1,46.6,55.874,47.778Z"/>
        <path id="Trazado_916725" data-name="Trazado 916725" d="M26,37h3v2H26Z"/>
        <path id="Trazado_916726" data-name="Trazado 916726" d="M36,41h2v2H36Z"/>
      </g>
    </g>
  </g>
</svg>
