<svg xmlns="http://www.w3.org/2000/svg" xmlns:xlink="http://www.w3.org/1999/xlink" width="118" height="118" viewBox="0 0 118 118">
  <defs>
    <filter id="Trazado_896985" x="0" y="0" width="118" height="118" filterUnits="userSpaceOnUse">
      <feOffset dy="3" input="SourceAlpha"/>
      <feGaussianBlur stdDeviation="3" result="blur"/>
      <feFlood flood-opacity="0.161"/>
      <feComposite operator="in" in2="blur"/>
      <feComposite in="SourceGraphic"/>
    </filter>
  </defs>
  <g id="Grupo_1119340" data-name="Grupo 1119340" transform="translate(-1213.051 -7797.184)">
    <g id="Grupo_1111318" data-name="Grupo 1111318" transform="translate(1222.051 7803.184)">
      <g id="Grupo_1109826" data-name="Grupo 1109826" transform="translate(0 0)">
        <g id="Grupo_1098742" data-name="Grupo 1098742">
          <g transform="matrix(1, 0, 0, 1, -9, -6)" filter="url(#Trazado_896985)">
            <g id="Trazado_896985-2" data-name="Trazado 896985" transform="translate(9 6)" fill="#9ad354" opacity="0.859">
              <path d="M 49.99993515014648 98.5 C 43.45182037353516 98.5 37.10037612915039 97.21788024902344 31.12203598022461 94.68925476074219 C 25.34687805175781 92.24656677246094 20.15993499755859 88.74932098388672 15.70530700683594 84.29469299316406 C 11.25067806243896 79.84006500244141 7.753435134887695 74.65312194824219 5.310749530792236 68.87796783447266 C 2.782120943069458 62.89962387084961 1.500006556510925 56.54818344116211 1.500006556510925 50.00006866455078 C 1.500006556510925 43.45180892944336 2.782120943069458 37.10036849975586 5.310749530792236 31.12202453613281 C 7.753435134887695 25.34686851501465 11.25067806243896 20.15992546081543 15.70530700683594 15.70529651641846 C 20.15993499755859 11.25066757202148 25.34687805175781 7.753424644470215 31.12203598022461 5.310739040374756 C 37.10037612915039 2.782110452651978 43.45182037353516 1.499996185302734 49.99993515014648 1.499996185302734 C 56.54804992675781 1.499996185302734 62.89949417114258 2.782110452651978 68.87783813476562 5.310739040374756 C 74.65299224853516 7.753424644470215 79.83993530273438 11.25066757202148 84.29457855224609 15.70529651641846 C 88.74920654296875 20.15992546081543 92.24643707275391 25.34686851501465 94.68911743164062 31.12202453613281 C 97.21775054931641 37.10036849975586 98.4998779296875 43.45180892944336 98.4998779296875 49.99992370605469 C 98.4998779296875 56.54818344116211 97.21775054931641 62.89962387084961 94.68911743164062 68.87796783447266 C 92.24643707275391 74.65312194824219 88.74920654296875 79.84006500244141 84.29457855224609 84.29469299316406 C 79.83993530273438 88.74932098388672 74.65299224853516 92.24656677246094 68.87783813476562 94.68925476074219 C 62.89949417114258 97.21788024902344 56.54804992675781 98.5 49.99993515014648 98.5 Z" stroke="none"/>
              <path d="M 49.99993515014648 2.999992370605469 C 43.65365982055664 2.999992370605469 37.49881362915039 4.242256164550781 31.70636749267578 6.6922607421875 C 26.10999298095703 9.059318542480469 21.08332061767578 12.44859313964844 16.76596832275391 16.76596832275391 C 12.44859313964844 21.08332061767578 9.059318542480469 26.10999298095703 6.6922607421875 31.70636749267578 C 4.242256164550781 37.49880981445312 3 43.65365600585938 3 50.00005722045898 C 3 56.34633636474609 4.242256164550781 62.50118255615234 6.6922607421875 68.29362487792969 C 9.059318542480469 73.88999938964844 12.44859313964844 78.91667175292969 16.76596832275391 83.23402404785156 C 21.08332061767578 87.55139923095703 26.10999298095703 90.940673828125 31.70636749267578 93.30773162841797 C 37.49881362915039 95.75773620605469 43.65365982055664 97 49.99993515014648 97 C 56.34621047973633 97 62.50105667114258 95.75773620605469 68.29350280761719 93.30773162841797 C 73.88987731933594 90.940673828125 78.91654968261719 87.55139923095703 83.23390197753906 83.23402404785156 C 87.55126953125 78.91667175292969 90.9405517578125 73.88999938964844 93.30760955810547 68.29362487792969 C 95.75761413574219 62.50118255615234 96.99987030029297 56.34633636474609 96.99987030029297 49.99993515014648 C 96.99987030029297 43.65365600585938 95.75761413574219 37.49880981445312 93.30760955810547 31.70636749267578 C 90.9405517578125 26.10999298095703 87.55126953125 21.08332061767578 83.23390197753906 16.76596832275391 C 78.91654968261719 12.44859313964844 73.88987731933594 9.059318542480469 68.29350280761719 6.6922607421875 C 62.50105667114258 4.242256164550781 56.34621047973633 2.999992370605469 49.99993515014648 2.999992370605469 M 49.99993515014648 -7.62939453125e-06 C 77.6141357421875 -7.62939453125e-06 99.99987030029297 22.38573455810547 99.99987030029297 49.99993515014648 L 99.99987030029297 50.00005722045898 C 99.99987030029297 77.6142578125 77.6141357421875 100 49.99993515014648 100 C 22.38573455810547 100 0 77.6142578125 0 50.00005722045898 L 0 49.99993515014648 C 0 22.38573455810547 22.38573455810547 -7.62939453125e-06 49.99993515014648 -7.62939453125e-06 Z" stroke="none" fill="#fff"/>
            </g>
          </g>
          <g id="Rectángulo_400907" data-name="Rectángulo 400907" transform="translate(0)" fill="none" stroke="#fff" stroke-width="3">
            <rect width="100" height="100" rx="50" stroke="none"/>
            <rect x="1.5" y="1.5" width="97" height="97" rx="48.5" fill="none"/>
          </g>
        </g>
      </g>
    </g>
    <g id="Grupo_1119339" data-name="Grupo 1119339" transform="translate(1243.254 7824.203)">
      <g id="Grupo_1119337" data-name="Grupo 1119337" transform="translate(0.929 0.929)">
        <g id="Grupo_1119313" data-name="Grupo 1119313" transform="translate(1.626 15.929)">
          <path id="Trazado_916727" data-name="Trazado 916727" d="M38.953,153.4l-4.868,2.782a7.09,7.09,0,0,1-9.325-2.09L22,150.152l4.412-2.941,3.251,4.335,3.659-2.44a26.318,26.318,0,0,1,9.524-3.926l.751,4.508,4.645-1.858,4.645,1.858.751-4.508a26.317,26.317,0,0,1,9.524,3.926l3.659,2.44,3.251-4.335,4.412,2.941-2.76,3.943a7.091,7.091,0,0,1-9.325,2.09L57.532,153.4v10.088a5.772,5.772,0,0,0-.929,3.149,5.806,5.806,0,0,0-5.806-5.806H45.688a5.806,5.806,0,0,0-5.806,5.806v3.484a1.857,1.857,0,0,0-1.556-1.833l.381-1.144a4.807,4.807,0,0,0,.246-1.516Z" transform="translate(-22 -145.18)" fill="#b4dd7f"/>
        </g>
        <g id="Grupo_1119314" data-name="Grupo 1119314" transform="translate(22.294 14.863)">
          <path id="Trazado_916728" data-name="Trazado 916728" d="M211.147,136l-.178,1.066-.751,4.508-4.645-1.858-4.645,1.858-.751-4.508L200,136h3.716l1.858,2.787L207.431,136Z" transform="translate(-200 -136)" fill="#a0d468"/>
        </g>
        <g id="Grupo_1119315" data-name="Grupo 1119315" transform="translate(3.716 31.584)">
          <path id="Trazado_916729" data-name="Trazado 916729" d="M54.863,284.8a4.807,4.807,0,0,1-.246,1.517l-.381,1.144a1.86,1.86,0,0,0-.3-.024H51.828a1.875,1.875,0,0,0-.295-.386,1.856,1.856,0,0,0-1.314-.543,9.2,9.2,0,0,1-5.106-1.546l-.468-.312-.831.416a1.857,1.857,0,0,0-1.026,1.662v.709H40.929a1.861,1.861,0,0,0-.3.024l-.381-1.144A4.8,4.8,0,0,1,44.8,280h5.272A4.8,4.8,0,0,1,54.863,284.8Z" transform="translate(-40 -280)" fill="#656d78"/>
        </g>
        <g id="Grupo_1119316" data-name="Grupo 1119316" transform="translate(19.508 48.305)">
          <path id="Trazado_916730" data-name="Trazado 916730" d="M192.483,429.531l.238,1.9H176l.238-1.9a6.283,6.283,0,0,1,1.557-3.423,6.131,6.131,0,0,1,.529-.527A6.294,6.294,0,0,1,182.5,424l1.858,1.858L186.218,424a6.315,6.315,0,0,1,6.264,5.531Z" transform="translate(-176 -424)" fill="#e6e9ed"/>
        </g>
        <g id="Grupo_1119317" data-name="Grupo 1119317" transform="translate(2.787 48.305)">
          <path id="Trazado_916731" data-name="Trazado 916731" d="M42.218,424a6.313,6.313,0,0,1,6.264,5.531l.238,1.9H32l.238-1.9A6.313,6.313,0,0,1,38.5,424l1.858,1.858Z" transform="translate(-32 -424)" fill="#fcd770"/>
        </g>
        <g id="Grupo_1119318" data-name="Grupo 1119318" transform="translate(29.726 40.873)">
          <path id="Trazado_916732" data-name="Trazado 916732" d="M270.5,360v5.341a5.785,5.785,0,0,1-1.8,4.2A6.3,6.3,0,0,0,264,367.431v-1.858a4.077,4.077,0,0,0,2.783-3.716h1.861A1.855,1.855,0,0,0,270.5,360Z" transform="translate(-264 -360)" fill="#b27946"/>
        </g>
        <g id="Grupo_1119319" data-name="Grupo 1119319" transform="translate(19.508 40.873)">
          <path id="Trazado_916733" data-name="Trazado 916733" d="M182.5,365.574v1.858a6.294,6.294,0,0,0-4.178,1.58,6.131,6.131,0,0,0-.529.527,5.785,5.785,0,0,1-1.8-4.2V360a1.855,1.855,0,0,0,1.858,1.858h1.861A4.073,4.073,0,0,0,182.5,365.574Z" transform="translate(-176 -360)" fill="#b27946"/>
        </g>
        <g id="Grupo_1119320" data-name="Grupo 1119320" transform="translate(19.508 31.584)">
          <path id="Trazado_916734" data-name="Trazado 916734" d="M192.721,285.806v3.483a1.857,1.857,0,0,0-1.858-1.858h-1.858V286.5a.929.929,0,0,0-.929-.929,4.486,4.486,0,0,1-3.171-1.313l-.545-.545-.545.545a4.486,4.486,0,0,1-3.171,1.313.928.928,0,0,0-.929.929v.929h-1.858A1.857,1.857,0,0,0,176,289.289v-3.483A5.806,5.806,0,0,1,181.806,280h5.109A5.806,5.806,0,0,1,192.721,285.806Z" transform="translate(-176 -280)" fill="#b27946"/>
        </g>
        <g id="Grupo_1119321" data-name="Grupo 1119321" transform="translate(46.447 40.873)">
          <path id="Trazado_916735" data-name="Trazado 916735" d="M414.5,360v3.019a6.262,6.262,0,0,1-2.492,5,4.192,4.192,0,0,0-2.153-.592A1.857,1.857,0,0,1,408,365.574a4.077,4.077,0,0,0,2.783-3.716h1.861A1.855,1.855,0,0,0,414.5,360Z" transform="translate(-408 -360)" fill="#fcd770"/>
        </g>
        <g id="Grupo_1119322" data-name="Grupo 1119322" transform="translate(36.228 40.873)">
          <path id="Trazado_916736" data-name="Trazado 916736" d="M320,360v3.019a6.262,6.262,0,0,0,2.492,5,4.192,4.192,0,0,1,2.153-.592,1.857,1.857,0,0,0,1.858-1.858,4.077,4.077,0,0,1-2.783-3.716h-1.861A1.855,1.855,0,0,1,320,360Z" transform="translate(-320 -360)" fill="#fcd770"/>
        </g>
        <g id="Grupo_1119323" data-name="Grupo 1119323" transform="translate(36.228 31.584)">
          <path id="Trazado_916737" data-name="Trazado 916737" d="M320.929,282.657A5.8,5.8,0,0,1,325.806,280h5.109a5.806,5.806,0,0,1,5.806,5.806v3.483a1.857,1.857,0,0,0-1.858-1.858h-1.858l-.224.043a1.856,1.856,0,0,0-1.634-.972,9.2,9.2,0,0,1-5.106-1.546l-.468-.312-.831.416a1.857,1.857,0,0,0-1.026,1.662v.709h-1.858A1.857,1.857,0,0,0,320,289.289v-3.483A5.772,5.772,0,0,1,320.929,282.657Z" transform="translate(-320 -280)" fill="#fcd770"/>
        </g>
        <g id="Grupo_1119324" data-name="Grupo 1119324" transform="translate(36.228 48.305)">
          <path id="Trazado_916738" data-name="Trazado 916738" d="M332.076,424a4.209,4.209,0,0,1,4.177,3.688l.468,3.744H320l.468-3.744A4.211,4.211,0,0,1,324.645,424a8.555,8.555,0,0,0,3.373,4.416l.343.229.343-.229A8.555,8.555,0,0,0,332.076,424Z" transform="translate(-320 -424)" fill="#f29ed0"/>
        </g>
        <g id="Grupo_1119325" data-name="Grupo 1119325" transform="translate(15.543 39.015)">
          <path id="Trazado_916739" data-name="Trazado 916739" d="M142.108,347.716h0c0-.05,0-.1,0-.151v-2.636a1.848,1.848,0,0,0-.248-.929h2.106a1.858,1.858,0,1,1,0,3.716Z" transform="translate(-141.86 -344)" fill="#f0d0b4"/>
        </g>
        <g id="Grupo_1119326" data-name="Grupo 1119326" transform="translate(6.503 36.228)">
          <path id="Trazado_916740" data-name="Trazado 916740" d="M73.289,323.716v2.636c0,.051,0,.1,0,.151a4.073,4.073,0,0,1-2.783,3.716v1.858l-1.858,1.858-1.858-1.858v-1.858A4.077,4.077,0,0,1,64,326.5c0-.05,0-.1,0-.151v-4.274a1.857,1.857,0,0,1,1.026-1.662l.831-.416.468.312a9.2,9.2,0,0,0,5.106,1.546,1.856,1.856,0,0,1,1.314.543,1.877,1.877,0,0,1,.295.385A1.848,1.848,0,0,1,73.289,323.716Z" transform="translate(-64 -320)" fill="#f0d0b4"/>
        </g>
        <g id="Grupo_1119327" data-name="Grupo 1119327" transform="translate(2.787 39.015)">
          <path id="Trazado_916741" data-name="Trazado 916741" d="M35.716,347.565c0,.051,0,.1,0,.151H33.858a1.858,1.858,0,1,1,0-3.716h1.858Z" transform="translate(-32 -344)" fill="#f0d0b4"/>
        </g>
        <g id="Grupo_1119328" data-name="Grupo 1119328" transform="translate(32.509 39.015)">
          <path id="Trazado_916742" data-name="Trazado 916742" d="M287.973,347.565V344h1.858a1.858,1.858,0,1,1,0,3.716H287.97C287.972,347.666,287.973,347.616,287.973,347.565Z" transform="translate(-287.97 -344)" fill="#f0d0b4"/>
        </g>
        <g id="Grupo_1119329" data-name="Grupo 1119329" transform="translate(23.223 35.299)">
          <path id="Trazado_916743" data-name="Trazado 916743" d="M217.289,315.716v3.565c0,.051,0,.1,0,.151a4.077,4.077,0,0,1-2.783,3.716v1.858l-1.858,1.858-1.858-1.858v-1.858A4.073,4.073,0,0,1,208,319.431c0-.05,0-.1,0-.151v-4.494a.928.928,0,0,1,.929-.929,4.486,4.486,0,0,0,3.171-1.313l.545-.545.545.545a4.486,4.486,0,0,0,3.171,1.313.929.929,0,0,1,.929.929Z" transform="translate(-208 -312)" fill="#f0d0b4"/>
        </g>
        <g id="Grupo_1119330" data-name="Grupo 1119330" transform="translate(19.508 39.015)">
          <path id="Trazado_916744" data-name="Trazado 916744" d="M179.716,347.565c0,.051,0,.1,0,.151h-1.861a1.858,1.858,0,0,1,0-3.716h1.858Z" transform="translate(-176 -344)" fill="#f0d0b4"/>
        </g>
        <g id="Grupo_1119331" data-name="Grupo 1119331" transform="translate(49.009 39.015)">
          <path id="Trazado_916745" data-name="Trazado 916745" d="M430.294,347.565v-2.636a1.855,1.855,0,0,0-.224-.886l.224-.043h1.858a1.858,1.858,0,1,1,0,3.716h-1.861C430.293,347.666,430.294,347.616,430.294,347.565Z" transform="translate(-430.07 -344)" fill="#f0d0b4"/>
        </g>
        <g id="Grupo_1119332" data-name="Grupo 1119332" transform="translate(36.228 39.015)">
          <path id="Trazado_916746" data-name="Trazado 916746" d="M323.716,347.565c0,.051,0,.1,0,.151h-1.861a1.858,1.858,0,0,1,0-3.716h1.858Z" transform="translate(-320 -344)" fill="#f0d0b4"/>
        </g>
        <g id="Grupo_1119333" data-name="Grupo 1119333" transform="translate(39.944 36.228)">
          <path id="Trazado_916747" data-name="Trazado 916747" d="M361.289,323.716v2.636c0,.051,0,.1,0,.151a4.077,4.077,0,0,1-2.783,3.716,1.857,1.857,0,0,0,1.858,1.858,8.555,8.555,0,0,1-3.373,4.416l-.343.229-.343-.229a8.555,8.555,0,0,1-3.373-4.416,1.855,1.855,0,0,0,1.858-1.858A4.073,4.073,0,0,1,352,326.5c0-.05,0-.1,0-.151v-4.274a1.857,1.857,0,0,1,1.026-1.662l.831-.416.468.312a9.206,9.206,0,0,0,5.106,1.546,1.856,1.856,0,0,1,1.858,1.858Z" transform="translate(-352 -320)" fill="#f0d0b4"/>
        </g>
        <g id="Grupo_1119334" data-name="Grupo 1119334" transform="translate(49.698 14.863)">
          <path id="Trazado_916748" data-name="Trazado 916748" d="M442.038,138.477a3.932,3.932,0,0,1-.711,2.254l-.915,1.307L436,139.1l1.579-2.106a2.477,2.477,0,0,1,4.459,1.486Z" transform="translate(-436 -136)" fill="#f0d0b4"/>
        </g>
        <g id="Grupo_1119335" data-name="Grupo 1119335" transform="translate(0 14.863)">
          <path id="Trazado_916749" data-name="Trazado 916749" d="M12.459,136.99l1.579,2.106-4.412,2.941-.915-1.307A3.931,3.931,0,0,1,8,138.477a2.477,2.477,0,0,1,4.459-1.486Z" transform="translate(-8 -136)" fill="#f0d0b4"/>
        </g>
        <g id="Grupo_1119336" data-name="Grupo 1119336" transform="translate(14.863)">
          <path id="Trazado_916750" data-name="Trazado 916750" d="M162.01,9.858V21.005a1.857,1.857,0,0,1-1.858,1.858h-9.289l-1.858,2.787-1.858-2.787h-9.289A1.857,1.857,0,0,1,136,21.005V9.858A1.857,1.857,0,0,1,137.858,8h22.294A1.857,1.857,0,0,1,162.01,9.858Z" transform="translate(-136 -8)" fill="#e6e9ed"/>
        </g>
      </g>
      <g id="Grupo_1119338" data-name="Grupo 1119338" transform="translate(0 0)">
        <path id="Trazado_916751" data-name="Trazado 916751" d="M229.787,370.615a1.314,1.314,0,0,1-1.858,0l-.272-.272-1.314,1.314.272.272a3.172,3.172,0,0,0,4.485,0l.272-.272-1.314-1.314Z" transform="translate(-200.061 -327.34)"/>
        <path id="Trazado_916752" data-name="Trazado 916752" d="M373.787,370.615a1.314,1.314,0,0,1-1.858,0l-.272-.272-1.314,1.314.272.272a3.172,3.172,0,0,0,4.485,0l.272-.272-1.314-1.314Z" transform="translate(-327.34 -327.34)"/>
        <path id="Trazado_916753" data-name="Trazado 916753" d="M87.1,371.929l.272-.272-1.314-1.314-.272.272a1.314,1.314,0,0,1-1.858,0l-.272-.272-1.314,1.314.272.272a3.172,3.172,0,0,0,4.485,0Z" transform="translate(-72.782 -327.34)"/>
        <path id="Trazado_916754" data-name="Trazado 916754" d="M184,64h1.858v1.858H184Z" transform="translate(-162.635 -56.569)"/>
        <path id="Trazado_916755" data-name="Trazado 916755" d="M240,64h1.858v1.858H240Z" transform="translate(-212.132 -56.569)"/>
        <path id="Trazado_916756" data-name="Trazado 916756" d="M288,64h1.858v1.858H288Z" transform="translate(-254.558 -56.569)"/>
        <path id="Trazado_916757" data-name="Trazado 916757" d="M42.493,28.669A8.018,8.018,0,0,0,53.04,26.306l3.676-5.251a4.834,4.834,0,0,0,.878-2.786,3.406,3.406,0,0,0-6.131-2.044l-4.3,5.738-2.928-1.952a27.121,27.121,0,0,0-6.842-3.29h2.554a2.79,2.79,0,0,0,2.787-2.787V2.787A2.79,2.79,0,0,0,39.944,0H17.65a2.79,2.79,0,0,0-2.787,2.787V13.934a2.79,2.79,0,0,0,2.787,2.787H20.2a27.115,27.115,0,0,0-6.842,3.29l-2.928,1.952-4.3-5.738A3.406,3.406,0,0,0,0,18.269a4.834,4.834,0,0,0,.878,2.786l3.676,5.251A8.018,8.018,0,0,0,15.1,28.669l3.478-1.987v6.409a5.7,5.7,0,0,0-3.866-1.508H9.44a5.725,5.725,0,0,0-5.431,7.534l.1.312a2.786,2.786,0,0,0,1.46,5.159H6.62A5,5,0,0,0,9.289,48v.368a7.257,7.257,0,0,0-6.258,6.285l-.368,2.945H54.93l-.6-4.788a5.122,5.122,0,0,0-1.5-3.028,7.134,7.134,0,0,0,1.978-4.957v-6.5a6.742,6.742,0,0,0-6.735-6.735H42.963a6.7,6.7,0,0,0-3.948,1.283V26.682ZM54.188,16.721a1.55,1.55,0,0,1,1.548,1.548,2.985,2.985,0,0,1-.542,1.721l-.395.564-2.84-1.893.99-1.32a1.556,1.556,0,0,1,1.239-.619ZM16.721,13.934V2.787a.93.93,0,0,1,.929-.929H39.944a.93.93,0,0,1,.929.929V13.934a.93.93,0,0,1-.929.929H30.158L28.8,16.9l-1.361-2.041H17.65A.93.93,0,0,1,16.721,13.934Zm16.553,2.787-.559,3.354-3-1.2,1.436-2.154Zm-5.4,2.154-3,1.2-.559-3.354h2.122ZM3.406,16.721a1.556,1.556,0,0,1,1.239.619l.99,1.32-2.84,1.893L2.4,19.99a2.986,2.986,0,0,1-.542-1.721,1.55,1.55,0,0,1,1.548-1.548ZM14.179,27.056a6.16,6.16,0,0,1-8.1-1.816L3.861,22.076l2.891-1.927L10,24.484l4.39-2.927a25.255,25.255,0,0,1,8.253-3.584l.781,4.684L28.8,20.508l5.371,2.149.781-4.684A25.252,25.252,0,0,1,43.2,21.557l4.39,2.927,3.251-4.335,2.891,1.927L51.518,25.24a6.16,6.16,0,0,1-8.1,1.816l-4.4-2.514v-.005a4.074,4.074,0,0,0-1.2-2.9L36.5,22.951a2.227,2.227,0,0,1,.657,1.586V34.911a6.737,6.737,0,0,0-5.806-3.327H26.242a6.737,6.737,0,0,0-5.806,3.328V24.537a2.227,2.227,0,0,1,.657-1.586L19.78,21.638a4.074,4.074,0,0,0-1.2,2.9v.005ZM39.944,42.731h-.929a.929.929,0,0,1,0-1.858h.929ZM35.3,50a7.232,7.232,0,0,0-3.721-1.636V48a5,5,0,0,0,2.669-3.407H35.3a2.774,2.774,0,0,0,.929-.16v2.714A4.829,4.829,0,0,1,35.3,50Zm-4.943-3.506-.635.212v2.143l-.929.929-.929-.929V46.706l-.635-.212a3.142,3.142,0,0,1-2.152-2.985V39.015A5.377,5.377,0,0,0,28.8,37.539a5.377,5.377,0,0,0,3.716,1.476v4.494A3.142,3.142,0,0,1,30.361,46.494Zm4.009-5.621H35.3a.929.929,0,0,1,0,1.858h-.929Zm1.858-1.7a2.774,2.774,0,0,0-.929-.16h-.929a1.86,1.86,0,0,0-1.858-1.858A3.533,3.533,0,0,1,30,36.116l-1.2-1.2-1.2,1.2a3.533,3.533,0,0,1-2.515,1.042,1.86,1.86,0,0,0-1.858,1.858h-.929a2.774,2.774,0,0,0-.929.16v-.856a4.882,4.882,0,0,1,4.877-4.877h5.109a4.882,4.882,0,0,1,4.877,4.877ZM23.223,42.731h-.929a.929.929,0,1,1,0-1.858h.929Zm-4.645-1.858a.929.929,0,1,1,0,1.858H17.65V40.873Zm-1.047,3.716h1.047a2.774,2.774,0,0,0,.929-.16v2.714a6.665,6.665,0,0,0,1.507,4.244,7.217,7.217,0,0,0-.578.973,7.266,7.266,0,0,0-5.574-4V48A5,5,0,0,0,17.532,44.589ZM22.289,50a4.829,4.829,0,0,1-.924-2.857V44.429a2.774,2.774,0,0,0,.929.16h1.047A5,5,0,0,0,26.01,48v.368A7.23,7.23,0,0,0,22.289,50ZM4.645,41.8a.93.93,0,0,1,.929-.929H6.5v1.858H5.574A.93.93,0,0,1,4.645,41.8Zm1.867-2.787H5.933l-.162-.484A3.866,3.866,0,0,1,9.44,33.442h5.272a3.866,3.866,0,0,1,3.668,5.089l-.162.485H16.938a2.78,2.78,0,0,0-2.075-.929,8.249,8.249,0,0,1-4.59-1.39l-.917-.611-1.313.657a2.77,2.77,0,0,0-1.531,2.273ZM8.36,43.509V39.235a.924.924,0,0,1,.514-.831l.349-.174.02.013a10.1,10.1,0,0,0,5.621,1.7.93.93,0,0,1,.929.929v2.636a3.142,3.142,0,0,1-2.152,2.985l-.635.212v2.143l-.929.929-.929-.929V46.706l-.635-.212A3.142,3.142,0,0,1,8.36,43.509ZM4.875,54.879a5.393,5.393,0,0,1,4.972-4.7l1.3,1.3v4.26H4.768Zm8.13.857v-4.26l1.3-1.3a5.393,5.393,0,0,1,4.972,4.7l.107.857Zm8.591-.857a5.393,5.393,0,0,1,4.972-4.7l1.3,1.3v4.26H21.489Zm8.13.857v-4.26l1.3-1.3A5.393,5.393,0,0,1,36,54.879l.107.857ZM36.9,51.891q-.152-.259-.324-.5a6.665,6.665,0,0,0,1.507-4.244V44.429a2.774,2.774,0,0,0,.929.16h1.048a5,5,0,0,0,2.5,3.32.928.928,0,0,1-.76.4A5.149,5.149,0,0,0,36.9,51.891Zm10.178-5.4-.635.212v.67a2.789,2.789,0,0,0,1.528,2.485,7.678,7.678,0,0,1-2.457,2.9,7.679,7.679,0,0,1-2.457-2.9,2.789,2.789,0,0,0,1.528-2.485v-.67l-.635-.212A3.142,3.142,0,0,1,41.8,43.509V39.235a.924.924,0,0,1,.514-.831l.349-.174.02.013a10.1,10.1,0,0,0,5.621,1.7.93.93,0,0,1,.929.929v2.636A3.142,3.142,0,0,1,47.082,46.494ZM38.21,55.736l.337-2.7a3.287,3.287,0,0,1,2.637-2.815,9.542,9.542,0,0,0,3.476,4.2l.858.572.858-.572a9.542,9.542,0,0,0,3.476-4.2,3.287,3.287,0,0,1,2.637,2.815l.338,2.7Zm13.046-7.015a5.11,5.11,0,0,0-2.023-.417.929.929,0,0,1-.76-.4,5,5,0,0,0,2.5-3.32H52.02a2.774,2.774,0,0,0,.929-.16v.392A5.3,5.3,0,0,1,51.256,48.721Zm-.165-7.848h.929a.929.929,0,1,1,0,1.858h-.929Zm-8.128-7.431h5.109a4.882,4.882,0,0,1,4.877,4.877v.856a2.774,2.774,0,0,0-.929-.16H50.379a2.78,2.78,0,0,0-2.075-.929,8.249,8.249,0,0,1-4.59-1.39l-.917-.611-1.313.657a2.769,2.769,0,0,0-1.531,2.273h-.938a2.774,2.774,0,0,0-.929.16v-.856A4.882,4.882,0,0,1,42.963,33.442Z" transform="translate(0 0)"/>
      </g>
    </g>
  </g>
</svg>
