<svg xmlns="http://www.w3.org/2000/svg" width="69" height="69" viewBox="0 0 69 69">
  <g id="Grupo_1119352" data-name="Grupo 1119352" transform="translate(-620.051 -9846)">
    <circle id="Elipse_11791" data-name="Elipse 11791" cx="34.5" cy="34.5" r="34.5" transform="translate(620.051 9846)" fill="#4d637e"/>
    <g id="Grupo_1119351" data-name="Grupo 1119351" transform="translate(631.922 9857.999)">
      <g id="Grupo_1119348" data-name="Grupo 1119348" transform="translate(0.788 0.661)">
        <path id="Trazado_916784" data-name="Trazado 916784" d="M28.137,78.575v-.93a1.842,1.842,0,0,0-3.685,0v.93h-4.5V73.906h-.912a1.842,1.842,0,0,1,0-3.685h.912V64.5A12.545,12.545,0,0,0,7.628,77.066c.1,7.46,5.674,8.294,5.691,18.159H26.895A19.9,19.9,0,0,1,30.427,84.1a12.43,12.43,0,0,0,2.109-5.527Z" transform="translate(-7.627 -59.492)" fill="#feef8f"/>
        <g id="Grupo_1119346" data-name="Grupo 1119346" transform="translate(7.883 23.123)">
          <path id="Trazado_916785" data-name="Trazado 916785" d="M97.271,271.841a1.382,1.382,0,0,0,1.382,1.382h1.808v-.956a1.808,1.808,0,0,0-1.808-1.808A1.382,1.382,0,0,0,97.271,271.841Z" transform="translate(-97.271 -270.459)" fill="#ffaa81"/>
          <path id="Trazado_916786" data-name="Trazado 916786" d="M166.781,270.459a1.808,1.808,0,0,0-1.808,1.808v.956h1.808a1.382,1.382,0,1,0,0-2.764Z" transform="translate(-159.02 -270.459)" fill="#ffaa81"/>
        </g>
        <path id="Trazado_916787" data-name="Trazado 916787" d="M72.344,413.863H85.92v7.97H72.344Z" transform="translate(-66.653 -378.13)" fill="#b6e6fa"/>
        <path id="Trazado_916788" data-name="Trazado 916788" d="M228.12,7.5v5.863h-.935a1.889,1.889,0,1,0,0,3.779h.935v4.787h4.613V20.98a1.889,1.889,0,1,1,3.779,0v.953h4.511A12.819,12.819,0,0,0,228.12,7.5Z" transform="translate(-206.156 -7.504)" fill="#ffaa81"/>
        <g id="Grupo_1119347" data-name="Grupo 1119347" transform="translate(29.984 6.046)">
          <path id="Trazado_916789" data-name="Trazado 916789" d="M358.92,102.173V97.424l3.342-8.881-3.693-9.649-6.908-2.64a12.745,12.745,0,0,1,1.789,4.833,2.25,2.25,0,0,0-1.418,2.094v5.186a7.511,7.511,0,0,0-2.748,9.4l.843,1.855v2.55Z" transform="translate(-348.61 -76.254)" fill="#ffdaaa"/>
        </g>
        <path id="Trazado_916790" data-name="Trazado 916790" d="M345.854,371h12.311v12.4H345.854Z" transform="translate(-316.112 -339.04)" fill="#b6efbb"/>
        <path id="Trazado_916791" data-name="Trazado 916791" d="M345.854,371h2.2v12.4h-2.2Z" transform="translate(-316.112 -339.04)" fill="#54e072"/>
        <path id="Trazado_916792" data-name="Trazado 916792" d="M19.327,64.782a12.549,12.549,0,0,0-11.7,12.537c.1,7.46,5.674,8.294,5.691,18.159h2.2C15.5,85.5,9.922,84.659,9.826,77.115A12.676,12.676,0,0,1,19.327,64.782Z" transform="translate(-7.627 -59.745)" fill="#f7d700"/>
        <path id="Trazado_916793" data-name="Trazado 916793" d="M72.344,413.863h2.2v7.97h-2.2Z" transform="translate(-66.653 -378.13)" fill="#54c9f3"/>
        <path id="Trazado_916794" data-name="Trazado 916794" d="M230.32,21.933V7.662a12.925,12.925,0,0,0-2.2-.157v5.863h-.935a1.889,1.889,0,1,0,0,3.779h.935v4.787Z" transform="translate(-206.156 -7.504)" fill="#fe7732"/>
        <path id="Trazado_916795" data-name="Trazado 916795" d="M351.286,96.858a5.311,5.311,0,0,1,1.939-6.644l1.006-.649V83.181a.049.049,0,0,1,.029-.05l1.626-.645s-.313-2.719-.56-4.831l-3.664-1.4a12.745,12.745,0,0,1,1.789,4.833,2.25,2.25,0,0,0-1.418,2.094v5.186a7.511,7.511,0,0,0-2.748,9.4l.843,1.855v2.55h2.2V99.146Z" transform="translate(-318.627 -70.208)" fill="#ffb680"/>
      </g>
      <g id="Grupo_1119349" data-name="Grupo 1119349" transform="translate(0.128 0.001)">
        <path id="Trazado_916796" data-name="Trazado 916796" d="M21.956,70.709a2.5,2.5,0,0,0-5,0v.27H13.773V66.311H12.2a1.183,1.183,0,0,1,0-2.366h1.571V56.9l-.669.009A13.2,13.2,0,0,0,.129,70.138c.047,3.63,1.314,5.744,2.655,7.982a17.334,17.334,0,0,1,3.036,10.17v.658H19.4V95.6H7.138V90.3H5.819v6.623h14.9v-7.97h0v-.66A19.127,19.127,0,0,1,24.13,77.541a13.159,13.159,0,0,0,2.22-5.82l.093-.741H21.956ZM11.2,77.782H10.052a.722.722,0,1,1,0-1.445A1.15,1.15,0,0,1,11.2,77.486ZM24.925,72.3a11.844,11.844,0,0,1-1.88,4.493,20.533,20.533,0,0,0-3.638,10.837H15.283V79.1h1.148a2.041,2.041,0,1,0,0-4.083,2.47,2.47,0,0,0-2.467,2.467V87.629H12.52V77.486a2.47,2.47,0,0,0-2.467-2.467,2.041,2.041,0,1,0,0,4.083H11.2v8.527H7.129A18.618,18.618,0,0,0,3.915,77.441c-1.3-2.171-2.425-4.047-2.467-7.315A11.884,11.884,0,0,1,12.454,58.255v4.37H12.2a2.5,2.5,0,1,0,0,5h.252V72.3h5.817V70.709a1.183,1.183,0,0,1,2.366,0V72.3Zm-9.641,5.484v-.3a1.15,1.15,0,0,1,1.148-1.148.722.722,0,1,1,0,1.445Z" transform="translate(-0.128 -51.896)"/>
        <path id="Trazado_916797" data-name="Trazado 916797" d="M240.242,28l3.387-9L239.742,8.835l-6.98-2.667A13.485,13.485,0,0,0,221.245,0l-.65.009V5.865h-.282a2.554,2.554,0,0,0-1.8,4.351,2.533,2.533,0,0,0,1.8.746h.275V15.75h5.932V14.136a1.187,1.187,0,0,1,.762-1.128,1.206,1.206,0,0,1,1.337.259,1.225,1.225,0,0,1,.361.871V15.75h3.049v2.72a8.164,8.164,0,0,0-2.689,10.023l.784,1.724v1.748h-1.759V45.024h1.319V33.284h10.992v7.738H242V31.965h-1.759V28ZM230.3,14.431v-.294a2.541,2.541,0,0,0-3.52-2.349,2.5,2.5,0,0,0-1.578,2.349v.294h-3.294V9.643h-1.594a1.225,1.225,0,0,1-.873-.363,1.2,1.2,0,0,1-.257-1.333,1.187,1.187,0,0,1,1.126-.763h1.6V1.33a12.212,12.212,0,0,1,11.466,9.849,2.916,2.916,0,0,0-1.345,2.455v.8H230.3Zm8.618,17.534h-7.474V29.932l-.9-1.984a6.8,6.8,0,0,1,2.506-8.575l.3-.195V13.633a1.6,1.6,0,0,1,3.2,0V21.74h1.319V13.633a2.915,2.915,0,0,0-3.233-2.9,13.4,13.4,0,0,0-.9-2.783l4.989,1.906,3.5,9.14-3.3,8.759v4.209Z" transform="translate(-198.63 -0.001)"/>
        <path id="Trazado_916798" data-name="Trazado 916798" d="M478.354,481.5h1.319v2.682h-1.319Z" transform="translate(-436.302 -439.163)"/>
      </g>
      <g id="Grupo_1119350" data-name="Grupo 1119350" transform="translate(25.791 7.216)">
        <path id="Trazado_916799" data-name="Trazado 916799" d="M291.967,82.051h1.319V83.37h-1.319Z" transform="translate(-291.967 -82.051)" fill="#fff"/>
        <path id="Trazado_916800" data-name="Trazado 916800" d="M321.967,82.051h1.319V83.37h-1.319Z" transform="translate(-319.329 -82.051)" fill="#fff"/>
      </g>
    </g>
  </g>
</svg>
