<svg xmlns="http://www.w3.org/2000/svg" width="69" height="69" viewBox="0 0 69 69">
  <g id="Grupo_1119959" data-name="Grupo 1119959" transform="translate(-620.051 -9957)">
    <circle id="Elipse_11792" data-name="Elipse 11792" cx="34.5" cy="34.5" r="34.5" transform="translate(620.051 9957)" fill="#4d637e"/>
    <g id="Grupo_1119372" data-name="Grupo 1119372" transform="translate(630.051 9968)">
      <path id="Trazado_916801" data-name="Trazado 916801" d="M19.5,11.3a10.588,10.588,0,0,0-4.8,5.6" fill="none" stroke="#ffca8a" stroke-linecap="round" stroke-linejoin="round" stroke-miterlimit="10" stroke-width="1"/>
      <path id="Trazado_916802" data-name="Trazado 916802" d="M23.3,9.9a9.363,9.363,0,0,0-1.6.4" fill="none" stroke="#ffca8a" stroke-linecap="round" stroke-linejoin="round" stroke-miterlimit="10" stroke-width="1"/>
      <path id="Trazado_916803" data-name="Trazado 916803" d="M30.7,36.1H19.3a2.2,2.2,0,1,0,0,4.4H30.7a2.2,2.2,0,1,0,0-4.4Z" fill="#616b77" stroke="#000" stroke-linecap="round" stroke-linejoin="round" stroke-miterlimit="10" stroke-width="1"/>
      <path id="Trazado_916804" data-name="Trazado 916804" d="M23.1,38.1H19.3" fill="none" stroke="#fff" stroke-linecap="round" stroke-linejoin="round" stroke-miterlimit="10" stroke-width="1" opacity="0.2"/>
      <path id="Trazado_916805" data-name="Trazado 916805" d="M30.7,40.7H19.3a2.2,2.2,0,0,0,0,4.4H30.7a2.2,2.2,0,1,0,0-4.4Z" fill="#616b77" stroke="#000" stroke-linecap="round" stroke-linejoin="round" stroke-miterlimit="10" stroke-width="1"/>
      <path id="Trazado_916806" data-name="Trazado 916806" d="M20.4,45.1a4.663,4.663,0,0,0,9.2,0Z" fill="#616b77" stroke="#000" stroke-linecap="round" stroke-linejoin="round" stroke-miterlimit="10" stroke-width="1"/>
      <g id="Grupo_1119355" data-name="Grupo 1119355">
        <g id="Grupo_1119353" data-name="Grupo 1119353">
          <path id="Trazado_916807" data-name="Trazado 916807" d="M42.6,20.8h2.2" fill="#fff" stroke="#cccaca" stroke-linecap="round" stroke-linejoin="round" stroke-miterlimit="10" stroke-width="1"/>
          <path id="Trazado_916808" data-name="Trazado 916808" d="M5.2,20.8H7.4" fill="#fff" stroke="#cccaca" stroke-linecap="round" stroke-linejoin="round" stroke-miterlimit="10" stroke-width="1"/>
        </g>
        <g id="Grupo_1119354" data-name="Grupo 1119354">
          <path id="Trazado_916809" data-name="Trazado 916809" d="M25,1V3.2" fill="#fff" stroke="#cccaca" stroke-linecap="round" stroke-linejoin="round" stroke-miterlimit="10" stroke-width="1"/>
        </g>
      </g>
      <g id="Grupo_1119358" data-name="Grupo 1119358">
        <g id="Grupo_1119356" data-name="Grupo 1119356">
          <path id="Trazado_916810" data-name="Trazado 916810" d="M42.6,20.8h2.2" fill="#fff" stroke="#cccaca" stroke-linecap="round" stroke-linejoin="round" stroke-miterlimit="10" stroke-width="1"/>
          <path id="Trazado_916811" data-name="Trazado 916811" d="M5.2,20.8H7.4" fill="#fff" stroke="#cccaca" stroke-linecap="round" stroke-linejoin="round" stroke-miterlimit="10" stroke-width="1"/>
        </g>
        <g id="Grupo_1119357" data-name="Grupo 1119357">
          <path id="Trazado_916812" data-name="Trazado 916812" d="M25,1V3.2" fill="#fff" stroke="#cccaca" stroke-linecap="round" stroke-linejoin="round" stroke-miterlimit="10" stroke-width="1"/>
        </g>
      </g>
      <g id="Grupo_1119361" data-name="Grupo 1119361">
        <g id="Grupo_1119359" data-name="Grupo 1119359">
          <path id="Trazado_916813" data-name="Trazado 916813" d="M37.4,33.2,39,34.7" fill="#fff" stroke="#cccaca" stroke-linecap="round" stroke-linejoin="round" stroke-miterlimit="10" stroke-width="1"/>
          <path id="Trazado_916814" data-name="Trazado 916814" d="M11,6.8l1.6,1.5" fill="#fff" stroke="#cccaca" stroke-linecap="round" stroke-linejoin="round" stroke-miterlimit="10" stroke-width="1"/>
        </g>
        <g id="Grupo_1119360" data-name="Grupo 1119360">
          <path id="Trazado_916815" data-name="Trazado 916815" d="M12.6,33.2,11,34.7" fill="#fff" stroke="#cccaca" stroke-linecap="round" stroke-linejoin="round" stroke-miterlimit="10" stroke-width="1"/>
          <path id="Trazado_916816" data-name="Trazado 916816" d="M39,6.8,37.4,8.3" fill="#fff" stroke="#cccaca" stroke-linecap="round" stroke-linejoin="round" stroke-miterlimit="10" stroke-width="1"/>
        </g>
      </g>
      <g id="Grupo_1119364" data-name="Grupo 1119364">
        <g id="Grupo_1119362" data-name="Grupo 1119362">
          <path id="Trazado_916817" data-name="Trazado 916817" d="M41.2,14l2.1-.8" fill="#fff" stroke="#cccaca" stroke-linecap="round" stroke-linejoin="round" stroke-miterlimit="10" stroke-width="1"/>
          <path id="Trazado_916818" data-name="Trazado 916818" d="M6.7,28.3l2.1-.8" fill="#fff" stroke="#cccaca" stroke-linecap="round" stroke-linejoin="round" stroke-miterlimit="10" stroke-width="1"/>
        </g>
        <g id="Grupo_1119363" data-name="Grupo 1119363">
          <path id="Trazado_916819" data-name="Trazado 916819" d="M17.4,2.5l.9,2" fill="#fff" stroke="#cccaca" stroke-linecap="round" stroke-linejoin="round" stroke-miterlimit="10" stroke-width="1"/>
        </g>
      </g>
      <g id="Grupo_1119367" data-name="Grupo 1119367">
        <g id="Grupo_1119365" data-name="Grupo 1119365">
          <path id="Trazado_916820" data-name="Trazado 916820" d="M41.2,14l2.1-.8" fill="#fff" stroke="#cccaca" stroke-linecap="round" stroke-linejoin="round" stroke-miterlimit="10" stroke-width="1"/>
          <path id="Trazado_916821" data-name="Trazado 916821" d="M6.7,28.3l2.1-.8" fill="#fff" stroke="#cccaca" stroke-linecap="round" stroke-linejoin="round" stroke-miterlimit="10" stroke-width="1"/>
        </g>
        <g id="Grupo_1119366" data-name="Grupo 1119366">
          <path id="Trazado_916822" data-name="Trazado 916822" d="M17.4,2.5l.9,2" fill="#fff" stroke="#cccaca" stroke-linecap="round" stroke-linejoin="round" stroke-miterlimit="10" stroke-width="1"/>
        </g>
      </g>
      <g id="Grupo_1119370" data-name="Grupo 1119370">
        <g id="Grupo_1119368" data-name="Grupo 1119368">
          <path id="Trazado_916823" data-name="Trazado 916823" d="M41.2,27.5l2.1.8" fill="#fff" stroke="#cccaca" stroke-linecap="round" stroke-linejoin="round" stroke-miterlimit="10" stroke-width="1"/>
          <path id="Trazado_916824" data-name="Trazado 916824" d="M6.7,13.2l2.1.8" fill="#fff" stroke="#cccaca" stroke-linecap="round" stroke-linejoin="round" stroke-miterlimit="10" stroke-width="1"/>
        </g>
        <g id="Grupo_1119369" data-name="Grupo 1119369">
          <path id="Trazado_916825" data-name="Trazado 916825" d="M32.6,2.5l-.9,2" fill="#fff" stroke="#cccaca" stroke-linecap="round" stroke-linejoin="round" stroke-miterlimit="10" stroke-width="1"/>
        </g>
      </g>
      <path id="Trazado_916826" data-name="Trazado 916826" d="M11.4,19.8a1.949,1.949,0,0,1,.1-.8v-.2a1.421,1.421,0,0,1,.2-.6l.1-.1c.1-.2.3-.4.4-.6l.1-.1.6-.6.1-.1a.31.31,0,0,1-.2.1l-.2-.4a3.091,3.091,0,0,1-.2-.8c0-.2.1-.4.1-.6v-.1c.1-.2.1-.3.3-.4a.1.1,0,0,1,.1-.1l.3-.3c.1-.1.2-.1.3-.2.1,0,.2-.1.3-.1a1.268,1.268,0,0,1,.6-.1h-.5V13c0-.1,0-.1.1-.2h.4l-.4-.2c0-.1,0-.1.1-.2a.349.349,0,0,0,.1-.2,2.163,2.163,0,0,1,1.2-1.1.349.349,0,0,1,.2-.1c.1,0,.1,0,.2-.1l.3-.1a4.331,4.331,0,0,0,.5-.1.9.9,0,0,1,.5.1c.1,0,.2.1.3.1l-.4-.1.3-.4A1.965,1.965,0,0,1,19,9.5a1.816,1.816,0,0,1,1.4.6l.3.3h.2a1.493,1.493,0,0,1,.7-.3c.1,0,.2-.1.3-.1h.5a2.732,2.732,0,0,1,1.9.8,3.365,3.365,0,0,1,.8,1.7,2.982,2.982,0,0,1,.8-1.7,2.732,2.732,0,0,1,1.9-.8h.5c.1,0,.1,0,.2.1.1,0,.1,0,.2.1a.349.349,0,0,1,.2.1.769.769,0,0,1,.3.2c.1,0,.1.1.2.1s.2.1.3.2l-.2-.2.3-.3a2,2,0,0,1,3.1.3l.3.4h-.3c.1,0,.2-.1.3-.1a4.331,4.331,0,0,1,.5-.1,4.253,4.253,0,0,1,1.1.2,2.7,2.7,0,0,1,1.6,2.1l.1.5H36c.2,0,.4.1.6.1.2.1.3.1.4.2l.2.1.3.3a.349.349,0,0,1,.1.2.758.758,0,0,1,.2.4V15a1.268,1.268,0,0,1,.1.6,2.92,2.92,0,0,1-.2.9l-.2.4-.2-.1.1.1a3.394,3.394,0,0,1,.6.6l-.3.3.3-.3c.1.2.3.4.4.6l.1.1a2.073,2.073,0,0,1,.2.6V19c0,.2.1.5.1.8a3.339,3.339,0,0,1-.3,1.5.349.349,0,0,1-.1.2c-.1.2-.1.3-.2.5a.1.1,0,0,1-.1.1c-.1.1-.2.3-.3.4l.3.3a1.845,1.845,0,0,1,.5,1.2,1.974,1.974,0,0,1-.6,1.4,2.281,2.281,0,0,1-1.2.6h-.6c0,.1,0,.1.1.2a1.268,1.268,0,0,1,.1.6v.4l-.1.4a.349.349,0,0,1-.1.2l-.1.2c0,.1-.1.1-.1.2l-.1.1c0,.1-.1.1-.2.2l-.1.1-.2.2-.1.1-.6.3h0l-.2.5a2.162,2.162,0,0,1-2.1,1.5,1.884,1.884,0,0,1-.8-.2l-.6-.2.2-.3c-.1.1-.2.2-.3.2l-.1.1c-.1.1-.2.1-.3.2h-.1c-.1,0-.2.1-.3.1h-.2c-.2,0-.3.1-.5.1a.9.9,0,0,1-.5-.1h-.2A4.74,4.74,0,0,1,26,29.9a4.157,4.157,0,0,1-1.3-3H25a4.335,4.335,0,0,1-1.3,3,4.2,4.2,0,0,1-2.6,1.2h-.7a.9.9,0,0,1-.5-.1h-.2c-.1,0-.2-.1-.3-.1h-.1c-.1-.1-.2-.1-.3-.2l-.1-.1c-.1-.1-.2-.2-.3-.2l.3.3-.6.2a3.091,3.091,0,0,1-.8.2,2.256,2.256,0,0,1-2.1-1.5l-.2-.5h0c-.2-.1-.4-.1-.6-.2l.1-.4-.2.4c-.1-.1-.2-.1-.2-.2a.1.1,0,0,1-.1-.1l-.2-.2.1-.4-.1-.1-.1-.2-.1-.2-.1-.2v-.6a1.087,1.087,0,0,1,.1-.5c0-.1,0-.1.1-.2l-.1.1h-.3a2.274,2.274,0,0,1-1.2-.6,1.974,1.974,0,0,1-.6-1.4,1.656,1.656,0,0,1,.5-1.2l.3-.3.1.1a3.6,3.6,0,0,1-.8-1.2l-.1-.1v-.1c-.1-.2-.1-.4-.2-.5v-.2a2.2,2.2,0,0,1-.1-.8Z" fill="#ffb95c"/>
      <g id="Grupo_1119371" data-name="Grupo 1119371">
        <path id="Trazado_916827" data-name="Trazado 916827" d="M33.8,15.6a1.985,1.985,0,0,1,1.9-2,1.923,1.923,0,0,1,2,1.9" fill="none" stroke="#000" stroke-linecap="round" stroke-linejoin="round" stroke-miterlimit="10" stroke-width="1"/>
        <path id="Trazado_916828" data-name="Trazado 916828" d="M33.8,15.6a1.985,1.985,0,0,1-1.9,2,1.923,1.923,0,0,1-2-1.9,1.985,1.985,0,0,1,1.9-2" fill="none" stroke="#000" stroke-linecap="round" stroke-linejoin="round" stroke-miterlimit="10" stroke-width="1"/>
        <path id="Trazado_916829" data-name="Trazado 916829" d="M33.6,28.8a1.483,1.483,0,0,0,.7.1,2.22,2.22,0,0,0,2.2-2.2,2.035,2.035,0,0,0-.6-1.5" fill="none" stroke="#000" stroke-linecap="round" stroke-linejoin="round" stroke-miterlimit="10" stroke-width="1"/>
        <path id="Trazado_916830" data-name="Trazado 916830" d="M32.1,28.5A2.6,2.6,0,0,1,29.7,31" fill="none" stroke="#000" stroke-linecap="round" stroke-linejoin="round" stroke-miterlimit="10" stroke-width="1"/>
        <path id="Trazado_916831" data-name="Trazado 916831" d="M36.4,16.3a3.956,3.956,0,0,1-1.7,7.5" fill="none" stroke="#000" stroke-linecap="round" stroke-linejoin="round" stroke-miterlimit="10" stroke-width="1"/>
        <path id="Trazado_916832" data-name="Trazado 916832" d="M33,25.5a1.685,1.685,0,0,1,1.7-1.7" fill="none" stroke="#000" stroke-linecap="round" stroke-linejoin="round" stroke-miterlimit="10" stroke-width="1"/>
        <path id="Trazado_916833" data-name="Trazado 916833" d="M27.8,15.4A2.775,2.775,0,0,1,25,12.7,2.689,2.689,0,0,1,27.7,10a2.775,2.775,0,0,1,2.8,2.7" fill="none" stroke="#000" stroke-linecap="round" stroke-linejoin="round" stroke-miterlimit="10" stroke-width="1"/>
        <path id="Trazado_916834" data-name="Trazado 916834" d="M29.8,24a2.351,2.351,0,1,1-4.7.1" fill="none" stroke="#000" stroke-linecap="round" stroke-linejoin="round" stroke-miterlimit="10" stroke-width="1"/>
        <path id="Trazado_916835" data-name="Trazado 916835" d="M29.8,24a2.348,2.348,0,0,1,2.3-2.4" fill="none" stroke="#000" stroke-linecap="round" stroke-linejoin="round" stroke-miterlimit="10" stroke-width="1"/>
        <path id="Trazado_916836" data-name="Trazado 916836" d="M34.5,19.2a2.348,2.348,0,0,1-2.3,2.4" fill="none" stroke="#000" stroke-linecap="round" stroke-linejoin="round" stroke-miterlimit="10" stroke-width="1"/>
        <path id="Trazado_916837" data-name="Trazado 916837" d="M27.4,26.3a2.351,2.351,0,1,1-.1-4.7" fill="none" stroke="#000" stroke-linecap="round" stroke-linejoin="round" stroke-miterlimit="10" stroke-width="1"/>
        <path id="Trazado_916838" data-name="Trazado 916838" d="M27.3,16.9a2.351,2.351,0,0,1,.1,4.7" fill="none" stroke="#000" stroke-linecap="round" stroke-linejoin="round" stroke-miterlimit="10" stroke-width="1"/>
        <path id="Trazado_916839" data-name="Trazado 916839" d="M25,24a2.191,2.191,0,0,1,1.1-2" fill="none" stroke="#000" stroke-linecap="round" stroke-linejoin="round" stroke-miterlimit="10" stroke-width="1"/>
        <path id="Trazado_916840" data-name="Trazado 916840" d="M29.1,30.9c.2,0,.3.1.5.1a2.389,2.389,0,0,0,1.4-.5,2.389,2.389,0,0,0,1.4.5,2.2,2.2,0,0,0,2.2-2.1,2.256,2.256,0,0,0,1.8-2.2,1.7,1.7,0,0,0-.1-.7h.1a1.923,1.923,0,0,0,1.9-2,1.763,1.763,0,0,0-.8-1.5,3.928,3.928,0,0,0,1.1-2.8,4.075,4.075,0,0,0-1.4-3,1.9,1.9,0,0,0,.5-1.3,1.819,1.819,0,0,0-1.5-1.8v-.2a2.669,2.669,0,0,0-2.7-2.6.9.9,0,0,0-.5.1,2.175,2.175,0,0,0-2-1.4,2.227,2.227,0,0,0-1.7.9,2.716,2.716,0,0,0-1.7-.6" fill="none" stroke="#000" stroke-linecap="round" stroke-linejoin="round" stroke-miterlimit="10" stroke-width="1"/>
        <path id="Trazado_916841" data-name="Trazado 916841" d="M32.1,11.4a2.456,2.456,0,0,1,1.5-.5,2.667,2.667,0,0,1,2.7,2.6" fill="none" stroke="#000" stroke-linecap="round" stroke-linejoin="round" stroke-miterlimit="10" stroke-width="1"/>
        <path id="Trazado_916842" data-name="Trazado 916842" d="M34.5,19.2a1.2,1.2,0,0,1,1-1.3" fill="none" stroke="#000" stroke-linecap="round" stroke-linejoin="round" stroke-miterlimit="10" stroke-width="1"/>
        <path id="Trazado_916843" data-name="Trazado 916843" d="M33,25.5a1.131,1.131,0,0,1-1.1,1.2" fill="none" stroke="#000" stroke-linecap="round" stroke-linejoin="round" stroke-miterlimit="10" stroke-width="1"/>
        <path id="Trazado_916844" data-name="Trazado 916844" d="M25.1,26.8A4.247,4.247,0,0,0,29.4,31" fill="none" stroke="#000" stroke-linecap="round" stroke-linejoin="round" stroke-miterlimit="10" stroke-width="1"/>
        <path id="Trazado_916845" data-name="Trazado 916845" fill="none" stroke="#000" stroke-linecap="round" stroke-linejoin="round" stroke-miterlimit="10" stroke-width="1"/>
        <path id="Trazado_916846" data-name="Trazado 916846" d="M16.3,15.6a1.985,1.985,0,0,0-1.9-2,1.923,1.923,0,0,0-2,1.9" fill="none" stroke="#000" stroke-linecap="round" stroke-linejoin="round" stroke-miterlimit="10" stroke-width="1"/>
        <path id="Trazado_916847" data-name="Trazado 916847" d="M16.3,15.6a1.985,1.985,0,0,0,1.9,2,1.923,1.923,0,0,0,2-1.9,1.985,1.985,0,0,0-1.9-2" fill="none" stroke="#000" stroke-linecap="round" stroke-linejoin="round" stroke-miterlimit="10" stroke-width="1"/>
        <path id="Trazado_916848" data-name="Trazado 916848" d="M16.5,28.8a1.483,1.483,0,0,1-.7.1,2.22,2.22,0,0,1-2.2-2.2,2.035,2.035,0,0,1,.6-1.5" fill="none" stroke="#000" stroke-linecap="round" stroke-linejoin="round" stroke-miterlimit="10" stroke-width="1"/>
        <path id="Trazado_916849" data-name="Trazado 916849" d="M18,28.5A2.6,2.6,0,0,0,20.4,31" fill="none" stroke="#000" stroke-linecap="round" stroke-linejoin="round" stroke-miterlimit="10" stroke-width="1"/>
        <path id="Trazado_916850" data-name="Trazado 916850" d="M13.6,16.3a3.956,3.956,0,0,0,1.7,7.5" fill="none" stroke="#000" stroke-linecap="round" stroke-linejoin="round" stroke-miterlimit="10" stroke-width="1"/>
        <path id="Trazado_916851" data-name="Trazado 916851" d="M17,25.5a1.685,1.685,0,0,0-1.7-1.7" fill="none" stroke="#000" stroke-linecap="round" stroke-linejoin="round" stroke-miterlimit="10" stroke-width="1"/>
        <path id="Trazado_916852" data-name="Trazado 916852" d="M22.3,15.4a2.775,2.775,0,0,0,2.8-2.7A2.689,2.689,0,0,0,22.4,10a2.775,2.775,0,0,0-2.8,2.7" fill="none" stroke="#000" stroke-linecap="round" stroke-linejoin="round" stroke-miterlimit="10" stroke-width="1"/>
        <path id="Trazado_916853" data-name="Trazado 916853" d="M20.3,24a2.351,2.351,0,0,0,4.7.1" fill="none" stroke="#000" stroke-linecap="round" stroke-linejoin="round" stroke-miterlimit="10" stroke-width="1"/>
        <path id="Trazado_916854" data-name="Trazado 916854" d="M20.3,24A2.348,2.348,0,0,0,18,21.6" fill="none" stroke="#000" stroke-linecap="round" stroke-linejoin="round" stroke-miterlimit="10" stroke-width="1"/>
        <path id="Trazado_916855" data-name="Trazado 916855" d="M15.6,19.2a2.348,2.348,0,0,0,2.3,2.4" fill="none" stroke="#000" stroke-linecap="round" stroke-linejoin="round" stroke-miterlimit="10" stroke-width="1"/>
        <path id="Trazado_916856" data-name="Trazado 916856" d="M22.7,26.3a2.351,2.351,0,1,0,.1-4.7" fill="none" stroke="#000" stroke-linecap="round" stroke-linejoin="round" stroke-miterlimit="10" stroke-width="1"/>
        <path id="Trazado_916857" data-name="Trazado 916857" d="M22.8,16.9a2.351,2.351,0,0,0-.1,4.7" fill="none" stroke="#000" stroke-linecap="round" stroke-linejoin="round" stroke-miterlimit="10" stroke-width="1"/>
        <path id="Trazado_916858" data-name="Trazado 916858" d="M25.1,24A2.191,2.191,0,0,0,24,22" fill="none" stroke="#000" stroke-linecap="round" stroke-linejoin="round" stroke-miterlimit="10" stroke-width="1"/>
        <path id="Trazado_916859" data-name="Trazado 916859" d="M20.9,30.9c-.2,0-.3.1-.5,0a2.389,2.389,0,0,1-1.4-.5,2.389,2.389,0,0,1-1.4.5,2.2,2.2,0,0,1-2.2-2.1,2.256,2.256,0,0,1-1.8-2.2,1.7,1.7,0,0,1,.1-.7h-.1a1.923,1.923,0,0,1-1.9-2,1.763,1.763,0,0,1,.8-1.5,3.928,3.928,0,0,1-1.1-2.8,4.075,4.075,0,0,1,1.4-3,1.9,1.9,0,0,1-.5-1.3,1.819,1.819,0,0,1,1.5-1.8v-.2a2.669,2.669,0,0,1,2.7-2.6.9.9,0,0,1,.5.1,2.175,2.175,0,0,1,2-1.4,2.227,2.227,0,0,1,1.7.9,2.716,2.716,0,0,1,1.7-.6" fill="none" stroke="#000" stroke-linecap="round" stroke-linejoin="round" stroke-miterlimit="10" stroke-width="1"/>
        <path id="Trazado_916860" data-name="Trazado 916860" d="M18,11.4a2.456,2.456,0,0,0-1.5-.5,2.667,2.667,0,0,0-2.7,2.6" fill="none" stroke="#000" stroke-linecap="round" stroke-linejoin="round" stroke-miterlimit="10" stroke-width="1"/>
        <path id="Trazado_916861" data-name="Trazado 916861" d="M15.6,19.2a1.2,1.2,0,0,0-1-1.3" fill="none" stroke="#000" stroke-linecap="round" stroke-linejoin="round" stroke-miterlimit="10" stroke-width="1"/>
        <path id="Trazado_916862" data-name="Trazado 916862" d="M17,25.5a1.131,1.131,0,0,0,1.1,1.2" fill="none" stroke="#000" stroke-linecap="round" stroke-linejoin="round" stroke-miterlimit="10" stroke-width="1"/>
        <path id="Trazado_916863" data-name="Trazado 916863" d="M25,26.8A4.247,4.247,0,0,1,20.7,31" fill="none" stroke="#000" stroke-linecap="round" stroke-linejoin="round" stroke-miterlimit="10" stroke-width="1"/>
        <path id="Trazado_916864" data-name="Trazado 916864" fill="none" stroke="#000" stroke-linecap="round" stroke-linejoin="round" stroke-miterlimit="10" stroke-width="1"/>
        <path id="Trazado_916865" data-name="Trazado 916865" d="M23.1,42.5H19.3" fill="none" stroke="#000" stroke-linecap="round" stroke-linejoin="round" stroke-miterlimit="10" stroke-width="1" opacity="0.2"/>
      </g>
    </g>
  </g>
</svg>
