<svg xmlns="http://www.w3.org/2000/svg" width="71" height="71" viewBox="0 0 71 71">
  <g id="Grupo_1119505" data-name="Grupo 1119505" transform="translate(-193.543 -5198)">
    <circle id="Elipse_11626" data-name="Elipse 11626" cx="35.5" cy="35.5" r="35.5" transform="translate(193.543 5198)" fill="#fff"/>
    <g id="Grupo_1119504" data-name="Grupo 1119504" transform="translate(205.543 5210)">
      <g id="Grupo_1119502" data-name="Grupo 1119502" transform="translate(0.677 0.677)">
        <circle id="Elipse_11866" data-name="Elipse 11866" cx="10.134" cy="10.134" r="10.134" transform="translate(0)" fill="#7dc3ee"/>
        <path id="Trazado_917120" data-name="Trazado 917120" d="M19.082,49.314A10.132,10.132,0,0,1,11.23,32.776,10.132,10.132,0,1,0,25.486,47.032,10.09,10.09,0,0,1,19.082,49.314Z" transform="translate(-7.5 -30.494)" fill="#64acdc"/>
        <circle id="Elipse_11867" data-name="Elipse 11867" cx="10.134" cy="10.134" r="10.134" transform="translate(0 24.612)" fill="#d6bdef"/>
        <path id="Trazado_917121" data-name="Trazado 917121" d="M19.082,321.863a10.132,10.132,0,0,1-7.852-16.538,10.132,10.132,0,1,0,14.256,14.256A10.09,10.09,0,0,1,19.082,321.863Z" transform="translate(-7.5 -278.431)" fill="#c3aff0"/>
        <circle id="Elipse_11868" data-name="Elipse 11868" cx="10.134" cy="10.134" r="10.134" transform="translate(24.612)" fill="#e15f78"/>
        <path id="Trazado_917122" data-name="Trazado 917122" d="M291.629,49.314a10.132,10.132,0,0,1-7.852-16.538,10.132,10.132,0,1,0,14.256,14.256A10.088,10.088,0,0,1,291.629,49.314Z" transform="translate(-255.436 -30.494)" fill="#db4655"/>
        <circle id="Elipse_11869" data-name="Elipse 11869" cx="10.134" cy="10.134" r="10.134" transform="translate(24.612 24.612)" fill="#afefa5"/>
        <path id="Trazado_917123" data-name="Trazado 917123" d="M291.629,321.863a10.132,10.132,0,0,1-7.852-16.538,10.132,10.132,0,1,0,14.256,14.256A10.089,10.089,0,0,1,291.629,321.863Z" transform="translate(-255.436 -278.431)" fill="#8ce1a4"/>
        <g id="Grupo_1119501" data-name="Grupo 1119501" transform="translate(5.791 4.343)">
          <path id="Trazado_917124" data-name="Trazado 917124" d="M333.822,328.507l-5.015,8.686a.724.724,0,0,0,.627,1.086h10.03a.724.724,0,0,0,.627-1.086l-5.015-8.686A.724.724,0,0,0,333.822,328.507Z" transform="translate(-305.494 -303.534)" fill="#fff"/>
          <path id="Trazado_917125" data-name="Trazado 917125" d="M81.093,55.6H86.16L83.988,59.94h2.9l-5.791,7.239.724-5.067H79.645Z" transform="translate(-78.921 -55.597)" fill="#fff"/>
          <path id="Trazado_917126" data-name="Trazado 917126" d="M71.629,333.212l4.343-5.067,4.343,5.067H78.144v6.515H73.8v-6.515Z" transform="translate(-71.629 -303.533)" fill="#fff"/>
        </g>
      </g>
      <g id="Grupo_1119503" data-name="Grupo 1119503" transform="translate(0 0)">
        <path id="Trazado_917127" data-name="Trazado 917127" d="M327.615,320.645a1.387,1.387,0,0,0-1.213.7l-5.015,8.686a1.4,1.4,0,0,0,1.213,2.1h10.03a1.4,1.4,0,0,0,1.213-2.1l-5.015-8.686A1.387,1.387,0,0,0,327.615,320.645Zm5.056,10.111a.04.04,0,0,1-.04.023H322.6a.047.047,0,0,1-.04-.07l5.015-8.686a.047.047,0,0,1,.081,0l5.015,8.686A.04.04,0,0,1,332.67,330.756Z" transform="translate(-292.192 -291.69)"/>
        <path id="Trazado_917128" data-name="Trazado 917128" d="M384.774,369.419v1.448a.677.677,0,0,0,1.355,0v-1.448a.677.677,0,0,0-1.355,0Z" transform="translate(-350.028 -335.444)"/>
        <path id="Trazado_917129" data-name="Trazado 917129" d="M385.495,408.822h-.007a.681.681,0,1,0,.007,0Z" transform="translate(-350.065 -371.905)"/>
        <path id="Trazado_917130" data-name="Trazado 917130" d="M74,60.978a.677.677,0,0,0,.8-.2l5.791-7.239a.677.677,0,0,0-.529-1.1h-1.8l1.682-3.363a.677.677,0,0,0-.606-.98H74.27a.677.677,0,0,0-.661.53l-1.448,6.515a.677.677,0,0,0,.661.824h1.391L73.6,60.26A.677.677,0,0,0,74,60.978Zm-.334-6.366,1.147-5.16h3.428L76.56,52.815a.677.677,0,0,0,.606.98h1.486L75.291,58l.373-2.61a.677.677,0,0,0-.67-.773Z" transform="translate(-65.63 -43.754)"/>
        <path id="Trazado_917131" data-name="Trazado 917131" d="M321.386,127.189a2.49,2.49,0,0,0,3.517,0l1.024-1.024a2.488,2.488,0,0,0,.413-2.972l.417-.417a.677.677,0,1,0-.958-.958l-.418.418a2.491,2.491,0,0,0-2.971.412l-1.024,1.024a2.49,2.49,0,0,0,0,3.517Zm.958-2.559,1.024-1.024a1.132,1.132,0,0,1,1.6,1.6l-1.024,1.024a1.132,1.132,0,0,1-1.6-1.6Z" transform="translate(-291.702 -110.638)"/>
        <path id="Trazado_917132" data-name="Trazado 917132" d="M397.359,54.167a.675.675,0,0,0,.479-.2l.417-.417a2.488,2.488,0,0,0,2.972-.413l.8-.8a2.487,2.487,0,0,0-3.517-3.517l-.8.8a2.491,2.491,0,0,0-.412,2.971l-.418.418a.677.677,0,0,0,.479,1.156Zm1.309-3.587.8-.8a1.132,1.132,0,0,1,1.6,1.6l-.8.8a1.132,1.132,0,1,1-1.6-1.6Z" transform="translate(-360.861 -43.754)"/>
        <path id="Trazado_917133" data-name="Trazado 917133" d="M361.647,90.057a.677.677,0,0,0,.958-.958l-.724-.724a.677.677,0,0,0-.958.958Z" transform="translate(-328.151 -80.215)"/>
        <path id="Trazado_917134" data-name="Trazado 917134" d="M401.963,128.456a.677.677,0,1,0-.958.958l.724.724a.677.677,0,0,0,.958-.958Z" transform="translate(-364.614 -116.676)"/>
        <path id="Trazado_917135" data-name="Trazado 917135" d="M69.664,320.883a.677.677,0,0,0-1.028,0l-4.343,5.067a.677.677,0,0,0,.514,1.118H66.3v5.838a.677.677,0,0,0,.677.677h4.343a.677.677,0,0,0,.677-.677v-5.838h1.494a.677.677,0,0,0,.514-1.118Zm1.657,4.831a.677.677,0,0,0-.677.677v5.838H67.655V326.39a.677.677,0,0,0-.677-.677h-.7l2.871-3.349,2.871,3.349Z" transform="translate(-58.338 -291.691)"/>
        <path id="Trazado_917136" data-name="Trazado 917136" d="M43.125,28.82a.677.677,0,0,0-.136.948,9.37,9.37,0,0,1,1.891,5.655,9.457,9.457,0,1,1-9.457-9.457,9.37,9.37,0,0,1,5.655,1.891.677.677,0,0,0,.812-1.084,10.773,10.773,0,0,0-13.614.546l-4.2-4.2,4.2-4.2a10.825,10.825,0,1,0-.958-.958l-4.2,4.2-4.2-4.2a10.773,10.773,0,0,0,.546-13.614.677.677,0,1,0-1.084.812,9.37,9.37,0,0,1,1.891,5.655,9.457,9.457,0,1,1-9.457-9.457,9.37,9.37,0,0,1,5.655,1.891.677.677,0,1,0,.812-1.084A10.715,10.715,0,0,0,10.811,0a10.811,10.811,0,1,0,7.147,18.916l4.2,4.2-4.2,4.2a10.825,10.825,0,1,0,.958.958l4.2-4.2,4.2,4.2a10.816,10.816,0,1,0,16.755.68.677.677,0,0,0-.948-.136Zm-7.7-27.465a9.457,9.457,0,1,1-9.457,9.457A9.468,9.468,0,0,1,35.423,1.354ZM10.811,44.88a9.457,9.457,0,1,1,9.457-9.457A9.468,9.468,0,0,1,10.811,44.88Z" transform="translate(0 0)"/>
      </g>
    </g>
  </g>
</svg>
