<svg xmlns="http://www.w3.org/2000/svg" width="71" height="71" viewBox="0 0 71 71">
  <g id="Grupo_1119527" data-name="Grupo 1119527" transform="translate(-613.543 -5198)">
    <circle id="Elipse_11626" data-name="Elipse 11626" cx="35.5" cy="35.5" r="35.5" transform="translate(613.543 5198)" fill="#fff"/>
    <g id="Grupo_1119526" data-name="Grupo 1119526" transform="translate(608.395 5209)">
      <path id="Trazado_917158" data-name="Trazado 917158" d="M148.648,176.461v-.581a2.177,2.177,0,0,1,2.161-2.179h-1.843a2.177,2.177,0,0,1-2.161-2.179v-.581a2.184,2.184,0,0,1,.791-1.682h-3.984v-6.82a2.543,2.543,0,0,0-2.54-2.54h-2.032a.508.508,0,0,0-.508.508v12.083H135.4v-1.145a.484.484,0,0,0-.482-.482h-3.471v7.9a7.5,7.5,0,0,1,3.953,3.681,7.375,7.375,0,0,1,.685,2.35h2.61a5.112,5.112,0,0,0,4.753,3.231h3.838a2.184,2.184,0,0,1-.791-1.682v-.581a2.176,2.176,0,0,1,2.161-2.179H150.2a2.176,2.176,0,0,1-2.161-2.179v-.581a2.177,2.177,0,0,1,2.161-2.179h.614a2.176,2.176,0,0,1-2.161-2.179Z" transform="translate(-103.282 -144.482)" fill="#fed2a4"/>
      <path id="Trazado_917159" data-name="Trazado 917159" d="M131.451,281.506a7.5,7.5,0,0,1,3.953,3.681V274.092a.484.484,0,0,0-.482-.482h-3.471Z" transform="translate(-103.282 -247.229)" fill="#d4f2f6"/>
      <path id="Trazado_917160" data-name="Trazado 917160" d="M176.089,159.9a.508.508,0,0,0-.508.508v12.083h-3.13v2.41h5.058a.482.482,0,0,0,.482-.482V162.334c0-1.226,0-2,0-2.436h-1.9Z" transform="translate(-140.329 -144.481)" fill="#ffbd86"/>
      <path id="Trazado_917161" data-name="Trazado 917161" d="M289.68,405.5a2.176,2.176,0,0,0-2.161,2.179v.581a2.176,2.176,0,0,0,2.161,2.179h6.483a2.176,2.176,0,0,0,2.161-2.179v-.581a2.176,2.176,0,0,0-2.161-2.179Z" transform="translate(-244.302 -366.398)" fill="#fed2a4"/>
      <path id="Trazado_917162" data-name="Trazado 917162" d="M289.68,422.537h6.483a2.17,2.17,0,0,0,2.051-1.5,2.17,2.17,0,0,1,.11.681v.581a2.176,2.176,0,0,1-2.161,2.179H289.68a2.176,2.176,0,0,1-2.161-2.179v-.581a2.173,2.173,0,0,1,.11-.681A2.17,2.17,0,0,0,289.68,422.537Z" transform="translate(-244.302 -380.442)" fill="#ffbd86"/>
      <path id="Trazado_917163" data-name="Trazado 917163" d="M305.6,354.268a2.177,2.177,0,0,0-2.161,2.179v.581a2.176,2.176,0,0,0,2.161,2.179h6.483a2.177,2.177,0,0,0,2.161-2.179v-.581a2.177,2.177,0,0,0-2.161-2.179Z" transform="translate(-258.69 -320.11)" fill="#fed2a4"/>
      <path id="Trazado_917164" data-name="Trazado 917164" d="M305.6,371.31h6.483a2.17,2.17,0,0,0,2.051-1.5,2.173,2.173,0,0,1,.11.681v.581a2.177,2.177,0,0,1-2.161,2.179H305.6a2.176,2.176,0,0,1-2.161-2.179v-.581a2.173,2.173,0,0,1,.11-.681A2.17,2.17,0,0,0,305.6,371.31Z" transform="translate(-258.69 -334.154)" fill="#ffbd86"/>
      <path id="Trazado_917165" data-name="Trazado 917165" d="M311.974,303.04a2.177,2.177,0,0,0-2.161,2.179v.581a2.177,2.177,0,0,0,2.161,2.179h6.483a2.176,2.176,0,0,0,2.161-2.179v-.581a2.176,2.176,0,0,0-2.161-2.179Z" transform="translate(-264.446 -273.821)" fill="#fed2a4"/>
      <path id="Trazado_917166" data-name="Trazado 917166" d="M311.975,320.081h6.483a2.17,2.17,0,0,0,2.051-1.5,2.177,2.177,0,0,1,.11.681v.581a2.176,2.176,0,0,1-2.161,2.179h-6.483a2.177,2.177,0,0,1-2.161-2.179v-.581a2.174,2.174,0,0,1,.11-.681A2.17,2.17,0,0,0,311.975,320.081Z" transform="translate(-264.447 -287.865)" fill="#ffbd86"/>
      <path id="Trazado_917167" data-name="Trazado 917167" d="M292.864,251.811a2.177,2.177,0,0,0-2.161,2.179v.581a2.177,2.177,0,0,0,2.161,2.179h6.483a2.176,2.176,0,0,0,2.161-2.179v-.581a2.177,2.177,0,0,0-2.161-2.179Z" transform="translate(-247.179 -227.532)" fill="#fed2a4"/>
      <path id="Trazado_917168" data-name="Trazado 917168" d="M292.865,268.853h6.483a2.17,2.17,0,0,0,2.051-1.5,2.176,2.176,0,0,1,.11.681v.581a2.176,2.176,0,0,1-2.161,2.179h-6.483a2.177,2.177,0,0,1-2.161-2.179v-.581a2.173,2.173,0,0,1,.11-.681A2.17,2.17,0,0,0,292.865,268.853Z" transform="translate(-247.18 -241.576)" fill="#ffbd86"/>
      <path id="Trazado_917169" data-name="Trazado 917169" d="M131.451,276.5h3.471a.483.483,0,0,1,.482.482v-2.893a.484.484,0,0,0-.482-.482h-3.471Z" transform="translate(-103.282 -247.229)" fill="#a6e7f0"/>
      <path id="Trazado_917170" data-name="Trazado 917170" d="M48.924,269.253a7.507,7.507,0,0,1,2.8.541V261.13a.484.484,0,0,0-.482-.482H43.7a.484.484,0,0,0-.482.482v10.744a7.494,7.494,0,0,1,5.7-2.621Z" transform="translate(-23.558 -235.517)" fill="#08a9f1"/>
      <path id="Trazado_917171" data-name="Trazado 917171" d="M51.245,260.648H43.7a.484.484,0,0,0-.482.482v2.893a.483.483,0,0,1,.482-.482h7.543a.483.483,0,0,1,.482.482V261.13A.484.484,0,0,0,51.245,260.648Z" transform="translate(-23.558 -235.517)" fill="#0290cf"/>
      <ellipse id="Elipse_11870" data-name="Elipse 11870" cx="7.495" cy="7.453" rx="7.495" ry="7.453" transform="translate(17.871 33.736)" fill="#97d729"/>
      <path id="Trazado_917172" data-name="Trazado 917172" d="M27.54,357.347a7.466,7.466,0,0,1,6.049-7.313,7.571,7.571,0,0,0-1.446-.14,7.454,7.454,0,1,0,0,14.907,7.571,7.571,0,0,0,1.446-.14,7.466,7.466,0,0,1-6.049-7.313Z" transform="translate(-6.776 -316.158)" fill="#8bc727"/>
      <path id="Trazado_917173" data-name="Trazado 917173" d="M296.33,81.978a.582.582,0,0,1-.269-.066l-3.567-1.857-3.567,1.857a.585.585,0,0,1-.61-.044.571.571,0,0,1-.231-.561l.682-3.933-2.885-2.786a.57.57,0,0,1-.147-.588.578.578,0,0,1,.468-.391l3.988-.574,1.783-3.579a.582.582,0,0,1,1.039,0l1.784,3.579,3.988.574a.578.578,0,0,1,.468.391.57.57,0,0,1-.147.588l-2.885,2.786.681,3.933a.572.572,0,0,1-.231.561A.583.583,0,0,1,296.33,81.978Z" transform="translate(-242.665 -62.472)" fill="#ffdc48"/>
      <path id="Trazado_917174" data-name="Trazado 917174" d="M290.979,119.018l.682-3.933-2.885-2.786a.572.572,0,0,1-.172-.36l-2.4.345a.578.578,0,0,0-.468.391.57.57,0,0,0,.147.588l2.885,2.786-.682,3.933a.571.571,0,0,0,.23.561.585.585,0,0,0,.61.044l2.162-1.126A.569.569,0,0,1,290.979,119.018Z" transform="translate(-242.665 -101.146)" fill="#fac600"/>
      <path id="Trazado_917175" data-name="Trazado 917175" d="M69.352,399.413l-3.464,3.445L64.221,401.2a.723.723,0,0,0-1.02,1.026l2.176,2.164a.723.723,0,0,0,1.02,0l3.974-3.952a.723.723,0,0,0-1.02-1.025Z" transform="translate(-41.42 -360.712)"/>
      <path id="Trazado_917176" data-name="Trazado 917176" d="M292.117,66.118,288.5,65.6l-1.614-3.239a1.305,1.305,0,0,0-2.334,0L282.943,65.6l-3.613.52a1.3,1.3,0,0,0-.72,2.215l2.61,2.519-.616,3.556a1.3,1.3,0,0,0,1.887,1.37l3.233-1.683,3.233,1.683a1.311,1.311,0,0,0,.6.148,1.3,1.3,0,0,0,1.284-1.517l-.616-3.556,2.609-2.519a1.3,1.3,0,0,0-.719-2.216Zm-3.17,3.96a.723.723,0,0,0-.21.644l.63,3.64-3.31-1.723a.723.723,0,0,0-.668,0l-3.31,1.723.631-3.64a.723.723,0,0,0-.21-.644l-2.664-2.571,3.688-.531a.723.723,0,0,0,.544-.393l1.655-3.322,1.656,3.322a.723.723,0,0,0,.544.393l3.687.531Z" transform="translate(-235.895 -55.696)"/>
      <path id="Trazado_917177" data-name="Trazado 917177" d="M465.835,75.5a.723.723,0,0,0-.987-.268l-1.64.938a.723.723,0,1,0,.719,1.255l1.64-.938A.723.723,0,0,0,465.835,75.5Z" transform="translate(-402.723 -67.896)"/>
      <path id="Trazado_917178" data-name="Trazado 917178" d="M416.59,20.231a.723.723,0,0,0-.989.261l-.947,1.626a.723.723,0,1,0,1.25.728l.947-1.626A.723.723,0,0,0,416.59,20.231Z" transform="translate(-359.09 -18.191)"/>
      <path id="Trazado_917179" data-name="Trazado 917179" d="M349.314,3.324a.723.723,0,0,0,.723-.723V.723a.723.723,0,0,0-1.446,0V2.6A.723.723,0,0,0,349.314,3.324Z" transform="translate(-299.486)"/>
      <path id="Trazado_917180" data-name="Trazado 917180" d="M273.855,22.847a.723.723,0,0,0,1.25-.728l-.946-1.626a.723.723,0,0,0-1.25.728Z" transform="translate(-231.012 -18.193)"/>
      <path id="Trazado_917181" data-name="Trazado 917181" d="M217.7,76.493l1.639.939a.723.723,0,0,0,.719-1.255l-1.639-.939a.723.723,0,0,0-.719,1.255Z" transform="translate(-180.885 -67.897)"/>
      <path id="Trazado_917182" data-name="Trazado 917182" d="M54.622,166.267a2.9,2.9,0,0,0,.43-1.522v-.581a2.9,2.9,0,0,0-2.884-2.9h-1.4a.723.723,0,1,0,0,1.446h1.4a1.449,1.449,0,0,1,1.438,1.456v.581a1.449,1.449,0,0,1-1.438,1.456H45.685a1.449,1.449,0,0,1-1.438-1.456v-.581a1.449,1.449,0,0,1,1.438-1.456h1.709a.723.723,0,0,0,0-1.446H45.685a2.855,2.855,0,0,0-1.613.5H41.055v-6.1a3.267,3.267,0,0,0-3.263-3.263H35.76a1.232,1.232,0,0,0-1.231,1.231v11.359H32.845v-.421a1.207,1.207,0,0,0-1.205-1.205H28.892v-.044a1.207,1.207,0,0,0-1.205-1.205H20.144a1.207,1.207,0,0,0-1.205,1.205v4.25a.723.723,0,1,0,1.446,0v-4.009h7.061v7.425a8.239,8.239,0,0,0-7.061,1.413v-1.454a.723.723,0,1,0-1.446,0v2.866a8.109,8.109,0,0,0-1.791,5.086,8.218,8.218,0,0,0,16.437,0c0-.053,0-.105,0-.158h1.368a5.8,5.8,0,0,0,5.222,3.231h3.6a2.856,2.856,0,0,0,1.613.5h6.483a2.9,2.9,0,0,0,2.884-2.9v-.581a2.9,2.9,0,0,0-.475-1.593,2.905,2.905,0,0,0,2.01-2.766v-.581a2.9,2.9,0,0,0-.719-1.914,2.906,2.906,0,0,0,1.333-2.445V169.1A2.9,2.9,0,0,0,54.622,166.267ZM25.366,185.625a6.73,6.73,0,1,1,6.772-6.73A6.759,6.759,0,0,1,25.366,185.625Zm17.128-6.644v.581a2.905,2.905,0,0,0,.162.959H40.17a4.366,4.366,0,0,1-4.08-2.774.723.723,0,0,0-.672-.457H33.425a8.079,8.079,0,0,0-.579-1.778v-2.448a.723.723,0,0,0-1.446,0v.286a8.259,8.259,0,0,0-2.507-1.839v-6.7H31.4v4.88a.723.723,0,0,0,1.446,0v-3.254h2.407a.723.723,0,0,0,.723-.723V153.845h1.817a1.819,1.819,0,0,1,1.817,1.817v6.82a.723.723,0,0,0,.723.723h2.632a2.905,2.905,0,0,0-.163.959v.581a2.9,2.9,0,0,0,2.273,2.836,2.9,2.9,0,0,0-.43,1.522v.581a2.9,2.9,0,0,0,.719,1.914,2.906,2.906,0,0,0-1.333,2.445v.581a2.9,2.9,0,0,0,.475,1.593A2.906,2.906,0,0,0,42.494,178.982Zm10.805.581a1.449,1.449,0,0,1-1.438,1.456H45.378a1.449,1.449,0,0,1-1.438-1.456v-.581a1.449,1.449,0,0,1,1.438-1.456h6.483a1.449,1.449,0,0,1,1.438,1.456Zm1.536-4.939a1.449,1.449,0,0,1-1.438,1.456H46.913a1.449,1.449,0,0,1-1.438-1.456v-.581a1.449,1.449,0,0,1,1.438-1.456H53.4a1.449,1.449,0,0,1,1.438,1.456Zm.614-4.939a1.449,1.449,0,0,1-1.438,1.456H47.528a1.449,1.449,0,0,1-1.438-1.456V169.1a1.449,1.449,0,0,1,1.438-1.456h6.483a1.448,1.448,0,0,1,1.438,1.456Z" transform="translate(0 -137.705)"/>
    </g>
  </g>
</svg>
