<svg xmlns="http://www.w3.org/2000/svg" width="71" height="71" viewBox="0 0 71 71">
  <g id="Grupo_1119525" data-name="Grupo 1119525" transform="translate(-193.543 -5316)">
    <circle id="Elipse_11626" data-name="Elipse 11626" cx="35.5" cy="35.5" r="35.5" transform="translate(193.543 5316)" fill="#fff"/>
    <g id="Grupo_1119524" data-name="Grupo 1119524" transform="translate(204.543 5327)">
      <g id="Grupo_1119522" data-name="Grupo 1119522" transform="translate(0.798 0.798)">
        <g id="Grupo_1119506" data-name="Grupo 1119506" transform="translate(4.787 38.784)">
          <path id="Trazado_917137" data-name="Trazado 917137" d="M21.362,58.7H7l.223-2.2a8.533,8.533,0,0,1,4.859-6.886l2.1,3.5,2.394-1.6,2.394,1.6,2.1-3.5a7.969,7.969,0,0,1,1.755,1.109,8.288,8.288,0,0,1,1.157,1.149,8.468,8.468,0,0,1,1.787,3.638,7.992,7.992,0,0,1,.16.989l.223,2.2Z" transform="translate(-7 -49.61)" fill="#fcd770"/>
        </g>
        <g id="Grupo_1119507" data-name="Grupo 1119507" transform="translate(9.87 38.298)">
          <path id="Trazado_917138" data-name="Trazado 917138" d="M21.053,49a8.726,8.726,0,0,1,1.3.487l-2.1,3.5-2.394-1.6-2.394,1.6-2.1-3.5a8.726,8.726,0,0,1,1.3-.487l3.191,1.6Z" transform="translate(-13.37 -49)" fill="#ffc729"/>
        </g>
        <g id="Grupo_1119508" data-name="Grupo 1119508" transform="translate(22.659 24.734)">
          <path id="Trazado_917139" data-name="Trazado 917139" d="M54.613,36.787,48.23,41.574V39.181H29.4a9.475,9.475,0,0,0,1.141-3.191H33.07a2.388,2.388,0,0,0,1.691-.7,2.264,2.264,0,0,0,.559-.894H48.23V32Z" transform="translate(-29.4 -32)" fill="#ff826e"/>
        </g>
        <g id="Grupo_1119509" data-name="Grupo 1119509" transform="translate(27.128 11.968)">
          <path id="Trazado_917140" data-name="Trazado 917140" d="M50.957,20.787l-6.383,4.787V23.181H35V19.989l2.13-1.6h7.444V16Z" transform="translate(-35 -16)" fill="#ff826e"/>
        </g>
        <g id="Grupo_1119510" data-name="Grupo 1119510" transform="translate(20.609 37.5)">
          <path id="Trazado_917141" data-name="Trazado 917141" d="M49.306,52.787l-6.383,4.787V55.181H29.774a8.468,8.468,0,0,0-1.787-3.638,8.288,8.288,0,0,0-1.157-1.149H42.923V48Z" transform="translate(-26.83 -48)" fill="#ff826e"/>
        </g>
        <g id="Grupo_1119511" data-name="Grupo 1119511" transform="translate(1.596 7.979)">
          <path id="Trazado_917142" data-name="Trazado 917142" d="M8.992,22.37,7.516,23.1a2.393,2.393,0,0,0-1.324,2.138v1.715H3.8A2.212,2.212,0,0,0,3,27.1V23.766A12.762,12.762,0,0,1,15.766,11h.024a7.35,7.35,0,0,0,.758,2.8,7.473,7.473,0,0,0,2.194,2.625l3.407,2.553V22.17l-.654.327a12.038,12.038,0,0,1-9.175.654,17.833,17.833,0,0,0-3.327-.782Z" transform="translate(-3 -11)" fill="#b27946"/>
        </g>
        <g id="Grupo_1119512" data-name="Grupo 1119512" transform="translate(11.17 36.359)">
          <path id="Trazado_917143" data-name="Trazado 917143" d="M18.191,46.913a9.56,9.56,0,0,0,2.545-.343l.646,1.939-3.191,1.6L15,48.509l.646-1.939A9.516,9.516,0,0,0,18.191,46.913Z" transform="translate(-15 -46.57)" fill="#f0d0b4"/>
        </g>
        <g id="Grupo_1119513" data-name="Grupo 1119513" transform="translate(23.8 23.936)">
          <path id="Trazado_917144" data-name="Trazado 917144" d="M35.753,33.394a2.212,2.212,0,0,1-.144.8,2.264,2.264,0,0,1-.559.894,2.388,2.388,0,0,1-1.691.7H30.83a9.571,9.571,0,0,0,.136-1.6V31h2.394A2.39,2.39,0,0,1,35.753,33.394Z" transform="translate(-30.83 -31)" fill="#f0d0b4"/>
        </g>
        <g id="Grupo_1119514" data-name="Grupo 1119514" transform="translate(4.787 19.149)">
          <path id="Trazado_917145" data-name="Trazado 917145" d="M24.872,37.766A9.59,9.59,0,0,1,14.029,42.21L9.8,39.753A9.628,9.628,0,0,1,7,32.979V28.072a2.393,2.393,0,0,1,1.324-2.138L9.8,25.2a17.833,17.833,0,0,1,3.327.782,12.038,12.038,0,0,0,9.175-.654L22.957,25a3.191,3.191,0,0,0,3.191,3.191v4.787a9.571,9.571,0,0,1-.136,1.6,9.475,9.475,0,0,1-1.141,3.191Z" transform="translate(-7 -25)" fill="#f0d0b4"/>
        </g>
        <g id="Grupo_1119515" data-name="Grupo 1119515" transform="translate(0 23.936)">
          <path id="Trazado_917146" data-name="Trazado 917146" d="M5.923,35.787H3.394a2.39,2.39,0,0,1-.8-4.644,2.212,2.212,0,0,1,.8-.144H5.787v3.191A9.571,9.571,0,0,0,5.923,35.787Z" transform="translate(-1 -31)" fill="#f0d0b4"/>
        </g>
        <g id="Grupo_1119516" data-name="Grupo 1119516" transform="translate(11.17 30.319)">
          <path id="Trazado_917147" data-name="Trazado 917147" d="M21.383,39l-.215.87a3.068,3.068,0,0,1-5.952,0L15,39Z" transform="translate(-15 -39)" fill="#ff826e"/>
        </g>
        <g id="Grupo_1119517" data-name="Grupo 1119517" transform="translate(20.745 19.149)">
          <path id="Trazado_917148" data-name="Trazado 917148" d="M27,25h6.383A3.191,3.191,0,1,1,27,25Z" transform="translate(-27 -25)" fill="#aab2bd"/>
        </g>
        <g id="Grupo_1119518" data-name="Grupo 1119518" transform="translate(20.745 15.957)">
          <path id="Trazado_917149" data-name="Trazado 917149" d="M27,21h6.383v3.191H27Z" transform="translate(-27 -21)" fill="#aab2bd"/>
        </g>
        <g id="Grupo_1119519" data-name="Grupo 1119519" transform="translate(14.362)">
          <path id="Trazado_917150" data-name="Trazado 917150" d="M38.149,8.444a7.444,7.444,0,0,1-2.976,5.96l-1.277.957-2.13,1.6H25.383L21.976,14.4a7.473,7.473,0,0,1-2.194-2.625,7.35,7.35,0,0,1-.758-2.8C19.008,8.8,19,8.62,19,8.444A7.447,7.447,0,0,1,26.444,1H30.7A7.447,7.447,0,0,1,38.149,8.444Z" transform="translate(-19 -1)" fill="#ffeaa7"/>
        </g>
        <g id="Grupo_1119520" data-name="Grupo 1119520" transform="translate(23.936 3.191)">
          <path id="Trazado_917151" data-name="Trazado 917151" d="M34.989,7.394l.878.3a2.21,2.21,0,0,1,0,4.2l-.878.3-.319.949a2.107,2.107,0,0,1-3.487.83L31,13.777V5.8l.184-.184a2.107,2.107,0,0,1,3.487.83Z" transform="translate(-31 -5)" fill="#dfb28b"/>
        </g>
        <g id="Grupo_1119521" data-name="Grupo 1119521" transform="translate(17.553 3.191)">
          <path id="Trazado_917152" data-name="Trazado 917152" d="M25.394,7.394l.319-.949a2.107,2.107,0,0,1,3.487-.83l.184.184v7.979l-.184.184a2.107,2.107,0,0,1-3.487-.83l-.319-.949-.878-.3a2.21,2.21,0,0,1,0-4.2Z" transform="translate(-23 -5)" fill="#dfb28b"/>
        </g>
      </g>
      <g id="Grupo_1119523" data-name="Grupo 1119523">
        <path id="Trazado_917153" data-name="Trazado 917153" d="M24.059,12.442l.5.167.191.574a2.908,2.908,0,0,0,4.429,1.459,2.874,2.874,0,0,0,1.672.529,2.9,2.9,0,0,0,2.757-1.987l.191-.573.5-.167a3.012,3.012,0,0,0,0-5.715l-.5-.167-.191-.574a2.907,2.907,0,0,0-4.429-1.459,2.907,2.907,0,0,0-4.429,1.459l-.191.573-.5.167a3.012,3.012,0,0,0,0,5.715ZM32.1,6.492l.1.3-.977.488L31.931,8.7l1.3-.65.566.189a1.416,1.416,0,0,1,0,2.687l-.566.189-1.3-.65-.714,1.427.977.488-.1.294a1.3,1.3,0,0,1-2.118.557v-7.3a1.3,1.3,0,0,1,2.118.556Zm-7.532,1.75.566-.189,1.3.65.714-1.427-.977-.488.1-.294a1.3,1.3,0,0,1,2.118-.557v7.3a1.306,1.306,0,0,1-2.118-.556l-.1-.3.977-.488-.714-1.427-1.3.65-.566-.189a1.416,1.416,0,0,1,0-2.687Z" transform="translate(-4.447 -0.809)"/>
        <path id="Trazado_917154" data-name="Trazado 917154" d="M14.787,32.8V32h-1.6v.8a.8.8,0,0,1-1.6,0V32H10v.8a2.394,2.394,0,1,0,4.787,0Z" transform="translate(-2.021 -6.468)"/>
        <path id="Trazado_917155" data-name="Trazado 917155" d="M24.394,35.191A2.4,2.4,0,0,0,26.787,32.8V32h-1.6v.8a.8.8,0,0,1-1.6,0V32H22v.8A2.4,2.4,0,0,0,24.394,35.191Z" transform="translate(-4.447 -6.468)"/>
        <path id="Trazado_917156" data-name="Trazado 917156" d="M21.68,39.861,22.146,38H13.719l.466,1.861a3.863,3.863,0,0,0,7.5,0ZM15.766,39.6H20.1a2.268,2.268,0,0,1-4.332,0Z" transform="translate(-2.773 -7.681)"/>
        <path id="Trazado_917157" data-name="Trazado 917157" d="M36.7,39.893H21.687a9.382,9.382,0,0,0-2.709-1.439l-.266-.8a10.415,10.415,0,0,0,5.173-4.147h17.6V36.7L50,30.318l-8.511-6.382v3.191H30.319a3.2,3.2,0,0,0-3.191-3.191h-1.6v-.081a4,4,0,0,0,3.111-3.111H36.7v3.191l8.511-6.383L36.7,11.17v3.191H32.373A8.235,8.235,0,0,0,26.862,0H22.606a8.249,8.249,0,0,0-8.233,8.019A13.569,13.569,0,0,0,1.6,21.542V24.38a3.181,3.181,0,0,0,1.6,5.939H5.077a10.4,10.4,0,0,0,6.53,7.339l-.266.8a9.3,9.3,0,0,0-6.33,7.936L4.7,49.468H25.616l-.307-3.076c0-.039-.011-.077-.016-.116H36.7v3.191l8.511-6.383L36.7,36.7Zm-24.785.069,2.339,1.17-1.237.825-1.18-1.966Zm6.485,0,.077.029L17.3,41.957l-1.237-.825ZM29.875,28.723h13.21v-1.6l4.255,3.191L43.085,33.51v-1.6H24.732a10.361,10.361,0,0,0,.511-1.6h1.885A3.181,3.181,0,0,0,29.875,28.723Zm-2.748-3.191a1.6,1.6,0,1,1,0,3.191H25.491c.021-.264.041-.528.041-.8V25.532ZM24.734,22.34a2.39,2.39,0,0,1-2.247-1.6H26.98A2.389,2.389,0,0,1,24.734,22.34ZM22.34,17.553h4.787v1.6H22.34Zm15.957-1.6v-1.6l4.255,3.191L38.3,20.745v-1.6H28.723V17.154l1.6-1.2ZM22.606,1.6h4.256a6.649,6.649,0,0,1,3.989,11.968L27.66,15.957H21.809l-3.191-2.394A6.649,6.649,0,0,1,22.606,1.6ZM3.191,21.542A11.975,11.975,0,0,1,14.491,9.61,8.274,8.274,0,0,0,17.66,14.84l3.085,2.314v2.3l-.213.106a11.342,11.342,0,0,1-8.566.609,19.841,19.841,0,0,0-5.513-1.005A4.341,4.341,0,0,1,8.8,16.041l.337-.168-.714-1.427-.337.168a5.931,5.931,0,0,0-3.3,5.333v.8h.894l.064,0a3.172,3.172,0,0,0-.957,2.275v.914h-1.6Zm0,7.181a1.6,1.6,0,0,1,0-3.191h1.6v2.394c0,.27.02.534.041.8Zm3.191-.8v-4.9a1.589,1.589,0,0,1,.882-1.427l1.251-.626a18.187,18.187,0,0,1,2.945.714,12.726,12.726,0,0,0,9.479-.565,3.989,3.989,0,0,0,3,2.737v4.07a8.777,8.777,0,0,1-17.553,0ZM15.159,38.3a10.381,10.381,0,0,0,2.018-.2l.2.594L15.159,39.8l-2.216-1.107.2-.594a10.381,10.381,0,0,0,2.018.2Zm5.585,9.574V45.809a1.913,1.913,0,0,1,.564-1.362L20.18,43.319a3.5,3.5,0,0,0-1.032,2.49v2.063H11.17V45.809a3.5,3.5,0,0,0-1.032-2.49L9.01,44.447a1.914,1.914,0,0,1,.564,1.362v2.063H6.466L6.6,46.551a7.7,7.7,0,0,1,3.78-5.895l2.133,3.557,2.648-1.765,2.647,1.765,2.133-3.557a7.7,7.7,0,0,1,3.78,5.895l.133,1.321ZM38.3,39.893l4.255,3.191L38.3,46.276v-1.6H24.971a9.289,9.289,0,0,0-1.646-3.191H38.3Z"/>
      </g>
    </g>
  </g>
</svg>
