<svg xmlns="http://www.w3.org/2000/svg" xmlns:xlink="http://www.w3.org/1999/xlink" width="93.879" height="93.879" viewBox="0 0 93.879 93.879">
  <defs>
    <filter id="Trazado_874925" x="0" y="0" width="93.879" height="93.879" filterUnits="userSpaceOnUse">
      <feOffset dy="3" input="SourceAlpha"/>
      <feGaussianBlur stdDeviation="3" result="blur"/>
      <feFlood flood-opacity="0.161"/>
      <feComposite operator="in" in2="blur"/>
      <feComposite in="SourceGraphic"/>
    </filter>
    <clipPath id="clip-path">
      <path id="Trazado_909641" data-name="Trazado 909641" d="M35.591,0A35.591,35.591,0,0,1,71.182,35.591h0A35.591,35.591,0,0,1,0,35.592H0A35.591,35.591,0,0,1,35.591,0Z" transform="translate(0 0)" fill="#9ad354"/>
    </clipPath>
  </defs>
  <g id="Grupo_1117972" data-name="Grupo 1117972" transform="translate(-849.051 -5151)">
    <g id="Grupo_1111552" data-name="Grupo 1111552" transform="translate(858.051 5157)">
      <g id="Grupo_1111316" data-name="Grupo 1111316" transform="translate(0 0)">
        <g id="Grupo_1109835" data-name="Grupo 1109835" transform="translate(0 0)">
          <g id="Grupo_1107913" data-name="Grupo 1107913" transform="translate(0 0)">
            <g transform="matrix(1, 0, 0, 1, -9, -6)" filter="url(#Trazado_874925)">
              <g id="Trazado_874925-2" data-name="Trazado 874925" transform="translate(9 6)" fill="#e2dacc" opacity="0.859">
                <path d="M 37.93948745727539 74.37929534912109 C 33.01953125 74.37929534912109 28.24753189086914 73.41604614257812 23.75605392456055 71.51631164550781 C 19.41704368591309 69.68106842041016 15.51989841461182 67.05344390869141 12.17287635803223 63.70643615722656 C 8.825854301452637 60.35941314697266 6.198220729827881 56.4622802734375 4.362976551055908 52.1232795715332 C 2.463243007659912 47.63181304931641 1.499998569488525 42.85982513427734 1.499998569488525 37.93986892700195 C 1.499998569488525 33.01947021484375 2.463243007659912 28.24748039245605 4.362976551055908 23.75601387023926 C 6.198220729827881 19.41701507568359 8.825854301452637 15.51988124847412 12.17287635803223 12.17285919189453 C 15.51989841461182 8.825847625732422 19.41704368591309 6.198225498199463 23.75605392456055 4.362980842590332 C 28.24753189086914 2.463247776031494 33.01953125 1.500003218650818 37.93948745727539 1.500003218650818 C 42.85945510864258 1.500003218650818 47.63145446777344 2.463247776031494 52.12292098999023 4.362980842590332 C 56.46193313598633 6.198225498199463 60.35907745361328 8.825847625732422 63.70610046386719 12.17285919189453 C 67.05312347412109 15.51988124847412 69.68075561523438 19.41701507568359 71.51599884033203 23.75601387023926 C 73.41573333740234 28.24748039245605 74.37897491455078 33.01947021484375 74.37897491455078 37.93942642211914 C 74.37897491455078 42.85982513427734 73.41573333740234 47.63181304931641 71.51599884033203 52.1232795715332 C 69.68075561523438 56.4622802734375 67.05312347412109 60.35941314697266 63.70610046386719 63.70643615722656 C 60.35907745361328 67.05344390869141 56.46193313598633 69.68106842041016 52.12292098999023 71.51631164550781 C 47.63145446777344 73.41604614257812 42.85945510864258 74.37929534912109 37.93948745727539 74.37929534912109 Z" stroke="none"/>
                <path d="M 37.93948745727539 3 C 33.22136306762695 3 28.64596176147461 3.923370361328125 24.34038925170898 5.744483947753906 C 20.18017578125 7.504096984863281 16.44328689575195 10.02377319335938 13.23353576660156 13.23352432250977 C 10.02378845214844 16.44326019287109 7.504112243652344 20.18013381958008 5.744483947753906 24.34034729003906 C 3.923377990722656 28.64592361450195 3 33.22130966186523 3 37.93987274169922 C 3 42.65798568725586 3.923377990722656 47.23337173461914 5.744483947753906 51.53894805908203 C 7.504112243652344 55.69915771484375 10.02378845214844 59.43603515625 13.23353576660156 62.64577484130859 C 16.44328689575195 65.85552215576172 20.18017578125 68.37519836425781 24.34038925170898 70.13481140136719 C 28.64596176147461 71.95592498779297 33.22136306762695 72.87929534912109 37.93948745727539 72.87929534912109 C 42.65761184692383 72.87929534912109 47.23301315307617 71.95592498779297 51.53859710693359 70.13481140136719 C 55.69881439208984 68.37519836425781 59.43568801879883 65.85552215576172 62.64543914794922 62.64577484130859 C 65.85518646240234 59.43603515625 68.3748779296875 55.69915771484375 70.13449096679688 51.53894805908203 C 71.95559692382812 47.23337173461914 72.87897491455078 42.65798568725586 72.87897491455078 37.93942260742188 C 72.87897491455078 33.22130966186523 71.95559692382812 28.64592361450195 70.13449096679688 24.34034729003906 C 68.3748779296875 20.18013381958008 65.85518646240234 16.44326019287109 62.64543914794922 13.23352432250977 C 59.43568801879883 10.02377319335938 55.69881439208984 7.504096984863281 51.53859710693359 5.744483947753906 C 47.23301315307617 3.923370361328125 42.65761184692383 3 37.93948745727539 3 M 37.93948745727539 0 C 58.89289855957031 0 75.87897491455078 16.98606109619141 75.87897491455078 37.93942260742188 L 75.87897491455078 37.93987274169922 C 75.87897491455078 58.89323425292969 58.89289855957031 75.87929534912109 37.93948745727539 75.87929534912109 C 16.98608779907227 75.87929534912109 0 58.89323425292969 0 37.93987274169922 L 0 37.93942260742188 C 0 16.98606109619141 16.98608779907227 0 37.93948745727539 0 Z" stroke="none" fill="#fff"/>
              </g>
            </g>
            <g id="Trazado_874923" data-name="Trazado 874923" fill="none">
              <path d="M37.939,0A37.939,37.939,0,0,1,75.879,37.939h0A37.939,37.939,0,0,1,0,37.94H0A37.939,37.939,0,0,1,37.939,0Z" stroke="none"/>
              <path d="M 37.93948745727539 3 C 33.22136306762695 3 28.64596176147461 3.923370361328125 24.34038925170898 5.744483947753906 C 20.18017578125 7.504096984863281 16.44328689575195 10.02377319335938 13.23353576660156 13.23352432250977 C 10.02378845214844 16.44326019287109 7.504112243652344 20.18013381958008 5.744483947753906 24.34034729003906 C 3.923377990722656 28.64592361450195 3 33.22130966186523 3 37.93987274169922 C 3 42.65798568725586 3.923377990722656 47.23337173461914 5.744483947753906 51.53894805908203 C 7.504112243652344 55.69915771484375 10.02378845214844 59.43603515625 13.23353576660156 62.64577484130859 C 16.44328689575195 65.85552215576172 20.18017578125 68.37519836425781 24.34038925170898 70.13481140136719 C 28.64596176147461 71.95592498779297 33.22136306762695 72.87929534912109 37.93948745727539 72.87929534912109 C 42.65761184692383 72.87929534912109 47.23301315307617 71.95592498779297 51.53859710693359 70.13481140136719 C 55.69881439208984 68.37519836425781 59.43568801879883 65.85552215576172 62.64543914794922 62.64577484130859 C 65.85518646240234 59.43603515625 68.3748779296875 55.69915771484375 70.13449096679688 51.53894805908203 C 71.95559692382812 47.23337173461914 72.87897491455078 42.65798568725586 72.87897491455078 37.93942260742188 C 72.87897491455078 33.22130966186523 71.95559692382812 28.64592361450195 70.13449096679688 24.34034729003906 C 68.3748779296875 20.18013381958008 65.85518646240234 16.44326019287109 62.64543914794922 13.23352432250977 C 59.43568801879883 10.02377319335938 55.69881439208984 7.504096984863281 51.53859710693359 5.744483947753906 C 47.23301315307617 3.923370361328125 42.65761184692383 3 37.93948745727539 3 M 37.93948745727539 0 C 58.89289855957031 0 75.87897491455078 16.98606109619141 75.87897491455078 37.93942260742188 L 75.87897491455078 37.93987274169922 C 75.87897491455078 58.89323425292969 58.89289855957031 75.87929534912109 37.93948745727539 75.87929534912109 C 16.98608779907227 75.87929534912109 0 58.89323425292969 0 37.93987274169922 L 0 37.93942260742188 C 0 16.98606109619141 16.98608779907227 0 37.93948745727539 0 Z" stroke="none" fill="#fff"/>
            </g>
          </g>
        </g>
      </g>
    </g>
    <g id="Enmascarar_grupo_1098790" data-name="Enmascarar grupo 1098790" transform="translate(860.399 5159.349)" clip-path="url(#clip-path)">
      <g id="Grupo_1115150" data-name="Grupo 1115150" transform="translate(0.956 4.426)">
        <path id="Trazado_907771" data-name="Trazado 907771" d="M105,216.164h30.549v14.924H105Zm0,0" transform="translate(-90.828 -187.056)" fill="#fea02c"/>
        <path id="Trazado_907772" data-name="Trazado 907772" d="M144.939,254.556V250H139v2.616Zm0,0" transform="translate(-120.239 -216.321)" fill="#ff5d5d"/>
        <path id="Trazado_907773" data-name="Trazado 907773" d="M23.237,286.442a62.236,62.236,0,0,1,19.47-19.935l.3-.419A62.266,62.266,0,0,0,10,256.625v33.186H21.18Zm0,0" transform="translate(-8.65 -222.056)" fill="#62cd4d"/>
        <path id="Trazado_907774" data-name="Trazado 907774" d="M92.832,289.665l2.057-3.369a62.289,62.289,0,0,1,53.169-29.839v33.208Zm0,0" transform="translate(-80.302 -221.91)" fill="#a0e557"/>
        <path id="Trazado_907775" data-name="Trazado 907775" d="M105,167.435l7.558-7.6,7.558,7.6Zm0,0" transform="translate(-90.828 -138.327)" fill="#fe8f8d"/>
        <path id="Trazado_907776" data-name="Trazado 907776" d="M183.99,167.435l-7.558-7.6H161l7.558,7.6Zm0,0" transform="translate(-139.27 -138.327)" fill="#ff5d5d"/>
        <g id="Grupo_1115150-2" data-name="Grupo 1115150" transform="translate(1.35 1.35)">
          <path id="Trazado_907777" data-name="Trazado 907777" d="M358.969,39.837c-10.075-8.1-10.075-21.236,0-29.337C369.044,18.6,369.044,31.736,358.969,39.837Zm0,0" transform="translate(-305.331 -10.5)" fill="#a0e557"/>
          <path id="Trazado_907778" data-name="Trazado 907778" d="M27.385,68.512c-7.617-6.125-7.617-16.055,0-22.18C35,52.457,35,62.387,27.385,68.512Zm0,0" transform="translate(-20.097 -41.496)" fill="#a0e557"/>
          <path id="Trazado_907779" data-name="Trazado 907779" d="M34.326,337.188A52.2,52.2,0,0,0,10,331.125V341.99a41.234,41.234,0,0,1,16.852,3.626" transform="translate(-10 -287.85)" fill="#a0e557"/>
        </g>
        <path id="Trazado_907780" data-name="Trazado 907780" d="M180.547,354.11a52.576,52.576,0,0,1,43.387-23.153v10.865a41.649,41.649,0,0,0-29.4,12.288Zm0,0" transform="translate(-156.178 -286.355)" fill="#62cd4d"/>
        <path id="Trazado_907781" data-name="Trazado 907781" d="M304.944,401.457a43.129,43.129,0,0,0-30.354,12.686,1.35,1.35,0,0,0,1.914,1.9,40.411,40.411,0,0,1,28.44-11.89,1.35,1.35,0,1,0,0-2.7Zm0,0" transform="translate(-237.188 -347.339)"/>
        <path id="Trazado_907782" data-name="Trazado 907782" d="M187.134,388.386a1.349,1.349,0,0,0-1.874-.363,53.272,53.272,0,0,0-14.488,14.5,1.35,1.35,0,1,0,2.241,1.505,50.573,50.573,0,0,1,13.758-13.767A1.35,1.35,0,0,0,187.134,388.386Zm0,0" transform="translate(-147.525 -335.518)"/>
        <path id="Trazado_907783" data-name="Trazado 907783" d="M382.465,320.957a53.082,53.082,0,0,0-17.751,3.064,1.35,1.35,0,1,0,.9,2.544,50.393,50.393,0,0,1,16.851-2.909,1.35,1.35,0,0,0,0-2.7Zm0,0" transform="translate(-314.71 -277.705)"/>
        <path id="Trazado_907784" data-name="Trazado 907784" d="M19.338,60.344A61.518,61.518,0,0,1,55.255,37.716l.007,0A60.157,60.157,0,0,1,67.756,36.4a1.349,1.349,0,1,0,0-2.7,63.514,63.514,0,0,0-11.419,1.038V31.823c4.878-4.13,7.556-9.541,7.556-15.3,0-5.958-2.862-11.541-8.06-15.72a1.351,1.351,0,0,0-1.692,0c-5.2,4.179-8.06,9.762-8.06,15.72,0,5.763,2.678,11.174,7.556,15.3v3.465a63.91,63.91,0,0,0-7.567,2.223v-7.9a1.345,1.345,0,0,0-.392-.951h0l-7.558-7.6a1.351,1.351,0,0,0-.957-.4H21.73a1.35,1.35,0,0,0-.957.4l-7.558,7.6h0a1.346,1.346,0,0,0-.393.952v5.154q-1.411-.259-2.834-.454V29.5A15.4,15.4,0,0,0,15.7,17.777,15.547,15.547,0,0,0,9.484,5.635a1.35,1.35,0,0,0-1.691,0A15.546,15.546,0,0,0,1.575,17.777,15.4,15.4,0,0,0,7.288,29.5V34q-2.952-.276-5.939-.279a1.35,1.35,0,0,0,0,2.7A60.876,60.876,0,0,1,32,44.693a63.713,63.713,0,0,0-6.375,4.952A53.7,53.7,0,0,0,1.35,43.776a1.35,1.35,0,1,0,0,2.7A50.954,50.954,0,0,1,23.508,51.6a63.789,63.789,0,0,0-5.74,6.354A42.22,42.22,0,0,0,1.35,54.641a1.35,1.35,0,0,0,0,2.7A39.5,39.5,0,0,1,16.087,60.19q-1.4,1.944-2.653,3.994l-2.057,3.37a1.35,1.35,0,1,0,2.3,1.406l2.057-3.37A59.918,59.918,0,0,1,19.2,60.518,1.277,1.277,0,0,0,19.338,60.344ZM48.781,16.519a17.223,17.223,0,0,1,6.207-12.9,17.223,17.223,0,0,1,6.207,12.9,16.8,16.8,0,0,1-4.857,11.594V17.777a1.35,1.35,0,1,0-2.7,0V28.113A16.8,16.8,0,0,1,48.781,16.519ZM4.275,17.777A12.63,12.63,0,0,1,8.638,8.466,12.629,12.629,0,0,1,13,17.777a12.2,12.2,0,0,1-3.014,7.9V16.7a1.35,1.35,0,0,0-2.7,0v8.981A12.2,12.2,0,0,1,4.275,17.777Zm37.2,10.482H29.85l-4.875-4.9H36.6ZM21.73,23.92l4.314,4.339H17.417Zm-6.209,7.039H27.939v8.583q-.939-.432-1.89-.834V34.176a1.35,1.35,0,0,0-1.35-1.35H18.761a1.35,1.35,0,0,0-1.35,1.35v1.6q-.941-.245-1.89-.463Zm7.828,6.685q-1.605-.592-3.239-1.1V35.525H23.35Zm7.288,3.219v-9.9H43.371v7.6a63.346,63.346,0,0,0-6.761,3.281q-1.05.589-2.076,1.219Q32.62,41.891,30.639,40.863Zm0,0" transform="translate(0 -0.501)"/>
        <path id="Trazado_907785" data-name="Trazado 907785" d="M398.748,83.2a1.352,1.352,0,1,0-.954-.4A1.359,1.359,0,0,0,398.748,83.2Zm0,0" transform="translate(-343.761 -69.702)"/>
        <path id="Trazado_907786" data-name="Trazado 907786" d="M318.063,363.232a1.348,1.348,0,1,0,.954-.4A1.361,1.361,0,0,0,318.063,363.232Zm0,0" transform="translate(-274.792 -313.931)"/>
      </g>
    </g>
    <path id="Trazado_909642" data-name="Trazado 909642" d="M37.939,0A37.939,37.939,0,0,1,75.879,37.939h0A37.939,37.939,0,0,1,0,37.94H0A37.939,37.939,0,0,1,37.939,0Z" transform="translate(858.051 5157)" fill="none"/>
  </g>
</svg>
