<svg xmlns="http://www.w3.org/2000/svg" width="71" height="71" viewBox="0 0 71 71">
  <g id="Grupo_1119948" data-name="Grupo 1119948" transform="translate(-299.543 -10856)">
    <circle id="Elipse_11626" data-name="Elipse 11626" cx="35.5" cy="35.5" r="35.5" transform="translate(299.543 10856)" fill="#fff"/>
    <g id="Grupo_1119947" data-name="Grupo 1119947" transform="translate(310.543 10869)">
      <path id="Trazado_917414" data-name="Trazado 917414" d="M45.31,82H14.288A4.288,4.288,0,0,0,10,86.288v20.839a4.288,4.288,0,0,0,4.288,4.288h28.9l6.411,6.411V86.288A4.288,4.288,0,0,0,45.31,82Zm0,0" transform="translate(-9.057 -74.269)" fill="#ffc66c"/>
      <path id="Trazado_917415" data-name="Trazado 917415" d="M279.943,385.886a.943.943,0,1,1,.667-.276A.95.95,0,0,1,279.943,385.886Zm0,0" transform="translate(-252.696 -347.796)"/>
      <path id="Trazado_917416" data-name="Trazado 917416" d="M371.577,16.788A6.788,6.788,0,1,1,364.788,10,6.788,6.788,0,0,1,371.577,16.788Zm0,0" transform="translate(-324.247 -9.057)" fill="#a0e557"/>
      <path id="Trazado_917417" data-name="Trazado 917417" d="M48.272,7.731a7.73,7.73,0,0,0-15.4-.943H5.231A5.237,5.237,0,0,0,0,12.019V32.858A5.237,5.237,0,0,0,5.231,38.09H23.476a.943.943,0,1,0,0-1.886H5.231a3.349,3.349,0,0,1-3.346-3.346V12.019A3.349,3.349,0,0,1,5.231,8.674H32.87A7.744,7.744,0,0,0,39.6,15.4V41.282l-4.8-4.8a.943.943,0,0,0-.667-.276H30.836a.943.943,0,1,0,0,1.886h2.9l6.135,6.135a.943.943,0,0,0,1.609-.667V15.4A7.741,7.741,0,0,0,48.272,7.731Zm-7.731,5.845a5.845,5.845,0,1,1,5.845-5.845A5.852,5.852,0,0,1,40.541,13.576Zm0,0"/>
      <path id="Trazado_917418" data-name="Trazado 917418" d="M408.51,52.621a.944.944,0,0,1-.885-1.269l1.352-3.673h-1.315a.943.943,0,0,1,0-1.886h2.666a.943.943,0,0,1,.885,1.268L409.394,52A.944.944,0,0,1,408.51,52.621Zm0,0" transform="translate(-368.373 -41.476)"/>
      <path id="Trazado_917419" data-name="Trazado 917419" d="M124.068,301.886H103.88a.943.943,0,0,1,0-1.886h20.188a.943.943,0,0,1,0,1.886Zm0,0" transform="translate(-93.232 -271.716)"/>
      <path id="Trazado_917420" data-name="Trazado 917420" d="M164.882,157.886H148.943a.943.943,0,0,1,0-1.886h15.939a.943.943,0,1,1,0,1.886Zm0,0" transform="translate(-134.046 -141.292)"/>
      <path id="Trazado_917421" data-name="Trazado 917421" d="M103.884,157.886a.943.943,0,1,1,.667-.276A.95.95,0,0,1,103.884,157.886Zm0,0" transform="translate(-93.236 -141.292)"/>
      <path id="Trazado_917422" data-name="Trazado 917422" d="M124.068,229.886H103.88a.943.943,0,0,1,0-1.886h20.188a.943.943,0,0,1,0,1.886Zm0,0" transform="translate(-93.232 -206.504)"/>
    </g>
  </g>
</svg>
