<svg xmlns="http://www.w3.org/2000/svg" width="71" height="71" viewBox="0 0 71 71">
  <g id="Grupo_1119955" data-name="Grupo 1119955" transform="translate(-299.543 -10979)">
    <circle id="Elipse_11626" data-name="Elipse 11626" cx="35.5" cy="35.5" r="35.5" transform="translate(299.543 10979)" fill="#fff"/>
    <g id="Grupo_1119954" data-name="Grupo 1119954" transform="translate(269.323 10993)">
      <g id="Grupo_1119952" data-name="Grupo 1119952" transform="translate(47.159 0.689)">
        <path id="Trazado_917423" data-name="Trazado 917423" d="M147.945,111.872H120.474a1.856,1.856,0,0,1-1.856-1.856V74.007a1.856,1.856,0,0,1,1.856-1.856h27.471a1.856,1.856,0,0,1,1.856,1.856v36.009A1.856,1.856,0,0,1,147.945,111.872Z" transform="translate(-112.678 -66.211)" fill="#8ac9fe"/>
        <path id="Trazado_917424" data-name="Trazado 917424" d="M115.62,79.546H88.149a1.856,1.856,0,0,1-1.856-1.856V41.681a1.856,1.856,0,0,1,1.856-1.856H115.62a1.856,1.856,0,0,1,1.856,1.856V77.69A1.856,1.856,0,0,1,115.62,79.546Z" transform="translate(-83.323 -36.855)" fill="#b3dafe"/>
        <path id="Trazado_917425" data-name="Trazado 917425" d="M83.295,47.221H55.824a1.856,1.856,0,0,1-1.856-1.856V9.356A1.856,1.856,0,0,1,55.824,7.5H83.295a1.856,1.856,0,0,1,1.856,1.856V45.365A1.856,1.856,0,0,1,83.295,47.221Z" transform="translate(-53.968 -7.5)" fill="#eaf6ff"/>
        <path id="Trazado_917426" data-name="Trazado 917426" d="M347.493,7.5h-2.6a1.856,1.856,0,0,1,1.856,1.856V45.365a1.856,1.856,0,0,1-1.856,1.856h2.6a1.856,1.856,0,0,0,1.856-1.856V9.356A1.856,1.856,0,0,0,347.493,7.5Z" transform="translate(-318.166 -7.5)" fill="#d8ecfe"/>
        <g id="Grupo_1119949" data-name="Grupo 1119949" transform="translate(2.97 8.909)">
          <circle id="Elipse_11893" data-name="Elipse 11893" cx="1.909" cy="1.909" r="1.909" transform="translate(1.224)" fill="#fed2a4"/>
          <path id="Trazado_917427" data-name="Trazado 917427" d="M89.426,146.037a3.133,3.133,0,0,0-3.133,3.133v1.044a.914.914,0,0,0,.914.914h4.439a.914.914,0,0,0,.914-.914V149.17A3.133,3.133,0,0,0,89.426,146.037Z" transform="translate(-86.293 -142.219)" fill="#fd8087"/>
          <path id="Trazado_917428" data-name="Trazado 917428" d="M112.535,146.037a3.138,3.138,0,0,0-.8.1,3.134,3.134,0,0,1,2.338,3.031v1.044a.914.914,0,0,1-.914.914h1.591a.914.914,0,0,0,.914-.914V149.17A3.133,3.133,0,0,0,112.535,146.037Z" transform="translate(-109.401 -142.219)" fill="#fe646f"/>
        </g>
        <g id="Grupo_1119951" data-name="Grupo 1119951" transform="translate(8.074 21.717)">
          <circle id="Elipse_11894" data-name="Elipse 11894" cx="7.517" cy="7.517" r="7.517" fill="#00f2a6"/>
          <path id="Trazado_917429" data-name="Trazado 917429" d="M162.449,262.982a7.516,7.516,0,0,1-11.508,9.2,7.517,7.517,0,1,0,11.508-9.2Z" transform="translate(-150.106 -261.227)" fill="#0ed290"/>
          <g id="Grupo_1119950" data-name="Grupo 1119950" transform="translate(3.211 4.632)">
            <path id="Trazado_917430" data-name="Trazado 917430" d="M179.333,296.173l1.05,1.05,2.494-2.494a1.485,1.485,0,0,1,2.1,2.1l-3.544,3.544a1.485,1.485,0,0,1-2.1,0l-2.1-2.1a1.485,1.485,0,0,1,2.1-2.1Z" transform="translate(-176.798 -294.294)" fill="#eaf6ff"/>
          </g>
        </g>
        <path id="Trazado_917431" data-name="Trazado 917431" d="M110.794,42.8H87.035a.742.742,0,0,1-.742-.742V40.568a.742.742,0,0,1,.742-.742h23.758a.742.742,0,0,1,.742.742v1.485A.742.742,0,0,1,110.794,42.8Z" transform="translate(-83.323 -36.856)" fill="#60b7ff"/>
        <path id="Trazado_917432" data-name="Trazado 917432" d="M329.125,39.825h-2.413a.742.742,0,0,1,.742.742v1.485a.742.742,0,0,1-.742.742h2.413a.742.742,0,0,0,.742-.742V40.568A.742.742,0,0,0,329.125,39.825Z" transform="translate(-301.654 -36.855)" fill="#26a6fe"/>
      </g>
      <g id="Grupo_1119953" data-name="Grupo 1119953" transform="translate(46.47 0)">
        <path id="Trazado_917433" data-name="Trazado 917433" d="M84.281,39.491a.689.689,0,0,0,.689-.689V8.484A2.548,2.548,0,0,0,82.425,5.94H82V5.515A2.548,2.548,0,0,0,79.455,2.97H79.03V2.545A2.548,2.548,0,0,0,76.486,0H49.015A2.548,2.548,0,0,0,46.47,2.545v29.4a.689.689,0,1,0,1.378,0V2.545a1.168,1.168,0,0,1,1.167-1.167H76.486a1.168,1.168,0,0,1,1.167,1.167V38.554a1.168,1.168,0,0,1-1.167,1.167H49.015a1.168,1.168,0,0,1-1.167-1.167v-3.4a.689.689,0,1,0-1.378,0v3.4A2.548,2.548,0,0,0,49.015,41.1h.424v.424a2.548,2.548,0,0,0,2.546,2.545h.424v.425a2.548,2.548,0,0,0,2.545,2.545H82.425a2.548,2.548,0,0,0,2.545-2.545V42.018a.689.689,0,1,0-1.378,0v2.476a1.168,1.168,0,0,1-1.167,1.167H54.954a1.168,1.168,0,0,1-1.167-1.167v-.425H79.455A2.548,2.548,0,0,0,82,41.524V15.661a.689.689,0,1,0-1.378,0V41.524a1.169,1.169,0,0,1-1.168,1.167H51.985a1.169,1.169,0,0,1-1.168-1.167V41.1H76.486a2.548,2.548,0,0,0,2.545-2.545V4.348h.424a1.169,1.169,0,0,1,1.168,1.167v6.93a.689.689,0,0,0,1.378,0V7.318h.424a1.168,1.168,0,0,1,1.167,1.167V38.8a.689.689,0,0,0,.689.689Z" transform="translate(-46.47 0)"/>
        <path id="Trazado_917434" data-name="Trazado 917434" d="M78.792,105.66a1.6,1.6,0,0,0,1.6,1.6h4.439a1.6,1.6,0,0,0,1.6-1.6v-1.044a3.824,3.824,0,0,0-1.9-3.3,2.6,2.6,0,1,0-3.851,0,3.823,3.823,0,0,0-1.9,3.3Zm3.822-7.306a1.22,1.22,0,1,1-1.22,1.22A1.221,1.221,0,0,1,82.614,98.354Zm-2.444,6.262a2.444,2.444,0,0,1,4.889,0v1.044a.225.225,0,0,1-.225.225H80.395a.225.225,0,0,1-.225-.225Z" transform="translate(-75.823 -88.067)"/>
        <path id="Trazado_917435" data-name="Trazado 917435" d="M238.659,96.976H226.965a.689.689,0,0,0,0,1.378h11.694a.689.689,0,1,0,0-1.378Z" transform="translate(-209.757 -88.067)"/>
        <path id="Trazado_917436" data-name="Trazado 917436" d="M238.659,129.3H226.965a.689.689,0,1,0,0,1.378h11.694a.689.689,0,1,0,0-1.378Z" transform="translate(-209.757 -117.422)"/>
        <path id="Trazado_917437" data-name="Trazado 917437" d="M239.348,162.315a.689.689,0,0,0-.689-.689H226.965a.689.689,0,1,0,0,1.378h11.694A.689.689,0,0,0,239.348,162.315Z" transform="translate(-209.757 -146.777)"/>
        <path id="Trazado_917438" data-name="Trazado 917438" d="M232.813,195.329a.689.689,0,0,0,0-1.378h-5.847a.689.689,0,1,0,0,1.378Z" transform="translate(-209.758 -176.132)"/>
        <path id="Trazado_917439" data-name="Trazado 917439" d="M134.352,244.584a8.206,8.206,0,1,0,8.206-8.206A8.216,8.216,0,0,0,134.352,244.584Zm8.206-6.828a6.828,6.828,0,1,1-6.828,6.828,6.836,6.836,0,0,1,6.828-6.828Z" transform="translate(-126.278 -214.661)"/>
        <path id="Trazado_917440" data-name="Trazado 917440" d="M169.945,291.947l2.1,2.1a2.174,2.174,0,0,0,3.074,0l3.544-3.544a2.174,2.174,0,1,0-3.074-3.074l-2.006,2.007-.563-.563a2.174,2.174,0,0,0-3.075,3.074Zm.974-2.1a.8.8,0,0,1,1.125,0l1.05,1.05a.689.689,0,0,0,.974,0l2.494-2.494a.8.8,0,0,1,1.125,1.126l-3.544,3.544a.8.8,0,0,1-1.125,0l-2.1-2.1A.8.8,0,0,1,170.919,289.847Z" transform="translate(-158.023 -260.444)"/>
        <path id="Trazado_917441" data-name="Trazado 917441" d="M188.018,106.573V97.664a.689.689,0,0,0-1.378,0v8.909a.689.689,0,0,0,1.378,0Z" transform="translate(-173.762 -88.066)"/>
        <path id="Trazado_917442" data-name="Trazado 917442" d="M105.413,33.757a1.433,1.433,0,0,0-1.432-1.432H80.224a1.433,1.433,0,0,0-1.432,1.432v1.485a1.433,1.433,0,0,0,1.432,1.431h23.758a1.433,1.433,0,0,0,1.432-1.431V33.757Zm-1.378,1.485a.053.053,0,0,1-.053.053H80.224a.053.053,0,0,1-.053-.053V33.757a.054.054,0,0,1,.053-.053h23.758a.054.054,0,0,1,.053.053v1.485Z" transform="translate(-75.822 -29.355)"/>
      </g>
    </g>
  </g>
</svg>
