<svg xmlns="http://www.w3.org/2000/svg" width="190" height="160" viewBox="0 0 190 160">
  <g id="Grupo_1119558" data-name="Grupo 1119558" transform="translate(-810.051 -13551)">
    <rect id="hombre-trabajando-en-el-campo" width="190" height="160" rx="10" transform="translate(810.051 13551)" fill="#6c8bb1"/>
    <g id="Grupo_1119557" data-name="Grupo 1119557" transform="translate(856.07 13549.606)">
      <path id="Trazado_917228" data-name="Trazado 917228" d="M305.283,127.832v3.289a1.534,1.534,0,0,1-.848,1.372l-.686.343h18.408l-1.372-.686a3.068,3.068,0,0,1-1.7-2.743l0-25.712H296.081v12.27A12.264,12.264,0,0,0,305.283,127.832Z" transform="translate(-239.431 -51.442)" fill="#f5b97d"/>
      <circle id="Elipse_11872" data-name="Elipse 11872" cx="9.203" cy="9.203" r="9.203" transform="translate(4.502 41.516)" fill="#ffc269"/>
      <path id="Trazado_917229" data-name="Trazado 917229" d="M71.721,88.5c0-9.318-5.968-16.871-15.286-16.871A16.871,16.871,0,0,0,39.564,88.5c0,7.669,7.553,12.27,16.871,12.27S71.721,96.169,71.721,88.5Z" transform="translate(-31.994 -25.512)" fill="#ffa95f"/>
      <path id="Trazado_917230" data-name="Trazado 917230" d="M50.3,102.425a14.011,14.011,0,0,1-5.58-5.99,16.81,16.81,0,0,0-5.156,12.125c0,7.628,7.474,12.216,16.723,12.265Z" transform="translate(-31.994 -45.572)" fill="#ff8b5a"/>
      <path id="Trazado_917231" data-name="Trazado 917231" d="M48.072,272.032H35.8a12.27,12.27,0,0,0-12.27,12.27v18.405H55.741V279.7a7.669,7.669,0,0,0-7.669-7.669Z" transform="translate(-19.03 -187.571)" fill="#95d6a4"/>
      <path id="Trazado_917232" data-name="Trazado 917232" d="M35.8,276.634h3.067v-4.6H35.8a12.27,12.27,0,0,0-12.27,12.27v18.405h4.6V284.3A7.678,7.678,0,0,1,35.8,276.634Z" transform="translate(-19.03 -187.572)" fill="#78c2a4"/>
      <path id="Trazado_917233" data-name="Trazado 917233" d="M93.8,245.756a6.135,6.135,0,0,1-6.135-6.135v-7.669h12.27v7.669A6.135,6.135,0,0,1,93.8,245.756Z" transform="translate(-70.889 -155.16)" fill="#f7d291"/>
      <path id="Trazado_917234" data-name="Trazado 917234" d="M87.661,245.593a15.235,15.235,0,0,0,12.27,1.318v-6.943H87.661Z" transform="translate(-70.889 -161.643)" fill="#ecbd83"/>
      <path id="Trazado_917235" data-name="Trazado 917235" d="M107.253,320.129H79.645V341.6h27.607a3.068,3.068,0,0,0,3.067-3.067V323.2a3.067,3.067,0,0,0-3.067-3.068Z" transform="translate(-64.406 -226.465)" fill="#eceaec"/>
      <path id="Trazado_917236" data-name="Trazado 917236" d="M66.68,320.129a3.068,3.068,0,0,0-3.067,3.067v15.337A3.068,3.068,0,0,0,66.68,341.6H94.288a3.068,3.068,0,0,0,3.067-3.067h0V337H72.816a4.6,4.6,0,0,1-4.6-4.6v-12.27Z" transform="translate(-51.442 -226.465)" fill="#dad8db"/>
      <path id="Trazado_917237" data-name="Trazado 917237" d="M69.479,127.742c4.876,3.457,11.842,4.578,15.654,4.94a3.053,3.053,0,0,1,2.751,3.05v4.279a12.27,12.27,0,0,1-24.54,0v0a14.249,14.249,0,0,1,3.687-9.565Z" transform="translate(-51.224 -70.889)" fill="#ffe1a0"/>
      <circle id="Elipse_11873" data-name="Elipse 11873" cx="3.067" cy="3.067" r="3.067" transform="translate(25.975 101.332)" fill="#fff"/>
      <path id="Trazado_917238" data-name="Trazado 917238" d="M308.519,258.9l-5.809-2.9H284.3l-8.879,4.439a6.135,6.135,0,0,0-3.391,5.487v29.951H311.91V264.392A6.135,6.135,0,0,0,308.519,258.9Z" transform="translate(-219.984 -174.606)" fill="#c3ddff"/>
      <path id="Trazado_917239" data-name="Trazado 917239" d="M282.767,299.788a7.669,7.669,0,0,0-2.878-5.988l-6.6-5.279a6.121,6.121,0,0,0-1.26,3.7v29.951h10.736V299.788Z" transform="translate(-219.982 -200.905)" fill="#a4ccff"/>
      <path id="Trazado_917240" data-name="Trazado 917240" d="M355.752,352.194H334.28a6.135,6.135,0,0,0-6.135,6.135l4.6,15.337h29.141V358.329A6.135,6.135,0,0,0,355.752,352.194Z" transform="translate(-265.36 -252.395)" fill="#9b959d"/>
      <path id="Trazado_917241" data-name="Trazado 917241" d="M305.283,127.832V103.694h-9.2v12.27A12.264,12.264,0,0,0,305.283,127.832Z" transform="translate(-239.43 -51.442)" fill="#e3aa75"/>
      <path id="Trazado_917242" data-name="Trazado 917242" d="M299.987,55.6h-12.27a7.669,7.669,0,0,0-7.669,7.669,3.068,3.068,0,0,0,3.067,3.067h1.534a4.6,4.6,0,0,1,4.6,4.6v4.6a7.669,7.669,0,0,0,7.669,7.669h7.669a6.135,6.135,0,0,0,6.135-6.135V66.333A10.736,10.736,0,0,0,299.987,55.6Z" transform="translate(-226.465 -12.547)" fill="#9f6e50"/>
      <path id="Trazado_917243" data-name="Trazado 917243" d="M338.881,352.194h-4.6a6.135,6.135,0,0,0-6.135,6.135v15.337h4.6V358.329A6.135,6.135,0,0,1,338.881,352.194Z" transform="translate(-265.36 -252.395)" fill="#857e87"/>
      <path id="Trazado_917244" data-name="Trazado 917244" d="M287.717,55.6a7.669,7.669,0,0,0-7.669,7.669,3.068,3.068,0,0,0,3.067,3.067h1.534a4.6,4.6,0,0,1,4.6,4.6V55.6Z" transform="translate(-226.465 -12.547)" fill="#785353"/>
      <path id="Trazado_917245" data-name="Trazado 917245" d="M68,146.929V136.3l-.965,1.066a14.249,14.249,0,0,0-3.687,9.565v0a12.249,12.249,0,0,0,14.6,12.043A12.269,12.269,0,0,1,68,146.929Z" transform="translate(-51.225 -77.806)" fill="#f7d291"/>
      <path id="Trazado_917246" data-name="Trazado 917246" d="M112.082,209.264a1.435,1.435,0,0,0,.72,1.9,9.292,9.292,0,0,0,7.312,0,1.435,1.435,0,1,0-1.177-2.618,6.433,6.433,0,0,1-4.958,0A1.435,1.435,0,0,0,112.082,209.264Z" transform="translate(-90.535 -136.128)"/>
      <path id="Trazado_917247" data-name="Trazado 917247" d="M105.376,172.743a1.435,1.435,0,0,0,1.435-1.435v-1.534a1.435,1.435,0,0,0-2.87,0v1.534A1.435,1.435,0,0,0,105.376,172.743Z" transform="translate(-84.054 -103.718)"/>
      <path id="Trazado_917248" data-name="Trazado 917248" d="M153.473,172.743a1.435,1.435,0,0,0,1.435-1.435v-1.534a1.435,1.435,0,1,0-2.87,0v1.534A1.435,1.435,0,0,0,153.473,172.743Z" transform="translate(-122.948 -103.718)"/>
      <path id="Trazado_917249" data-name="Trazado 917249" d="M132.761,352.709a4.5,4.5,0,1,0,4.5,4.5A4.508,4.508,0,0,0,132.761,352.709Zm0,6.135a1.633,1.633,0,1,1,1.632-1.633A1.634,1.634,0,0,1,132.761,358.844Z" transform="translate(-103.719 -252.812)"/>
      <path id="Trazado_917250" data-name="Trazado 917250" d="M93.361,98.971V89.785a7.529,7.529,0,0,0-4.185-6.771L82,79.424a1.624,1.624,0,0,1-.9-1.46l0-6.479a7.581,7.581,0,0,0,4.6-6.963V53.786A12.185,12.185,0,0,0,73.521,41.615H61.251a9.114,9.114,0,0,0-9.1,9.1,4.51,4.51,0,0,0,3.067,4.267v9.537a13.691,13.691,0,0,0,9.2,12.932V79.74L54.8,84.549a7.529,7.529,0,0,0-4.185,6.771V113.7H46.993a4.627,4.627,0,0,0,.355-1.782V96.881A4.658,4.658,0,0,0,42.7,92.229h-4.55v-.1a9.117,9.117,0,0,0-7.669-8.99V81.4A13.741,13.741,0,0,0,37.94,71.178a11.828,11.828,0,0,0,3.222-8.189,19.454,19.454,0,0,0-4.529-12.874A15.991,15.991,0,0,0,24.39,44.682a18.466,18.466,0,0,0-1.91.1A10.638,10.638,0,1,0,6.6,58.679a18.288,18.288,0,0,0-.514,4.309,11.872,11.872,0,0,0,5.109,9.82A13.726,13.726,0,0,0,15.337,79.4v3.7A13.724,13.724,0,0,0,3.067,96.731V113.7H1.435a1.435,1.435,0,1,0,0,2.87H50.614v4.7a1.435,1.435,0,0,0,2.87,0V91.32a4.716,4.716,0,0,1,.329-1.731L59.107,94a6.217,6.217,0,0,1,2.243,4.789v22.482a1.435,1.435,0,0,0,2.87,0V105.934a4.705,4.705,0,0,1,4.7-4.7H90.393a4.705,4.705,0,0,1,4.7,4.7v15.337a1.435,1.435,0,0,0,2.87,0V105.934A7.58,7.58,0,0,0,93.361,98.971ZM5.886,50.718A7.763,7.763,0,0,1,19.308,45.4,18.393,18.393,0,0,0,7.632,55.626a7.719,7.719,0,0,1-1.745-4.907ZM10.7,68.387a8.917,8.917,0,0,1-1.749-5.4A15.454,15.454,0,0,1,24.39,47.552,12.989,12.989,0,0,1,34.473,52a16.593,16.593,0,0,1,3.82,10.985,9.572,9.572,0,0,1-.2,1.944v-.088a4.47,4.47,0,0,0-4.051-4.479c-3.6-.343-10.339-1.406-14.959-4.683a1.435,1.435,0,0,0-1.894.207l-2.448,2.7A15.652,15.652,0,0,0,10.7,68.387Zm2.853.734a12.789,12.789,0,0,1,3.316-8.6l1.622-1.791c5.061,3.11,11.653,4.149,15.28,4.494a1.611,1.611,0,0,1,1.452,1.622v4.279a10.835,10.835,0,1,1-21.67,0ZM27.608,82.443v.484a4.7,4.7,0,0,1-9.4,0V81.349a13.647,13.647,0,0,0,9.4,1.095Zm16.871,29.475A1.784,1.784,0,0,1,42.7,113.7H15.389a1.784,1.784,0,0,1-1.782-1.782V104.4a1.435,1.435,0,0,0-2.87,0v7.519a4.627,4.627,0,0,0,.355,1.782H5.937V96.731A10.847,10.847,0,0,1,15.96,85.93a7.568,7.568,0,0,0,13.886.02,6.242,6.242,0,0,1,5.43,6.18v.1H15.389a4.658,4.658,0,0,0-4.652,4.652v1.384a1.435,1.435,0,1,0,2.87,0V96.881A1.784,1.784,0,0,1,15.389,95.1H42.7a1.784,1.784,0,0,1,1.782,1.782Zm13.606-47.4v-9.3h.1a3.17,3.17,0,0,1,3.166,3.166v4.6a9.114,9.114,0,0,0,9.1,9.1h1.534a1.435,1.435,0,0,0,0-2.87H70.454a6.241,6.241,0,0,1-6.234-6.234v-4.6a6.043,6.043,0,0,0-6.036-6.036H56.65a1.634,1.634,0,0,1-1.632-1.632,6.241,6.241,0,0,1,6.234-6.234h12.27a9.312,9.312,0,0,1,9.3,9.3V64.522a4.705,4.705,0,0,1-4.7,4.7,1.435,1.435,0,0,0,0,2.87l.1,0,0,5.875a4.5,4.5,0,0,0,.464,1.993h-11.4V76.39A1.435,1.435,0,0,0,66.211,75a10.823,10.823,0,0,1-8.126-10.478ZM90.491,98.366l-.1,0H68.92a7.53,7.53,0,0,0-4.7,1.642V98.789A9.08,9.08,0,0,0,60.944,91.8l-5.307-4.423a4.769,4.769,0,0,1,.445-.256l8.576-4.288h17.73l5.505,2.753a4.674,4.674,0,0,1,2.6,4.2Z"/>
    </g>
  </g>
</svg>
