<svg xmlns="http://www.w3.org/2000/svg" xmlns:xlink="http://www.w3.org/1999/xlink" width="105.999" height="105.999" viewBox="0 0 105.999 105.999">
  <defs>
    <filter id="Trazado_874925" x="0" y="0" width="105.999" height="105.999" filterUnits="userSpaceOnUse">
      <feOffset dy="3" input="SourceAlpha"/>
      <feGaussianBlur stdDeviation="3" result="blur"/>
      <feFlood flood-opacity="0.161"/>
      <feComposite operator="in" in2="blur"/>
      <feComposite in="SourceGraphic"/>
    </filter>
    <clipPath id="clip-path">
      <path id="Trazado_909641" data-name="Trazado 909641" d="M41.276,0A41.276,41.276,0,0,1,82.552,41.276h0A41.276,41.276,0,0,1,0,41.277H0A41.276,41.276,0,0,1,41.276,0Z" fill="#9ad354"/>
    </clipPath>
  </defs>
  <g id="Grupo_1118198" data-name="Grupo 1118198" transform="translate(-849.051 -5151)">
    <g id="Grupo_1111552" data-name="Grupo 1111552" transform="translate(858.051 5157)">
      <g id="Grupo_1111316" data-name="Grupo 1111316" transform="translate(0 0)">
        <g id="Grupo_1109835" data-name="Grupo 1109835" transform="translate(0 0)">
          <g id="Grupo_1107913" data-name="Grupo 1107913" transform="translate(0 0)">
            <g transform="matrix(1, 0, 0, 1, -9, -6)" filter="url(#Trazado_874925)">
              <g id="Trazado_874925-2" data-name="Trazado 874925" transform="translate(9 6)" fill="#e2dacc" opacity="0.859">
                <path d="M 43.99951553344727 86.49939727783203 C 38.26145172119141 86.49939727783203 32.69582748413086 85.37592315673828 27.45724105834961 83.16020202636719 C 22.39661598205566 81.01973724365234 17.85139083862305 77.95516204833984 13.94781589508057 74.05159759521484 C 10.0442533493042 70.14803314208984 6.979678153991699 65.60281372070312 4.839202880859375 60.54218673706055 C 2.623477935791016 55.30361175537109 1.500002980232239 49.73799896240234 1.500002980232239 43.99995040893555 C 1.500002980232239 38.26139831542969 2.623477935791016 32.69578552246094 4.839202880859375 27.45721054077148 C 6.979678153991699 22.39658546447754 10.0442533493042 17.85136032104492 13.94781589508057 13.94779872894287 C 17.85139083862305 10.0442361831665 22.39661598205566 6.979660987854004 27.45724105834961 4.839198589324951 C 32.69582748413086 2.623473644256592 38.26145172119141 1.499998688697815 43.99951553344727 1.499998688697815 C 49.73757934570312 1.499998688697815 55.30320358276367 2.623473644256592 60.54179000854492 4.839198589324951 C 65.6024169921875 6.979660987854004 70.14764404296875 10.0442361831665 74.05121612548828 13.94779872894287 C 77.95478057861328 17.85136032104492 81.01935577392578 22.39658546447754 83.15982818603516 27.45721054077148 C 85.37554931640625 32.69578552246094 86.49903106689453 38.26139831542969 86.49903106689453 43.99944686889648 C 86.49903106689453 49.73799896240234 85.37554931640625 55.30361175537109 83.15982818603516 60.54218673706055 C 81.01935577392578 65.60281372070312 77.95478057861328 70.14803314208984 74.05121612548828 74.05159759521484 C 70.14764404296875 77.95516204833984 65.6024169921875 81.01973724365234 60.54179000854492 83.16020202636719 C 55.30320358276367 85.37592315673828 49.73757934570312 86.49939727783203 43.99951553344727 86.49939727783203 Z" stroke="none"/>
                <path d="M 43.99951553344727 3 C 38.46328735351562 3 33.09425735473633 4.083595275878906 28.04157257080078 6.220710754394531 C 23.15972900390625 8.285537719726562 18.77477264404297 11.24217224121094 15.00847625732422 15.00845336914062 C 11.2421875 18.77474212646484 8.285560607910156 23.15969848632812 6.220718383789062 28.04152679443359 C 4.083602905273438 33.09421157836914 3 38.46322631835938 3 43.99995422363281 C 3 49.53617095947266 4.083602905273438 54.90518569946289 6.220718383789062 59.95787048339844 C 8.285560607910156 64.83968353271484 11.2421875 69.22465515136719 15.00847625732422 72.99094390869141 C 18.77477264404297 76.75722503662109 23.15972900390625 79.71385192871094 28.04157257080078 81.7786865234375 C 33.09425735473633 83.91580200195312 38.46328735351562 84.99939727783203 43.99951553344727 84.99939727783203 C 49.53572845458984 84.99939727783203 54.90475845336914 83.91580200195312 59.95745849609375 81.7786865234375 C 64.83928680419922 79.71385192871094 69.22425842285156 76.75722503662109 72.99054718017578 72.99094390869141 C 76.75684356689453 69.22465515136719 79.71347045898438 64.83968353271484 81.77831268310547 59.95787048339844 C 83.91542816162109 54.90518569946289 84.99903106689453 49.53617095947266 84.99903106689453 43.99944305419922 C 84.99903106689453 38.46322631835938 83.91542816162109 33.09421157836914 81.77831268310547 28.04152679443359 C 79.71347045898438 23.15969848632812 76.75684356689453 18.77474212646484 72.99054718017578 15.00845336914062 C 69.22425842285156 11.24217224121094 64.83928680419922 8.285537719726562 59.95745849609375 6.220710754394531 C 54.90475845336914 4.083595275878906 49.53572845458984 3 43.99951553344727 3 M 43.99951553344727 0 C 68.29977416992188 0 87.99903106689453 19.69921112060547 87.99903106689453 43.99944305419922 L 87.99903106689453 43.99995422363281 C 87.99903106689453 68.3001708984375 68.29977416992188 87.99939727783203 43.99951553344727 87.99939727783203 C 19.69924163818359 87.99939727783203 0 68.3001708984375 0 43.99995422363281 L 0 43.99944305419922 C 0 19.69921112060547 19.69924163818359 0 43.99951553344727 0 Z" stroke="none" fill="#fff"/>
              </g>
            </g>
            <g id="Trazado_874923" data-name="Trazado 874923" fill="none">
              <path d="M44,0A44,44,0,0,1,88,44h0A44,44,0,0,1,0,44H0A44,44,0,0,1,44,0Z" stroke="none"/>
              <path d="M 43.99951553344727 3 C 38.46328735351562 3 33.09425735473633 4.083595275878906 28.04157257080078 6.220710754394531 C 23.15972900390625 8.285537719726562 18.77477264404297 11.24217224121094 15.00847625732422 15.00845336914062 C 11.2421875 18.77474212646484 8.285560607910156 23.15969848632812 6.220718383789062 28.04152679443359 C 4.083602905273438 33.09421157836914 3 38.46322631835938 3 43.99995422363281 C 3 49.53617095947266 4.083602905273438 54.90518569946289 6.220718383789062 59.95787048339844 C 8.285560607910156 64.83968353271484 11.2421875 69.22465515136719 15.00847625732422 72.99094390869141 C 18.77477264404297 76.75722503662109 23.15972900390625 79.71385192871094 28.04157257080078 81.7786865234375 C 33.09425735473633 83.91580200195312 38.46328735351562 84.99939727783203 43.99951553344727 84.99939727783203 C 49.53572845458984 84.99939727783203 54.90475845336914 83.91580200195312 59.95745849609375 81.7786865234375 C 64.83928680419922 79.71385192871094 69.22425842285156 76.75722503662109 72.99054718017578 72.99094390869141 C 76.75684356689453 69.22465515136719 79.71347045898438 64.83968353271484 81.77831268310547 59.95787048339844 C 83.91542816162109 54.90518569946289 84.99903106689453 49.53617095947266 84.99903106689453 43.99944305419922 C 84.99903106689453 38.46322631835938 83.91542816162109 33.09421157836914 81.77831268310547 28.04152679443359 C 79.71347045898438 23.15969848632812 76.75684356689453 18.77474212646484 72.99054718017578 15.00845336914062 C 69.22425842285156 11.24217224121094 64.83928680419922 8.285537719726562 59.95745849609375 6.220710754394531 C 54.90475845336914 4.083595275878906 49.53572845458984 3 43.99951553344727 3 M 43.99951553344727 0 C 68.29977416992188 0 87.99903106689453 19.69921112060547 87.99903106689453 43.99944305419922 L 87.99903106689453 43.99995422363281 C 87.99903106689453 68.3001708984375 68.29977416992188 87.99939727783203 43.99951553344727 87.99939727783203 C 19.69924163818359 87.99939727783203 0 68.3001708984375 0 43.99995422363281 L 0 43.99944305419922 C 0 19.69921112060547 19.69924163818359 0 43.99951553344727 0 Z" stroke="none" fill="#fff"/>
            </g>
          </g>
        </g>
      </g>
    </g>
    <g id="Enmascarar_grupo_1098790" data-name="Enmascarar grupo 1098790" transform="translate(860.774 5159.724)" clip-path="url(#clip-path)">
      <g id="Grupo_1115150" data-name="Grupo 1115150" transform="translate(1.109 5.133)">
        <path id="Trazado_907771" data-name="Trazado 907771" d="M105,216.164h35.428v17.308H105Zm0,0" transform="translate(-88.564 -182.406)" fill="#fea02c"/>
        <path id="Trazado_907772" data-name="Trazado 907772" d="M145.887,255.284V250H139v3.034Zm0,0" transform="translate(-117.242 -210.943)" fill="#ff5d5d"/>
        <path id="Trazado_907773" data-name="Trazado 907773" d="M25.351,291.2A72.178,72.178,0,0,1,47.93,268.085l.347-.486A72.212,72.212,0,0,0,10,256.625v38.486H22.966Zm0,0" transform="translate(-8.435 -216.534)" fill="#62cd4d"/>
        <path id="Trazado_907774" data-name="Trazado 907774" d="M92.832,294.97l2.385-3.907a72.239,72.239,0,0,1,61.662-34.605V294.97Zm0,0" transform="translate(-78.301 -216.392)" fill="#a0e557"/>
        <path id="Trazado_907775" data-name="Trazado 907775" d="M105,168.65l8.766-8.818,8.766,8.818Zm0,0" transform="translate(-88.564 -134.892)" fill="#fe8f8d"/>
        <path id="Trazado_907776" data-name="Trazado 907776" d="M187.663,168.65l-8.766-8.818H161l8.766,8.818Zm0,0" transform="translate(-135.799 -134.892)" fill="#ff5d5d"/>
        <g id="Grupo_1115150-2" data-name="Grupo 1115150" transform="translate(1.565 1.565)">
          <path id="Trazado_907777" data-name="Trazado 907777" d="M360.176,44.523c-11.685-9.4-11.685-24.628,0-34.023C371.86,19.895,371.86,35.128,360.176,44.523Zm0,0" transform="translate(-297.971 -10.5)" fill="#a0e557"/>
          <path id="Trazado_907778" data-name="Trazado 907778" d="M28.3,72.055c-8.834-7.1-8.834-18.62,0-25.723C37.132,53.435,37.132,64.952,28.3,72.055Zm0,0" transform="translate(-19.845 -40.723)" fill="#a0e557"/>
          <path id="Trazado_907779" data-name="Trazado 907779" d="M38.212,338.156A60.537,60.537,0,0,0,10,331.125v12.6a47.821,47.821,0,0,1,19.544,4.2" transform="translate(-10 -280.938)" fill="#a0e557"/>
        </g>
        <path id="Trazado_907780" data-name="Trazado 907780" d="M180.547,357.808a60.974,60.974,0,0,1,50.317-26.851v12.6a48.3,48.3,0,0,0-34.092,14.25Zm0,0" transform="translate(-152.286 -279.231)" fill="#62cd4d"/>
        <path id="Trazado_907781" data-name="Trazado 907781" d="M309.855,401.457a50.018,50.018,0,0,0-35.2,14.712,1.565,1.565,0,0,0,2.22,2.208,46.866,46.866,0,0,1,32.983-13.789,1.565,1.565,0,1,0,0-3.131Zm0,0" transform="translate(-231.277 -338.695)"/>
        <path id="Trazado_907782" data-name="Trazado 907782" d="M189.785,388.481a1.565,1.565,0,0,0-2.173-.421,61.782,61.782,0,0,0-16.8,16.813,1.566,1.566,0,1,0,2.6,1.746,58.651,58.651,0,0,1,15.956-15.965A1.565,1.565,0,0,0,189.785,388.481Zm0,0" transform="translate(-143.848 -327.169)"/>
        <path id="Trazado_907783" data-name="Trazado 907783" d="M385.444,320.957a61.562,61.562,0,0,0-20.587,3.553,1.565,1.565,0,1,0,1.044,2.951,58.443,58.443,0,0,1,19.542-3.373,1.565,1.565,0,0,0,0-3.131Zm0,0" transform="translate(-306.866 -270.796)"/>
        <path id="Trazado_907784" data-name="Trazado 907784" d="M22.427,69.9A71.345,71.345,0,0,1,64.081,43.66l.009,0a69.765,69.765,0,0,1,14.488-1.527,1.565,1.565,0,1,0,0-3.13,73.659,73.659,0,0,0-13.243,1.2V36.826C70.993,32.037,74.1,25.761,74.1,19.078c0-6.91-3.32-13.385-9.348-18.231a1.566,1.566,0,0,0-1.962,0c-6.028,4.847-9.348,11.322-9.348,18.231,0,6.683,3.106,12.959,8.763,17.748v4.019a74.119,74.119,0,0,0-8.775,2.578V34.259a1.56,1.56,0,0,0-.455-1.1h0l-8.766-8.818a1.567,1.567,0,0,0-1.11-.462H25.2a1.565,1.565,0,0,0-1.11.462l-8.766,8.818h0a1.561,1.561,0,0,0-.456,1.1v5.977q-1.636-.3-3.287-.526V34.13a17.865,17.865,0,0,0,6.626-13.594c0-5.342-2.561-10.343-7.21-14.082a1.565,1.565,0,0,0-1.962,0c-4.649,3.738-7.21,8.739-7.21,14.082A17.865,17.865,0,0,0,8.453,34.13V39.35q-3.424-.32-6.887-.323a1.565,1.565,0,0,0,0,3.131,70.6,70.6,0,0,1,35.551,9.594,73.89,73.89,0,0,0-7.394,5.743A62.274,62.274,0,0,0,1.565,50.688a1.565,1.565,0,1,0,0,3.131,59.093,59.093,0,0,1,25.7,5.949,73.979,73.979,0,0,0-6.657,7.369A48.964,48.964,0,0,0,1.565,63.289a1.565,1.565,0,0,0,0,3.131,45.811,45.811,0,0,1,17.091,3.3q-1.622,2.254-3.076,4.632L13.2,78.263a1.565,1.565,0,1,0,2.672,1.631l2.385-3.908a69.49,69.49,0,0,1,4.02-5.882A1.481,1.481,0,0,0,22.427,69.9ZM56.572,19.078c0-5.564,2.545-10.834,7.2-14.963,4.653,4.13,7.2,9.4,7.2,14.963a19.486,19.486,0,0,1-5.633,13.446V20.537a1.565,1.565,0,1,0-3.131,0V32.523A19.483,19.483,0,0,1,56.572,19.078ZM4.958,20.537a14.648,14.648,0,0,1,5.06-10.8,14.647,14.647,0,0,1,5.06,10.8,14.152,14.152,0,0,1-3.5,9.164V19.284a1.565,1.565,0,0,0-3.131,0V29.7A14.152,14.152,0,0,1,4.958,20.537ZM48.1,32.693H34.618l-5.653-5.687H42.447ZM25.2,27.661l5,5.032H20.2ZM18,35.824H32.4v9.954q-1.089-.5-2.191-.967V39.554a1.566,1.566,0,0,0-1.565-1.565H21.758a1.566,1.566,0,0,0-1.565,1.565v1.861Q19.1,41.131,18,40.879Zm9.079,7.753q-1.862-.686-3.757-1.271V41.12H27.08Zm8.453,3.733V35.824H50.3v8.815a73.466,73.466,0,0,0-7.841,3.805q-1.218.683-2.407,1.414Q37.831,48.5,35.532,47.31Zm0,0" transform="translate(0 -0.501)"/>
        <path id="Trazado_907785" data-name="Trazado 907785" d="M398.964,83.631a1.568,1.568,0,1,0-1.106-.459A1.576,1.576,0,0,0,398.964,83.631Zm0,0" transform="translate(-335.194 -67.978)"/>
        <path id="Trazado_907786" data-name="Trazado 907786" d="M318.127,363.3a1.563,1.563,0,1,0,1.107-.459A1.579,1.579,0,0,0,318.127,363.3Zm0,0" transform="translate(-267.943 -306.12)"/>
      </g>
    </g>
    <path id="Trazado_909642" data-name="Trazado 909642" d="M44,0A44,44,0,0,1,88,44h0A44,44,0,0,1,0,44H0A44,44,0,0,1,44,0Z" transform="translate(858.051 5157)" fill="none"/>
  </g>
</svg>
