<svg xmlns="http://www.w3.org/2000/svg" xmlns:xlink="http://www.w3.org/1999/xlink" width="85" height="85" viewBox="0 0 85 85">
  <defs>
    <clipPath id="clip-path">
      <circle id="Elipse_11789" data-name="Elipse 11789" cx="40.5" cy="40.5" r="40.5" transform="translate(-0.394 -0.394)" fill="none" stroke="#64ac0e" stroke-width="2"/>
    </clipPath>
  </defs>
  <g id="Grupo_1113261" data-name="Grupo 1113261" transform="translate(-678.051 -1556)">
    <g id="Grupo_1118190" data-name="Grupo 1118190" transform="translate(678.051 1556)">
      <g id="Elipse_11784" data-name="Elipse 11784" fill="#9ad354" stroke="#4c6929" stroke-width="2">
        <circle cx="42.5" cy="42.5" r="42.5" stroke="none"/>
        <circle cx="42.5" cy="42.5" r="41.5" fill="none"/>
      </g>
      <g id="Enmascarar_grupo_1098795" data-name="Enmascarar grupo 1098795" transform="translate(2.394 2.394)" clip-path="url(#clip-path)">
        <g id="Fill_out_line" data-name="Fill out line" transform="translate(-0.139 13.465)">
          <path id="Trazado_909944" data-name="Trazado 909944" d="M246.9,73.39H208V64h34.878Z" transform="translate(-175.805 -55.951)" fill="#ab693d"/>
          <path id="Trazado_909945" data-name="Trazado 909945" d="M208,120h38.9v13.415H208Z" transform="translate(-175.805 -102.561)" fill="#8c5428"/>
          <path id="Trazado_909946" data-name="Trazado 909946" d="M242.878,30.707H208V24h22.805Z" transform="translate(-175.805 -22.659)" fill="#da9065"/>
          <path id="Trazado_909947" data-name="Trazado 909947" d="M144.2,40.1l-4.024-9.39L128.1,24l-12.073,6.707L112,40.1V53.512h32.2Z" transform="translate(-95.902 -22.659)" fill="#e04446"/>
          <path id="Trazado_909948" data-name="Trazado 909948" d="M152,80h2.683v2.683H152Z" transform="translate(-129.195 -69.268)" fill="#68737f"/>
          <path id="Trazado_909949" data-name="Trazado 909949" d="M248,80h2.683v2.683H248Z" transform="translate(-209.097 -69.268)" fill="#68737f"/>
          <path id="Trazado_909950" data-name="Trazado 909950" d="M176,136h5.366v10.732H176Z" transform="translate(-149.171 -115.878)" fill="#da9065"/>
          <path id="Trazado_909951" data-name="Trazado 909951" d="M200,48h2.683v2.683H200Z" transform="translate(-169.146 -42.634)" fill="#68737f"/>
          <path id="Trazado_909952" data-name="Trazado 909952" d="M326.805,120l8.049,5.366H312.049L304,120Z" transform="translate(-255.707 -102.561)" fill="#da9065"/>
          <path id="Trazado_909953" data-name="Trazado 909953" d="M440,152h8.049v8.049H440Z" transform="translate(-368.902 -129.195)" fill="#9f764a"/>
          <path id="Trazado_909954" data-name="Trazado 909954" d="M304,120l8.049,5.366v8.049H304Z" transform="translate(-255.707 -102.561)" fill="#ba8b5d"/>
          <path id="Trazado_909955" data-name="Trazado 909955" d="M38.756,146.683H34.732V144H32.049v2.683H28.024V144H25.341v2.683H24v2.683h1.341v4.024h2.683v-4.024h4.024v4.024h2.683v-4.024h4.024Z" transform="translate(-22.659 -122.536)" fill="#da9065"/>
          <path id="Trazado_909956" data-name="Trazado 909956" d="M24,200h77.805v48.293H24Z" transform="translate(-22.659 -169.146)" fill="#7ab355"/>
          <g id="Grupo_1118191" data-name="Grupo 1118191" transform="translate(1.341 45.61)">
            <path id="Trazado_909957" data-name="Trazado 909957" d="M24,288h77.805v2.683H24Z" transform="translate(-24 -288)" fill="#699949"/>
            <path id="Trazado_909958" data-name="Trazado 909958" d="M24,336h77.805v2.683H24Z" transform="translate(-24 -327.951)" fill="#699949"/>
            <path id="Trazado_909959" data-name="Trazado 909959" d="M24,384h77.805v2.683H24Z" transform="translate(-24 -367.902)" fill="#699949"/>
          </g>
          <path id="Trazado_909960" data-name="Trazado 909960" d="M128,288h5.366l2.683,13.415H128Z" transform="translate(-109.219 -242.39)" fill="#68737f"/>
          <path id="Trazado_909961" data-name="Trazado 909961" d="M208.845,300.422l2.4,1.2" transform="translate(-176.508 -252.729)" fill="#4f5761"/>
          <path id="Trazado_909962" data-name="Trazado 909962" d="M195.245,333.622l-2.4-1.2" transform="translate(-163.191 -279.363)" fill="#4f5761"/>
          <path id="Trazado_909963" data-name="Trazado 909963" d="M137.39,334.756l-2.683-10.732L128,320v14.756Z" transform="translate(-109.219 -269.024)" fill="#ce2337"/>
          <path id="Trazado_909964" data-name="Trazado 909964" d="M174.805,329.341v12.073H152v-6.707h13.415V328Z" transform="translate(-129.195 -275.683)" fill="#e04446"/>
          <circle id="Elipse_11785" data-name="Elipse 11785" cx="8.199" cy="8.199" r="8.199" transform="translate(7.448 55.002)" fill="#68737f"/>
          <path id="Trazado_909965" data-name="Trazado 909965" d="M65.39,354.781a9.39,9.39,0,1,1,9.39-9.39A9.39,9.39,0,0,1,65.39,354.781Zm0-16.1A6.707,6.707,0,1,0,72.1,345.39,6.707,6.707,0,0,0,65.39,338.683Z" transform="translate(-49.293 -282.341)" fill="#4f5761"/>
          <ellipse id="Elipse_11786" data-name="Elipse 11786" cx="2.46" cy="3.28" rx="2.46" ry="3.28" transform="translate(14.007 59.922)" fill="#d4e4f0"/>
          <path id="Trazado_909966" data-name="Trazado 909966" d="M102.457,329.885l-2.53-.894a10.74,10.74,0,0,0-13.7-13.7l-.894-2.53a13.423,13.423,0,0,1,17.123,17.122Z" transform="translate(-73.708 -262.364)" fill="#d6323f"/>
          <circle id="Elipse_11787" data-name="Elipse 11787" cx="5.739" cy="5.739" r="5.739" transform="translate(38.604 59.922)" fill="#68737f"/>
          <path id="Trazado_909967" data-name="Trazado 909967" d="M246.707,381.415a6.707,6.707,0,1,1,6.707-6.707A6.707,6.707,0,0,1,246.707,381.415Zm0-10.732a4.024,4.024,0,1,0,4.024,4.025A4.024,4.024,0,0,0,246.707,370.683Z" transform="translate(-202.439 -308.975)" fill="#4f5761"/>
          <path id="Trazado_909968" data-name="Trazado 909968" d="M95.891,37.689l-7.717-5.145L84.307,23.52a1.341,1.341,0,0,0-.582-.644L71.652,16.169A1.342,1.342,0,0,0,71,16H48.2a1.338,1.338,0,0,0-.651.169h0L35.471,22.876a1.342,1.342,0,0,0-.582.644l-4.024,9.39a1.341,1.341,0,0,0-.108.528v6.707H28.073V37.464H25.39v2.683H21.366V37.464H18.683v2.683H16v2.683h2.683v2.683H16V48.2H95.147a1.342,1.342,0,0,0,1.341-1.341V38.805a1.341,1.341,0,0,0-.6-1.116ZM65.634,35.946,71,39.523v5.989H65.634Zm8.049,4.2H85.757v5.366H73.683Zm-.935-2.683-4.024-2.683H86.692l4.024,2.683ZM85.064,32.1H65.178L62.3,25.39H82.189ZM70.653,18.683,77.9,22.707H60.616l-7.244-4.024ZM37.174,25,48.2,18.876,59.216,25l3.735,8.716v11.8H54.9v-9.39a1.341,1.341,0,0,0-1.341-1.341H42.829a1.341,1.341,0,0,0-1.341,1.341v9.39H33.439v-11.8ZM49.537,37.464H52.22v8.049H49.537Zm-2.683,8.049H44.171V37.464h2.683Zm-16.1-2.683v2.683H28.073V42.829Zm-9.39,0H25.39v2.683H21.366Zm67.074,2.683V40.146h5.366v5.366Z" transform="translate(-16 -16)"/>
          <path id="Trazado_909969" data-name="Trazado 909969" d="M152,80h2.683v2.683H152Z" transform="translate(-129.195 -69.268)"/>
          <path id="Trazado_909970" data-name="Trazado 909970" d="M248,80h2.683v2.683H248Z" transform="translate(-209.097 -69.268)"/>
          <path id="Trazado_909971" data-name="Trazado 909971" d="M200,48h2.683v2.683H200Z" transform="translate(-169.146 -42.634)"/>
          <path id="Trazado_909972" data-name="Trazado 909972" d="M92.024,368a4.024,4.024,0,1,0,4.024,4.024A4.024,4.024,0,0,0,92.024,368Zm0,5.366a1.341,1.341,0,1,1,1.341-1.341A1.341,1.341,0,0,1,92.024,373.366Z" transform="translate(-75.927 -308.975)"/>
          <circle id="Elipse_11788" data-name="Elipse 11788" cx="0.82" cy="0.82" r="0.82" transform="translate(43.524 64.841)"/>
          <path id="Trazado_909973" data-name="Trazado 909973" d="M66.976,301.464a6.716,6.716,0,0,0-4.024-6.146V289.39a1.341,1.341,0,0,0-1.152-1.328l-1.531-.219v-3.819H57.586v3.436l-5.176-.739a1.34,1.34,0,0,0-1.069.315c-.034.029-.066.061-.1.093l-1.32-.88.812-1.624-2.4-1.2-2.683,5.366,2.4,1.2.662-1.324,2.163,1.442v3.306H44.391a13.366,13.366,0,0,0-.756-1.472l-2.173-10.864A1.341,1.341,0,0,0,40.146,280H34.781a1.342,1.342,0,0,0-1.341,1.341v4.092c-.446-.044-.894-.068-1.341-.068a13.36,13.36,0,0,0-4.472.764l.9,2.529a10.743,10.743,0,0,1,13.7,6.543h0v0a10.788,10.788,0,0,1,.344,5.961,1.342,1.342,0,0,0,1.308,1.639H53.7a6.68,6.68,0,0,0,1.21,2.683H38.661a9.39,9.39,0,1,0-13.126,0H16v2.683H96.488v-2.683H65.631A6.672,6.672,0,0,0,66.976,301.464ZM25.39,298.781a6.707,6.707,0,1,1,6.707,6.707,6.707,6.707,0,0,1-6.707-6.707Zm10.732-12.8v-3.3h2.925l1.072,5.357a13.476,13.476,0,0,0-4-2.055ZM45.244,296.1H52.22a1.341,1.341,0,0,0,1.341-1.341V289.6l6.707.958v4.2a6.719,6.719,0,0,0-6.572,5.366H45.446c.045-.445.067-.893.067-1.341a13.466,13.466,0,0,0-.268-2.683Zm11,5.366a4.024,4.024,0,1,1,4.024,4.024A4.024,4.024,0,0,1,56.244,301.464Z" transform="translate(-16 -235.731)"/>
          <path id="Trazado_909974" data-name="Trazado 909974" d="M16,480H96.488v2.683H16Z" transform="translate(-16 -402.195)"/>
          <path id="Trazado_909975" data-name="Trazado 909975" d="M16,240H96.488v2.683H16Z" transform="translate(-16 -202.439)"/>
          <path id="Trazado_909976" data-name="Trazado 909976" d="M296,288h33.537v2.683H296Z" transform="translate(-249.048 -242.39)"/>
          <path id="Trazado_909977" data-name="Trazado 909977" d="M16,288H30.756v2.683H16Z" transform="translate(-16 -242.39)"/>
          <path id="Trazado_909978" data-name="Trazado 909978" d="M312,336h30.854v2.683H312Z" transform="translate(-262.366 -282.341)"/>
          <path id="Trazado_909979" data-name="Trazado 909979" d="M16,336h6.707v2.683H16Z" transform="translate(-16 -282.341)"/>
          <path id="Trazado_909980" data-name="Trazado 909980" d="M336,384h26.829v2.683H336Z" transform="translate(-282.341 -322.292)"/>
          <path id="Trazado_909981" data-name="Trazado 909981" d="M16,384h4.024v2.683H16Z" transform="translate(-16 -322.292)"/>
        </g>
      </g>
    </g>
  </g>
</svg>
