<svg xmlns="http://www.w3.org/2000/svg" width="69" height="69" viewBox="0 0 69 69">
  <g id="Grupo_1119345" data-name="Grupo 1119345" transform="translate(-620.051 -9735)">
    <circle id="Elipse_11790" data-name="Elipse 11790" cx="34.5" cy="34.5" r="34.5" transform="translate(620.051 9735)" fill="#4d637e"/>
    <g id="Grupo_1119344" data-name="Grupo 1119344" transform="translate(621.912 9747)">
      <g id="Grupo_1119342" data-name="Grupo 1119342" transform="translate(11.801 0.662)">
        <path id="Trazado_916758" data-name="Trazado 916758" d="M54.237,50.966,21.463,51.1a.883.883,0,0,1-.883-.883L20.4,8.48a.883.883,0,0,1,.883-.883l.331-.1H54.237a.883.883,0,0,1,.883.883V50.5C55.12,50.988,54.725,50.966,54.237,50.966Z" transform="translate(-20.247 -7.5)" fill="#f9f8f9"/>
        <path id="Trazado_916759" data-name="Trazado 916759" d="M53.467,50.059V50.5c0,.488-.2.687-.687.687l-6,.2H19.522a.883.883,0,0,1-.883-.883V8.383a.883.883,0,0,1,.883-.883h.441V48.558a1.5,1.5,0,0,0,1.5,1.5Z" transform="translate(-18.639 -7.5)" fill="#dcdbdd"/>
        <path id="Trazado_916760" data-name="Trazado 916760" d="M233.466,197.71h5.563a2.6,2.6,0,0,0,0-5.21h-5.563a2.6,2.6,0,1,0,0,5.21Z" transform="translate(-212.122 -176.165)" fill="#f2bb88"/>
        <path id="Trazado_916761" data-name="Trazado 916761" d="M246.861,248.5h9.359v4.062h-9.359Z" transform="translate(-226.71 -227.22)" fill="#f2bb88"/>
        <path id="Trazado_916762" data-name="Trazado 916762" d="M199.241,121.794l-1.2-3.066a3.532,3.532,0,0,0-3.66-2.222l-19.438,2.057a2.326,2.326,0,0,0-1.923,3.15,6.425,6.425,0,0,0,2.614,1.195l6.3.083a2.836,2.836,0,0,0,.676,1.5l1.589,1.691a9.371,9.371,0,0,1,2.313,6.222c0,.021,0-.021,0,0a5.07,5.07,0,0,0,2.244,3.9l-.07,6.146h11.107V124.705A7.972,7.972,0,0,0,199.241,121.794Z" transform="translate(-159.244 -106.862)" fill="#f2d1a5"/>
        <path id="Trazado_916763" data-name="Trazado 916763" d="M350.849,340.417v6.04h-1.236v-6.04l-.024-.017A1.352,1.352,0,0,1,350.849,340.417Z" transform="translate(-320.367 -310.873)" fill="#f2bb88"/>
        <path id="Trazado_916764" data-name="Trazado 916764" d="M337.568,407.5l-.143-7.65a1.148,1.148,0,0,1,1.148-1.148l1.186-.2h10.287a1.148,1.148,0,0,1,1.148,1.148v7.947a.265.265,0,0,1-.265.265h-11.17Z" transform="translate(-309.277 -363.976)" fill="#bde4ff"/>
        <path id="Trazado_916765" data-name="Trazado 916765" d="M336.964,398.5v9.359h-2.34a.265.265,0,0,1-.265-.265v-7.947a1.148,1.148,0,0,1,1.148-1.148Z" transform="translate(-306.482 -363.976)" fill="#99dbff"/>
        <path id="Trazado_916766" data-name="Trazado 916766" d="M194.8,176.423a.743.743,0,0,1-.743.743H176.8a2.327,2.327,0,0,1-2.168-1.485h19.433A.743.743,0,0,1,194.8,176.423Z" transform="translate(-160.855 -160.83)" fill="#f2bb88"/>
        <g id="Grupo_1119341" data-name="Grupo 1119341" transform="translate(16.692 4.678)">
          <path id="Trazado_916767" data-name="Trazado 916767" d="M245.331,108.77l-12.3,14.07a3.566,3.566,0,0,1-.426.415l-2.2-1.126-1.23-1.844c.1-.17.344-.17.474-.32l12.355-14.075,2.033,1.019Z" transform="translate(-227.281 -101.881)" fill="#afefa5"/>
          <path id="Trazado_916768" data-name="Trazado 916768" d="M211.951,298.528l-1.927,1.114a.781.781,0,0,1-.661.057c-.087-.032-.119-.149-.192-.212a.6.6,0,0,1-.206-.525.779.779,0,0,1,.056-.29l.819-2.006,1.261.691Z" transform="translate(-208.851 -275.811)" fill="#857e87"/>
          <path id="Trazado_916769" data-name="Trazado 916769" d="M396.475,65.841l-1.4,1.6-2.229-1.113-1.205-1.864,1.331-1.579c.406-.467,1.579-.221,1.579-.221l.035.029,1.769,1.533A1.148,1.148,0,0,1,396.475,65.841Z" transform="translate(-375.402 -62.408)" fill="#ff7d91"/>
          <path id="Trazado_916770" data-name="Trazado 916770" d="M377.569,86.077l-1.627,1.861-3.5-3.037,1.206-.5.421-1.36Z" transform="translate(-357.891 -81.048)" fill="#f9f8f9"/>
          <path id="Trazado_916771" data-name="Trazado 916771" d="M222.149,271.89a3.584,3.584,0,0,1-.475.329l-1.751,1.013-2.214-1.919.766-.837c.072-.179.146-1.393.247-1.557Z" transform="translate(-216.823 -250.516)" fill="#f2d1a5"/>
          <path id="Trazado_916772" data-name="Trazado 916772" d="M242.606,104.795l-.336.385-12.3,14.071c-.018.02-.035.041-.051.062l-.564-.172-.176-.469a3.439,3.439,0,0,1,.35-.48l12.3-14.071h.624Z" transform="translate(-227.281 -100.267)" fill="#8ce1a4"/>
          <path id="Trazado_916773" data-name="Trazado 916773" d="M209.207,296.587l-.2.5-.816,2.03a.769.769,0,0,1-.242-.143.785.785,0,0,1-.214-.882l.83-2.064h.456Z" transform="translate(-207.679 -275.232)" fill="#6f6571"/>
          <path id="Trazado_916774" data-name="Trazado 916774" d="M393.848,60.736l-2.194,2.421-.717-.1-.068-.583,1.4-1.6A1.149,1.149,0,0,1,393.848,60.736Z" transform="translate(-374.694 -60.485)" fill="#e15f78"/>
          <path id="Trazado_916775" data-name="Trazado 916775" d="M374.851,83.721l-.343.379-1.291,1.476-.778-.675,1.627-1.861Z" transform="translate(-357.891 -81.048)" fill="#e8e8e8"/>
          <path id="Trazado_916776" data-name="Trazado 916776" d="M219.462,269.561a3.279,3.279,0,0,0-.3.419,3.4,3.4,0,0,0-.259.517l-.553,1.375-.643-.557.754-1.877a3.4,3.4,0,0,1,.259-.517Z" transform="translate(-216.823 -250.516)" fill="#f2bb88"/>
        </g>
        <path id="Trazado_916777" data-name="Trazado 916777" d="M281.62,166.582,283,165l-3.335-3.623a2.518,2.518,0,0,0-2.9-.586s-.395.317-.594.5l0,.009a2.378,2.378,0,0,0,.115,3.438l1.353,1.691a9.316,9.316,0,0,1,2.4,6.166c0,.021,0,.043,0,.064a4.918,4.918,0,0,0,4.811,4.85Z" transform="translate(-252.811 -147.043)" fill="#f2d1a5"/>
        <path id="Trazado_916778" data-name="Trazado 916778" d="M282.906,179.185v.006a.654.654,0,0,1-.758.613,5.014,5.014,0,0,1-4.2-4.783c0-.021,0-.042,0-.064a9.248,9.248,0,0,0-2.425-6.13l-1.554-1.688a2.517,2.517,0,0,1,.152-3.555,2.481,2.481,0,0,1,.652-.435,2.522,2.522,0,0,0,.344,2.93l1.554,1.688a9.249,9.249,0,0,1,2.425,6.13c0,.022,0,.043,0,.064a5.015,5.015,0,0,0,3.358,4.571A.659.659,0,0,1,282.906,179.185Z" transform="translate(-250.824 -149.406)" fill="#f2bb88"/>
      </g>
      <g id="Grupo_1119343" data-name="Grupo 1119343" transform="translate(11.139 0)">
        <path id="Trazado_916779" data-name="Trazado 916779" d="M53.011,34.581V27.549a.662.662,0,0,0-1.324,0v6.975H41.709V31.335a5.594,5.594,0,0,0,2.131.451h.009a.662.662,0,0,0,.009-1.324A4.388,4.388,0,0,1,39.591,26.2a9.9,9.9,0,0,0-2.6-6.569l-1.553-1.687a1.856,1.856,0,0,1,.112-2.62,1.9,1.9,0,0,1,2.62.112l5.684,6.175a.662.662,0,1,0,.974-.9l-2.475-2.689.323-.37H45.2a.662.662,0,1,0,0-1.324H43.835l4.532-5.184a2.851,2.851,0,0,1,1.612,1.618l1.2,3.066a7.28,7.28,0,0,1,.505,2.67v5.951a.662.662,0,1,0,1.324,0V18.505a8.6,8.6,0,0,0-.6-3.154l-1.2-3.066a4.167,4.167,0,0,0-1.937-2.172l.792-.906a1.812,1.812,0,0,0-.182-2.553L48.116,5.121a1.8,1.8,0,0,0-.825-.405V.662A.662.662,0,0,0,46.629,0H11.8a.662.662,0,0,0-.662.662v4.5a.662.662,0,1,0,1.324,0V1.324h33.5V4.955a1.806,1.806,0,0,0-.4.346l-4.319,4.94h0l-7.4.783a.662.662,0,0,0-.589.728.712.712,0,0,0,.728.589l5.977-.633L38.132,13.8a3.25,3.25,0,0,0-3.478.548,3.164,3.164,0,0,0-1.006,1.983H27.742a1.662,1.662,0,0,1-.175-3.314l3.183-.337a.662.662,0,1,0-.139-1.317l-3.183.337a2.986,2.986,0,0,0,.314,5.956h2.777a3.262,3.262,0,0,0,.429,4.36c-.4.48-.62.667-.992,1.177a2.726,2.726,0,0,1-.742.113,5.547,5.547,0,0,1-2.908-.916,6.718,6.718,0,0,0-3.494-1.069,8.823,8.823,0,0,0-4.078,1.195,5.592,5.592,0,0,1-2.323.791.662.662,0,0,0,0,1.324,6.6,6.6,0,0,0,2.912-.929,7.642,7.642,0,0,1,3.49-1.057,5.394,5.394,0,0,1,2.854.9,6.929,6.929,0,0,0,3.6,1.08l-1.335,3.323a1.441,1.441,0,0,0-.1.445,8.213,8.213,0,0,1-1.526-.709,6.718,6.718,0,0,0-3.494-1.069,8.823,8.823,0,0,0-4.078,1.195,5.594,5.594,0,0,1-2.323.791.662.662,0,0,0,0,1.324A6.6,6.6,0,0,0,19.324,29a7.642,7.642,0,0,1,3.49-1.057,5.394,5.394,0,0,1,2.854.9,6.663,6.663,0,0,0,3.465,1.079A1.667,1.667,0,0,0,30,29.744l3.677-2.127a4.585,4.585,0,0,0,1.129-.952h3.488a5.686,5.686,0,0,0,2.093,3.872v4.044a1.812,1.812,0,0,0-1.369,1.753v7.549H12.463V8.253a.662.662,0,1,0-1.324,0V44.546a.662.662,0,0,0,.662.662H39.679a.662.662,0,0,0,.662-.662V36.334a.486.486,0,0,1,.486-.486H52.57a.486.486,0,0,1,.486.486v8.212a.662.662,0,0,0,1.324,0V36.334a1.812,1.812,0,0,0-1.369-1.753ZM43.106,10.126l.765.663-3.989,4.555L39.2,14.6Zm1.627-1.861,2.5,2.169-.755.864-2.5-2.169Zm-3.949,8.059,4.088-4.667.736.638-4.156,4.754Zm5.78-10.153a.486.486,0,0,1,.685-.049l1.768,1.533a.486.486,0,0,1,.051.683l-.961,1.1L45.6,7.267ZM31.669,27.248l-1.5-1.3.453-1.127,2.1,1.819Zm3.318-7.835.682.741L32.04,24.3l-.753-.653Zm-1.2,6.4-.748-.649,3.5-4a8.448,8.448,0,0,1,.564.852ZM31.2,19.6a1.945,1.945,0,0,1,1.943-1.943h.632a3.157,3.157,0,0,0,.342.734l-2.3,2.629A1.94,1.94,0,0,1,31.2,19.6Zm-1.868,9c-.105.057-.218,0-.171-.148l.483-1.2.81.7Zm8.389-5.272a8.67,8.67,0,0,1,.483,2.015H35.962Z" transform="translate(-11.139 0)"/>
        <path id="Trazado_916780" data-name="Trazado 916780" d="M71.941,76.194,66.555,81.58a.662.662,0,1,0,.936.936l5.386-5.386a.662.662,0,0,0-.936-.936Z" transform="translate(-61.485 -69.29)"/>
        <path id="Trazado_916781" data-name="Trazado 916781" d="M78.555,86.285a.662.662,0,0,0,.936,0L89.646,76.131a.662.662,0,0,0-.936-.936L78.555,85.348A.662.662,0,0,0,78.555,86.285Z" transform="translate(-72.426 -68.378)"/>
        <path id="Trazado_916782" data-name="Trazado 916782" d="M68.13,363.324a3.42,3.42,0,0,1,1.34.27.662.662,0,0,0,.516-1.22,4.763,4.763,0,1,0,2.659,2.857.662.662,0,0,0-1.254.426,3.444,3.444,0,1,1-3.261-2.334Z" transform="translate(-58.751 -330.036)"/>
        <path id="Trazado_916783" data-name="Trazado 916783" d="M209.793,373.595a.662.662,0,0,0,.662-.662v-7.77a.662.662,0,0,0-.662-.662h-7.77a.662.662,0,0,0-.662.662v7.77a.662.662,0,0,0,.662.662Zm-7.108-7.77h6.446v6.446h-6.446Z" transform="translate(-184.565 -332.316)"/>
      </g>
    </g>
  </g>
</svg>
