<svg xmlns="http://www.w3.org/2000/svg" width="71" height="71" viewBox="0 0 71 71">
  <g id="Grupo_1119555" data-name="Grupo 1119555" transform="translate(-613.543 -5316)">
    <circle id="Elipse_11626" data-name="Elipse 11626" cx="35.5" cy="35.5" r="35.5" transform="translate(613.543 5316)" fill="#fff"/>
    <g id="Grupo_1119554" data-name="Grupo 1119554" transform="translate(626.934 5322.952)">
      <g id="Grupo_1119542" data-name="Grupo 1119542" transform="translate(0.648 7.696)">
        <g id="Grupo_1119534" data-name="Grupo 1119534" transform="translate(0 0)">
          <g id="Grupo_1119530" data-name="Grupo 1119530" transform="translate(34.332)">
            <g id="Grupo_1119528" data-name="Grupo 1119528">
              <path id="Trazado_917183" data-name="Trazado 917183" d="M411.435,14.548h-5.968a.432.432,0,0,0-.432.432V25.315a.432.432,0,0,0,.432.432h7.726a.432.432,0,0,0,.432-.432V16.738a.432.432,0,0,0-.126-.305l-1.758-1.758A.432.432,0,0,0,411.435,14.548Z" transform="translate(-405.035 -14.548)" fill="#dff6fd"/>
            </g>
            <g id="Grupo_1119529" data-name="Grupo 1119529" transform="translate(3.72 0)">
              <path id="Trazado_917184" data-name="Trazado 917184" d="M452.849,16.433l-1.758-1.758a.432.432,0,0,0-.305-.126h-2.68a.432.432,0,0,1,.305.126l1.758,1.758a.432.432,0,0,1,.126.305v8.577a.432.432,0,0,1-.432.432h2.68a.432.432,0,0,0,.432-.432V16.738A.432.432,0,0,0,452.849,16.433Z" transform="translate(-448.105 -14.548)" fill="#c8effe"/>
            </g>
          </g>
          <g id="Grupo_1119533" data-name="Grupo 1119533">
            <g id="Grupo_1119531" data-name="Grupo 1119531">
              <path id="Trazado_917185" data-name="Trazado 917185" d="M13.9,14.548H7.932a.432.432,0,0,0-.432.432V25.315a.432.432,0,0,0,.432.432h7.726a.432.432,0,0,0,.432-.432V16.738a.432.432,0,0,0-.126-.305l-1.758-1.758A.432.432,0,0,0,13.9,14.548Z" transform="translate(-7.5 -14.548)" fill="#dff6fd"/>
            </g>
            <g id="Grupo_1119532" data-name="Grupo 1119532" transform="translate(3.679 0)">
              <path id="Trazado_917186" data-name="Trazado 917186" d="M54.888,16.433,53.13,14.674a.432.432,0,0,0-.305-.126H50.1a.432.432,0,0,1,.305.126l1.758,1.758a.432.432,0,0,1,.127.305v8.577a.432.432,0,0,1-.432.432h2.72a.432.432,0,0,0,.432-.432V16.738A.432.432,0,0,0,54.888,16.433Z" transform="translate(-50.104 -14.548)" fill="#c8effe"/>
            </g>
          </g>
        </g>
        <g id="Grupo_1119541" data-name="Grupo 1119541" transform="translate(0 30.506)">
          <g id="Grupo_1119537" data-name="Grupo 1119537" transform="translate(34.332)">
            <g id="Grupo_1119535" data-name="Grupo 1119535">
              <path id="Trazado_917187" data-name="Trazado 917187" d="M411.435,367.776h-5.968a.432.432,0,0,0-.432.432v10.335a.432.432,0,0,0,.432.432h7.726a.432.432,0,0,0,.432-.432v-8.577a.432.432,0,0,0-.126-.305L411.74,367.9A.432.432,0,0,0,411.435,367.776Z" transform="translate(-405.035 -367.776)" fill="#dff6fd"/>
            </g>
            <g id="Grupo_1119536" data-name="Grupo 1119536" transform="translate(3.72 0)">
              <path id="Trazado_917188" data-name="Trazado 917188" d="M452.849,369.661l-1.758-1.758a.432.432,0,0,0-.305-.126h-2.68a.432.432,0,0,1,.305.126l1.758,1.758a.432.432,0,0,1,.127.305v8.577a.432.432,0,0,1-.432.432h2.68a.432.432,0,0,0,.432-.432v-8.577A.432.432,0,0,0,452.849,369.661Z" transform="translate(-448.105 -367.776)" fill="#c8effe"/>
            </g>
          </g>
          <g id="Grupo_1119540" data-name="Grupo 1119540">
            <g id="Grupo_1119538" data-name="Grupo 1119538">
              <path id="Trazado_917189" data-name="Trazado 917189" d="M13.9,367.776H7.932a.432.432,0,0,0-.432.432v10.335a.432.432,0,0,0,.432.432h7.726a.432.432,0,0,0,.432-.432v-8.577a.432.432,0,0,0-.126-.305L14.205,367.9A.432.432,0,0,0,13.9,367.776Z" transform="translate(-7.5 -367.776)" fill="#dff6fd"/>
            </g>
            <g id="Grupo_1119539" data-name="Grupo 1119539" transform="translate(3.679 0)">
              <path id="Trazado_917190" data-name="Trazado 917190" d="M54.888,369.661,53.13,367.9a.432.432,0,0,0-.305-.126H50.1a.432.432,0,0,1,.305.126l1.758,1.758a.432.432,0,0,1,.127.305v8.577a.432.432,0,0,1-.432.432h2.72a.432.432,0,0,0,.432-.432v-8.577A.432.432,0,0,0,54.888,369.661Z" transform="translate(-50.104 -367.776)" fill="#c8effe"/>
            </g>
          </g>
        </g>
      </g>
      <g id="Grupo_1119549" data-name="Grupo 1119549" transform="translate(12.494 20.162)">
        <g id="Grupo_1119548" data-name="Grupo 1119548" transform="translate(0 0)">
          <g id="Grupo_1119543" data-name="Grupo 1119543">
            <path id="Trazado_917191" data-name="Trazado 917191" d="M154.271,162.322l-1.425-2.726a1.3,1.3,0,0,0-1.148-.7h-6.167a.864.864,0,0,0-.864.864v2.558Z" transform="translate(-144.667 -158.901)" fill="#ffc344"/>
          </g>
          <g id="Grupo_1119544" data-name="Grupo 1119544" transform="translate(4.019 0)">
            <path id="Trazado_917192" data-name="Trazado 917192" d="M195.361,159.6a1.3,1.3,0,0,0-1.148-.7H191.2a1.3,1.3,0,0,1,1.148.7l1.426,2.726h3.012Z" transform="translate(-191.201 -158.901)" fill="#feb237"/>
          </g>
          <g id="Grupo_1119545" data-name="Grupo 1119545" transform="translate(0 3.337)">
            <path id="Trazado_917193" data-name="Trazado 917193" d="M163.033,197.538H144.667v8.894a4.073,4.073,0,0,1,6.26,4.541h12.106a.864.864,0,0,0,.864-.864V198.4A.864.864,0,0,0,163.033,197.538Z" transform="translate(-144.667 -197.538)" fill="#ffd15b"/>
          </g>
          <g id="Grupo_1119547" data-name="Grupo 1119547" transform="translate(14.768 3.337)">
            <g id="Grupo_1119546" data-name="Grupo 1119546">
              <path id="Trazado_917194" data-name="Trazado 917194" d="M319.264,197.538h-3.6a.864.864,0,0,1,.864.864v11.707a.864.864,0,0,1-.864.864h3.6a.864.864,0,0,0,.864-.864V198.4A.864.864,0,0,0,319.264,197.538Z" transform="translate(-315.666 -197.538)" fill="#ffc344"/>
            </g>
          </g>
        </g>
      </g>
      <g id="Grupo_1119552" data-name="Grupo 1119552" transform="translate(10.709 31.539)">
        <g id="Grupo_1119550" data-name="Grupo 1119550">
          <circle id="Elipse_11871" data-name="Elipse 11871" cx="4.161" cy="4.161" r="4.161" fill="#05e39c"/>
        </g>
        <g id="Grupo_1119551" data-name="Grupo 1119551" transform="translate(2.807 0)">
          <path id="Trazado_917195" data-name="Trazado 917195" d="M157.854,290.633a4.153,4.153,0,0,0-1.354.227,4.161,4.161,0,0,1,0,7.869,4.161,4.161,0,1,0,1.355-8.1Z" transform="translate(-156.5 -290.633)" fill="#0ed290"/>
        </g>
      </g>
      <g id="Grupo_1119553" data-name="Grupo 1119553" transform="translate(0 7.048)">
        <path id="Trazado_917196" data-name="Trazado 917196" d="M240.976,431.971h-.864a.648.648,0,1,0,0,1.3h.864a.648.648,0,1,0,0-1.3Z" transform="translate(-218.784 -395.274)"/>
        <path id="Trazado_917197" data-name="Trazado 917197" d="M170.976,431.971h-.864a.648.648,0,1,0,0,1.3h.864a.648.648,0,1,0,0-1.3Z" transform="translate(-154.83 -395.274)"/>
        <path id="Trazado_917198" data-name="Trazado 917198" d="M205.976,431.971h-.864a.648.648,0,1,0,0,1.3h.864a.648.648,0,1,0,0-1.3Z" transform="translate(-186.807 -395.274)"/>
        <path id="Trazado_917199" data-name="Trazado 917199" d="M135.976,431.971h-.864a.648.648,0,1,0,0,1.3h.864a.648.648,0,0,0,0-1.3Z" transform="translate(-122.852 -395.274)"/>
        <path id="Trazado_917200" data-name="Trazado 917200" d="M10.1,366.469H9.885v-3.354a1.072,1.072,0,0,0-.316-.763l-1.758-1.758a1.073,1.073,0,0,0-.763-.316H1.08A1.081,1.081,0,0,0,0,361.357v10.335a1.081,1.081,0,0,0,1.08,1.08H2.289a.648.648,0,1,0,0-1.3H1.3v-9.9H6.958L8.59,363.2v8.272H5.311a.648.648,0,0,0,0,1.3H8.806a1.081,1.081,0,0,0,1.08-1.08v-3.928H10.1a.648.648,0,1,0,0-1.3Z" transform="translate(0 -329.771)"/>
        <path id="Trazado_917201" data-name="Trazado 917201" d="M345.976,431.971h-.864a.648.648,0,1,0,0,1.3h.864a.648.648,0,0,0,0-1.3Z" transform="translate(-314.716 -395.274)"/>
        <path id="Trazado_917202" data-name="Trazado 917202" d="M310.976,431.971h-.864a.648.648,0,1,0,0,1.3h.864a.648.648,0,1,0,0-1.3Z" transform="translate(-282.739 -395.274)"/>
        <path id="Trazado_917203" data-name="Trazado 917203" d="M275.976,431.971h-.864a.648.648,0,1,0,0,1.3h.864a.648.648,0,0,0,0-1.3Z" transform="translate(-250.762 -395.274)"/>
        <path id="Trazado_917204" data-name="Trazado 917204" d="M213.183,66.324h.864a.648.648,0,0,0,0-1.3h-.864a.648.648,0,0,0,0,1.3Z" transform="translate(-194.18 -60.022)"/>
        <path id="Trazado_917205" data-name="Trazado 917205" d="M178.183,66.324h.864a.648.648,0,0,0,0-1.3h-.864a.648.648,0,0,0,0,1.3Z" transform="translate(-162.203 -60.022)"/>
        <path id="Trazado_917206" data-name="Trazado 917206" d="M143.183,66.324h.864a.648.648,0,0,0,0-1.3h-.864a.648.648,0,0,0,0,1.3Z" transform="translate(-130.225 -60.022)"/>
        <path id="Trazado_917207" data-name="Trazado 917207" d="M248.183,66.324h.864a.648.648,0,1,0,0-1.3h-.864a.648.648,0,1,0,0,1.3Z" transform="translate(-226.157 -60.022)"/>
        <path id="Trazado_917208" data-name="Trazado 917208" d="M283.183,66.324h.864a.648.648,0,0,0,0-1.3h-.864a.648.648,0,0,0,0,1.3Z" transform="translate(-258.135 -60.022)"/>
        <path id="Trazado_917209" data-name="Trazado 917209" d="M353.183,66.324h.864a.648.648,0,0,0,0-1.3h-.864a.648.648,0,1,0,0,1.3Z" transform="translate(-322.089 -60.022)"/>
        <path id="Trazado_917210" data-name="Trazado 917210" d="M318.183,66.324h.864a.648.648,0,1,0,0-1.3h-.864a.648.648,0,0,0,0,1.3Z" transform="translate(-290.112 -60.022)"/>
        <path id="Trazado_917211" data-name="Trazado 917211" d="M66.316,159.62a.39.39,0,0,1,.389.39v4.127l-.569-.569a.648.648,0,0,0-.916.916l1.675,1.675a.648.648,0,0,0,.916,0l1.675-1.675a.648.648,0,1,0-.916-.916l-.57.57v-4.127a1.687,1.687,0,0,0-1.685-1.685H60.488v-2.075a1.513,1.513,0,0,0-1.511-1.511H50.562l-1.2-2.294a1.938,1.938,0,0,0-1.722-1.043H41.474a1.513,1.513,0,0,0-1.511,1.511v4.24a.648.648,0,0,0,1.3,0v-1.12H58.977a.216.216,0,0,1,.216.216v11.707a.216.216,0,0,1-.216.216H47.759a4.806,4.806,0,0,0-6.5-5.072v-2.925a.648.648,0,0,0-1.3,0v1.171H34.134a.39.39,0,0,1-.389-.389V156.83l.569.569a.648.648,0,1,0,.916-.916l-1.675-1.675a.648.648,0,0,0-.916,0l-1.675,1.675a.648.648,0,0,0,.916.916l.57-.57v4.127a1.687,1.687,0,0,0,1.685,1.685h5.828v1.209a4.808,4.808,0,1,0,7.45,5.617H58.977a1.513,1.513,0,0,0,1.511-1.511V159.62h5.828Zm-25.058-4.882v-1.825a.216.216,0,0,1,.216-.216h6.167a.646.646,0,0,1,.574.348l.886,1.694H41.258ZM42.987,171.1a3.514,3.514,0,1,1,3.514-3.514A3.518,3.518,0,0,1,42.987,171.1Z" transform="translate(-28.117 -138.934)"/>
        <path id="Trazado_917212" data-name="Trazado 917212" d="M397.969,9.122l-1.758-1.758a1.072,1.072,0,0,0-.764-.316h-5.968a1.081,1.081,0,0,0-1.08,1.08v3.928h-.216a.648.648,0,1,0,0,1.3h.216v.861a.648.648,0,0,0,1.3,0V8.343h5.663l1.632,1.632v8.272h-7.295V17.235a.648.648,0,1,0-1.3,0v1.228a1.081,1.081,0,0,0,1.079,1.08h7.726a1.081,1.081,0,0,0,1.08-1.08V9.886a1.074,1.074,0,0,0-.316-.763Z" transform="translate(-354.067 -7.048)"/>
        <path id="Trazado_917213" data-name="Trazado 917213" d="M430.011,46.511H433.1a.648.648,0,1,0,0-1.3h-3.092a.648.648,0,0,0,0,1.3Z" transform="translate(-392.282 -41.92)"/>
        <path id="Trazado_917214" data-name="Trazado 917214" d="M430.011,75.559H433.1a.648.648,0,1,0,0-1.3h-3.092a.648.648,0,0,0,0,1.3Z" transform="translate(-392.282 -68.459)"/>
        <path id="Trazado_917215" data-name="Trazado 917215" d="M430.011,104.607h1.48a.648.648,0,0,0,0-1.3h-1.48a.648.648,0,1,0,0,1.3Z" transform="translate(-392.282 -94.998)"/>
        <path id="Trazado_917216" data-name="Trazado 917216" d="M1.08,19.543H8.806a1.081,1.081,0,0,0,1.08-1.08V13.348l.049,0H10.8a.648.648,0,1,0,0-1.3H9.935l-.049,0V9.886a1.073,1.073,0,0,0-.316-.763L7.811,7.364a1.073,1.073,0,0,0-.763-.316H1.08A1.081,1.081,0,0,0,0,8.128V18.463A1.081,1.081,0,0,0,1.08,19.543ZM1.3,8.343H6.958L8.59,9.975v8.272H1.3Z" transform="translate(0 -7.048)"/>
        <path id="Trazado_917217" data-name="Trazado 917217" d="M35.569,45.216H32.477a.648.648,0,1,0,0,1.3h3.092a.648.648,0,1,0,0-1.3Z" transform="translate(-29.08 -41.92)"/>
        <path id="Trazado_917218" data-name="Trazado 917218" d="M35.569,74.264H32.477a.648.648,0,1,0,0,1.3h3.092a.648.648,0,1,0,0-1.3Z" transform="translate(-29.08 -68.459)"/>
        <path id="Trazado_917219" data-name="Trazado 917219" d="M33.956,103.312h-1.48a.648.648,0,1,0,0,1.3h1.48a.648.648,0,1,0,0-1.3Z" transform="translate(-29.08 -94.998)"/>
        <path id="Trazado_917220" data-name="Trazado 917220" d="M388.837,360.593a1.073,1.073,0,0,0-.763-.316h-5.968a1.081,1.081,0,0,0-1.08,1.08v5.115l-.049,0h-.864a.648.648,0,0,0,0,1.3h.864l.049,0v3.93a1.081,1.081,0,0,0,1.08,1.08h7.726a1.081,1.081,0,0,0,1.079-1.08v-8.577a1.072,1.072,0,0,0-.316-.763Zm.779,10.883h-7.295v-9.9h5.663l1.632,1.632Z" transform="translate(-346.694 -329.771)"/>
        <path id="Trazado_917221" data-name="Trazado 917221" d="M433.1,398.444h-3.092a.648.648,0,0,0,0,1.3H433.1a.648.648,0,0,0,0-1.3Z" transform="translate(-392.282 -364.642)"/>
        <path id="Trazado_917222" data-name="Trazado 917222" d="M433.1,427.492h-3.092a.648.648,0,0,0,0,1.3H433.1a.648.648,0,0,0,0-1.3Z" transform="translate(-392.282 -391.182)"/>
        <path id="Trazado_917223" data-name="Trazado 917223" d="M431.49,456.54h-1.48a.648.648,0,1,0,0,1.3h1.48a.648.648,0,0,0,0-1.3Z" transform="translate(-392.282 -417.721)"/>
        <path id="Trazado_917224" data-name="Trazado 917224" d="M32.477,399.739h3.092a.648.648,0,0,0,0-1.3H32.477a.648.648,0,0,0,0,1.3Z" transform="translate(-29.08 -364.642)"/>
        <path id="Trazado_917225" data-name="Trazado 917225" d="M32.477,428.787h3.092a.648.648,0,1,0,0-1.3H32.477a.648.648,0,1,0,0,1.3Z" transform="translate(-29.08 -391.182)"/>
        <path id="Trazado_917226" data-name="Trazado 917226" d="M34.6,457.188a.648.648,0,0,0-.648-.648h-1.48a.648.648,0,1,0,0,1.3h1.48A.648.648,0,0,0,34.6,457.188Z" transform="translate(-29.08 -417.721)"/>
        <path id="Trazado_917227" data-name="Trazado 917227" d="M145.257,318.941l-1.912,2-1.068-1.116a.648.648,0,0,0-.936.9l1.535,1.6a.648.648,0,0,0,.936,0l2.38-2.487a.648.648,0,0,0-.936-.9Z" transform="translate(-128.971 -291.822)"/>
      </g>
    </g>
  </g>
</svg>
