<svg xmlns="http://www.w3.org/2000/svg" xmlns:xlink="http://www.w3.org/1999/xlink" width="190" height="206.194" viewBox="0 0 190 206.194">
  <defs>
    <clipPath id="clip-path">
      <rect id="Rect치ngulo_405377" data-name="Rect치ngulo 405377" width="190" height="206.194" rx="8" transform="translate(285 8629.489)" fill="#bb965f"/>
    </clipPath>
  </defs>
  <g id="Grupo_1119556" data-name="Grupo 1119556" transform="translate(-285 -8629.489)">
    <rect id="Rect치ngulo_405372" data-name="Rect치ngulo 405372" width="190" height="184.74" rx="8" transform="translate(285 8650.943)" fill="#bb965f"/>
    <g id="Enmascarar_grupo_1098807" data-name="Enmascarar grupo 1098807" clip-path="url(#clip-path)">
      <g id="Grupo_1117840" data-name="Grupo 1117840" transform="translate(285 8629.489)">
        <ellipse id="Elipse_11765" data-name="Elipse 11765" cx="68.323" cy="9.895" rx="68.323" ry="9.895" transform="translate(62.673 471.231)" fill="#b25f14"/>
        <g id="Grupo_1117839" data-name="Grupo 1117839" transform="translate(0)">
          <path id="Trazado_909181" data-name="Trazado 909181" d="M587.2,153.637a4.939,4.939,0,0,1-.523.271A3.7,3.7,0,0,0,587.2,153.637Z" transform="translate(-478.974 -81.792)" fill="#adadad"/>
          <path id="Trazado_909182" data-name="Trazado 909182" d="M585.648,152.422c-.2.2-.4.38-.616.56C585.249,152.8,585.449,152.621,585.648,152.422Z" transform="translate(-474.654 -82.621)" fill="#adadad"/>
          <path id="Trazado_909183" data-name="Trazado 909183" d="M584.546,151.261a5.886,5.886,0,0,1-.471.651A7.173,7.173,0,0,0,584.546,151.261Z" transform="translate(-471.942 -83.414)" fill="#adadad"/>
          <path id="Trazado_909184" data-name="Trazado 909184" d="M584.2,150.788c-.126.236-.271.471-.416.688C583.93,151.259,584.074,151.024,584.2,150.788Z" transform="translate(-471.109 -83.736)" fill="#adadad"/>
          <g id="Grupo_1117825" data-name="Grupo 1117825" transform="translate(65.704 238.378)">
            <g id="Grupo_1117821" data-name="Grupo 1117821" transform="translate(0)">
              <g id="Grupo_1117819" data-name="Grupo 1117819" transform="translate(0 68.092)">
                <path id="Trazado_909185" data-name="Trazado 909185" d="M590.17,302.81l.841,7.336,5.1,44.94.252,2.221.286,2.574c10.836,2.995,18.844,1.935,23.539.252,3.348-1.161,4.913-1.548,4.913-1.548.269-1.3.488-4.358.69-6.495.084-.909.152-1.884.236-2.911.875-12.939.841-34.677.74-46.959-.05-5.283-.118-8.816-.118-9.136A98.663,98.663,0,0,1,590.17,302.81Z" transform="translate(-590.17 -293.085)" fill="#96a19b"/>
                <path id="Trazado_909186" data-name="Trazado 909186" d="M590.2,302.81l.841,7.336c6.394,1.447,14.806-.034,19.551-1.094,4.341-.959,11.475-3.331,16.2-6.831-.05-5.283-.118-8.816-.118-9.136A98.663,98.663,0,0,1,590.2,302.81Z" transform="translate(-590.2 -293.085)" fill="#79827d"/>
                <path id="Trazado_909187" data-name="Trazado 909187" d="M590.64,334.552l.286,2.574c10.836,2.995,18.844,1.935,23.539.252,3.348-1.161,4.913-1.548,4.913-1.548.269-1.3.488-4.358.69-6.495.084-.908.151-1.884.235-2.911a35.955,35.955,0,0,1-8.581,5.535c-4.778,2.154-9.658,2.776-14.857,3.029a30.5,30.5,0,0,1-3.92.017C592.238,334.939,591.431,334.669,590.64,334.552Z" transform="translate(-584.448 -270.33)" fill="#79827d"/>
              </g>
              <g id="Grupo_1117820" data-name="Grupo 1117820" transform="translate(80.728)">
                <path id="Trazado_909188" data-name="Trazado 909188" d="M559.221,333.965l.437-6.057,2.625-35.838,2.894-39.455c1.06.421,37.049,14.705,8.85,85.355-.488,1.262-1.026,2.541-1.565,3.836l-13.713-1.4Zm-10.583-37.419a8.259,8.259,0,0,0-5.2-7.672l-9.977-3.954A70.121,70.121,0,0,1,555.3,264.191l-.942,18.962-.673,13.645-2.1,42.871-11.407-1.195,8.295-40.246A9.514,9.514,0,0,0,548.638,296.546Z" transform="translate(-533.461 -252.615)" fill="#96a19b"/>
                <path id="Trazado_909189" data-name="Trazado 909189" d="M566.558,289.724l-8.295,40.246,11.408,1.195,2.1-42.871.673-13.645a114.2,114.2,0,0,0-11.324-9.574,68.218,68.218,0,0,0-9.573,11.34l9.977,3.954a8.259,8.259,0,0,1,5.2,7.672A9.524,9.524,0,0,1,566.558,289.724Z" transform="translate(-551.55 -244.111)" fill="#79827d"/>
                <path id="Trazado_909190" data-name="Trazado 909190" d="M539.86,307.409l13.713,1.4c.538-1.3,1.077-2.574,1.565-3.836a55.482,55.482,0,0,0-5.788-2.019c-2.844-.639-5.721-1.228-8.564-1.868a2.973,2.973,0,0,1-.454-.118Z" transform="translate(-514.572 -219.615)" fill="#79827d"/>
              </g>
            </g>
            <g id="Grupo_1117824" data-name="Grupo 1117824" transform="translate(2.019 85.859)">
              <g id="Grupo_1117822" data-name="Grupo 1117822" transform="translate(79.929)">
                <path id="Trazado_909191" data-name="Trazado 909191" d="M549.991,353.015c16.8,8.482,27.508,8.248,32.012,7.506a4.027,4.027,0,0,0,3.183-2.623s2.894,6.367-5.1,7.47a60.655,60.655,0,0,1-12.969-1.484,53,53,0,0,1-14.956-5.569,41.371,41.371,0,0,1-3.617-2.334l.254-3.491C549.2,352.654,549.611,352.817,549.991,353.015Zm-17.778-5.281a3.064,3.064,0,0,0,2.313,1.718c2.732.417,6.15,1.1,8.953,1.736l-.234,4.794s-3,.252-6.656.252c-1.05,0-2.171-.017-3.274-.072a3.123,3.123,0,0,1-2.966-3.182A8.689,8.689,0,0,1,532.214,347.734Z" transform="translate(-530.349 -273.553)" fill="#bf7a00"/>
                <path id="Trazado_909192" data-name="Trazado 909192" d="M530.614,375.691l3.651-13.225a33.9,33.9,0,0,0,.673-4.509,35.551,35.551,0,0,0,.168-4.021l-.673-50.291,11.407,1.195-2.911,58.939-.858,17.5c-2.81-.622-6.225-1.312-8.951-1.733a3.065,3.065,0,0,1-2.507-3.853Zm17.818-7.437,4.576-62.674,13.713,1.4-5.6,55.725a14.358,14.358,0,0,0,8.177,14.436l12.4,5.8a4.054,4.054,0,0,1-1.094,7.672c-3.836.622-12.182.892-24.952-4.29-2.221-.892-4.576-1.952-7.067-3.214a10.7,10.7,0,0,0-1.195-.522Z" transform="translate(-528.941 -303.645)" fill="#f6c600"/>
                <path id="Trazado_909193" data-name="Trazado 909193" d="M544.344,342.045,543.3,356.38a10.681,10.681,0,0,1,1.194.522c2.49,1.262,4.846,2.322,7.067,3.214l.706.2c3.4.993,7.117,1.8,5.905-2.776-1.009-3.836-3.752-6.259-6.764-9.052Q547.9,345.233,544.344,342.045Z" transform="translate(-524.853 -277.436)" fill="#ed9e00"/>
                <path id="Trazado_909194" data-name="Trazado 909194" d="M555.225,355.8a3.1,3.1,0,0,0,2.322,1.716c2.726.421,6.141,1.11,8.951,1.733l.858-17.5c-1.784-1.211-3.634-2.339-5.317-3.617-.353-.286-1.582-1.329-2.675-2.2a33.9,33.9,0,0,1-.673,4.509l-3.651,13.225A3.093,3.093,0,0,0,555.225,355.8Z" transform="translate(-553.367 -281.613)" fill="#ed9e00"/>
              </g>
              <g id="Grupo_1117823" data-name="Grupo 1117823" transform="translate(0 46.455)">
                <path id="Trazado_909195" data-name="Trazado 909195" d="M603.025,417.131c.017.269.017.522.017.774a47.2,47.2,0,0,0-5.334,9.658,6.327,6.327,0,0,0-.286,4,6.127,6.127,0,0,0,3.415,4.206c6.781,3.113,18.811.976,18.811.976a6.508,6.508,0,0,0,4.543-3.4l.05-.151.707-1.6.017-.034a15.809,15.809,0,0,0,.774-4.492,10.019,10.019,0,0,1,.539-2.81c2.557-7.319-1.4-25.221-1.4-25.221V331.255l-10.3,2.507c-4.694,1.683-12.552,3.062-23.387.067l-4.459-.74s4.156,16.3,8.295,35.148C598.953,386.223,602.857,406.548,603.025,417.131Z" transform="translate(-586.738 -331.255)" fill="#f6c600"/>
                <path id="Trazado_909196" data-name="Trazado 909196" d="M588.968,390.871c-3,3.961.887,6.89.887,6.89,9.91,6.33,24.415,1.428,24.415,1.428,3.888-1.844,2.261-8.318,2.261-8.318l-.018.035a8.477,8.477,0,0,1-.705,1.61l-.054.145a6.5,6.5,0,0,1-4.539,3.4s-12.029,2.133-18.809-.978a6.109,6.109,0,0,1-3.419-4.213Z" transform="translate(-578.306 -290.565)" fill="#bf7a00"/>
                <path id="Trazado_909197" data-name="Trazado 909197" d="M598.331,348.239c3.92,17.988,9.707,46.717,9.875,57.3.118-.084.236-.168.353-.236a12.48,12.48,0,0,0,3.2-3.432c1.952-2.894.673-5.62.337-8.884C611.57,387.974,599.458,350.46,598.331,348.239Z" transform="translate(-591.918 -319.663)" fill="#ed9e00"/>
                <path id="Trazado_909198" data-name="Trazado 909198" d="M598.663,386.256a.9.9,0,0,0,.737-.379,42.809,42.809,0,0,1,4.55-5.384.9.9,0,0,0-1.279-1.279,44.487,44.487,0,0,0-4.743,5.613.9.9,0,0,0,.735,1.428Z" transform="translate(-582.358 -298.702)" fill="#bf7a00"/>
              </g>
            </g>
          </g>
          <g id="Grupo_1117826" data-name="Grupo 1117826" transform="translate(32.776 78.387)">
            <path id="Trazado_909199" data-name="Trazado 909199" d="M592.348,158.215c1.666-.471,2.658-.69,2.658-.69l-.135,1.144s-1.06,16.438,17.852,18.844a9.213,9.213,0,0,0,1.178.067c2.844-.034,12.9-1.077,14.049-14.857,1.918.2,3.786.437,5.569.74,2.726,12.131,5.182,19.45,7.235,23.841-.841.185-26.264,5.906-46.959-1.06C594.485,181.366,594.485,172.9,592.348,158.215Zm-5.99,1.868s-.4,14.3.791,24.026c0,0-1.767,3.432-3.382,7.622a40.587,40.587,0,0,0-2.473,8.951,8.684,8.684,0,0,0-.606-1.077,28.866,28.866,0,0,0-2.776-3.584,39.369,39.369,0,0,0-6.478-5.788c-3.55-2.49-6.31-4.223-10.634-4.829-1.565-.219-3.13-.353-4.694-.437v-.135C559.135,171.524,575.842,163.734,586.358,160.082Zm100.228,42.77a31.587,31.587,0,0,0-4.846,1.228c-4.358,1.38-10.768,4.173-15.277,9.506a21.886,21.886,0,0,0-3.382,5.266,19.5,19.5,0,0,1-1.952,3.584,8.518,8.518,0,0,1-3.853,3.365l-.656.034a125.06,125.06,0,0,0-6.612-33.3c-1.413-4-2.456-6.293-2.456-6.293l-.151.034c-1.935-8.564-7.74-21.57-7.74-21.57C675.7,173.475,686.586,202.852,686.586,202.852Zm-127.115-6.915a2.868,2.868,0,0,0,2.81-.808c.959-.892,1.565-1.884,3.012-2.2,1.767-.4,3.214,1.06,4.61,2.019a24.3,24.3,0,0,1,4.021,3.769c.555.606,1.094,1.245,1.615,1.851A13,13,0,0,1,578,204.787a14.244,14.244,0,0,0,.723,2.423l.034.051c-.168.1-.353.2-.538.337-1.481,1.026-2.238,3.129-2.625,4.745l-.236.084a10.02,10.02,0,0,0-1.346-2.911,3.633,3.633,0,0,0-2.843-1.649v-.034c-1.615-1.985-2.86-4.257-4.661-6.225-.286-.32-.589-.639-.909-.942a28.425,28.425,0,0,0-6.175-4.644Zm-8.615,5.468c.925-2.44,4.9-1.969,6.747-1.279a20.5,20.5,0,0,1,3.836,1.935,20.271,20.271,0,0,1,6.612,7l.067.05a5.868,5.868,0,0,0-1.195,2.692,17.049,17.049,0,0,0-.3,3.331c-.05.017-.1.017-.168.034-1.363-2.372-3.348-5.081-5.5-5.569l.05-.269c-.942-2.456-4.694-6.7-9.052-7.5a6.292,6.292,0,0,0-1.111-.151Z" transform="translate(-550.84 -157.525)" fill="#fff"/>
            <path id="Trazado_909200" data-name="Trazado 909200" d="M562.8,178.335a125.063,125.063,0,0,1,6.612,33.3l.656-.034a8.516,8.516,0,0,0,3.853-3.365,19.509,19.509,0,0,0,1.952-3.584,21.887,21.887,0,0,1,3.382-5.266,6.348,6.348,0,0,0-.858-1.144c-3.3-3.584-4.475-6.124-4.694-11.155-.051-1.38.421-3.6-.488-4.762-1.195-1.531-1.985-.387-3.6-.151C565.761,182.71,564.348,180.573,562.8,178.335Z" transform="translate(-463.632 -143.322)" fill="#eaeaea"/>
            <path id="Trazado_909201" data-name="Trazado 909201" d="M640.974,179.908c.69-.488,1.733-1.329,2.793-2.053a40.58,40.58,0,0,0-2.473,8.951,8.714,8.714,0,0,0-.606-1.077,28.86,28.86,0,0,0-2.776-3.584C638.938,181.388,639.964,180.631,640.974,179.908ZM611.95,187.95c.168-.017.337-.017.522-.017,2.944.1,5.973.336,8.968.252a20.272,20.272,0,0,1,6.612,7l.067.05a5.866,5.866,0,0,0-1.195,2.692,17.053,17.053,0,0,0-.3,3.331c-.05.017-.1.017-.168.034-1.363-2.372-3.348-5.081-5.5-5.569l.051-.269C620.06,193,616.308,188.758,611.95,187.95Zm20.746-2.389c.4-.236.824-.471,1.228-.723.555.606,1.094,1.245,1.615,1.851A13,13,0,0,1,638,190.911a14.255,14.255,0,0,0,.723,2.423l.034.051c-.168.1-.353.2-.538.337-1.481,1.026-2.238,3.129-2.625,4.745l-.236.084a10.021,10.021,0,0,0-1.346-2.911,3.634,3.634,0,0,0-2.843-1.649v-.034c-1.615-1.985-2.86-4.257-4.661-6.225A19.568,19.568,0,0,0,632.7,185.561Z" transform="translate(-610.84 -143.649)" fill="#eaeaea"/>
            <path id="Trazado_909202" data-name="Trazado 909202" d="M605.086,171.3c-3.242,6.345-14.995,10.989-21.617,8.3,4.2.813,10.743-1.817,13.985-4.285a58.936,58.936,0,0,0,8.165-8.011A7.862,7.862,0,0,1,605.086,171.3Z" transform="translate(-524.833 -150.849)" fill="#eaeaea"/>
          </g>
          <g id="Grupo_1117827" data-name="Grupo 1117827" transform="translate(50.607 79.08)">
            <path id="Trazado_909203" data-name="Trazado 909203" d="M613.247,185.97c.688-4.884.688-13.347-1.447-28.033-1.5.416-3.581,1.03-5.986,1.863,0,0-.4,14.3.8,24.035.6,4.884,1.592,8.628,3.256,8.808C609.865,192.642,612.253,192.769,613.247,185.97Z" transform="translate(-588.128 -157.937)" fill="#dbba8f"/>
            <path id="Trazado_909204" data-name="Trazado 909204" d="M579.249,182.147a89.024,89.024,0,0,0,13.275,2.985c19.371,2.766,27.906-3.762,27.906-3.762s6.8,23.131-15.446,24.107l-.234-.145,2.983-5.046a4.387,4.387,0,0,0-7.595-4.395l-4.45,7.543c-.108-.037-.234-.091-.343-.128l.037-9.313a4.4,4.4,0,0,0-3.526-4.287,4.788,4.788,0,0,0-.887-.091,4.415,4.415,0,0,0-4.376,4.413l-.018,6.53q-1.383-.381-2.768-.707C577.858,193.252,579.249,182.147,579.249,182.147Z" transform="translate(-551.056 -141.943)" fill="#ffe7c7"/>
            <path id="Trazado_909205" data-name="Trazado 909205" d="M579.89,162.3q-2.958-.732-6.131-1.247c2.712,12.134,5.172,19.46,7.235,23.836h.017c3.816,8.1,6.259,6.168,6.259,6.168,1.319-.688,1.193-3.527.362-7.181C585.695,175.305,579.89,162.3,579.89,162.3Z" transform="translate(-508.905 -155.81)" fill="#dbba8f"/>
            <path id="Trazado_909206" data-name="Trazado 909206" d="M550.63,296.856c1.683,40.347,14.907,87.693,14.907,87.693a98.662,98.662,0,0,0,36.477-9.725,130,130,0,0,0,42.854-33.617c.454-.74.925-1.464,1.4-2.17A70.813,70.813,0,0,1,668.1,318.308l.925-18.811c-11.189-7.874-18.373-18.356-22.983-28.62a97.861,97.861,0,0,1-7.689-28.384c-.286-2.389-.438-4.358-.5-5.754a27.193,27.193,0,0,1,.134-4.223,102.094,102.094,0,0,0,.4-17.465,120.214,120.214,0,0,0-9.069-39.59l-.151.034c.824,3.668.959,6.495-.37,7.184,0,0-2.44,1.935-6.259-6.158h-.017c-.841.185-26.264,5.906-46.959-1.06-.959,6.562-3.23,6.68-3.382,6.68-1.666-.185-2.659-3.92-3.264-8.816,0,0-5.065,9.792-5.855,16.573.942,2.1.791,4.139,1.615,6.276l-.1.168c1.262.808,1.111,2.928,1.111,4.274q0,1.085-.05,2.17l-.084,1.178a11.37,11.37,0,0,1,1.7-1.077,9.071,9.071,0,0,1,9.86,1.228c2.036.337,4.055.757,6.074,1.228-5.939-6.6-4.56-17.7-4.56-17.7a88.812,88.812,0,0,0,13.275,2.978c19.383,2.776,27.913-3.769,27.913-3.769s6.8,23.135-15.445,24.111l-.236-.135-.942,1.6c11.795,5.872,19.82,13.847,17.852,22.293a11.607,11.607,0,0,1-3.533,5.889,16.141,16.141,0,0,1-3.432,2.406L599.053,260.16l-.808.3a2.748,2.748,0,0,1-1.11,2.86s3.382,8.244-18.525,11.323l.017.05s0,10.146-27.627,1.178l-.034.135A157.36,157.36,0,0,0,550.63,296.856Z" transform="translate(-550.44 -147.434)" fill="#ecd5b3"/>
            <path id="Trazado_909207" data-name="Trazado 909207" d="M625.984,242.8c-2.059-.5-4.142.5-5.862,1.587a26.719,26.719,0,0,0-4.733,4.062,65.381,65.381,0,0,0-7.252,10.094c-4.285,7.088-7.237,14.927-10.933,22.132A79.711,79.711,0,0,1,583.1,300.481a58.116,58.116,0,0,1-9.36,7.819,42.092,42.092,0,0,1-10.945,5.47c8.081-1.849,15.26-6.636,21.277-12.294a76.925,76.925,0,0,0,14.739-19.968c1.846-3.715,3.5-7.539,5.133-11.268,1.63-3.755,3.491-7.4,5.4-11.009a65.723,65.723,0,0,1,6.712-10.2,26.11,26.11,0,0,1,4.341-4.248,11.526,11.526,0,0,1,2.62-1.521A5.317,5.317,0,0,1,625.984,242.8Z" transform="translate(-528.178 -100.106)" fill="#dbba8f"/>
            <path id="Trazado_909208" data-name="Trazado 909208" d="M636.425,245.521a75.059,75.059,0,0,1-6.432,6.074,78.868,78.868,0,0,1-6.971,5.379,70.788,70.788,0,0,1-15.44,8.18,54.3,54.3,0,0,1-17.024,3.517,46.448,46.448,0,0,1-8.749-.407,61.424,61.424,0,0,1-8.665-1.728,46.581,46.581,0,0,0,17.436,3.527,48.813,48.813,0,0,0,17.635-3.214,60.834,60.834,0,0,0,15.621-8.754A63.408,63.408,0,0,0,636.425,245.521Z" transform="translate(-556.036 -98.158)" fill="#dbba8f"/>
            <path id="Trazado_909209" data-name="Trazado 909209" d="M579.375,269.562a35.433,35.433,0,0,0,19.433-.219,112.929,112.929,0,0,0,19.232-7.958c4.947-2.642,7.942-5.636,12.03-9.321.993-.892,7.016-5.031,4.358-6.764-1.11-.74-3.836,1.582-5.216,1.6,1.9-2.322,3.079-5.014,5.216-7.168,4.425-4.509,10.247-9.052,13.342-14.705,1.312-2.423,2.557-8.076.69-10.516a3.134,3.134,0,0,0-2.2-1.195,16.142,16.142,0,0,1-3.432,2.406L627.8,232.866l-.808.3a2.748,2.748,0,0,1-1.11,2.86s3.382,8.244-18.525,11.323l.017.05s0,10.146-27.627,1.178l-.033.135A157.358,157.358,0,0,0,579.375,269.562Z" transform="translate(-579.186 -120.14)" fill="#dbba8f"/>
            <path id="Trazado_909210" data-name="Trazado 909210" d="M564.1,275.544c11.374-2.877,19.316-9.3,26.82-17.986,4.678-5.435,10.448-13.511,18.154-14.739a97.865,97.865,0,0,1-7.689-28.384c-4.711,4.947-8.379,14.958-9.59,20.594-1.868,8.8-2.743,18.171-8.917,25.356C578.132,265.92,570.578,272.4,564.1,275.544Z" transform="translate(-513.468 -119.376)" fill="#dbba8f"/>
          </g>
          <g id="Grupo_1117828" data-name="Grupo 1117828" transform="translate(0 99.646)">
            <path id="Trazado_909211" data-name="Trazado 909211" d="M629.135,186.078a2.12,2.12,0,0,0-.38.236c-2.712,1.916-1.718,5.064-3.725,7.216-2.569,2.766-4.738,3.762-4.432,7.994.109,1.592.688,3.074.345,4.666-.4,1.863-1.538,3.564-1.5,5.534.056,3.473,1.43,7.615,4.395,9.513A48.57,48.57,0,0,0,626.6,217.1c1.356-2.623.67-6.222,1.248-9.134.74-3.87,2.5-7.938,6.022-10,3.076-1.79,6.458-2.387,9.17-4.829,2.822-2.549,4.539-6.04,8.754-6.04a3.125,3.125,0,0,1,.416.019l.018-.271c.922-2.443,4.9-1.972,6.745-1.285a20.327,20.327,0,0,1,10.453,8.934l.072.056a3.537,3.537,0,0,1,1.844-1.141,3.43,3.43,0,0,1,1.195-.108v-.037c-1.863-2.3-3.256-4.99-5.571-7.161a28.932,28.932,0,0,0-6.167-4.649,22.19,22.19,0,0,0-4.215-1.718c-3.725-1.085-7.578-1.61-10.6,1.339-2.261,2.187-2.857,4.757-6.565,4.792C636.081,185.879,632.228,184.25,629.135,186.078Z" transform="translate(-619.44 -164.216)" fill="#3b8944"/>
            <path id="Trazado_909212" data-name="Trazado 909212" d="M628.77,230.291c-.688,3.037-3.636,5.5-3.256,8.9.271,2.441,3.092,5.228,5.715,4.178A4.026,4.026,0,0,0,633.2,241.5c1.465-2.623,1.484-6.673,5.407-6.565,1.629.054,2.749,1.412,4.45,1.23,1.753-.2,3.039-1.755,3.905-3.219a13.041,13.041,0,0,0,1.465-8.609,29.036,29.036,0,0,0-.94-4.486c-.995-3.58-1.917-6.547,1.339-9.187,2.224-1.809,2.152-3.293,1.338-5.987-1.664-5.389-2.441-10.888,2.1-15.933,1.61-1.79,3.183-2.1,4.666-1.683,2.7.761,5.083,3.925,6.836,5.137a3,3,0,0,1,2.443-.506l.054-.271c-1.031-2.658-5.354-7.415-10.164-7.65a3.126,3.126,0,0,0-.416-.019c-4.215,0-5.933,3.491-8.754,6.04-2.712,2.441-6.094,3.039-9.17,4.829-3.527,2.063-5.282,6.131-6.022,10-.579,2.912.108,6.511-1.249,9.134a48.528,48.528,0,0,1-2.768,4.141A7.122,7.122,0,0,0,626.4,222.5C626.581,225.353,629.494,227.143,628.77,230.291Z" transform="translate(-623.325 -160.881)" fill="#5ab16a"/>
            <path id="Trazado_909213" data-name="Trazado 909213" d="M616.956,179.181c-2.4,1.031-4.647,4.974-4.484,7.6.126,2.115,1.627,3.851,3,5.244,3.092-1.827,6.945-.2,10.29-.217,3.708-.035,4.3-2.6,6.565-4.792,3.02-2.949,6.873-2.425,10.6-1.339a22.194,22.194,0,0,1,4.215,1.718l.035-.072a2.918,2.918,0,0,0,2.822-.813c.959-.887,1.555-1.881,3-2.208,1.773-.4,3.22,1.067,4.612,2.026a33.07,33.07,0,0,1,5.643,5.606,13.244,13.244,0,0,1,2.46,4.233,13.643,13.643,0,0,0,.723,2.423l.035.054a4.614,4.614,0,0,1,3.654-.343,1.655,1.655,0,0,1,.4.2l.091-.162c-.815-2.135-.67-4.179-1.61-6.276a8.059,8.059,0,0,0-.6-1.085,36.768,36.768,0,0,0-9.261-9.368c-3.545-2.478-6.311-4.215-10.634-4.829-1.575-.219-3.13-.345-4.7-.436l-1.466-.108a9.35,9.35,0,0,0-7.7-5.86c-2.044-.289-4.684-.469-6.474.742-1.809,1.211-1.664,3.092-2.586,4.81C623.685,179.363,619.941,177.9,616.956,179.181Z" transform="translate(-605.778 -170.161)" fill="#5ab16a"/>
            <path id="Trazado_909214" data-name="Trazado 909214" d="M632.686,209.392c-3.256,2.64-2.333,5.606-1.339,9.187a29.052,29.052,0,0,1,.941,4.486l.182-.019a5.905,5.905,0,0,1,3.128-2.514c.018-.018.018-.018.037-.018,1.319-.451,3.454-.054,4.647-.976,1.592-1.211,1.267-3.074.6-4.775-.362-.957-.85-1.881-1.139-2.621-1.05-2.569-.018-3.365,1.193-5.408a6.517,6.517,0,0,0,.67-1.575,7.205,7.205,0,0,0-.6-4.937,15.489,15.489,0,0,1-1.519-8.392,18.293,18.293,0,0,1,.742-4.178,6.779,6.779,0,0,0,.488-1.555l.072-.308c-1.482-.416-3.055-.108-4.666,1.683-4.539,5.046-3.762,10.544-2.1,15.934C634.838,206.1,634.91,207.583,632.686,209.392Z" transform="translate(-607.183 -159.605)" fill="#3b8944"/>
            <path id="Trazado_909215" data-name="Trazado 909215" d="M627,208.873l.072.163s.905,2.007,2.569,4.974c1.536-1.555,4.521.271,4.521.271a4.151,4.151,0,0,0,4.81-.252v-.019l-1.41-8.717v-.019A16.781,16.781,0,0,1,636,202.707a2.728,2.728,0,0,1-3.707.4h-.018c.67,1.7.994,3.564-.6,4.775-1.193.922-3.328.525-4.647.976C627.015,208.855,627.015,208.855,627,208.873Z" transform="translate(-598.583 -147.947)" fill="#175118"/>
            <path id="Trazado_909216" data-name="Trazado 909216" d="M626.725,191.763a15.488,15.488,0,0,0,1.519,8.392,7.205,7.205,0,0,1,.6,4.937l2.261.2a12.036,12.036,0,0,1,4.285-5.806c-1.321-2.4-3.363-6.71-.525-8.626-1.753-1.211-4.141-4.376-6.836-5.137l-.072.308a6.765,6.765,0,0,1-.488,1.555A18.286,18.286,0,0,0,626.725,191.763Z" transform="translate(-594.423 -159.539)" fill="#2b6b2f"/>
            <path id="Trazado_909217" data-name="Trazado 909217" d="M630,209.95s-2.985-1.826-4.521-.271A69.2,69.2,0,0,0,637.345,225.4l.019-.019L634.812,209.7A4.151,4.151,0,0,1,630,209.95Z" transform="translate(-594.426 -143.616)" fill="#5ab16a"/>
            <path id="Trazado_909218" data-name="Trazado 909218" d="M630.388,198.81c-1.212,2.043-2.243,2.838-1.193,5.408.289.74.777,1.664,1.139,2.621h.019a2.728,2.728,0,0,0,3.707-.4,11.73,11.73,0,0,1-1.03-8.031,7.534,7.534,0,0,1,.289-.976l-2.261-.2A6.528,6.528,0,0,1,630.388,198.81Z" transform="translate(-596.639 -151.682)" fill="#2b6b2f"/>
            <path id="Trazado_909219" data-name="Trazado 909219" d="M579.086,200.685a11.731,11.731,0,0,0,1.03,8.031,16.786,16.786,0,0,0,1.556,2.568v.019c5.949,8.283,20.275,15.21,35.267,18.737,1.048.254,2.1.488,3.146.686a.018.018,0,0,0,.019.018,96.493,96.493,0,0,0,11,1.61h.018c2.442.217,4.829.325,7.107.325,7.867,0,14.234-1.284,18.683-3.688l.019-.019h.018c3.744-2.026,6.131-4.81,6.962-8.3,1.972-8.446-6.059-16.421-17.85-22.282l-2.731,4.649c.6.289,1.193.579,1.753.885a4.767,4.767,0,0,1,1.031-.091,6.8,6.8,0,0,1,6.547,4.957c4.467,3.58,6.747,7.324,5.968,10.634l-.108.38v.018c-.994,3.146-4.756,5.371-10.29,6.528-.525.109-1.085.2-1.647.289a52.974,52.974,0,0,1-10.055.579h-.019a.506.506,0,0,1-.235,0,90.779,90.779,0,0,1-18.085-2.46c-.6-.145-1.212-.289-1.809-.434-.252-.072-.506-.145-.759-.2a82.119,82.119,0,0,1-19.152-7.487c-.543-.308-1.085-.616-1.592-.922-7.361-4.467-11.522-9.5-10.509-13.782a6.47,6.47,0,0,1,2.207-3.419c-.978-1.428-1.918-2.857-2.768-4.358a1.77,1.77,0,0,0-.145-.254,12.037,12.037,0,0,0-4.285,5.806A7.525,7.525,0,0,0,579.086,200.685Z" transform="translate(-542.696 -153.956)" fill="#b56b14"/>
            <path id="Trazado_909220" data-name="Trazado 909220" d="M583.1,204.245l1.413,8.716v.017l2.557,15.681-.017.017c4.543,4.307,9.96,7.706,16.068,8.228l2.019-.841,13.09-5.4a2.949,2.949,0,0,1,2.928,5.064l-7.941,6.108s2.692,1.279,7.756.824a32.213,32.213,0,0,0,8.379-2.019l9.708-3.214a2.748,2.748,0,0,1,3.264,1.346c.084.2.151.4.219.589l.807-.3,15.025-17.145h-.017l-.017.017c-4.442,2.406-10.819,3.685-18.676,3.685-2.288,0-4.677-.1-7.117-.32h-.017a92.123,92.123,0,0,1-10.987-1.615.017.017,0,0,1-.017-.017c-1.06-.185-2.1-.421-3.146-.69a94.562,94.562,0,0,1-19.164-6.646C592.169,212.927,586.364,208.788,583.1,204.245Z" transform="translate(-544.132 -146.897)" fill="#ca8741"/>
            <path id="Trazado_909221" data-name="Trazado 909221" d="M619.177,197.643a1.2,1.2,0,0,1,.135.252c.858,1.5,1.8,2.928,2.776,4.358a45,45,0,0,1,4.963,8.564c.2.522.421,1.026.673,1.548,1.043,2.305,2.305,4.661,2.692,7.016l-.034.067c.5.3,1.06.622,1.6.925a10.363,10.363,0,0,1,3.062-5.216c-.1-.488-.135-1.077-.252-1.514a33.864,33.864,0,0,0-1.783-5.5c-.32-.774-.639-1.548-.942-2.322-.942-2.288-1.868-4.576-2.944-6.831-.269-.622-.572-1.245-.892-1.851a33.115,33.115,0,0,0-1.632-3.062c-1.363-2.372-3.348-5.081-5.5-5.569a2.985,2.985,0,0,0-2.44.5C615.812,190.93,617.848,195.237,619.177,197.643Z" transform="translate(-578.206 -157.692)" fill="#ff6e41"/>
            <path id="Trazado_909222" data-name="Trazado 909222" d="M620.117,200.063c-1.013,4.285,3.148,9.314,10.509,13.782l.035-.072c-.47-2.894-2.278-5.769-3.363-8.556a44.355,44.355,0,0,0-4.973-8.573A6.471,6.471,0,0,0,620.117,200.063Z" transform="translate(-578.447 -152.085)" fill="#7c4208"/>
            <path id="Trazado_909223" data-name="Trazado 909223" d="M614.7,194.752a33.124,33.124,0,0,1,1.632,3.062c.32.606.623,1.228.892,1.851,1.077,2.255,2,4.543,2.944,6.831.3.774.623,1.548.942,2.322a33.834,33.834,0,0,1,1.783,5.5c.118.437.151,1.026.252,1.514a10.131,10.131,0,0,1,4.24-2.305,50.638,50.638,0,0,0-1.413-13.006c-.168-.589-.3-1.161-.471-1.75l-.05-.2C625,196.8,624.526,195,624,193.255c0-.017,0-.017-.017-.034-.118-.4-.236-.808-.387-1.211a10.021,10.021,0,0,0-1.346-2.911,3.634,3.634,0,0,0-2.844-1.649,3.671,3.671,0,0,0-1.195.1,3.623,3.623,0,0,0-1.851,1.144,5.865,5.865,0,0,0-1.195,2.692,17.054,17.054,0,0,0-.3,3.331C614.818,194.735,614.767,194.735,614.7,194.752Z" transform="translate(-566.31 -158.369)" fill="#ce4520"/>
            <path id="Trazado_909224" data-name="Trazado 909224" d="M606.9,210.63c.925.522,1.9,1.043,2.911,1.514a84.811,84.811,0,0,0,16.236,5.973,8.139,8.139,0,0,0,.623-1.346,1.64,1.64,0,0,1-.017-.3,10.515,10.515,0,0,1,.673-3.735,10.3,10.3,0,0,0-2.827-6.781,10.107,10.107,0,0,0-2.709-2.053,10.31,10.31,0,0,0-4.829-1.195c-.219,0-.454,0-.673.017a9.524,9.524,0,0,0-2.086.387,10.131,10.131,0,0,0-4.24,2.305A10.362,10.362,0,0,0,606.9,210.63Z" transform="translate(-553.126 -147.948)" fill="#ce4520"/>
            <path id="Trazado_909225" data-name="Trazado 909225" d="M611.857,192.483c.151.4.269.808.387,1.211.017.017.017.017.017.034.522,1.75.993,3.55,1.447,5.317l.05.2c.168.589.3,1.161.471,1.75A50.624,50.624,0,0,1,615.642,214a9.524,9.524,0,0,1,2.086-.387l-.017-.37a29.042,29.042,0,0,1,.993-4.358c.084-.437.168-.858.252-1.3.353-2.137.521-4.257.74-6.41.219-2.137.454-4.257.589-6.377.034-.387.067-.774.084-1.178.017-.269.017-.538.017-.808.034-.454.034-.909.034-1.363,0-1.346.151-3.466-1.111-4.274a1.218,1.218,0,0,0-.387-.2,4.661,4.661,0,0,0-3.668.337c-.168.1-.353.2-.538.336-1.481,1.026-2.238,3.13-2.625,4.745Z" transform="translate(-554.566 -158.842)" fill="#ff6e41"/>
            <path id="Trazado_909226" data-name="Trazado 909226" d="M608.261,204.781l.017.38c.217-.019.452-.019.688-.019a10.321,10.321,0,0,1,7.523,3.237,8.142,8.142,0,0,1-.306-2.207,8.5,8.5,0,0,1,.85-3.707,2.278,2.278,0,0,1-.488.035,8.98,8.98,0,0,1-7.036-3.363c-.072.434-.161.85-.252,1.284A31.909,31.909,0,0,0,608.261,204.781Z" transform="translate(-545.122 -150.383)" fill="#c6a209"/>
            <path id="Trazado_909227" data-name="Trazado 909227" d="M603.16,205.134a8.949,8.949,0,0,0,7.033,3.365,2.387,2.387,0,0,0,.488-.034,8.487,8.487,0,0,1,7.437-4.778h.084a.609.609,0,0,0,.067-.151.016.016,0,0,1,.017-.017,8.629,8.629,0,0,0,.723-1.935,9.094,9.094,0,0,0,.252-2.154,5.873,5.873,0,0,0-.05-.791,8.834,8.834,0,0,0-3.163-6.141,9.071,9.071,0,0,0-9.859-1.228,9.53,9.53,0,0,0-1.632,1.026c-.017.017-.05.034-.067.05-.135,2.12-.37,4.24-.589,6.377C603.682,200.878,603.513,203,603.16,205.134Z" transform="translate(-538.769 -156.384)" fill="#ff9f45"/>
            <path id="Trazado_909228" data-name="Trazado 909228" d="M598.69,206.755a8.051,8.051,0,0,0,.32,2.221,10.3,10.3,0,0,1,2.827,6.781,10.7,10.7,0,0,1,10.028-6.966,7.01,7.01,0,0,1,1.195.084,2.949,2.949,0,0,1,.538.067,7.448,7.448,0,0,1,.841.168,4.5,4.5,0,0,1,.454.118h.017c.118.034.219.067.337.1a2.612,2.612,0,0,0,.1-.387,7.829,7.829,0,0,0,.253-1.279,8.271,8.271,0,0,0,.05-.909,7.965,7.965,0,0,0-.286-2.12,8.4,8.4,0,0,0-8.177-6.36h-.2a8.487,8.487,0,0,0-7.437,4.778A8.6,8.6,0,0,0,598.69,206.755Z" transform="translate(-527.636 -150.972)" fill="#f6c600"/>
            <path id="Trazado_909229" data-name="Trazado 909229" d="M594.58,215.226a1.64,1.64,0,0,0,.017.3,9.14,9.14,0,0,0,.135,1.548c.606.135,1.211.286,1.817.437a91.389,91.389,0,0,0,18.087,2.456.552.552,0,0,0,.235,0h.017a10.844,10.844,0,0,0,1.043-3.668c.034-.353.05-.723.05-1.077a11.038,11.038,0,0,0-.69-3.8,9.384,9.384,0,0,0-.5-1.111,10.516,10.516,0,0,0-.858-1.38,10.781,10.781,0,0,0-5.266-3.87c-.118-.034-.219-.067-.336-.1h-.017a4.5,4.5,0,0,0-.454-.118,6.759,6.759,0,0,0-.841-.168,4.229,4.229,0,0,0-.454-.067.075.075,0,0,0-.084,0,2.569,2.569,0,0,0-.5-.05,4.622,4.622,0,0,0-.69-.034,10.7,10.7,0,0,0-10.028,6.966A10.516,10.516,0,0,0,594.58,215.226Z" transform="translate(-521.053 -146.706)" fill="#ff9f45"/>
            <path id="Trazado_909230" data-name="Trazado 909230" d="M599.834,200.325h.108a8.406,8.406,0,0,1,6.53,3.074l.017-6.727c-1.3-.38-2.621-.723-3.979-1.031-.56-.126-1.1-.254-1.662-.362a5.552,5.552,0,0,1,.054.777A8.95,8.95,0,0,1,599.834,200.325Z" transform="translate(-520.399 -153.017)" fill="#7c4208"/>
            <path id="Trazado_909231" data-name="Trazado 909231" d="M605.889,192.854c-2.026-.469-4.052-.885-6.077-1.23a8.878,8.878,0,0,1,3.166,6.15c.56.108,1.1.236,1.662.362,1.358.308,2.677.651,3.979,1.031l.037-5.606Q607.274,193.179,605.889,192.854Z" transform="translate(-522.531 -155.511)" fill="#b56b14"/>
            <path id="Trazado_909232" data-name="Trazado 909232" d="M594.58,206.869v2.675a8.4,8.4,0,0,1,1.649,3.281l.875-1.5,3.315-5.62.522-.892h.017l2.44-4.139v-.724l.034-9.3a4.4,4.4,0,0,0-3.516-4.29,5.331,5.331,0,0,0-.892-.084,4.394,4.394,0,0,0-4.375,4.408l-.017,6.528v1.094l-.034,4.509Z" transform="translate(-508.501 -159.162)" fill="#3b8944"/>
            <path id="Trazado_909233" data-name="Trazado 909233" d="M586.886,215.861a10.781,10.781,0,0,1,5.266,3.87l.774-1.3,1.178-2v-.017l.791-1.346,1.009-1.716.017-.017a6.744,6.744,0,0,1,2.742-4.644l1.245-2.1,2.726-4.661.942-1.6,2.978-5.048a4.385,4.385,0,0,0-1.6-6.007,4.3,4.3,0,0,0-2.187-.572,4.341,4.341,0,0,0-3.8,2.187l-4.442,7.538-.353.572v.017l-2.44,4.139h-.017l-.522.892-3.315,5.62-.875,1.5a7.97,7.97,0,0,1,.286,2.12A8.68,8.68,0,0,1,586.886,215.861Z" transform="translate(-499.276 -157.503)" fill="#5ab16a"/>
            <path id="Trazado_909234" data-name="Trazado 909234" d="M594.262,206.444l-1.953,3.291a9.684,9.684,0,0,1,.868,1.375,6.732,6.732,0,0,1,4.738-1.916,1.484,1.484,0,0,1,.273.017,6.791,6.791,0,0,1-2.171-4.99,6.931,6.931,0,0,1,.054-.868l-1.809,3.074Z" transform="translate(-499.438 -147.506)" fill="#7c4208"/>
            <path id="Trazado_909235" data-name="Trazado 909235" d="M590.014,214.733a10.844,10.844,0,0,1-1.043,3.668,53.525,53.525,0,0,0,10.045-.589,5.207,5.207,0,0,0,.656-1.01,6.468,6.468,0,0,1-1.9-2.726,6.293,6.293,0,0,1-.454-2.389,6.473,6.473,0,0,1,.723-3.012.177.177,0,0,1,.084-.151,6.629,6.629,0,0,0-4.223-1.683h-.017a1.445,1.445,0,0,0-.269-.017,6.731,6.731,0,0,0-4.745,1.918,9.424,9.424,0,0,1,.5,1.11,11.041,11.041,0,0,1,.69,3.8C590.064,214.009,590.048,214.38,590.014,214.733Z" transform="translate(-495.135 -145.136)" fill="#c6a209"/>
            <path id="Trazado_909236" data-name="Trazado 909236" d="M585.48,206.636a7.12,7.12,0,0,0,.269,1.9s0-.017.017,0a6.69,6.69,0,0,0,1.885,3.1h.017a6.628,6.628,0,0,1,4.223,1.683,6.746,6.746,0,0,1,6.04-3.668c.152,0,.337,0,.5.017a5.411,5.411,0,0,0,.4-1.026,6.474,6.474,0,0,0,.3-2,7.079,7.079,0,0,0-.269-1.884,6.834,6.834,0,0,0-6.562-4.947,5.074,5.074,0,0,0-1.026.084,6.8,6.8,0,0,0-5.737,5.872l-.017.017A7.144,7.144,0,0,0,585.48,206.636Z" transform="translate(-488.902 -149.927)" fill="#ce4520"/>
            <path id="Trazado_909237" data-name="Trazado 909237" d="M582.16,212.486a6.706,6.706,0,0,0,2.356,5.115,5.167,5.167,0,0,0,.993.723,22.591,22.591,0,0,0,6.225-2.17,7.923,7.923,0,0,0,4.072-4.358v-.017a6.858,6.858,0,0,0-5.771-6.057c-.168-.017-.336-.034-.521-.05-.168-.017-.353-.017-.5-.017a6.746,6.746,0,0,0-6.04,3.668.177.177,0,0,0-.084.151A6.472,6.472,0,0,0,582.16,212.486Z" transform="translate(-479.979 -145.935)" fill="#f6c600"/>
            <path id="Trazado_909238" data-name="Trazado 909238" d="M582.443,202.75a6.441,6.441,0,0,1,.271,1.881,6.743,6.743,0,0,1-.7,3.02,6.825,6.825,0,0,1,6.294,6.113l.108-.38C589.189,210.074,586.91,206.33,582.443,202.75Z" transform="translate(-472.48 -147.917)" fill="#7c4208"/>
            <path id="Trazado_909239" data-name="Trazado 909239" d="M593.151,200.217a15.117,15.117,0,0,0-1.753-.885l-1.248,2.115A6.51,6.51,0,0,1,593.151,200.217Z" transform="translate(-490.766 -150.25)" fill="#7c4208"/>
            <path id="Trazado_909240" data-name="Trazado 909240" d="M614.74,204.245l1.413,8.716v.017l2.558,15.681-.017.017c4.543,4.307,9.96,7.706,16.068,8.228l2.019-.841a63.409,63.409,0,0,1-5.923-19.736C623.809,212.927,618,208.788,614.74,204.245Z" transform="translate(-575.772 -146.897)" fill="#bc7433"/>
            <path id="Trazado_909241" data-name="Trazado 909241" d="M614.572,218.066l-.034.067c.5.3,1.06.622,1.6.925a10.362,10.362,0,0,1,3.062-5.216,10.131,10.131,0,0,1,4.24-2.305,9.524,9.524,0,0,1,2.086-.387l-.017-.37a29.041,29.041,0,0,1,.993-4.358c.084-.437.168-.858.253-1.3.353-2.137.522-4.257.74-6.41.219-2.137.454-4.257.589-6.377.034-.387.067-.774.084-1.178.017-.269.017-.538.017-.808-1.11,3.113-3.012,5.737-6.629,6.427a.317.317,0,0,1-.135.034c-.219,3.735-1.5,6.427-5.2,7.689-.05.017-.084.034-.135.05a6.758,6.758,0,0,1-3.348,5.939q-.479.3-.858.555C612.923,213.355,614.185,215.711,614.572,218.066Z" transform="translate(-562.362 -156.377)" opacity="0.34" style="mix-blend-mode: overlay;isolation: isolate"/>
            <path id="Trazado_909242" data-name="Trazado 909242" d="M584.58,205.144a6.691,6.691,0,0,0,1.884,3.1h.017a6.628,6.628,0,0,1,4.223,1.683.177.177,0,0,0-.084.151,6.474,6.474,0,0,0-.723,3.012,6.706,6.706,0,0,0,2.356,5.115,5.169,5.169,0,0,0,.993.723,22.591,22.591,0,0,0,6.225-2.17,4.929,4.929,0,0,0-.824-2.1c-.892-1.228-2.355-1.6-2.911-3.18-.925-2.608,1.195-3.5,2.036-5.149a2.722,2.722,0,0,0,.3-.925,2.564,2.564,0,0,0-.421-.151c-2.709-.976-4.576-.2-7.353.3A10.945,10.945,0,0,1,584.58,205.144Z" transform="translate(-487.716 -146.534)" opacity="0.34" style="mix-blend-mode: overlay;isolation: isolate"/>
            <path id="Trazado_909243" data-name="Trazado 909243" d="M594.17,202.006a1.7,1.7,0,0,1,0,.942v1.716a8.4,8.4,0,0,1,1.649,3.281,7.968,7.968,0,0,1,.286,2.12,8.678,8.678,0,0,1-.4,2.574,10.781,10.781,0,0,1,5.266,3.87l.774-1.3,1.178-2v-.017l.791-1.346a.365.365,0,0,1-.051-.084c-.488-.925-.269-2.541-.589-3.584-.454-1.481-1.127-2.877-1.683-4.341a19.854,19.854,0,0,0-1.38-3.012,13.776,13.776,0,0,0-2.625-3.129,14.925,14.925,0,0,1-3.163-4.274l-.034,4.509-.017,4.055Z" transform="translate(-508.091 -154.282)" opacity="0.34" style="mix-blend-mode: overlay;isolation: isolate"/>
            <path id="Trazado_909244" data-name="Trazado 909244" d="M588.87,219.788a84.813,84.813,0,0,0,16.237,5.973,8.148,8.148,0,0,0,.622-1.346,9.141,9.141,0,0,0,.135,1.548c.606.135,1.211.286,1.817.437a91.389,91.389,0,0,0,18.087,2.456.554.554,0,0,0,.236,0h.017a53.529,53.529,0,0,0,10.045-.589,5.211,5.211,0,0,0,.656-1.01,6.468,6.468,0,0,1-1.9-2.726,9.3,9.3,0,0,0-7,.236c-.236.118-.488.269-.757.421-1.413.774-3.23,1.683-4.576.74-1.531-1.077-1.4-2.81-3.5-3.331-2.053-.5-4.038-.118-5.485-2.036a3.146,3.146,0,0,1,.522-4.509c1.6-1.5,3.584-1.312,5.35-2.154a.231.231,0,0,0,.067-.05h.017a1.785,1.785,0,0,0,.438-.286.988.988,0,0,0,.253-1.279,2.951,2.951,0,0,0-1.986-1.312c-2.608-.623-5.048,1.127-7.47-.236-2.221-1.228-2.372-3.9-.993-5.906a25.846,25.846,0,0,1,1.834-1.935l.151-.151a.016.016,0,0,1,.017-.017c.74-.791,1.262-1.531.724-1.935a2.47,2.47,0,0,0-1.312-.32c-3.062-.135-6.528-.219-9.22-1.969-2.254-1.464-3.348-4.307-3.92-7-.017.017-.05.034-.067.05-.135,2.12-.37,4.24-.589,6.377-.219,2.154-.387,4.274-.74,6.41a8.949,8.949,0,0,0,7.033,3.365,2.383,2.383,0,0,0,.488-.034,8.6,8.6,0,0,0-.858,3.7,8.051,8.051,0,0,0,.32,2.221,10.105,10.105,0,0,0-2.709-2.053,5.883,5.883,0,0,1-.5,5.014c-1.969,2.793-4.812.824-7.521,1.211A6.465,6.465,0,0,0,588.87,219.788Z" transform="translate(-532.185 -155.592)" opacity="0.34" style="mix-blend-mode: overlay;isolation: isolate"/>
          </g>
          <g id="Grupo_1117833" data-name="Grupo 1117833" transform="translate(43.242)">
            <g id="Grupo_1117829" data-name="Grupo 1117829">
              <path id="Trazado_909245" data-name="Trazado 909245" d="M589.535,128.421c2.5.234,4.955.506,7.361.831a189.916,189.916,0,0,1,37.907,9.1,170.61,170.61,0,0,1,18.43,7.7s-7.832,2.117-20.111,1.918H633.1l-1.918,10.941c37.113,8.192,39.862-5.643,39.862-5.643s4.484-13.763-36.842-25.591c-1.718-.488-3.508-.976-5.389-1.466a245.068,245.068,0,0,0-31.993-6.981c-15.626-2.206-32.229-2.35-37.744,5.408a5.7,5.7,0,0,0-1,3.781c.434,4.5,4.287,14.811,29.661,21.087a5.2,5.2,0,0,1,2.894-3.725l-.506-7.921h-.054a112.668,112.668,0,0,1-17.327-10.183C578.54,127.661,584.146,127.931,589.535,128.421Z" transform="translate(-558.063 -106.167)" fill="#946724"/>
              <path id="Trazado_909246" data-name="Trazado 909246" d="M577.088,124.6c-1.612.114-4.63-.6-6.636-.8-.972-.1-5.5-.951-6.306-.177-1.475,1.42,1.5,5.832,2.46,6.92a17.884,17.884,0,0,0,4.015,2.825c3.277,2.093,6.163,4.183,9.9,5.5a209.013,209.013,0,0,0,39.751,10.169c7.531,1.073,14.929,3.293,22.509,4,5.719.535,12.535.927,17.665-2.1,3.077-1.815,3.811-4.225.525-6.1a29.57,29.57,0,0,0-6.8-2.621,42.761,42.761,0,0,0-7.043-1.006c-3.909-.4-7.9-1.871-11.7-2.832-5.3-1.343-10.45-3.264-15.759-4.545-6.052-1.46-11.985-2.79-17.984-4.519a73.863,73.863,0,0,0-12.119-2,44.412,44.412,0,0,1-8.6-1.55A17.422,17.422,0,0,0,577.088,124.6Z" transform="translate(-559.542 -102.499)" fill="#765216"/>
              <path id="Trazado_909247" data-name="Trazado 909247" d="M623.023,124.464c-5.389-.49-11-.761-16.783-.742A112.659,112.659,0,0,0,623.567,133.9h.054Z" transform="translate(-591.552 -102.21)" fill="#3f2805"/>
              <path id="Trazado_909248" data-name="Trazado 909248" d="M579.908,124.007a242.758,242.758,0,0,1,31.985,6.982c1.884.488,3.668.976,5.4,1.464,0,0,.067-.353.135-.959.336-3.331.387-14.47-13.343-19.467a15.571,15.571,0,0,0-3.365-.808,23.867,23.867,0,0,0-11.34.942C585.225,113.744,581.355,117.126,579.908,124.007Z" transform="translate(-541.143 -110.936)" fill="#765216"/>
              <path id="Trazado_909249" data-name="Trazado 909249" d="M569.495,135.418l-.759,4.269h.019c12.279.2,20.111-1.918,20.111-1.918a170.609,170.609,0,0,0-18.43-7.7Z" transform="translate(-493.695 -97.881)" fill="#3f2805"/>
              <path id="Trazado_909250" data-name="Trazado 909250" d="M579.96,123.51a242.761,242.761,0,0,1,31.985,6.982c1.884.488,3.668.976,5.4,1.464,0,0,.067-.353.135-.959a8.273,8.273,0,0,0-1.161-.791c-3.449-1.985-6.8-2.658-10.4-4.089-4.677-1.834-11.189-2.743-14.554-6.8a9.554,9.554,0,0,1-2.036-6.814c.017-.185.05-.488.1-.841C585.277,113.247,581.407,116.628,579.96,123.51Z" transform="translate(-541.194 -110.439)" opacity="0.34" style="mix-blend-mode: overlay;isolation: isolate"/>
            </g>
            <g id="Grupo_1117832" data-name="Grupo 1117832" transform="translate(29.598 22.258)">
              <path id="Trazado_909251" data-name="Trazado 909251" d="M602.22,124.165l.37,5.7.236,3.735.5,7.925a4.631,4.631,0,0,1,1.413-.454,4.773,4.773,0,0,1,1.767.05l2.355-12.1.656-3.432.067-.606C607.183,124.67,604.727,124.4,602.22,124.165Z" transform="translate(-600.355 -124.165)" fill="#7c4208"/>
              <g id="Grupo_1117830" data-name="Grupo 1117830" transform="translate(0 0.824)">
                <path id="Trazado_909252" data-name="Trazado 909252" d="M585.645,165.872s-1.067,16.44,17.85,18.846a8.634,8.634,0,0,0,1.176.072c2.84-.037,12.913-1.085,14.053-14.867.037-.542.072-1.085.091-1.664-16.477,2.642-22.807-12.895-23.619-15.084l-.868-.813c-2.044-1.99-4.74-3.256-6.693-5.391l-1.863,17.761Z" transform="translate(-581.673 -109.423)" fill="#fcbe95"/>
                <path id="Trazado_909253" data-name="Trazado 909253" d="M585.623,150.52a.841.841,0,0,0,.072.234c.813,2.189,7.142,17.725,23.619,15.084.019-.614.019-1.248,0-1.9l.019-9.333a10.8,10.8,0,0,1-1.773,1.158,3.693,3.693,0,0,1-.523.271c-.2.091-.4.182-.616.271a13.425,13.425,0,0,1-1.3.434C595.624,159.31,586.129,150.971,585.623,150.52Z" transform="translate(-572.174 -107.001)" fill="#d69270"/>
                <path id="Trazado_909254" data-name="Trazado 909254" d="M579.772,144.913a5.181,5.181,0,0,1,2.894-3.718,4.634,4.634,0,0,1,1.413-.454,4.772,4.772,0,0,1,1.767.05l2.355-12.1.656-3.432.067-.606A188.909,188.909,0,0,1,613.49,129.6c4.846,1.312,9.3,2.726,13.342,4.156l-.942,5.35-.757,4.274-1.918,10.936-.909,5.115a30.669,30.669,0,0,0-4.139-5.62,13.912,13.912,0,0,0-6.814-3.769,14.748,14.748,0,0,0-4.593-.437,16.788,16.788,0,0,0-9.473,3.937,6.771,6.771,0,0,1-7.168,1.683c-.993-.3-2.322-1.5-3.516-1.985l.286-2.608a5.391,5.391,0,0,1-2.019.387A5.176,5.176,0,0,1,579.772,144.913Zm36.174-1.228a2.233,2.233,0,0,0,2.238-2.221,2.2,2.2,0,0,0-2.238-2.238,2.229,2.229,0,1,0,0,4.459Zm-16.724-1.363a2.229,2.229,0,1,0-2.255-2.221A2.233,2.233,0,0,0,599.222,142.322Z" transform="translate(-579.69 -124.655)" fill="#fcbe95"/>
              </g>
              <g id="Grupo_1117831" data-name="Grupo 1117831" transform="translate(2.471 9.738)">
                <path id="Trazado_909255" data-name="Trazado 909255" d="M589.866,158.068c.506.451,10,8.79,19.5,6.22a13.419,13.419,0,0,0,1.3-.434,4.555,4.555,0,0,0,.616-.271,4.927,4.927,0,0,0,.523-.271,10.791,10.791,0,0,0,1.773-1.158c.126-.109.252-.2.378-.326.217-.18.417-.362.616-.56a9.691,9.691,0,0,0,1.139-1.3,5.886,5.886,0,0,0,.471-.651c.017-.035.054-.072.072-.108.145-.217.289-.453.415-.688a12.164,12.164,0,0,0,1.247-3.092,10.337,10.337,0,0,0,.236-1.03l.886-5.064a30.688,30.688,0,0,0-4.142-5.625,13.866,13.866,0,0,0-6.818-3.762,14.777,14.777,0,0,0-4.593-.453,16.946,16.946,0,0,0-9.478,3.944,6.741,6.741,0,0,1-7.162,1.681c-.994-.306-2.313-1.5-3.508-1.989l-.959,8.97c1.953,2.135,4.649,3.4,6.693,5.391l.868.813A.837.837,0,0,1,589.866,158.068Z" transform="translate(-578.888 -123.463)" fill="#ed804a"/>
                <path id="Trazado_909256" data-name="Trazado 909256" d="M597.014,132.5a2.234,2.234,0,1,0,2.243,2.243A2.242,2.242,0,0,0,597.014,132.5Z" transform="translate(-579.96 -128.211)"/>
                <path id="Trazado_909257" data-name="Trazado 909257" d="M587.071,133.31a2.234,2.234,0,1,0,2.243,2.243,2.314,2.314,0,0,0-.38-1.265A2.269,2.269,0,0,0,587.071,133.31Z" transform="translate(-553.288 -127.661)"/>
                <path id="Trazado_909258" data-name="Trazado 909258" d="M601.343,145.6a9.645,9.645,0,0,1-7.218,2.073,14.149,14.149,0,0,1-3.638-1.142l-1.8-.912c-.592-.342-1.188-.693-1.851-.994a18.992,18.992,0,0,0,1.307,1.7,19.5,19.5,0,0,0,1.627,1.425,9.753,9.753,0,0,0,4.1,1.714,7.444,7.444,0,0,0,4.462-.749A6.573,6.573,0,0,0,601.343,145.6Z" transform="translate(-568.699 -119.936)" fill="#c1581e"/>
                <path id="Trazado_909259" data-name="Trazado 909259" d="M592.317,134.181a45.442,45.442,0,0,0-.161,7.358,67.112,67.112,0,0,0,.776,7.27l.742-.814a38.023,38.023,0,0,0-5.515.745,38.012,38.012,0,0,0,5.515.745.692.692,0,0,0,.744-.638l0-.069,0-.109a71.276,71.276,0,0,0-.586-7.287A41.69,41.69,0,0,0,592.317,134.181Z" transform="translate(-563.995 -127.067)" fill="#c1581e"/>
                <path id="Trazado_909260" data-name="Trazado 909260" d="M592.787,134.779a5.8,5.8,0,0,0-1.827-2.239,7.261,7.261,0,0,0-2.659-1.285,6.1,6.1,0,0,0-3,.013,4.951,4.951,0,0,0-2.512,1.487,26.347,26.347,0,0,1,2.68-.086,11.034,11.034,0,0,1,2.409.343A33.928,33.928,0,0,1,592.787,134.779Z" transform="translate(-553.33 -129.187)" fill="#7c4208"/>
                <path id="Trazado_909261" data-name="Trazado 909261" d="M605.6,133.015A9.014,9.014,0,0,0,602.722,131a11.806,11.806,0,0,0-3.405-.988,9.686,9.686,0,0,0-3.591.252,6.591,6.591,0,0,0-3.062,1.807,24.651,24.651,0,0,1,3.291-.416,21.862,21.862,0,0,1,3.148.151C601.211,132.06,603.289,132.571,605.6,133.015Z" transform="translate(-582.754 -129.953)" fill="#7c4208"/>
                <path id="Trazado_909262" data-name="Trazado 909262" d="M607.756,140.492a3.921,3.921,0,0,0-.907-3.173,4.254,4.254,0,0,0-2.921-1.541,13.993,13.993,0,0,1,2.273,2.076A10.1,10.1,0,0,1,607.756,140.492Z" transform="translate(-603.928 -125.977)" fill="#b26b4d"/>
              </g>
              <path id="Trazado_909263" data-name="Trazado 909263" d="M587.62,124.165l.37,5.7c1.918-.286,3.7-.623,4.543-.707.589-.05,1.161-.1,1.733-.135a92.266,92.266,0,0,1,15.227.4c3.331.32,6.73.236,10.061.5a188.9,188.9,0,0,0-24.565-4.947C592.583,124.67,590.127,124.4,587.62,124.165Z" transform="translate(-585.755 -124.165)" opacity="0.44"/>
            </g>
          </g>
          <g id="Grupo_1117836" data-name="Grupo 1117836" transform="translate(137.665 178.043)">
            <g id="Grupo_1117834" data-name="Grupo 1117834" transform="translate(0 228.622)">
              <path id="Trazado_909264" data-name="Trazado 909264" d="M555.32,422.082l4.93-23.539,1.716-8.16a12.719,12.719,0,0,1,12.467-10.129h4.206l-7.1-27.442c-1.043,0-2.171-.017-3.264-.067l-12,.909-.673,47.885Z" transform="translate(-555.32 -352.56)" fill="#3a3a3a"/>
              <path id="Trazado_909265" data-name="Trazado 909265" d="M547.523,379.22l-6.638,31.706L547.7,413.8a41.572,41.572,0,0,0,35.087-1.3l5.7-2.931-7.036-30.582a12.733,12.733,0,0,0-12.424-9.893H560A12.742,12.742,0,0,0,547.523,379.22Z" transform="translate(-540.88 -341.402)" fill="#686868"/>
              <path id="Trazado_909266" data-name="Trazado 909266" d="M550.28,352.887l7.1,27.442,7.033-25.2,1.447-.151a40.06,40.06,0,0,1-3.617-2.339h-5.3S553.948,352.887,550.28,352.887Z" transform="translate(-534.06 -352.635)" fill="#262626"/>
              <path id="Trazado_909267" data-name="Trazado 909267" d="M540.89,379.381h4.829a12.777,12.777,0,0,1,12.417,9.893l7.033,30.572-.757-54.447-.084-5.8a52.9,52.9,0,0,1-14.958-5.569l-1.447.151Z" transform="translate(-517.57 -351.686)" fill="#3a3a3a"/>
              <path id="Trazado_909268" data-name="Trazado 909268" d="M588.487,409.934c-1.642-8.8-3.478-17.555-5.34-26.3A49.061,49.061,0,0,0,581.515,377a13.571,13.571,0,0,0-10.819-8.288,27.756,27.756,0,0,0-3.454-.135l-3.353-.02-3.355.018a14.491,14.491,0,0,0-3.518.362,13.57,13.57,0,0,0-9.956,9.311c-.59,2.3-.915,4.415-1.358,6.639l-2.5,13.183c-.769,4.408-1.6,8.8-2.315,13.223,1.117-4.336,2.12-8.7,3.183-13.041l2.995-13.08c.52-2.144.964-4.44,1.493-6.469a12.013,12.013,0,0,1,3.34-5.236,11.83,11.83,0,0,1,5.5-2.842,12.607,12.607,0,0,1,3.139-.279l3.355.018,3.353-.02a26.134,26.134,0,0,1,3.244.079,11.783,11.783,0,0,1,5.751,2.29,12,12,0,0,1,3.836,4.886,20.014,20.014,0,0,1,.912,3.088l.811,3.256C583.943,392.625,586.118,401.3,588.487,409.934Z" transform="translate(-540.88 -341.769)" fill="#262626"/>
              <path id="Trazado_909269" data-name="Trazado 909269" d="M541.34,401.613c1.565-.976,3.1-2,4.644-2.995,1.918-1.245,3.836-2.473,5.8-3.651a153.546,153.546,0,0,0,20.073-14.352c4.879-4,9.574-8.244,14.032-12.518.5-.488,1.228-1.094,2-1.75l-.084-5.8a52.9,52.9,0,0,1-14.958-5.569,40.016,40.016,0,0,1-3.617-2.339h-5.3s-2.995.252-6.663.252c-1.043,0-2.171-.017-3.264-.067l-12,.909Z" transform="translate(-541.054 -352.635)" opacity="0.3" style="mix-blend-mode: overlay;isolation: isolate"/>
            </g>
            <g id="Grupo_1117835" data-name="Grupo 1117835" transform="translate(21.02)">
              <path id="Trazado_909270" data-name="Trazado 909270" d="M556.268,216.949c-1.23,0-2.226,2.044-2.226,4.558,0,2.5,1,4.539,2.226,4.539l.253-.019c1.1-.252,1.972-2.187,1.972-4.521C558.492,218.993,557.5,216.949,556.268,216.949Z" transform="translate(-554.042 -216.623)" fill="#4f3209"/>
              <path id="Trazado_909271" data-name="Trazado 909271" d="M543.4,439.794h5.3l.252-3.483,5.62-77.009L561,271.507l2.49-34.172.4-5.569a2.661,2.661,0,0,1-2.574,1.952,2.15,2.15,0,0,1-.336-.017,2.62,2.62,0,0,1-2.305-2.793c.034-.471.067-.959.1-1.481l-.286-.017c-2.473-.353-3.8-2.255-4.509-4.476l-.051,1.178-.858,17.448-1.026,20.712-.925,18.811-1.615,32.607-2.1,42.871L543.636,435Z" transform="translate(-541.537 -211.172)" fill="#765216"/>
              <path id="Trazado_909272" data-name="Trazado 909272" d="M549.932,226.16l1.481-.151,3.618-.353,4.105-.4h.017a25.7,25.7,0,0,1,.084-2.793,21.2,21.2,0,0,0-1.262-5.7h-.017l-5,.2-1.329.05-1.952.067c1.228,0,2.221,2.053,2.221,4.56C551.9,223.973,551.026,225.908,549.932,226.16Z" transform="translate(-547.447 -216.755)" fill="#765216"/>
              <path id="Trazado_909273" data-name="Trazado 909273" d="M544.258,226.113l-.858,17.448c.841-.572,1.682-1.178,2.557-1.767a84.124,84.124,0,0,1,7.857-4.459l.4-5.569a2.661,2.661,0,0,1-2.574,1.952,2.147,2.147,0,0,1-.336-.017A2.62,2.62,0,0,1,549,230.908c.034-.471.067-.959.1-1.481l-.286-.017c-2.473-.353-3.8-2.255-4.509-4.476Z" transform="translate(-531.863 -211.172)" opacity="0.3" style="mix-blend-mode: overlay;isolation: isolate"/>
              <path id="Trazado_909274" data-name="Trazado 909274" d="M550.975,219.5a13.814,13.814,0,0,1,.774,6.158l4.105-.4h.017a25.7,25.7,0,0,1,.084-2.793,21.2,21.2,0,0,0-1.262-5.7h-.017l-5,.2A20.1,20.1,0,0,1,550.975,219.5Z" transform="translate(-544.166 -216.755)" opacity="0.3" style="mix-blend-mode: overlay;isolation: isolate"/>
            </g>
          </g>
          <g id="Grupo_1117837" data-name="Grupo 1117837" transform="translate(143.066 124.942)">
            <path id="Trazado_909275" data-name="Trazado 909275" d="M536.711,203.551a37.459,37.459,0,0,1,7.117,3.735,46.6,46.6,0,0,1,15.042,17.246,38.907,38.907,0,0,1,2.423,5.519v.017l.2.236a14.727,14.727,0,0,0-4.98,8.244l6.326-.252h.017a21.209,21.209,0,0,1,1.262,5.7,25.722,25.722,0,0,0-.084,2.793,18.736,18.736,0,0,0,.74,5.266c.707,2.221,2.036,4.122,4.509,4.476l.286.017c-.034.522-.067,1.01-.1,1.481a2.62,2.62,0,0,0,2.305,2.793,2.145,2.145,0,0,0,.336.017,2.661,2.661,0,0,0,2.574-1.952,55.169,55.169,0,0,0,1.329-6.057c2.608-.538,4.139-2.591,5-5.115,7.5-2.271,4.206-14.217,4.206-14.217,0-2.44-3.971-5.233-3.971-5.233l-.774-13.023a19.754,19.754,0,0,0-2.742-9.086c-5.081-8.413-14.453-16.32-18.491-19.5-1.127-.892-1.834-1.413-1.918-1.464-5.62,1.767-14.621,5.906-18.659,14.773A19.5,19.5,0,0,1,536.711,203.551Z" transform="translate(-536.711 -185.195)" fill="#fcbe95"/>
            <path id="Trazado_909276" data-name="Trazado 909276" d="M557.014,221.808l-7.723.759c.851,5.788,8.43,5.68,8.43,5.68l.054-1.176a18.66,18.66,0,0,1-.742-5.263Z" transform="translate(-529.711 -160.206)" fill="#d69270"/>
            <path id="Trazado_909277" data-name="Trazado 909277" d="M542.538,232.437a.906.906,0,0,0,.89-.754,39.093,39.093,0,0,0,.12-14.556.905.905,0,0,0-1.77.379,37.271,37.271,0,0,1-.133,13.874.906.906,0,0,0,.74,1.043A.942.942,0,0,0,542.538,232.437Z" transform="translate(-503.225 -163.889)" fill="#b26b4d"/>
            <path id="Trazado_909278" data-name="Trazado 909278" d="M546.41,235.658a.9.9,0,0,0,.9-.851c.394-6.772.668-16.657.671-16.756a.9.9,0,0,0-.88-.929h-.025a.9.9,0,0,0-.9.878c0,.1-.276,9.957-.668,16.7a.9.9,0,0,0,.85.954Z" transform="translate(-513.556 -163.404)" fill="#b26b4d"/>
            <path id="Trazado_909279" data-name="Trazado 909279" d="M539.352,228.2a.905.905,0,0,0,.855-.609c1.711-4.964,1.013-11.391.982-11.663a.89.89,0,0,0-1-.8.9.9,0,0,0-.8,1c.007.062.68,6.3-.9,10.873a.9.9,0,0,0,.855,1.2Z" transform="translate(-495.048 -164.77)" fill="#b26b4d"/>
            <path id="Trazado_909280" data-name="Trazado 909280" d="M552.58,203.551a37.448,37.448,0,0,1,7.117,3.735c.32-.976.555-1.868.774-2.356a45.738,45.738,0,0,1,4.459-8.884c2.692-3.786,6.579-6.612,10.179-9.389-1.127-.892-1.834-1.413-1.918-1.464-5.62,1.767-14.621,5.906-18.659,14.773A19.506,19.506,0,0,1,552.58,203.551Z" transform="translate(-552.58 -185.195)" fill="#d69270"/>
            <path id="Trazado_909281" data-name="Trazado 909281" d="M543.21,209.264a38.9,38.9,0,0,1,2.423,5.519,42.934,42.934,0,0,1,13.713-4.257c-2.524-1.582-6.377-3.214-9.91-2.928C547.315,207.783,544.977,208.086,543.21,209.264Z" transform="translate(-521.051 -169.927)" fill="#d69270"/>
            <path id="Trazado_909282" data-name="Trazado 909282" d="M546.647,214.867a.9.9,0,0,0,.582-.212,18.031,18.031,0,0,1,7.894-3.723.9.9,0,0,0-.276-1.787,19.615,19.615,0,0,0-8.781,4.126.9.9,0,0,0,.58,1.6Z" transform="translate(-521.859 -168.855)" fill="#b26b4d"/>
            <path id="Trazado_909283" data-name="Trazado 909283" d="M552.26,232.29a.876.876,0,0,0,.276-.044.9.9,0,0,0,.587-1.136,17.838,17.838,0,0,1-.7-5,23.314,23.314,0,0,1,.084-2.7.776.776,0,0,0,0-.2,22.462,22.462,0,0,0-1.328-5.939,5.187,5.187,0,0,0-.867-1.508A.9.9,0,0,0,548.986,217a4.155,4.155,0,0,1,.525.971,20.576,20.576,0,0,1,1.19,5.355,26.221,26.221,0,0,0-.084,2.817,19.709,19.709,0,0,0,.782,5.517A.908.908,0,0,0,552.26,232.29Z" transform="translate(-524.199 -164.519)" fill="#b26b4d"/>
          </g>
          <g id="Grupo_1117838" data-name="Grupo 1117838" transform="translate(9.877 160.578)">
            <path id="Trazado_909284" data-name="Trazado 909284" d="M592.47,226.061a31.117,31.117,0,0,0,6.259,7.1c9.658,8.48,25.238,16.22,28.384,17.751a7.179,7.179,0,0,0,1.11.488c1.952.723,3.8,1.363,5.536,1.918,27.627,8.968,27.627-1.178,27.627-1.178l-.017-.051c21.907-3.079,18.525-11.323,18.525-11.323a2.748,2.748,0,0,0,1.11-2.86c-.067-.185-.135-.387-.219-.589a2.748,2.748,0,0,0-3.264-1.346l-9.708,3.214a32.215,32.215,0,0,1-8.379,2.019c-5.064.454-7.756-.824-7.756-.824l7.942-6.108a2.95,2.95,0,0,0-2.928-5.064l-15.109,6.242c-6.107-.522-11.525-3.92-16.068-8.228a58.983,58.983,0,0,1-6.764-7.79,76.522,76.522,0,0,1-5.1-7.925c-1.666-2.961-2.574-4.98-2.574-4.98l-.067-.151a5.858,5.858,0,0,0-3.129,2.507l-.185.017a12.982,12.982,0,0,1-1.464,8.615c-.875,1.464-2.154,3.012-3.9,3.214-1.7.185-2.827-1.178-4.459-1.228C593.95,219.4,593.934,223.436,592.47,226.061Z" transform="translate(-592.47 -206.375)" fill="#fcbe95"/>
            <path id="Trazado_909285" data-name="Trazado 909285" d="M629.51,226.061a31.123,31.123,0,0,0,6.259,7.1c.219-.3.438-.606.656-.892a25.444,25.444,0,0,1,5.771-5.3c1.868-1.329,3.55-3.079,5.62-4.122,1.4-.723,2.995-1.144,4.425-1.851,1.144-.555,2.372-1.094,3.55-1.565a76.5,76.5,0,0,1-5.1-7.925c-1.666-2.961-2.574-4.98-2.574-4.98l-.067-.151a5.858,5.858,0,0,0-3.129,2.507l-.185.017a12.983,12.983,0,0,1-1.464,8.615c-.875,1.464-2.154,3.012-3.9,3.214-1.7.185-2.827-1.178-4.459-1.228C630.991,219.4,630.974,223.436,629.51,226.061Z" transform="translate(-629.51 -206.375)" fill="#d69270"/>
            <path id="Trazado_909286" data-name="Trazado 909286" d="M597.292,234.016c7.238,0,13.655-3.654,17.13-6.092a.9.9,0,1,0-1.04-1.479c-3.1,2.177-11.236,7.063-19.672,5.421a.9.9,0,1,0-.347,1.775A20.475,20.475,0,0,0,597.292,234.016Z" transform="translate(-526.476 -192.789)" fill="#b26b4d"/>
            <path id="Trazado_909287" data-name="Trazado 909287" d="M595.775,235.225c1.381-.143,2.677-.288,3.892-.447.586-.082,1.151-.168,1.7-.257,5.534-.9,9.755-2.231,12.547-3.956a.9.9,0,1,1,.951,1.54c-3,1.849-7.438,3.262-13.208,4.2-.56.091-1.139.178-1.745.264-1.237.163-2.549.308-3.949.454a.9.9,0,1,1-.187-1.8Z" transform="translate(-530.886 -189.957)" fill="#b26b4d"/>
          </g>
        </g>
      </g>
    </g>
  </g>
</svg>
