<svg xmlns="http://www.w3.org/2000/svg" xmlns:xlink="http://www.w3.org/1999/xlink" width="505" height="307" viewBox="0 0 505 307">
  <defs>
    <clipPath id="clip-path">
      <path id="Trazado_917336" data-name="Trazado 917336" d="M4996.853,761.823c1.25-2.54,4.006-3.048,6.007,1.126C5000.764,764.784,4997.646,764.333,4996.853,761.823Z" transform="translate(-4996.853 -759.863)" fill="#fff"/>
    </clipPath>
    <clipPath id="clip-path-2">
      <path id="Trazado_917340" data-name="Trazado 917340" d="M5045.1,756.6c-1.443-2.188-3.632-2.139-4.338,2.249C5042.713,760.2,5044.991,759.163,5045.1,756.6Z" transform="translate(-5040.765 -755.186)" fill="none"/>
    </clipPath>
  </defs>
  <g id="Grupo_1119945" data-name="Grupo 1119945" transform="translate(-180.543 -9355)">
    <path id="Trazado_916658" data-name="Trazado 916658" d="M497.231,0H7.769C3.478,0,0,4.925,0,11V296c0,6.075,3.478,11,7.769,11H497.231c4.291,0,7.769-4.925,7.769-11V11C505,4.925,501.522,0,497.231,0Z" transform="translate(180.543 9355)" fill="#4c6929"/>
    <g id="Grupo_1119943" data-name="Grupo 1119943" transform="translate(-4231.681 8823.506)">
      <g id="Grupo_1119560" data-name="Grupo 1119560" transform="translate(4454.709 535.494)">
        <g id="Grupo_1119559" data-name="Grupo 1119559" transform="translate(0 0)">
          <path id="Trazado_917251" data-name="Trazado 917251" d="M4749.328,535.5c-185.155-1.493-277.8,219.494-125.181,236.642s169.765,17.148,198.917,52.3,132.039-33.439,118.321-104.6-108.89-28.294-120.036-58.3S4855.644,536.359,4749.328,535.5Z" transform="translate(-4547.482 -535.494)" fill="#ffead9"/>
        </g>
      </g>
      <g id="Grupo_1119570" data-name="Grupo 1119570" transform="translate(4610.628 543.448)">
        <g id="Grupo_1119563" data-name="Grupo 1119563" transform="translate(0 0.176)">
          <g id="Grupo_1119562" data-name="Grupo 1119562">
            <g id="Grupo_1119561" data-name="Grupo 1119561">
              <path id="Trazado_917252" data-name="Trazado 917252" d="M5350.633,574.43a56.472,56.472,0,1,0,56.473,56.472A56.472,56.472,0,0,0,5350.633,574.43Zm0,73.615a17.143,17.143,0,1,1,17.145-17.143A17.143,17.143,0,0,1,5350.633,648.045Z" transform="translate(-5294.162 -574.43)" fill="#e2e9fb"/>
            </g>
          </g>
        </g>
        <g id="Grupo_1119565" data-name="Grupo 1119565" transform="translate(60.07 1.634)">
          <g id="Grupo_1119564" data-name="Grupo 1119564">
            <path id="Trazado_917253" data-name="Trazado 917253" d="M5591.04,581.414l-9.206,38.25a17.164,17.164,0,0,1,11.026,7.817l33.931-19.9A56.557,56.557,0,0,0,5591.04,581.414Z" transform="translate(-5581.834 -581.414)" fill="#e9595c"/>
          </g>
        </g>
        <g id="Grupo_1119567" data-name="Grupo 1119567" transform="translate(3.404 27.805)">
          <g id="Grupo_1119566" data-name="Grupo 1119566">
            <path id="Trazado_917254" data-name="Trazado 917254" d="M5363.532,792.057a56.479,56.479,0,0,0,48.556-85.314l-33.931,19.9a17.146,17.146,0,1,1-30.8,14.647l-36.9,13.653A56.494,56.494,0,0,0,5363.532,792.057Z" transform="translate(-5310.464 -706.743)" fill="#ffcc63"/>
          </g>
        </g>
        <g id="Grupo_1119569" data-name="Grupo 1119569" transform="translate(0.389 0)">
          <g id="Grupo_1119568" data-name="Grupo 1119568">
            <path id="Trazado_917255" data-name="Trazado 917255" d="M5352.106,647.554a17.319,17.319,0,1,1,17.319-17.319A17.339,17.339,0,0,1,5352.106,647.554Zm0-34.286a16.967,16.967,0,1,0,16.968,16.967A16.986,16.986,0,0,0,5352.106,613.267Zm-55.906,9.126-.026,0a.176.176,0,0,1-.148-.2A56.66,56.66,0,0,1,5402.7,604.721a.176.176,0,0,1-.314.159,56.31,56.31,0,0,0-106.01,17.362A.175.175,0,0,1,5296.2,622.393Z" transform="translate(-5296.023 -573.587)" fill="#451d26"/>
          </g>
        </g>
      </g>
      <g id="Grupo_1119579" data-name="Grupo 1119579" transform="translate(4438.146 644.772)">
        <g id="Grupo_1119572" data-name="Grupo 1119572" transform="translate(17.549 22.165)">
          <g id="Grupo_1119571" data-name="Grupo 1119571">
            <path id="Trazado_917256" data-name="Trazado 917256" d="M4552.2,1175.1l2.29-2.289,14.98,14.981v-22.823h3.238v44.828h-3.238v-17.427Z" transform="translate(-4552.203 -1164.965)" fill="#824648"/>
          </g>
        </g>
        <g id="Grupo_1119574" data-name="Grupo 1119574" transform="translate(20.854)">
          <g id="Grupo_1119573" data-name="Grupo 1119573">
            <circle id="Elipse_11874" data-name="Elipse 11874" cx="17.401" cy="17.401" r="17.401" fill="#628056"/>
          </g>
        </g>
        <g id="Grupo_1119576" data-name="Grupo 1119576" transform="translate(0 7.781)">
          <g id="Grupo_1119575" data-name="Grupo 1119575" transform="translate(0 0)">
            <circle id="Elipse_11875" data-name="Elipse 11875" cx="12.546" cy="12.546" r="12.546" transform="translate(0 17.742) rotate(-45)" fill="#83a973"/>
          </g>
        </g>
        <g id="Grupo_1119578" data-name="Grupo 1119578" transform="translate(49.067 34.672)">
          <g id="Grupo_1119577" data-name="Grupo 1119577" transform="translate(0 0)">
            <circle id="Elipse_11876" data-name="Elipse 11876" cx="12.546" cy="12.546" r="12.546" transform="translate(0 5.765) rotate(-13.283)" fill="#628056"/>
          </g>
        </g>
      </g>
      <g id="Grupo_1119588" data-name="Grupo 1119588" transform="translate(4573.541 651.384)">
        <g id="Grupo_1119581" data-name="Grupo 1119581" transform="translate(46.875 22.165)">
          <g id="Grupo_1119580" data-name="Grupo 1119580">
            <path id="Trazado_917257" data-name="Trazado 917257" d="M5361.542,1206.757l-2.29-2.289-14.98,14.981v-22.823h-3.238v44.828h3.238v-17.427Z" transform="translate(-5341.034 -1196.626)" fill="#824648"/>
          </g>
        </g>
        <g id="Grupo_1119583" data-name="Grupo 1119583" transform="translate(28.037 0)">
          <g id="Grupo_1119582" data-name="Grupo 1119582">
            <circle id="Elipse_11877" data-name="Elipse 11877" cx="17.401" cy="17.401" r="17.401" fill="#628056"/>
          </g>
        </g>
        <g id="Grupo_1119585" data-name="Grupo 1119585" transform="translate(49.447 7.781)">
          <g id="Grupo_1119584" data-name="Grupo 1119584" transform="translate(0 0)">
            <circle id="Elipse_11878" data-name="Elipse 11878" cx="12.546" cy="12.546" r="12.546" transform="translate(0 17.742) rotate(-45)" fill="#83a973"/>
          </g>
        </g>
        <g id="Grupo_1119587" data-name="Grupo 1119587" transform="translate(0 26.146)">
          <g id="Grupo_1119586" data-name="Grupo 1119586" transform="translate(0 0)">
            <circle id="Elipse_11879" data-name="Elipse 11879" cx="12.546" cy="12.546" r="12.546" transform="translate(0 17.742) rotate(-45)" fill="#628056"/>
          </g>
        </g>
      </g>
      <g id="Grupo_1119590" data-name="Grupo 1119590" transform="translate(4454.721 699.178)">
        <g id="Grupo_1119589" data-name="Grupo 1119589" transform="translate(0)">
          <path id="Trazado_917258" data-name="Trazado 917258" d="M4624.192,1392.327c152.617,17.148,169.765,17.148,198.917,52.3s132.04-33.439,118.321-104.6a57.209,57.209,0,0,0-7.94-20.664H4547.54C4548.107,1356.267,4571.57,1386.415,4624.192,1392.327Z" transform="translate(-4547.54 -1319.362)" fill="#628056"/>
        </g>
      </g>
      <g id="Grupo_1119597" data-name="Grupo 1119597" transform="translate(4456.343 714.329)">
        <g id="Grupo_1119592" data-name="Grupo 1119592" transform="translate(0 0)">
          <g id="Grupo_1119591" data-name="Grupo 1119591">
            <path id="Trazado_917259" data-name="Trazado 917259" d="M4562.659,1411.752h386.154a69.533,69.533,0,0,0-1.239-14.32c-.37-1.921-.8-3.755-1.288-5.514H4555.307A68.038,68.038,0,0,0,4562.659,1411.752Z" transform="translate(-4555.307 -1391.918)" fill="#83a973"/>
          </g>
        </g>
        <g id="Grupo_1119594" data-name="Grupo 1119594" transform="translate(183.329 70.521)">
          <g id="Grupo_1119593" data-name="Grupo 1119593">
            <path id="Trazado_917260" data-name="Trazado 917260" d="M5625.213,1729.635H5433.254c36.834,5.179,55.707,10.213,69.956,19.834H5607.7A130.251,130.251,0,0,0,5625.213,1729.635Z" transform="translate(-5433.254 -1729.635)" fill="#83a973"/>
          </g>
        </g>
        <g id="Grupo_1119596" data-name="Grupo 1119596" transform="translate(17.834 33.608)">
          <g id="Grupo_1119595" data-name="Grupo 1119595">
            <path id="Trazado_917261" data-name="Trazado 917261" d="M5014.864,1552.862h-374.15c8.61,8.624,20.2,15.46,35.011,19.834h332.48A88.62,88.62,0,0,0,5014.864,1552.862Z" transform="translate(-4640.714 -1552.862)" fill="#83a973"/>
          </g>
        </g>
      </g>
      <g id="Grupo_1119599" data-name="Grupo 1119599" transform="translate(4684.397 601.798)">
        <g id="Grupo_1119598" data-name="Grupo 1119598" transform="translate(0 0)">
          <path id="Trazado_917262" data-name="Trazado 917262" d="M5936.1,749.816c-51.7-25.852-66.471,53.688-13.422,58.161S5966.776,765.156,5936.1,749.816Z" transform="translate(-5889.403 -744.66)" fill="#ffead9"/>
        </g>
      </g>
      <g id="Grupo_1119606" data-name="Grupo 1119606" transform="translate(4462.688 562.907)">
        <g id="Grupo_1119601" data-name="Grupo 1119601" transform="translate(4.06)">
          <g id="Grupo_1119600" data-name="Grupo 1119600">
            <path id="Trazado_917263" data-name="Trazado 917263" d="M4605.129,690.649h136.977c-12.356-6.384-33.891-5.586-33.891-5.586-21.182-33.516-59.31-12.5-64.6-3.192C4631.96,678.945,4610.071,686.127,4605.129,690.649Z" transform="translate(-4605.129 -666.773)" fill="#fff"/>
          </g>
        </g>
        <g id="Grupo_1119603" data-name="Grupo 1119603" transform="translate(64.341 2.82)">
          <g id="Grupo_1119602" data-name="Grupo 1119602">
            <path id="Trazado_917264" data-name="Trazado 917264" d="M4953.323,704.767h-14.942a.176.176,0,0,1,0-.352h14.268c-11.07-6-29.728-5.3-29.919-5.3a.176.176,0,0,1-.161-.089c-8.76-15.522-20.376-18.568-28.578-18.4a.166.166,0,0,1-.18-.172.176.176,0,0,1,.172-.18c8.277-.176,20,2.887,28.84,18.481,1.581-.05,19.945-.483,30.589,5.675a.176.176,0,0,1-.089.328Z" transform="translate(-4893.812 -680.276)" fill="#451d26"/>
          </g>
        </g>
        <g id="Grupo_1119605" data-name="Grupo 1119605" transform="translate(0 6.684)">
          <g id="Grupo_1119604" data-name="Grupo 1119604">
            <path id="Trazado_917265" data-name="Trazado 917265" d="M4678.978,719.41h-93.113a.176.176,0,0,1-.126-.3c4.465-4.574,24.125-11.845,34.78-8.96,1.622-3.052,6.672-7.856,14.084-11.351a.176.176,0,1,1,.15.318c-7.441,3.509-12.467,8.328-13.987,11.32a.176.176,0,0,1-.205.09c-10.292-2.895-29.288,3.973-34.262,8.529h92.678a.176.176,0,0,1,0,.352Z" transform="translate(-4585.688 -698.784)" fill="#451d26"/>
          </g>
        </g>
      </g>
      <g id="Grupo_1119613" data-name="Grupo 1119613" transform="translate(4757.717 652.986)">
        <g id="Grupo_1119608" data-name="Grupo 1119608" transform="translate(4.059 0)">
          <g id="Grupo_1119607" data-name="Grupo 1119607">
            <path id="Trazado_917266" data-name="Trazado 917266" d="M6018,1122.03H6154.98c-12.357-6.384-33.893-5.586-33.893-5.586-21.182-33.516-59.31-12.5-64.605-3.192C6044.833,1110.326,6022.944,1117.508,6018,1122.03Z" transform="translate(-6018.002 -1098.154)" fill="#fff"/>
          </g>
        </g>
        <g id="Grupo_1119610" data-name="Grupo 1119610" transform="translate(64.341 2.82)">
          <g id="Grupo_1119609" data-name="Grupo 1119609">
            <path id="Trazado_917267" data-name="Trazado 917267" d="M6366.2,1136.149h-14.942a.176.176,0,1,1,0-.352h14.269c-11.07-6-29.728-5.3-29.919-5.3a.171.171,0,0,1-.161-.09c-8.76-15.522-20.376-18.57-28.578-18.4a.172.172,0,0,1-.181-.172.177.177,0,0,1,.173-.18c8.274-.173,20,2.887,28.84,18.481,1.582-.05,19.944-.483,30.588,5.675a.176.176,0,0,1-.088.328Z" transform="translate(-6306.684 -1111.658)" fill="#451d26"/>
          </g>
        </g>
        <g id="Grupo_1119612" data-name="Grupo 1119612" transform="translate(0 6.684)">
          <g id="Grupo_1119611" data-name="Grupo 1119611">
            <path id="Trazado_917268" data-name="Trazado 917268" d="M6091.85,1150.791h-93.112a.175.175,0,0,1-.125-.3c4.463-4.574,24.125-11.845,34.779-8.96,1.621-3.052,6.672-7.856,14.084-11.351a.176.176,0,0,1,.151.318c-7.442,3.51-12.469,8.328-13.988,11.32a.176.176,0,0,1-.2.09c-10.292-2.9-29.288,3.973-34.261,8.53h92.677a.176.176,0,1,1,0,.352Z" transform="translate(-5998.562 -1130.164)" fill="#451d26"/>
          </g>
        </g>
      </g>
      <g id="Grupo_1119656" data-name="Grupo 1119656" transform="translate(4599.855 741.137)">
        <g id="Grupo_1119620" data-name="Grupo 1119620" transform="translate(39.308 66.715)">
          <g id="Grupo_1119615" data-name="Grupo 1119615" transform="translate(7.977 12.044)">
            <g id="Grupo_1119614" data-name="Grupo 1119614">
              <path id="Trazado_917269" data-name="Trazado 917269" d="M5469.2,1905.77a.176.176,0,0,1-.176-.176v-7.949a.176.176,0,1,1,.352,0v7.949A.175.175,0,0,1,5469.2,1905.77Z" transform="translate(-5469.021 -1897.469)" fill="#451d26"/>
            </g>
          </g>
          <g id="Grupo_1119617" data-name="Grupo 1119617" transform="translate(0 0)">
            <g id="Grupo_1119616" data-name="Grupo 1119616">
              <circle id="Elipse_11880" data-name="Elipse 11880" cx="6.47" cy="6.47" r="6.47" transform="translate(0 12.594) rotate(-76.717)" fill="#f0954f"/>
            </g>
          </g>
          <g id="Grupo_1119619" data-name="Grupo 1119619" transform="translate(5.066 20.132)">
            <g id="Grupo_1119618" data-name="Grupo 1119618">
              <path id="Trazado_917270" data-name="Trazado 917270" d="M5464.729,1936.552h-9.474a.176.176,0,1,1,0-.352h9.474a.176.176,0,1,1,0,.352Z" transform="translate(-5455.079 -1936.2)" fill="#451d26"/>
            </g>
          </g>
        </g>
        <g id="Grupo_1119622" data-name="Grupo 1119622" transform="translate(0.178 12.293)">
          <g id="Grupo_1119621" data-name="Grupo 1119621">
            <path id="Trazado_917271" data-name="Trazado 917271" d="M5286.509,1579.171l-.739,18.085h-42.148c-1.232,8.626,3.451,16.514,10.845,17.254.247,17.746,10.845,30.81,31.549,28.591s32.535-26.866,23.168-41.655-12.57-18.486-12.57-18.486Z" transform="translate(-5243.426 -1579.171)" fill="#ffa763"/>
          </g>
        </g>
        <g id="Grupo_1119624" data-name="Grupo 1119624" transform="translate(0 12.117)">
          <g id="Grupo_1119623" data-name="Grupo 1119623">
            <path id="Trazado_917272" data-name="Trazado 917272" d="M5280.944,1642.853c-7.356,0-13.605-2.124-18.252-6.242-5.687-5.039-8.9-13.064-9.071-22.608a11.346,11.346,0,0,1-7.748-4.463,17.134,17.134,0,0,1-3.1-12.974.176.176,0,0,1,.174-.151h41.979l.732-17.917a.177.177,0,0,1,.238-.158l10.105,3.79a.173.173,0,0,1,.071.05c.032.037,3.32,3.876,12.586,18.507,4.313,6.81,4.4,16.033.227,24.673-4.7,9.727-13.49,16.176-23.525,17.251A41.482,41.482,0,0,1,5280.944,1642.853Zm-37.841-46.086a16.747,16.747,0,0,0,3.047,12.556,10.989,10.989,0,0,0,7.662,4.346.176.176,0,0,1,.159.173c.132,9.513,3.312,17.506,8.955,22.506,5.475,4.852,13.222,6.9,22.4,5.913,9.914-1.062,18.6-7.438,23.247-17.054,4.117-8.53,4.04-17.625-.207-24.331-8.793-13.883-12.188-18.027-12.527-18.431l-9.834-3.688-.73,17.842a.176.176,0,0,1-.175.169Z" transform="translate(-5242.576 -1578.329)" fill="#451d26"/>
          </g>
        </g>
        <g id="Grupo_1119626" data-name="Grupo 1119626" transform="translate(42.666)">
          <g id="Grupo_1119625" data-name="Grupo 1119625">
            <path id="Trazado_917273" data-name="Trazado 917273" d="M5456.847,1522.542a2.11,2.11,0,0,0-1.448.586,3.19,3.19,0,0,0-3.146-2.827,3.228,3.228,0,0,0-3.228,3.229,2.946,2.946,0,0,0,.1.515c-.036,0-.069-.021-.1-.021a2.127,2.127,0,1,0,0,4.254,2.1,2.1,0,0,0,2.051-1.757,3.077,3.077,0,0,0,3.779-1.183,2.115,2.115,0,1,0,1.992-2.794Z" transform="translate(-5446.897 -1520.301)" fill="#e9595c"/>
          </g>
        </g>
        <g id="Grupo_1119628" data-name="Grupo 1119628" transform="translate(41.172 2.715)">
          <g id="Grupo_1119627" data-name="Grupo 1119627" transform="translate(0 0)">
            <circle id="Elipse_11881" data-name="Elipse 11881" cx="6.557" cy="6.557" r="6.557" transform="translate(0 5.018) rotate(-22.5)" fill="#ffa763"/>
          </g>
        </g>
        <g id="Grupo_1119630" data-name="Grupo 1119630" transform="translate(43.006 4.549)">
          <g id="Grupo_1119629" data-name="Grupo 1119629">
            <path id="Trazado_917274" data-name="Trazado 917274" d="M5455.26,1555.552a6.733,6.733,0,0,1,0-13.466.176.176,0,0,1,0,.352,6.381,6.381,0,0,0,0,12.762.176.176,0,0,1,0,.352Z" transform="translate(-5448.527 -1542.086)" fill="#451d26"/>
          </g>
        </g>
        <g id="Grupo_1119632" data-name="Grupo 1119632" transform="translate(53.1 9.636)">
          <g id="Grupo_1119631" data-name="Grupo 1119631">
            <path id="Trazado_917275" data-name="Trazado 917275" d="M5498.548,1566.48l5.9,2.471s-5.347,3.077-5.7,3.077C5495.473,1569.658,5497.187,1566.077,5498.548,1566.48Z" transform="translate(-5496.866 -1566.449)" fill="#ffcc63"/>
          </g>
        </g>
        <g id="Grupo_1119634" data-name="Grupo 1119634" transform="translate(49.285 8.659)">
          <g id="Grupo_1119633" data-name="Grupo 1119633">
            <path id="Trazado_917276" data-name="Trazado 917276" d="M5481.321,1563.131a1.362,1.362,0,1,1-1.362-1.361A1.362,1.362,0,0,1,5481.321,1563.131Z" transform="translate(-5478.597 -1561.769)" fill="#4f2b2c"/>
          </g>
        </g>
        <g id="Grupo_1119636" data-name="Grupo 1119636" transform="translate(18.983 35.554)">
          <g id="Grupo_1119635" data-name="Grupo 1119635">
            <path id="Trazado_917277" data-name="Trazado 917277" d="M5375.015,1705.85a15.282,15.282,0,0,1-15.282,15.281c-8.439,0-26.25-6.842-26.25-15.281,0-3.717,3.455-7.124,8.042-9.773,5.828-3.366,13.485-5.508,18.208-5.508A15.281,15.281,0,0,1,5375.015,1705.85Z" transform="translate(-5333.483 -1690.568)" fill="#4f2b2c"/>
          </g>
        </g>
        <g id="Grupo_1119638" data-name="Grupo 1119638" transform="translate(23.012 35.555)">
          <g id="Grupo_1119637" data-name="Grupo 1119637">
            <path id="Trazado_917278" data-name="Trazado 917278" d="M5390.048,1703.558A15.24,15.24,0,0,0,5375,1690.57c-4.725,0-12.381,2.142-18.21,5.508a26.658,26.658,0,0,0-4.012,2.814c4.374,6.429,17.8,11.149,24.809,11.149A15.237,15.237,0,0,0,5390.048,1703.558Z" transform="translate(-5352.777 -1690.57)" fill="#824648"/>
          </g>
        </g>
        <g id="Grupo_1119647" data-name="Grupo 1119647" transform="translate(19.045 65.348)">
          <g id="Grupo_1119640" data-name="Grupo 1119640" transform="translate(9.344 13.411)">
            <g id="Grupo_1119639" data-name="Grupo 1119639">
              <path id="Trazado_917279" data-name="Trazado 917279" d="M5378.7,1905.77a.175.175,0,0,1-.176-.176v-7.949a.176.176,0,1,1,.352,0v7.949A.176.176,0,0,1,5378.7,1905.77Z" transform="translate(-5378.528 -1897.469)" fill="#451d26"/>
            </g>
          </g>
          <g id="Grupo_1119642" data-name="Grupo 1119642" transform="translate(6.432 21.498)">
            <g id="Grupo_1119641" data-name="Grupo 1119641">
              <path id="Trazado_917280" data-name="Trazado 917280" d="M5374.234,1936.552h-9.473a.176.176,0,1,1,0-.352h9.473a.176.176,0,1,1,0,.352Z" transform="translate(-5364.584 -1936.2)" fill="#451d26"/>
            </g>
          </g>
          <g id="Grupo_1119644" data-name="Grupo 1119644" transform="translate(0 0)">
            <g id="Grupo_1119643" data-name="Grupo 1119643" transform="translate(0)">
              <circle id="Elipse_11882" data-name="Elipse 11882" cx="6.47" cy="6.47" r="6.47" transform="translate(0 9.15) rotate(-45)" fill="#ffa763"/>
            </g>
          </g>
          <g id="Grupo_1119646" data-name="Grupo 1119646" transform="translate(8.974 2.504)">
            <g id="Grupo_1119645" data-name="Grupo 1119645">
              <path id="Trazado_917281" data-name="Trazado 917281" d="M5376.933,1858.53a.176.176,0,1,1,0-.352,6.294,6.294,0,0,0,0-12.588.176.176,0,1,1,0-.352,6.646,6.646,0,0,1,0,13.292Z" transform="translate(-5376.757 -1845.238)" fill="#451d26"/>
            </g>
          </g>
        </g>
        <g id="Grupo_1119649" data-name="Grupo 1119649" transform="translate(22.936 50.013)">
          <g id="Grupo_1119648" data-name="Grupo 1119648">
            <path id="Trazado_917282" data-name="Trazado 917282" d="M5352.588,1765.522a.174.174,0,0,1-.123-.051.176.176,0,0,1,0-.249l5.269-5.361a.176.176,0,1,1,.25.247l-5.269,5.361A.171.171,0,0,1,5352.588,1765.522Z" transform="translate(-5352.412 -1759.809)" fill="#451d26"/>
          </g>
        </g>
        <g id="Grupo_1119651" data-name="Grupo 1119651" transform="translate(32.456 53.988)">
          <g id="Grupo_1119650" data-name="Grupo 1119650">
            <path id="Trazado_917283" data-name="Trazado 917283" d="M5398.18,1786.312a.165.165,0,0,1-.059-.011.175.175,0,0,1-.106-.225l2.588-7.117a.176.176,0,0,1,.331.12l-2.588,7.117A.175.175,0,0,1,5398.18,1786.312Z" transform="translate(-5398.004 -1778.843)" fill="#451d26"/>
          </g>
        </g>
        <g id="Grupo_1119653" data-name="Grupo 1119653" transform="translate(45.765 56.483)">
          <g id="Grupo_1119652" data-name="Grupo 1119652">
            <path id="Trazado_917284" data-name="Trazado 917284" d="M5462.1,1798.448a.176.176,0,0,1-.176-.172l-.186-7.3a.177.177,0,0,1,.172-.18.173.173,0,0,1,.181.172l.184,7.3a.177.177,0,0,1-.171.181Z" transform="translate(-5461.742 -1790.794)" fill="#451d26"/>
          </g>
        </g>
        <g id="Grupo_1119655" data-name="Grupo 1119655" transform="translate(53.899 54.819)">
          <g id="Grupo_1119654" data-name="Grupo 1119654">
            <path id="Trazado_917285" data-name="Trazado 917285" d="M5501.887,1787.153a.177.177,0,0,1-.171-.132l-1.016-3.975a.176.176,0,0,1,.341-.087l1.017,3.975a.176.176,0,0,1-.127.214A.166.166,0,0,1,5501.887,1787.153Z" transform="translate(-5500.695 -1782.826)" fill="#451d26"/>
          </g>
        </g>
      </g>
      <g id="Grupo_1119831" data-name="Grupo 1119831" transform="translate(4481.072 562.712)">
        <g id="Grupo_1119658" data-name="Grupo 1119658" transform="translate(70.24 66.552)">
          <g id="Grupo_1119657" data-name="Grupo 1119657">
            <path id="Trazado_917286" data-name="Trazado 917286" d="M5025.892,984.552s9.108,29.348,13.561,31.575-5.667,6.477-5.667,6.477c-17.812-8.3-23.682-29.349-23.682-29.349Z" transform="translate(-5010.104 -984.552)" fill="#ff7c6d"/>
          </g>
        </g>
        <g id="Grupo_1119660" data-name="Grupo 1119660" transform="translate(0.178 43.276)">
          <g id="Grupo_1119659" data-name="Grupo 1119659">
            <path id="Trazado_917287" data-name="Trazado 917287" d="M4701.535,873.084c-4,3.354-14.74,9.75-22,13.948a9.882,9.882,0,0,0-4.557,5.816,9.7,9.7,0,0,0,.793,7.369c7.938,14.564,26.268,29.575,25.767,29.742-4.453,4.251-2.631,10.93-2.631,10.93-2.226-1.619-5.464.607-5.464.607l9.715,2.226,8.1-14.775s-12.347-14.168-16.6-28.741l18.217-12.144Z" transform="translate(-4674.585 -873.084)" fill="#ff7c6d"/>
          </g>
        </g>
        <g id="Grupo_1119662" data-name="Grupo 1119662" transform="translate(0.178 58.436)">
          <g id="Grupo_1119661" data-name="Grupo 1119661">
            <path id="Trazado_917288" data-name="Trazado 917288" d="M4677.867,945.688a9.888,9.888,0,0,0-2.893,4.6,9.7,9.7,0,0,0,.793,7.37c.093.171.195.342.292.514a6.774,6.774,0,0,0,1.808-12.486Z" transform="translate(-4674.585 -945.688)" fill="#ff6a59"/>
          </g>
        </g>
        <g id="Grupo_1119664" data-name="Grupo 1119664" transform="translate(0 43.1)">
          <g id="Grupo_1119663" data-name="Grupo 1119663">
            <path id="Trazado_917289" data-name="Trazado 917289" d="M4702.479,943.231a.17.17,0,0,1-.039,0L4692.725,941a.178.178,0,0,1-.135-.139.176.176,0,0,1,.074-.178c.129-.089,3.039-2.056,5.3-.836-.305-1.535-1.046-6.94,2.684-10.6-.233-.279-1.109-1.1-2.189-2.109-5.2-4.867-17.392-16.264-23.521-27.509a9.856,9.856,0,0,1-.808-7.5,10.032,10.032,0,0,1,4.638-5.919c7.877-4.552,18.083-10.663,21.979-13.93a.177.177,0,0,1,.133-.04.174.174,0,0,1,.121.069l11.334,14.978a.176.176,0,0,1-.042.253l-18.108,12.072c4.224,14.325,16.4,28.41,16.524,28.551a.177.177,0,0,1,.021.2l-8.1,14.775A.177.177,0,0,1,4702.479,943.231Zm-9.254-2.477,9.164,2.1,7.974-14.552c-1.073-1.258-12.52-14.885-16.553-28.714a.176.176,0,0,1,.072-.2l18.061-12.041L4700.83,872.67c-4.015,3.31-14.091,9.343-21.887,13.847a9.683,9.683,0,0,0-4.475,5.712,9.5,9.5,0,0,0,.779,7.236c6.1,11.2,18.261,22.565,23.453,27.42,2.308,2.158,2.381,2.251,2.341,2.434a.2.2,0,0,1-.06.1h0c-4.324,4.127-2.6,10.69-2.583,10.756a.176.176,0,0,1-.273.189C4696.448,939.145,4694.111,940.25,4693.225,940.754Z" transform="translate(-4673.732 -872.241)" fill="#451d26"/>
          </g>
        </g>
        <g id="Grupo_1119666" data-name="Grupo 1119666" transform="translate(100.398 235.896)">
          <g id="Grupo_1119665" data-name="Grupo 1119665">
            <path id="Trazado_917290" data-name="Trazado 917290" d="M5163.568,1795.524l-9.04,7.556,6.966,12.264.185.555,1.485,1.889,8.771-2.294,1.62-13.763Z" transform="translate(-5154.528 -1795.524)" fill="#ff7c6d"/>
          </g>
        </g>
        <g id="Grupo_1119668" data-name="Grupo 1119668" transform="translate(49.999 241.782)">
          <g id="Grupo_1119667" data-name="Grupo 1119667">
            <path id="Trazado_917291" data-name="Trazado 917291" d="M4913.808,1835.777l-.329-8.37,13-3.694,4.6,10.576s-12.044,6.426-12.347,6.426-5.566-1.315-5.566-1.771S4913.808,1835.777,4913.808,1835.777Z" transform="translate(-4913.175 -1823.713)" fill="#ff7c6d"/>
          </g>
        </g>
        <g id="Grupo_1119670" data-name="Grupo 1119670" transform="translate(59.108 85.173)">
          <g id="Grupo_1119669" data-name="Grupo 1119669">
            <path id="Trazado_917292" data-name="Trazado 917292" d="M4974.807,1076.458s9.917,16.293,12.346,32.081,13.359,51.815,13.359,51.815c2.023,29.146,17.541,63.015,17.541,63.015l-27.122,18.216c-17.812-20.24-23.613-74.349-23.613-74.349l-10.525-33.6,2.024-59.911Z" transform="translate(-4956.793 -1073.726)" fill="#6693a3"/>
          </g>
        </g>
        <g id="Grupo_1119672" data-name="Grupo 1119672" transform="translate(58.932 84.997)">
          <g id="Grupo_1119671" data-name="Grupo 1119671">
            <path id="Trazado_917293" data-name="Trazado 917293" d="M4990.265,1241.095a.176.176,0,0,1-.132-.059c-17.644-20.051-23.6-73.905-23.656-74.447l-10.518-33.565a.16.16,0,0,1-.007-.059l2.023-59.911a.178.178,0,0,1,.065-.13.176.176,0,0,1,.141-.037l15.99,2.733a.176.176,0,0,1,.121.082c.1.163,9.964,16.5,12.37,32.145,2.4,15.595,13.244,51.431,13.354,51.791a.209.209,0,0,1,.006.039c2,28.781,17.371,62.615,17.526,62.954a.176.176,0,0,1-.062.219l-27.122,18.216A.175.175,0,0,1,4990.265,1241.095ZM4956.3,1132.947l10.516,33.571c.065.573,5.985,54.11,23.477,74.17l26.87-18.047c-1.074-2.385-15.55-35.011-17.494-62.92-.3-1.005-10.979-36.346-13.358-51.82-2.316-15.056-11.583-30.777-12.282-31.948l-15.712-2.685Z" transform="translate(-4955.951 -1072.884)" fill="#451d26"/>
          </g>
        </g>
        <g id="Grupo_1119674" data-name="Grupo 1119674" transform="translate(26.031 83.689)">
          <g id="Grupo_1119673" data-name="Grupo 1119673">
            <path id="Trazado_917294" data-name="Trazado 917294" d="M4823.981,1070.835c-16.935,8.737-25.032,17.1-25.57,26.279s11.6,136.554,11.6,136.554l34-5.128-9.445-132.506c4.318-2.159,5.667-3.238,5.667-7.017s2.159-22.4,2.159-22.4Z" transform="translate(-4798.393 -1066.618)" fill="#6693a3"/>
          </g>
        </g>
        <g id="Grupo_1119676" data-name="Grupo 1119676" transform="translate(25.855 87.729)">
          <g id="Grupo_1119675" data-name="Grupo 1119675">
            <path id="Trazado_917295" data-name="Trazado 917295" d="M4809.348,1249.153a.175.175,0,0,1-.175-.159c-.122-1.274-12.139-127.5-11.6-136.581.546-9.275,8.7-17.672,25.665-26.425a.176.176,0,1,1,.163.313c-16.843,8.689-24.938,16.994-25.477,26.132-.522,8.9,11.06,130.807,11.587,136.342l33.659-5.075-9.435-132.344a.176.176,0,0,1,.1-.17c4.209-2.1,5.569-3.1,5.569-6.859,0-.933.132-2.851.392-5.7a.176.176,0,1,1,.35.032c-.258,2.839-.389,4.747-.389,5.669,0,3.908-1.47,5.021-5.659,7.121l9.437,132.389a.176.176,0,0,1-.148.187l-34,5.128Z" transform="translate(-4797.551 -1085.968)" fill="#451d26"/>
          </g>
        </g>
        <g id="Grupo_1119678" data-name="Grupo 1119678" transform="translate(24.193 33.948)">
          <g id="Grupo_1119677" data-name="Grupo 1119677">
            <path id="Trazado_917296" data-name="Trazado 917296" d="M4842.518,882.371h-25.5c1.719-1.214,2.934-5.364,0-9.007a43.437,43.437,0,0,1-9.614-20.443l-7.489,4.757-10.323-19.026s22.164-10.728,25.705-10.221,5.87,4.048,9.209,6.679l12.752,3.744a34.7,34.7,0,0,0,4.756,1.923c4.149,1.518,7.59,6.983,9.007,11.74a73.44,73.44,0,0,0,4.048,10.019l-4.757,2.53C4849.3,868.912,4842.113,874.174,4842.518,882.371Z" transform="translate(-4789.589 -828.414)" fill="#e2e9fb"/>
          </g>
        </g>
        <g id="Grupo_1119680" data-name="Grupo 1119680" transform="translate(59.068 27.067)">
          <g id="Grupo_1119679" data-name="Grupo 1119679">
            <path id="Trazado_917297" data-name="Trazado 917297" d="M4962.091,795.46c-1.113,6.477-1.906,13.375-5.447,13.578-.953,9.637,15.652,13.577,12.751,3.744,1.113-7.691,1.213-10.323,1.213-10.323S4962.6,795.46,4962.091,795.46Z" transform="translate(-4956.604 -795.46)" fill="#ff7c6d"/>
          </g>
        </g>
        <g id="Grupo_1119682" data-name="Grupo 1119682" transform="translate(66.789 30.098)">
          <g id="Grupo_1119681" data-name="Grupo 1119681">
            <path id="Trazado_917298" data-name="Trazado 917298" d="M4999.047,821.41c.738-5.5.815-7.464.815-7.464s-3.82-2.48-6.286-3.968C4993.57,811.551,4993.895,817.609,4999.047,821.41Z" transform="translate(-4993.576 -809.979)" fill="#ff6a59"/>
          </g>
        </g>
        <g id="Grupo_1119684" data-name="Grupo 1119684" transform="translate(109.963 58.759)">
          <g id="Grupo_1119683" data-name="Grupo 1119683">
            <path id="Trazado_917299" data-name="Trazado 917299" d="M5207.671,947.234c-4.351,0-6.375,5.06-7.285,8.2s11.335,1.923,11.638,1.822,4.453-5.667,4.453-6.173-3.745-3.846-3.745-3.846Z" transform="translate(-5200.337 -947.234)" fill="#e6c8aa"/>
          </g>
        </g>
        <g id="Grupo_1119686" data-name="Grupo 1119686" transform="translate(109.788 58.584)">
          <g id="Grupo_1119685" data-name="Grupo 1119685">
            <path id="Trazado_917300" data-name="Trazado 917300" d="M5206.1,957.074c-2.563,0-5.279-.243-6.217-1.145a1.154,1.154,0,0,1-.326-1.213c1.581-5.446,4.159-8.324,7.456-8.324a.176.176,0,0,1,0,.352c-3.124,0-5.584,2.791-7.118,8.07a.793.793,0,0,0,.2.83c1.708,1.767,10.831.872,11.218.774a.181.181,0,0,1,.216.12.173.173,0,0,1-.11.215A40.09,40.09,0,0,1,5206.1,957.074Z" transform="translate(-5199.499 -946.392)" fill="#451d26"/>
          </g>
        </g>
        <g id="Grupo_1119688" data-name="Grupo 1119688" transform="translate(85.015 65.54)">
          <g id="Grupo_1119687" data-name="Grupo 1119687">
            <path id="Trazado_917301" data-name="Trazado 917301" d="M5110.817,1029.092h-29.956l23.884-49.386H5134.7Z" transform="translate(-5080.861 -979.706)" fill="#e9595c"/>
          </g>
        </g>
        <g id="Grupo_1119697" data-name="Grupo 1119697" transform="translate(114.405 79.646)">
          <g id="Grupo_1119690" data-name="Grupo 1119690" transform="translate(0.176 0.176)">
            <g id="Grupo_1119689" data-name="Grupo 1119689">
              <path id="Trazado_917302" data-name="Trazado 917302" d="M5240.7,1053.629c-.859-3.534-10.442-5.156-12.925-5.519a.752.752,0,0,0-.57,1.336l6.158,4.813-10.127,3.044a1.105,1.105,0,0,0-.747.763,1.089,1.089,0,0,0-.02.518,1.108,1.108,0,0,0,1.016.886l.788.05-.808.414a.616.616,0,0,0-.3.348.624.624,0,0,0,0,.407.617.617,0,0,0,.557.409l5.243.2-4.175.572a.69.69,0,0,0-.5.332.735.735,0,0,0-.077.195.689.689,0,0,0,.589.835c3.259.393,4.768,1.332,4,7.781h0a11.536,11.536,0,0,0,12.472-12.154A33.65,33.65,0,0,0,5240.7,1053.629Z" transform="translate(-5222.448 -1048.101)" fill="#ff7c6d"/>
            </g>
          </g>
          <g id="Grupo_1119692" data-name="Grupo 1119692">
            <g id="Grupo_1119691" data-name="Grupo 1119691">
              <path id="Trazado_917303" data-name="Trazado 917303" d="M5229.1,1070.566c-.326,0-.652-.014-.98-.041a.175.175,0,0,1-.122-.064.178.178,0,0,1-.039-.132c.755-6.329-.662-7.2-3.845-7.586a.862.862,0,0,1-.015-1.711l2.188-.3-3.24-.126a.792.792,0,0,1-.331-1.5l.24-.123-.15-.01a1.284,1.284,0,0,1-.289-2.511l9.8-2.946-5.891-4.6a.933.933,0,0,1-.354-.658.947.947,0,0,1,.065-.421.925.925,0,0,1,.992-.569c2.845.416,12.2,2.053,13.071,5.652h0a33.13,33.13,0,0,1,.579,5.266,11.715,11.715,0,0,1-11.683,12.38Zm-.77-.378a11.359,11.359,0,0,0,12.1-11.983,32.776,32.776,0,0,0-.57-5.2h0c-.844-3.472-10.793-5.1-12.779-5.387a.591.591,0,0,0-.143,0,.575.575,0,0,0-.473.357.567.567,0,0,0-.04.261.577.577,0,0,0,.219.409l6.158,4.813a.176.176,0,0,1-.058.307l-10.126,3.044a.924.924,0,0,0-.629.642.914.914,0,0,0-.017.436.93.93,0,0,0,.854.745l.788.05a.176.176,0,0,1,.069.332l-.808.415a.439.439,0,0,0-.057.747.433.433,0,0,0,.241.083l5.243.2a.176.176,0,0,1,.017.35l-4.174.572a.508.508,0,0,0-.429.393.5.5,0,0,0,.022.3.51.51,0,0,0,.416.323C5227.674,1062.817,5229.043,1064,5228.334,1070.188Z" transform="translate(-5221.607 -1047.258)" fill="#451d26"/>
            </g>
          </g>
          <g id="Grupo_1119694" data-name="Grupo 1119694" transform="translate(2.342 9.939)">
            <g id="Grupo_1119693" data-name="Grupo 1119693">
              <path id="Trazado_917304" data-name="Trazado 917304" d="M5233,1096.48a.176.176,0,0,1-.049-.345,27.1,27.1,0,0,1,7.659-1.281.175.175,0,0,1,.17.181.172.172,0,0,1-.181.17,26.843,26.843,0,0,0-7.548,1.267A.181.181,0,0,1,5233,1096.48Z" transform="translate(-5232.822 -1094.853)" fill="#451d26"/>
            </g>
          </g>
          <g id="Grupo_1119696" data-name="Grupo 1119696" transform="translate(6.864 13.204)">
            <g id="Grupo_1119695" data-name="Grupo 1119695">
              <path id="Trazado_917305" data-name="Trazado 917305" d="M5254.655,1110.855a.176.176,0,0,1-.007-.352c.745-.027,1.035-.009,1.047-.008a.176.176,0,1,1-.022.351s-.288-.017-1.011.009Z" transform="translate(-5254.479 -1110.489)" fill="#451d26"/>
            </g>
          </g>
        </g>
        <g id="Grupo_1119699" data-name="Grupo 1119699" transform="translate(117.298 58.76)">
          <g id="Grupo_1119698" data-name="Grupo 1119698">
            <path id="Trazado_917306" data-name="Trazado 917306" d="M5261.842,947.235h-26.379c7.084,0,1.113,14.37,1.113,14.37h26.38S5268.926,947.235,5261.842,947.235Z" transform="translate(-5235.463 -947.235)" fill="#fff"/>
          </g>
        </g>
        <g id="Grupo_1119701" data-name="Grupo 1119701" transform="translate(117.122 58.584)">
          <g id="Grupo_1119700" data-name="Grupo 1119700">
            <path id="Trazado_917307" data-name="Trazado 917307" d="M5262.289,961.114h-26.38a.176.176,0,0,1-.163-.243c.041-.095,3.9-9.489,1.619-12.906a2.879,2.879,0,0,0-2.569-1.221.176.176,0,1,1,0-.352,3.208,3.208,0,0,1,2.861,1.377c2.2,3.3-.872,11.445-1.488,12.993h26.119a.176.176,0,0,1,0,.352Z" transform="translate(-5234.62 -946.392)" fill="#451d26"/>
          </g>
        </g>
        <g id="Grupo_1119703" data-name="Grupo 1119703" transform="translate(41.829 55.143)">
          <g id="Grupo_1119702" data-name="Grupo 1119702">
            <path id="Trazado_917308" data-name="Trazado 917308" d="M4874.222,933.4a.176.176,0,0,1-.1-.32l4.453-3.137a.176.176,0,0,1,.2.288l-4.453,3.137A.176.176,0,0,1,4874.222,933.4Z" transform="translate(-4874.045 -929.914)" fill="#451d26"/>
          </g>
        </g>
        <g id="Grupo_1119733" data-name="Grupo 1119733" transform="translate(46.878 248.272)">
          <g id="Grupo_1119732" data-name="Grupo 1119732">
            <g id="Grupo_1119727" data-name="Grupo 1119727">
              <g id="Grupo_1119706" data-name="Grupo 1119706" transform="translate(0.176 0.176)">
                <g id="Grupo_1119705" data-name="Grupo 1119705">
                  <g id="Grupo_1119704" data-name="Grupo 1119704">
                    <path id="Trazado_917309" data-name="Trazado 917309" d="M4901.972,1861.448a.792.792,0,0,1,1.33-.1c1.165,1.56,3.8,4.161,7.577,2.447a.778.778,0,0,0,.212-.143.8.8,0,0,0,.127-.154c.741-1.172,4.857-7.289,10.41-7.859a.834.834,0,0,1,.52.115.766.766,0,0,1,.326.4c.432,1.207,1.7,4.041,4.285,4.963,0,0,18.85,5.832,22.233,15.214a.771.771,0,0,1-.1.718.8.8,0,0,1-.653.331l-48.191-.268a.792.792,0,0,1-.61-.291.77.77,0,0,1-.168-.389A25.422,25.422,0,0,1,4901.972,1861.448Z" transform="translate(-4899.068 -1855.634)" fill="#e9595c"/>
                  </g>
                </g>
              </g>
              <g id="Grupo_1119709" data-name="Grupo 1119709" transform="translate(12.199 0.176)">
                <g id="Grupo_1119708" data-name="Grupo 1119708">
                  <g id="Grupo_1119707" data-name="Grupo 1119707">
                    <path id="Trazado_917310" data-name="Trazado 917310" d="M4994.016,1875.136l-19.968-.118-17.4-11.366a.766.766,0,0,0,.127-.154c.741-1.172,4.857-7.289,10.41-7.859a.834.834,0,0,1,.52.115.76.76,0,0,1,.325.4c.433,1.207,1.7,4.041,4.284,4.963C4972.313,1861.115,4989.562,1866.457,4994.016,1875.136Z" transform="translate(-4956.646 -1855.634)" fill="#fff"/>
                  </g>
                </g>
              </g>
              <g id="Grupo_1119714" data-name="Grupo 1119714" transform="translate(7.596 8.984)">
                <g id="Grupo_1119711" data-name="Grupo 1119711" transform="translate(0 0)">
                  <g id="Grupo_1119710" data-name="Grupo 1119710" transform="translate(0)">
                    <circle id="Elipse_11883" data-name="Elipse 11883" cx="2.673" cy="2.673" r="2.673" transform="translate(0 4.517) rotate(-57.659)" fill="#fff"/>
                  </g>
                </g>
                <g id="Grupo_1119713" data-name="Grupo 1119713" transform="translate(3.509 0.839)">
                  <g id="Grupo_1119712" data-name="Grupo 1119712">
                    <path id="Trazado_917311" data-name="Trazado 917311" d="M4951.587,1907.531a.18.18,0,0,1-.18-.176.173.173,0,0,1,.176-.176,2.5,2.5,0,0,0,.007-4.995.175.175,0,0,1-.175-.176.167.167,0,0,1,.175-.176,2.849,2.849,0,0,1,0,5.7Z" transform="translate(-4951.407 -1901.833)" fill="#451d26"/>
                  </g>
                </g>
              </g>
              <g id="Grupo_1119717" data-name="Grupo 1119717" transform="translate(0.177 14.303)">
                <g id="Grupo_1119716" data-name="Grupo 1119716">
                  <g id="Grupo_1119715" data-name="Grupo 1119715">
                    <path id="Trazado_917312" data-name="Trazado 917312" d="M4899.129,1928.484a26.451,26.451,0,0,1,.185-5.193,56.9,56.9,0,0,1,16.775,4.538Z" transform="translate(-4899.076 -1923.291)" fill="#fff"/>
                  </g>
                </g>
              </g>
              <g id="Grupo_1119720" data-name="Grupo 1119720" transform="translate(0.176 14.676)">
                <g id="Grupo_1119719" data-name="Grupo 1119719">
                  <g id="Grupo_1119718" data-name="Grupo 1119718">
                    <path id="Trazado_917313" data-name="Trazado 917313" d="M4937.789,1928.476v-1.206a2.2,2.2,0,0,1,2.2-2.193l4.272.006a19.121,19.121,0,0,1,3.244,3.447h.011c.022.033.042.066.065.1l.011.016a11.29,11.29,0,0,1,1.4,2.627.77.77,0,0,1-.1.718.8.8,0,0,1-.652.331l-48.192-.267a.792.792,0,0,1-.61-.292.774.774,0,0,1-.168-.389,23.9,23.9,0,0,1-.2-3.112Z" transform="translate(-4899.069 -1925.077)" fill="#fff"/>
                  </g>
                </g>
              </g>
              <g id="Grupo_1119723" data-name="Grupo 1119723" transform="translate(0 14.501)">
                <g id="Grupo_1119722" data-name="Grupo 1119722">
                  <g id="Grupo_1119721" data-name="Grupo 1119721">
                    <path id="Trazado_917314" data-name="Trazado 917314" d="M4947.574,1931.83h-.005l-48.192-.267a.966.966,0,0,1-.746-.356.949.949,0,0,1-.206-.476,23.909,23.909,0,0,1-.2-3.136.177.177,0,0,1,.052-.125.2.2,0,0,1,.125-.051l38.542.214V1926.6a2.372,2.372,0,0,1,2.372-2.368h0l4.272.006a.177.177,0,0,1,.114.042,19.358,19.358,0,0,1,3.247,3.442.134.134,0,0,1,.036.036l.067.1a11.58,11.58,0,0,1,1.433,2.685.947.947,0,0,1-.127.881A.977.977,0,0,1,4947.574,1931.83Zm-49-4.058a23.518,23.518,0,0,0,.2,2.912.6.6,0,0,0,.13.3.615.615,0,0,0,.475.227l48.191.268h0a.617.617,0,0,0,.5-.258.591.591,0,0,0,.082-.555,11.18,11.18,0,0,0-1.38-2.586l-.053-.079a.151.151,0,0,1-.034-.034,18.929,18.929,0,0,0-3.166-3.373l-4.208-.006h0a2.02,2.02,0,0,0-2.021,2.017l0,1.206a.175.175,0,0,1-.051.125.236.236,0,0,1-.125.051Z" transform="translate(-4898.226 -1924.235)" fill="#451d26"/>
                  </g>
                </g>
              </g>
              <g id="Grupo_1119726" data-name="Grupo 1119726" transform="translate(0.005)">
                <g id="Grupo_1119725" data-name="Grupo 1119725">
                  <g id="Grupo_1119724" data-name="Grupo 1119724">
                    <path id="Trazado_917315" data-name="Trazado 917315" d="M4947.592,1876.889h0l-48.192-.268a.966.966,0,0,1-.746-.356.955.955,0,0,1-.206-.476,25.773,25.773,0,0,1,2.726-15.09.968.968,0,0,1,1.625-.121c1.194,1.6,3.74,4.037,7.364,2.392a.635.635,0,0,0,.165-.111.629.629,0,0,0,.1-.121c.774-1.225,4.922-7.363,10.542-7.94a1.031,1.031,0,0,1,.629.14.944.944,0,0,1,.4.49,10.707,10.707,0,0,0,1.311,2.546.176.176,0,1,1-.287.2,11.053,11.053,0,0,1-1.355-2.631.594.594,0,0,0-.251-.307.666.666,0,0,0-.411-.09c-5.458.56-9.52,6.578-10.279,7.778a.982.982,0,0,1-.155.189.961.961,0,0,1-.26.175c-3.849,1.747-6.533-.818-7.792-2.5a.6.6,0,0,0-.509-.245.613.613,0,0,0-.524.323,25.424,25.424,0,0,0-2.687,14.875.614.614,0,0,0,.606.528l48.191.268h0a.618.618,0,0,0,.505-.259.59.59,0,0,0,.082-.555c-1.745-4.838-7.75-8.718-12.481-11.121a.176.176,0,1,1,.159-.314c4.787,2.432,10.868,6.369,12.652,11.315a.948.948,0,0,1-.127.881A.981.981,0,0,1,4947.592,1876.889Z" transform="translate(-4898.25 -1854.793)" fill="#451d26"/>
                  </g>
                </g>
              </g>
            </g>
            <g id="Grupo_1119729" data-name="Grupo 1119729" transform="translate(21.66 4.876)">
              <g id="Grupo_1119728" data-name="Grupo 1119728">
                <path id="Trazado_917316" data-name="Trazado 917316" d="M5002.13,1882.57l-.027,0a.175.175,0,0,1-.147-.2,4.949,4.949,0,0,1,2.085-3.2,5.211,5.211,0,0,1,3.9-.955.176.176,0,1,1-.063.346,4.86,4.86,0,0,0-3.638.9,4.6,4.6,0,0,0-1.941,2.963A.176.176,0,0,1,5002.13,1882.57Z" transform="translate(-5001.955 -1878.144)" fill="#451d26"/>
              </g>
            </g>
            <g id="Grupo_1119731" data-name="Grupo 1119731" transform="translate(27.531 6.884)">
              <g id="Grupo_1119730" data-name="Grupo 1119730">
                <path id="Trazado_917317" data-name="Trazado 917317" d="M5030.246,1891.829a.177.177,0,0,1-.17-.222,5.151,5.151,0,0,1,2.7-3.406,3.445,3.445,0,0,1,2.708-.27.176.176,0,1,1-.137.324,3.142,3.142,0,0,0-2.417.263,4.807,4.807,0,0,0-2.511,3.18A.176.176,0,0,1,5030.246,1891.829Z" transform="translate(-5030.07 -1887.761)" fill="#451d26"/>
              </g>
            </g>
          </g>
        </g>
        <g id="Grupo_1119763" data-name="Grupo 1119763" transform="translate(106.921 235.849)">
          <g id="Grupo_1119762" data-name="Grupo 1119762">
            <g id="Grupo_1119757" data-name="Grupo 1119757">
              <g id="Grupo_1119736" data-name="Grupo 1119736" transform="translate(0.176 0.171)">
                <g id="Grupo_1119735" data-name="Grupo 1119735">
                  <g id="Grupo_1119734" data-name="Grupo 1119734">
                    <path id="Trazado_917318" data-name="Trazado 917318" d="M5186.624,1816.567a.79.79,0,0,1,.251-.75.781.781,0,0,1,.706-.178c1.894.45,5.585.755,7.383-2.98a.772.772,0,0,0,.071-.247.807.807,0,0,0,0-.2c-.182-1.375-.946-8.707,2.951-12.705a.837.837,0,0,1,.473-.245.764.764,0,0,1,.5.1c1.106.649,3.893,2.014,6.47,1.062,0,0,18.206-7.611,26.818-2.58a.77.77,0,0,1,.38.618.8.8,0,0,1-.288.672l-37.155,30.692a.791.791,0,0,1-.655.168.778.778,0,0,1-.378-.19A25.42,25.42,0,0,1,5186.624,1816.567Z" transform="translate(-5186.607 -1796.122)" fill="#e9595c"/>
                  </g>
                </g>
              </g>
              <g id="Grupo_1119739" data-name="Grupo 1119739" transform="translate(8.42 0.179)">
                <g id="Grupo_1119738" data-name="Grupo 1119738">
                  <g id="Grupo_1119737" data-name="Grupo 1119737">
                    <path id="Trazado_917319" data-name="Trazado 917319" d="M5262.312,1797.294l-15.4,12.712-20.642,2.434a.833.833,0,0,0,0-.2c-.183-1.374-.946-8.707,2.951-12.705a.835.835,0,0,1,.473-.245.768.768,0,0,1,.505.1c1.1.65,3.893,2.014,6.469,1.062C5236.667,1800.448,5253.328,1793.489,5262.312,1797.294Z" transform="translate(-5226.086 -1796.156)" fill="#fff"/>
                  </g>
                </g>
              </g>
              <g id="Grupo_1119744" data-name="Grupo 1119744" transform="translate(7.869 17.58)">
                <g id="Grupo_1119741" data-name="Grupo 1119741" transform="translate(0 0)">
                  <g id="Grupo_1119740" data-name="Grupo 1119740" transform="translate(0)">
                    <circle id="Elipse_11884" data-name="Elipse 11884" cx="2.673" cy="2.673" r="2.673" transform="matrix(0.996, -0.091, 0.091, 0.996, 0, 0.485)" fill="#fff"/>
                  </g>
                </g>
                <g id="Grupo_1119743" data-name="Grupo 1119743" transform="translate(1.018 0.057)">
                  <g id="Grupo_1119742" data-name="Grupo 1119742">
                    <path id="Trazado_917320" data-name="Trazado 917320" d="M5231.921,1884.841a.176.176,0,0,1-.113-.311,2.5,2.5,0,1,0-3.2-3.838.176.176,0,0,1-.225-.271,2.849,2.849,0,1,1,3.646,4.379A.173.173,0,0,1,5231.921,1884.841Z" transform="translate(-5228.323 -1879.763)" fill="#451d26"/>
                  </g>
                </g>
              </g>
              <g id="Grupo_1119747" data-name="Grupo 1119747" transform="translate(3.478 21.434)">
                <g id="Grupo_1119746" data-name="Grupo 1119746">
                  <g id="Grupo_1119745" data-name="Grupo 1119745">
                    <path id="Trazado_917321" data-name="Trazado 917321" d="M5205.606,1909.321a26.521,26.521,0,0,1-3.187-4.1,56.886,56.886,0,0,1,15.783-7.273Z" transform="translate(-5202.419 -1897.945)" fill="#fff"/>
                  </g>
                </g>
              </g>
              <g id="Grupo_1119750" data-name="Grupo 1119750" transform="translate(5.574 0.176)">
                <g id="Grupo_1119749" data-name="Grupo 1119749">
                  <g id="Grupo_1119748" data-name="Grupo 1119748">
                    <path id="Trazado_917322" data-name="Trazado 917322" d="M5242.313,1802.9l-.772-.926a2.2,2.2,0,0,1,.282-3.092l3.283-2.735a19.127,19.127,0,0,1,4.7.565l.009-.007c.038.01.075.023.114.033l.019.006a11.311,11.311,0,0,1,2.76,1.118.768.768,0,0,1,.379.618.8.8,0,0,1-.289.672l-37.154,30.693a.794.794,0,0,1-.656.167.783.783,0,0,1-.378-.19,23.841,23.841,0,0,1-2.147-2.262Z" transform="translate(-5212.46 -1796.144)" fill="#fff"/>
                  </g>
                </g>
              </g>
              <g id="Grupo_1119753" data-name="Grupo 1119753" transform="translate(5.398)">
                <g id="Grupo_1119752" data-name="Grupo 1119752">
                  <g id="Grupo_1119751" data-name="Grupo 1119751">
                    <path id="Trazado_917323" data-name="Trazado 917323" d="M5214.47,1829.532a.982.982,0,0,1-.185-.018.959.959,0,0,1-.463-.233,23.992,23.992,0,0,1-2.164-2.279.176.176,0,0,1,.023-.248l29.715-24.547-.659-.791a2.375,2.375,0,0,1,.305-3.34l3.282-2.734a.18.18,0,0,1,.113-.041,19.374,19.374,0,0,1,4.7.56.144.144,0,0,1,.05,0l.115.033a11.591,11.591,0,0,1,2.821,1.141.952.952,0,0,1,.467.758.977.977,0,0,1-.352.819l-37.155,30.693A.964.964,0,0,1,5214.47,1829.532Zm-2.428-2.62a23.475,23.475,0,0,0,2.017,2.109.6.6,0,0,0,.292.147.613.613,0,0,0,.509-.13l37.156-30.692a.617.617,0,0,0,.224-.524.59.59,0,0,0-.293-.479,11.178,11.178,0,0,0-2.716-1.1l-.093-.027a.17.17,0,0,1-.047,0,18.907,18.907,0,0,0-4.59-.559l-3.233,2.693a2.023,2.023,0,0,0-.26,2.845l.773.927a.175.175,0,0,1-.024.248Z" transform="translate(-5211.617 -1795.301)" fill="#451d26"/>
                  </g>
                </g>
              </g>
              <g id="Grupo_1119756" data-name="Grupo 1119756" transform="translate(0 0.005)">
                <g id="Grupo_1119755" data-name="Grupo 1119755">
                  <g id="Grupo_1119754" data-name="Grupo 1119754">
                    <path id="Trazado_917324" data-name="Trazado 917324" d="M5194.017,1829.552a.977.977,0,0,1-.186-.018.959.959,0,0,1-.464-.233,25.784,25.784,0,0,1-7.583-13.328.963.963,0,0,1,.307-.917.952.952,0,0,1,.863-.218c1.942.461,5.46.7,7.185-2.885a.636.636,0,0,0,.056-.191.7.7,0,0,0,0-.156c-.19-1.436-.943-8.807,3-12.852a1.017,1.017,0,0,1,.572-.3.941.941,0,0,1,.62.119,10.677,10.677,0,0,0,2.64,1.113.176.176,0,0,1-.089.34,11.032,11.032,0,0,1-2.729-1.15.59.59,0,0,0-.391-.075.661.661,0,0,0-.372.194c-3.829,3.928-3.09,11.151-2.9,12.559a.971.971,0,0,1,0,.244.951.951,0,0,1-.088.3c-1.832,3.808-5.537,3.561-7.582,3.075a.607.607,0,0,0-.548.138.616.616,0,0,0-.2.584,25.418,25.418,0,0,0,7.477,13.138.6.6,0,0,0,.292.147.616.616,0,0,0,.511-.13l37.155-30.692a.622.622,0,0,0,.224-.525.59.59,0,0,0-.293-.478c-4.44-2.594-11.538-1.721-16.708-.532a.176.176,0,0,1-.079-.343c5.232-1.2,12.424-2.081,16.965.571a.947.947,0,0,1,.466.758.979.979,0,0,1-.351.82l-37.154,30.692A.969.969,0,0,1,5194.017,1829.552Z" transform="translate(-5185.765 -1795.326)" fill="#451d26"/>
                  </g>
                </g>
              </g>
            </g>
            <g id="Grupo_1119759" data-name="Grupo 1119759" transform="translate(15.815 4.041)">
              <g id="Grupo_1119758" data-name="Grupo 1119758">
                <path id="Trazado_917325" data-name="Trazado 917325" d="M5262.283,1821.788a.177.177,0,0,1-.151-.086,4.953,4.953,0,0,1-.449-3.789,5.217,5.217,0,0,1,2.385-3.237.176.176,0,0,1,.174.306,4.859,4.859,0,0,0-2.218,3.02,4.6,4.6,0,0,0,.411,3.518.176.176,0,0,1-.061.241A.174.174,0,0,1,5262.283,1821.788Z" transform="translate(-5261.5 -1814.654)" fill="#451d26"/>
              </g>
            </g>
            <g id="Grupo_1119761" data-name="Grupo 1119761" transform="translate(21.464 2.281)">
              <g id="Grupo_1119760" data-name="Grupo 1119760">
                <path id="Trazado_917326" data-name="Trazado 917326" d="M5289.252,1812.62a.173.173,0,0,1-.159-.1,5.148,5.148,0,0,1-.114-4.342,3.447,3.447,0,0,1,1.9-1.944.176.176,0,0,1,.1.337,3.14,3.14,0,0,0-1.687,1.751,4.8,4.8,0,0,0,.112,4.05.175.175,0,0,1-.085.234A.178.178,0,0,1,5289.252,1812.62Z" transform="translate(-5288.556 -1806.223)" fill="#451d26"/>
              </g>
            </g>
          </g>
        </g>
        <g id="Grupo_1119765" data-name="Grupo 1119765" transform="translate(70.671 172.637)">
          <g id="Grupo_1119764" data-name="Grupo 1119764">
            <path id="Trazado_917327" data-name="Trazado 917327" d="M5012.345,1498.807a.159.159,0,0,1-.03,0,.175.175,0,0,1-.143-.2,14.327,14.327,0,0,1,2.669-5.952.176.176,0,0,1,.271.226,14.27,14.27,0,0,0-2.594,5.788A.175.175,0,0,1,5012.345,1498.807Z" transform="translate(-5012.169 -1492.585)" fill="#451d26"/>
          </g>
        </g>
        <g id="Grupo_1119767" data-name="Grupo 1119767" transform="translate(71.48 176.483)">
          <g id="Grupo_1119766" data-name="Grupo 1119766">
            <path id="Trazado_917328" data-name="Trazado 917328" d="M5016.222,1514.592a.176.176,0,0,1-.153-.262c1.851-3.29,3.33-3.328,3.392-3.328a.176.176,0,1,1,0,.352c-.011,0-1.354.073-3.085,3.149A.175.175,0,0,1,5016.222,1514.592Z" transform="translate(-5016.045 -1511.002)" fill="#451d26"/>
          </g>
        </g>
        <g id="Grupo_1119769" data-name="Grupo 1119769" transform="translate(14.403 61.923)">
          <g id="Grupo_1119768" data-name="Grupo 1119768">
            <path id="Trazado_917329" data-name="Trazado 917329" d="M4748.549,971.036a.176.176,0,0,1-.164-.11c-2.677-6.643-5.556-8.193-5.585-8.208a.176.176,0,0,1,.162-.313c.123.063,3.024,1.626,5.75,8.389a.176.176,0,0,1-.1.229A.178.178,0,0,1,4748.549,971.036Z" transform="translate(-4742.706 -962.385)" fill="#451d26"/>
          </g>
        </g>
        <g id="Grupo_1119771" data-name="Grupo 1119771" transform="translate(49.63 0)">
          <g id="Grupo_1119770" data-name="Grupo 1119770" transform="translate(0)">
            <circle id="Elipse_11885" data-name="Elipse 11885" cx="6.877" cy="6.877" r="6.877" transform="matrix(0.079, -0.997, 0.997, 0.079, 0, 13.712)" fill="#451d26"/>
          </g>
        </g>
        <g id="Grupo_1119773" data-name="Grupo 1119773" transform="translate(54.96 3.851)">
          <g id="Grupo_1119772" data-name="Grupo 1119772">
            <path id="Trazado_917330" data-name="Trazado 917330" d="M4942.942,710.8a53.742,53.742,0,0,0-4.385-7.685c-2.572-3.664-2.559-10.63,3.466-12.582,1.355-2.308,5.459-3.568,8.583-3.792s5.905-2.744,8.138-2.43,8.168,7.525,5.34,13.534S4948.689,711.318,4942.942,710.8Z" transform="translate(-4936.931 -684.284)" fill="#451d26"/>
          </g>
        </g>
        <g id="Grupo_1119775" data-name="Grupo 1119775" transform="translate(61.858 9.464)">
          <g id="Grupo_1119774" data-name="Grupo 1119774">
            <path id="Trazado_917331" data-name="Trazado 917331" d="M4986.6,737.98c-5.309,2.63-12.16-1.672-15.643-6.551,0,0-1.216-1.331-.952-4.629,1.657-.386,4.566-5.381,3.442-8.857,1.449-.463,2.558-3.956,1.751-6.4,4.013-1.1,13.023-.159,14.09,7.576S4992.491,734.317,4986.6,737.98Z" transform="translate(-4969.966 -711.163)" fill="#ff7c6d"/>
          </g>
        </g>
        <g id="Grupo_1119777" data-name="Grupo 1119777" transform="translate(66.795 9.281)">
          <g id="Grupo_1119776" data-name="Grupo 1119776">
            <path id="Trazado_917332" data-name="Trazado 917332" d="M5001.771,738.263a13.707,13.707,0,0,1-8.1-3.16.176.176,0,1,1,.213-.28c4.008,3.049,8.14,3.89,11.336,2.307,5.013-3.115,4.056-9.218,3.044-15.678-.153-.98-.312-1.994-.452-3a8.063,8.063,0,0,0-3.655-5.875,13.717,13.717,0,0,0-10.213-1.555.176.176,0,1,1-.093-.34,14.042,14.042,0,0,1,10.5,1.6,8.4,8.4,0,0,1,3.811,6.121c.139,1.005.3,2.017.45,3,1.031,6.579,2,12.793-3.22,16.04A8.087,8.087,0,0,1,5001.771,738.263Z" transform="translate(-4993.604 -710.288)" fill="#451d26"/>
          </g>
        </g>
        <g id="Grupo_1119779" data-name="Grupo 1119779" transform="translate(65.362 23.053)">
          <g id="Grupo_1119778" data-name="Grupo 1119778">
            <path id="Trazado_917333" data-name="Trazado 917333" d="M4992.755,778.625a3.032,3.032,0,1,1-3.3-2.365A2.879,2.879,0,0,1,4992.755,778.625Z" transform="translate(-4986.745 -776.239)" fill="#ff6a59"/>
          </g>
        </g>
        <g id="Grupo_1119784" data-name="Grupo 1119784" transform="translate(67.473 19.633)">
          <g id="Grupo_1119783" data-name="Grupo 1119783">
            <path id="Trazado_917334" data-name="Trazado 917334" d="M4996.853,761.823c1.25-2.54,4.006-3.048,6.007,1.126C5000.764,764.784,4997.646,764.333,4996.853,761.823Z" transform="translate(-4996.853 -759.863)" fill="#fff"/>
            <g id="Grupo_1119782" data-name="Grupo 1119782" clip-path="url(#clip-path)">
              <g id="Grupo_1119781" data-name="Grupo 1119781" transform="translate(2.096 0.722)">
                <g id="Grupo_1119780" data-name="Grupo 1119780">
                  <path id="Trazado_917335" data-name="Trazado 917335" d="M5010.786,765.23a1.959,1.959,0,1,1-2.176-1.9A2.044,2.044,0,0,1,5010.786,765.23Z" transform="translate(-5006.893 -763.323)" fill="#451d26"/>
                </g>
              </g>
            </g>
          </g>
        </g>
        <g id="Grupo_1119793" data-name="Grupo 1119793" transform="translate(76.466 18.482)">
          <g id="Grupo_1119786" data-name="Grupo 1119786" transform="translate(0.176 0.175)">
            <g id="Grupo_1119785" data-name="Grupo 1119785">
              <path id="Trazado_917337" data-name="Trazado 917337" d="M5045.1,756.6a2.868,2.868,0,0,0-1.786-1.4c-1.068-.161-2.106.88-2.552,3.651C5042.713,760.2,5044.991,759.163,5045.1,756.6Z" transform="translate(-5040.765 -755.186)" fill="#fff"/>
            </g>
          </g>
          <g id="Grupo_1119788" data-name="Grupo 1119788">
            <g id="Grupo_1119787" data-name="Grupo 1119787">
              <path id="Trazado_917338" data-name="Trazado 917338" d="M5040.1,758.366l-.028,0a.177.177,0,0,1-.146-.2c.6-3.712,2.122-3.892,2.751-3.8a3.036,3.036,0,0,1,1.908,1.48.176.176,0,1,1-.293.194,2.705,2.705,0,0,0-1.667-1.325c-1.092-.164-1.972,1.145-2.351,3.5A.176.176,0,0,1,5040.1,758.366Z" transform="translate(-5039.923 -754.348)" fill="#451d26"/>
            </g>
          </g>
          <g id="Grupo_1119792" data-name="Grupo 1119792" transform="translate(0.176 0.175)">
            <g id="Grupo_1119791" data-name="Grupo 1119791" clip-path="url(#clip-path-2)">
              <g id="Grupo_1119790" data-name="Grupo 1119790" transform="translate(1.612 0.481)">
                <g id="Grupo_1119789" data-name="Grupo 1119789">
                  <path id="Trazado_917339" data-name="Trazado 917339" d="M5052.377,759.4a1.959,1.959,0,1,1-2.175-1.9A2.044,2.044,0,0,1,5052.377,759.4Z" transform="translate(-5048.484 -757.492)" fill="#451d26"/>
                </g>
              </g>
            </g>
          </g>
        </g>
        <g id="Grupo_1119800" data-name="Grupo 1119800" transform="translate(75.234 19.713)">
          <g id="Grupo_1119795" data-name="Grupo 1119795" transform="translate(0 0.176)">
            <g id="Grupo_1119794" data-name="Grupo 1119794">
              <path id="Trazado_917341" data-name="Trazado 917341" d="M5035.638,761.085a4.21,4.21,0,0,0,.448,3.359c.636.94,1.14,1.206.485,1.876-1.711.779-2.4.382-2.537-.334S5034.67,761.42,5035.638,761.085Z" transform="translate(-5034.019 -761.085)" fill="#ff7c6d"/>
            </g>
          </g>
          <g id="Grupo_1119797" data-name="Grupo 1119797" transform="translate(0.046 3.411)">
            <g id="Grupo_1119796" data-name="Grupo 1119796">
              <path id="Trazado_917342" data-name="Trazado 917342" d="M5036.192,776.577a1.377,1.377,0,0,0-.686,1.075c-.088.257-1.018.043-1.266.691.182.649.879.976,2.506.235.654-.67.15-.937-.485-1.877C5036.236,776.663,5036.216,776.617,5036.192,776.577Z" transform="translate(-5034.24 -776.577)" fill="#ff6a59"/>
            </g>
          </g>
          <g id="Grupo_1119799" data-name="Grupo 1119799" transform="translate(1.269)">
            <g id="Grupo_1119798" data-name="Grupo 1119798">
              <path id="Trazado_917343" data-name="Trazado 917343" d="M5041.38,765.829a.176.176,0,0,1-.126-.3c.414-.424.3-.576-.133-1.143-.111-.148-.239-.316-.373-.512a4.389,4.389,0,0,1-.463-3.528.176.176,0,1,1,.322.141,4.043,4.043,0,0,0,.433,3.189c.129.191.252.353.361.5.423.558.73.961.1,1.6A.176.176,0,0,1,5041.38,765.829Z" transform="translate(-5040.096 -760.242)" fill="#451d26"/>
            </g>
          </g>
        </g>
        <g id="Grupo_1119802" data-name="Grupo 1119802" transform="translate(56.442 23.244)">
          <g id="Grupo_1119801" data-name="Grupo 1119801">
            <path id="Trazado_917344" data-name="Trazado 917344" d="M4951.7,779.95c-3.386-3.873-7.486-3.413-7.659-.492s1.956,7.185,8.273,5.076C4952.455,780.916,4951.7,779.95,4951.7,779.95Z" transform="translate(-4944.027 -777.156)" fill="#ff7c6d"/>
          </g>
        </g>
        <g id="Grupo_1119804" data-name="Grupo 1119804" transform="translate(56.266 23.07)">
          <g id="Grupo_1119803" data-name="Grupo 1119803">
            <path id="Trazado_917345" data-name="Trazado 917345" d="M4948.542,784.613a5.289,5.289,0,0,1-3.307-1.026,5.675,5.675,0,0,1-2.041-4.8,2.459,2.459,0,0,1,1.695-2.295c1.395-.477,3.874-.061,6.272,2.682a.176.176,0,1,1-.264.232c-2.138-2.444-4.5-3.057-5.895-2.581a2.1,2.1,0,0,0-1.457,1.983,5.4,5.4,0,0,0,1.9,4.5c1.457,1.116,3.58,1.255,6.137.4a.176.176,0,0,1,.112.334A10,10,0,0,1,4948.542,784.613Z" transform="translate(-4943.185 -776.323)" fill="#451d26"/>
          </g>
        </g>
        <g id="Grupo_1119806" data-name="Grupo 1119806" transform="translate(58.236 25.012)">
          <g id="Grupo_1119805" data-name="Grupo 1119805">
            <path id="Trazado_917346" data-name="Trazado 917346" d="M4957.786,789.71c-.688-3.608-3.722-4.936-5.168-3.556A6.451,6.451,0,0,1,4957.786,789.71Z" transform="translate(-4952.618 -785.619)" fill="#ff6a59"/>
          </g>
        </g>
        <g id="Grupo_1119808" data-name="Grupo 1119808" transform="translate(58.06 24.835)">
          <g id="Grupo_1119807" data-name="Grupo 1119807">
            <path id="Trazado_917347" data-name="Trazado 917347" d="M4957.119,789.215a.175.175,0,0,1-.172-.143,4.7,4.7,0,0,0-2.863-3.825,1.96,1.96,0,0,0-2.011.363.176.176,0,1,1-.243-.255,2.3,2.3,0,0,1,2.36-.444,5.044,5.044,0,0,1,3.1,4.094.175.175,0,0,1-.14.206A.17.17,0,0,1,4957.119,789.215Z" transform="translate(-4951.775 -784.771)" fill="#451d26"/>
          </g>
        </g>
        <g id="Grupo_1119810" data-name="Grupo 1119810" transform="translate(60.199 26.549)">
          <g id="Grupo_1119809" data-name="Grupo 1119809">
            <path id="Trazado_917348" data-name="Trazado 917348" d="M4962.755,795.837a.173.173,0,0,1-.1-.034,1.49,1.49,0,0,1-.4-2.028,1.618,1.618,0,0,1,2.166-.6.176.176,0,1,1-.154.316,1.262,1.262,0,0,0-1.71.468,1.136,1.136,0,0,0,.3,1.562.176.176,0,0,1-.1.318Z" transform="translate(-4962.021 -792.981)" fill="#451d26"/>
          </g>
        </g>
        <g id="Grupo_1119812" data-name="Grupo 1119812" transform="translate(75.05 31.996)">
          <g id="Grupo_1119811" data-name="Grupo 1119811">
            <path id="Trazado_917349" data-name="Trazado 917349" d="M5035.217,820.525a3.45,3.45,0,0,1-2.076-.673l.22-.275a2.994,2.994,0,0,0,2.729.441,1.113,1.113,0,0,0,.742-.952l.351.038a1.462,1.462,0,0,1-.957,1.24A2.659,2.659,0,0,1,5035.217,820.525Z" transform="translate(-5033.141 -819.066)" fill="#ff6a59"/>
          </g>
        </g>
        <g id="Grupo_1119814" data-name="Grupo 1119814" transform="translate(66.743 21.866)">
          <g id="Grupo_1119813" data-name="Grupo 1119813">
            <path id="Trazado_917350" data-name="Trazado 917350" d="M4993.534,771.141a.176.176,0,0,1-.058-.342l.671-.232a.176.176,0,1,1,.115.333l-.672.232A.175.175,0,0,1,4993.534,771.141Z" transform="translate(-4993.358 -770.557)" fill="#451d26"/>
          </g>
        </g>
        <g id="Grupo_1119816" data-name="Grupo 1119816" transform="translate(67.188 22.475)">
          <g id="Grupo_1119815" data-name="Grupo 1119815">
            <path id="Trazado_917351" data-name="Trazado 917351" d="M4995.667,774.172a.176.176,0,0,1-.107-.316l.459-.348a.176.176,0,0,1,.212.281l-.458.348A.177.177,0,0,1,4995.667,774.172Z" transform="translate(-4995.491 -773.473)" fill="#451d26"/>
          </g>
        </g>
        <g id="Grupo_1119818" data-name="Grupo 1119818" transform="translate(66.967 16.379)">
          <g id="Grupo_1119817" data-name="Grupo 1119817">
            <path id="Trazado_917352" data-name="Trazado 917352" d="M5001.615,746.008c.012.43-1.846-.222-3.831-.168s-3.343.794-3.355.364,1.329-1.867,3.313-1.921S5001.6,745.578,5001.615,746.008Z" transform="translate(-4994.429 -744.281)" fill="#451d26"/>
          </g>
        </g>
        <g id="Grupo_1119820" data-name="Grupo 1119820" transform="translate(76.87 15.391)">
          <g id="Grupo_1119819" data-name="Grupo 1119819">
            <path id="Trazado_917353" data-name="Trazado 917353" d="M5045.989,741.195c.032.386-.6-.341-1.736-.246s-2.365.976-2.4.59a3.187,3.187,0,0,1,2.281-1.987C5045.278,739.457,5045.957,740.809,5045.989,741.195Z" transform="translate(-5041.854 -739.547)" fill="#451d26"/>
          </g>
        </g>
        <g id="Grupo_1119822" data-name="Grupo 1119822" transform="translate(72.426 27.202)">
          <g id="Grupo_1119821" data-name="Grupo 1119821">
            <path id="Trazado_917354" data-name="Trazado 917354" d="M5020.573,796.734c4.444.041,7.878-1.706,6.522.474C5027.966,800.388,5025.306,803.524,5020.573,796.734Z" transform="translate(-5020.573 -796.11)" fill="#ff6a59"/>
          </g>
        </g>
        <g id="Grupo_1119824" data-name="Grupo 1119824" transform="translate(72.003 27.485)">
          <g id="Grupo_1119823" data-name="Grupo 1119823">
            <path id="Trazado_917355" data-name="Trazado 917355" d="M5023.7,799.433a10.721,10.721,0,0,1-5.06-1.639.176.176,0,1,1,.172-.307c3.5,1.964,5.742,1.8,6.4,1.2a.31.31,0,0,0,.124-.342.176.176,0,0,1,.323-.141.642.642,0,0,1-.212.743A2.658,2.658,0,0,1,5023.7,799.433Z" transform="translate(-5018.547 -797.465)" fill="#451d26"/>
          </g>
        </g>
        <g id="Grupo_1119826" data-name="Grupo 1119826" transform="translate(66.694 19.446)">
          <g id="Grupo_1119825" data-name="Grupo 1119825">
            <path id="Trazado_917356" data-name="Trazado 917356" d="M4999.909,762.416a.175.175,0,0,1-.157-.1c-1-1.964-2.123-3-3.258-3h-.007a3.029,3.029,0,0,0-2.428,1.874.176.176,0,0,1-.286.042l-.6-.64a.176.176,0,0,1,.256-.241l.435.462a3.257,3.257,0,0,1,2.624-1.848h.007c.893,0,2.234.556,3.573,3.194a.176.176,0,0,1-.157.256Z" transform="translate(-4993.123 -758.966)" fill="#451d26"/>
          </g>
        </g>
        <g id="Grupo_1119828" data-name="Grupo 1119828" transform="translate(80.804 19.213)">
          <g id="Grupo_1119827" data-name="Grupo 1119827">
            <path id="Trazado_917357" data-name="Trazado 917357" d="M5060.874,758.888a.175.175,0,0,1-.119-.046.177.177,0,0,1-.013-.249l.624-.686a.176.176,0,1,1,.26.236l-.623.687A.177.177,0,0,1,5060.874,758.888Z" transform="translate(-5060.697 -757.85)" fill="#451d26"/>
          </g>
        </g>
        <g id="Grupo_1119830" data-name="Grupo 1119830" transform="translate(44.038 33.965)">
          <g id="Grupo_1119829" data-name="Grupo 1119829">
            <path id="Trazado_917358" data-name="Trazado 917358" d="M4921.121,850.189c-.148-.223-1.732-5.14-2.744-8.793a8.216,8.216,0,0,0-1.172-.553c-1.123-.41-1.979-.737-2.642-1a78.585,78.585,0,0,1,4.53,15.158s-9.457,2.871-21.362-3.715c0,0-1.042-12.655-1.03-18.813-1.975-1.9-3.817-3.634-6.214-3.977,0,0,3.758,26.267-5.86,31.99a45.281,45.281,0,0,0,7.58,12.943c2.935,3.643,1.721,7.792,0,9.007h25.5c-.4-8.2,6.781-13.46,7.793-17.305C4925.581,862.85,4926.187,855.762,4921.121,850.189Z" transform="translate(-4884.628 -828.497)" fill="#6693a3"/>
          </g>
        </g>
      </g>
      <g id="Grupo_1119856" data-name="Grupo 1119856" transform="translate(4468.53 737.469)">
        <g id="Grupo_1119833" data-name="Grupo 1119833" transform="translate(4.384)">
          <g id="Grupo_1119832" data-name="Grupo 1119832">
            <path id="Trazado_917359" data-name="Trazado 917359" d="M4637.207,1519.882a7.406,7.406,0,1,0,13.044-7.017c-1.937-3.6-10.1-11.778-13.7-9.84S4635.269,1516.279,4637.207,1519.882Z" transform="translate(-4634.663 -1502.732)" fill="#ffcc63"/>
          </g>
        </g>
        <g id="Grupo_1119835" data-name="Grupo 1119835" transform="translate(12.503 10.084)">
          <g id="Grupo_1119834" data-name="Grupo 1119834">
            <path id="Trazado_917360" data-name="Trazado 917360" d="M4691.622,1636.318h-.009a.177.177,0,0,1-.167-.185c.019-.375,1.749-37.887-11.266-70.911a110.164,110.164,0,0,0-6.611-13.938.176.176,0,1,1,.306-.174,110.53,110.53,0,0,1,6.633,13.983c13.043,33.1,11.309,70.681,11.29,71.057A.176.176,0,0,1,4691.622,1636.318Z" transform="translate(-4673.546 -1551.021)" fill="#451d26"/>
          </g>
        </g>
        <g id="Grupo_1119840" data-name="Grupo 1119840" transform="translate(0 25.907)">
          <g id="Grupo_1119837" data-name="Grupo 1119837">
            <g id="Grupo_1119836" data-name="Grupo 1119836">
              <path id="Trazado_917361" data-name="Trazado 917361" d="M4625.4,1641.849a7.406,7.406,0,1,0,5.211-13.865c-3.829-1.439-15.354-2.229-16.793,1.6S4621.574,1640.41,4625.4,1641.849Z" transform="translate(-4613.669 -1626.797)" fill="#ffcc63"/>
            </g>
          </g>
          <g id="Grupo_1119839" data-name="Grupo 1119839" transform="translate(11.358 5.904)">
            <g id="Grupo_1119838" data-name="Grupo 1119838">
              <path id="Trazado_917362" data-name="Trazado 917362" d="M4678.186,1659.5a.175.175,0,0,1-.075-.017,106.2,106.2,0,0,0-9.929-4.071.176.176,0,1,1,.116-.332,106.417,106.417,0,0,1,9.963,4.084.176.176,0,0,1-.075.335Z" transform="translate(-4668.064 -1655.068)" fill="#451d26"/>
            </g>
          </g>
        </g>
        <g id="Grupo_1119845" data-name="Grupo 1119845" transform="translate(22.204 17.588)">
          <g id="Grupo_1119842" data-name="Grupo 1119842">
            <g id="Grupo_1119841" data-name="Grupo 1119841">
              <path id="Trazado_917363" data-name="Trazado 917363" d="M4732.8,1603.817a7.406,7.406,0,1,1-10.774-10.165c2.806-2.975,12.813-8.75,15.788-5.943S4735.6,1600.841,4732.8,1603.817Z" transform="translate(-4720.003 -1586.961)" fill="#ffa763"/>
            </g>
          </g>
          <g id="Grupo_1119844" data-name="Grupo 1119844" transform="translate(1.989 8.532)">
            <g id="Grupo_1119843" data-name="Grupo 1119843">
              <path id="Trazado_917364" data-name="Trazado 917364" d="M4729.705,1635.862a.176.176,0,0,1-.137-.287c2.22-2.739,4.533-5.33,6.875-7.7a.176.176,0,0,1,.251.247c-2.333,2.364-4.64,4.946-6.853,7.676A.176.176,0,0,1,4729.705,1635.862Z" transform="translate(-4729.529 -1627.821)" fill="#451d26"/>
            </g>
          </g>
        </g>
        <g id="Grupo_1119850" data-name="Grupo 1119850" transform="translate(5.194 45.034)">
          <g id="Grupo_1119847" data-name="Grupo 1119847">
            <g id="Grupo_1119846" data-name="Grupo 1119846">
              <path id="Trazado_917365" data-name="Trazado 917365" d="M4649.6,1733.659a7.406,7.406,0,0,0,6.008-13.539c-3.738-1.659-15.2-3.117-16.858.622S4645.86,1732,4649.6,1733.659Z" transform="translate(-4638.542 -1718.395)" fill="#ffcc63"/>
            </g>
          </g>
          <g id="Grupo_1119849" data-name="Grupo 1119849" transform="translate(11.203 6.119)">
            <g id="Grupo_1119848" data-name="Grupo 1119848">
              <path id="Trazado_917366" data-name="Trazado 917366" d="M4702.061,1752.7a.17.17,0,0,1-.083-.022,106.259,106.259,0,0,0-9.678-4.64.176.176,0,0,1,.136-.325,106.466,106.466,0,0,1,9.708,4.656.176.176,0,0,1-.083.331Z" transform="translate(-4692.191 -1747.698)" fill="#451d26"/>
            </g>
          </g>
        </g>
        <g id="Grupo_1119855" data-name="Grupo 1119855" transform="translate(27.364 38.464)">
          <g id="Grupo_1119852" data-name="Grupo 1119852">
            <g id="Grupo_1119851" data-name="Grupo 1119851">
              <path id="Trazado_917367" data-name="Trazado 917367" d="M4757.2,1703.615a7.406,7.406,0,0,1-10.166-10.773c2.975-2.807,13.3-7.99,16.107-5.015S4760.18,1700.808,4757.2,1703.615Z" transform="translate(-4744.715 -1686.934)" fill="#ffcc63"/>
            </g>
          </g>
          <g id="Grupo_1119854" data-name="Grupo 1119854" transform="translate(1.729 8.153)">
            <g id="Grupo_1119853" data-name="Grupo 1119853">
              <path id="Trazado_917368" data-name="Trazado 917368" d="M4753.172,1733.605a.176.176,0,0,1-.13-.295c2.377-2.606,4.836-5.059,7.312-7.289a.176.176,0,1,1,.235.262c-2.466,2.223-4.918,4.667-7.287,7.265A.175.175,0,0,1,4753.172,1733.605Z" transform="translate(-4752.996 -1725.976)" fill="#451d26"/>
            </g>
          </g>
        </g>
      </g>
      <g id="Grupo_1119858" data-name="Grupo 1119858" transform="translate(4500.324 794.762)">
        <g id="Grupo_1119857" data-name="Grupo 1119857" transform="translate(0)">
          <path id="Trazado_917369" data-name="Trazado 917369" d="M4765.927,1814.825c10.852-29.8,39.958-37.72,41.682-37.72C4793.485,1799.151,4765.927,1814.825,4765.927,1814.825Z" transform="translate(-4765.927 -1777.105)" fill="#628056"/>
        </g>
      </g>
      <g id="Grupo_1119860" data-name="Grupo 1119860" transform="translate(4430.224 765.654)">
        <g id="Grupo_1119859" data-name="Grupo 1119859" transform="translate(0 0)">
          <path id="Trazado_917370" data-name="Trazado 917370" d="M4496.879,1704.021c-13.951-50.121-54.771-66.311-66.655-66.311C4466.911,1666.474,4496.879,1704.021,4496.879,1704.021Z" transform="translate(-4430.224 -1637.71)" fill="#628056"/>
        </g>
      </g>
      <g id="Grupo_1119919" data-name="Grupo 1119919" transform="translate(4686.894 667.774)">
        <g id="Grupo_1119867" data-name="Grupo 1119867" transform="translate(48.003 103.124)">
          <g id="Grupo_1119862" data-name="Grupo 1119862" transform="translate(10.204 19.707)">
            <g id="Grupo_1119861" data-name="Grupo 1119861">
              <path id="Trazado_917371" data-name="Trazado 917371" d="M5938.231,1757.2c-.2,1.6,0,43.462,0,43.462h4.807l6.81-8.212.4-33.448Z" transform="translate(-5938.143 -1757.199)" fill="#824648"/>
            </g>
          </g>
          <g id="Grupo_1119864" data-name="Grupo 1119864" transform="translate(0 0)">
            <g id="Grupo_1119863" data-name="Grupo 1119863">
              <circle id="Elipse_11886" data-name="Elipse 11886" cx="12.017" cy="12.017" r="12.017" transform="translate(0 9.198) rotate(-22.5)" fill="#cca281"/>
            </g>
          </g>
          <g id="Grupo_1119866" data-name="Grupo 1119866" transform="translate(10.245 51.152)">
            <g id="Grupo_1119865" data-name="Grupo 1119865">
              <path id="Trazado_917372" data-name="Trazado 917372" d="M5938.338,1907.786c.023,6.807.048,12.017.048,12.017h4.807l6.81-8.212.046-3.805Z" transform="translate(-5938.338 -1907.786)" fill="#451d26"/>
            </g>
          </g>
        </g>
        <g id="Grupo_1119874" data-name="Grupo 1119874" transform="translate(110.959 103.124)">
          <g id="Grupo_1119869" data-name="Grupo 1119869" transform="translate(10.204 19.707)">
            <g id="Grupo_1119868" data-name="Grupo 1119868">
              <path id="Trazado_917373" data-name="Trazado 917373" d="M6239.724,1757.2c-.2,1.6,0,43.462,0,43.462h4.807l6.81-8.212.4-33.448Z" transform="translate(-6239.634 -1757.199)" fill="#824648"/>
            </g>
          </g>
          <g id="Grupo_1119871" data-name="Grupo 1119871" transform="translate(0 0)">
            <g id="Grupo_1119870" data-name="Grupo 1119870" transform="translate(0)">
              <circle id="Elipse_11887" data-name="Elipse 11887" cx="12.017" cy="12.017" r="12.017" transform="translate(0 9.198) rotate(-22.5)" fill="#cca281"/>
            </g>
          </g>
          <g id="Grupo_1119873" data-name="Grupo 1119873" transform="translate(10.245 51.152)">
            <g id="Grupo_1119872" data-name="Grupo 1119872">
              <path id="Trazado_917374" data-name="Trazado 917374" d="M6239.83,1907.786c.022,6.807.048,12.017.048,12.017h4.806l6.81-8.212.046-3.805Z" transform="translate(-6239.83 -1907.786)" fill="#451d26"/>
            </g>
          </g>
        </g>
        <g id="Grupo_1119876" data-name="Grupo 1119876" transform="translate(22.232 12.474)">
          <g id="Grupo_1119875" data-name="Grupo 1119875">
            <path id="Trazado_917375" data-name="Trazado 917375" d="M5765.858,1248.447l12.632,20.719.952,31.726a36.02,36.02,0,0,0,36.035,34.969h55.344a36.039,36.039,0,0,0,36.052-36.052v-19.027a36.053,36.053,0,0,0-36.052-36.051h-54.678l-23.034-16.023Z" transform="translate(-5765.858 -1228.708)" fill="#e6be9f"/>
          </g>
        </g>
        <g id="Grupo_1119878" data-name="Grupo 1119878" transform="translate(22.056 12.298)">
          <g id="Grupo_1119877" data-name="Grupo 1119877">
            <path id="Trazado_917376" data-name="Trazado 917376" d="M5870.155,1335.37h-55.344a36.2,36.2,0,0,1-36.212-35.14l-.951-31.68-12.606-20.679a.174.174,0,0,1,.047-.234l27.251-19.738a.176.176,0,0,1,.2,0l22.988,15.991h54.622a36.228,36.228,0,0,1,36.228,36.227v19.027a36.215,36.215,0,0,1-36.228,36.227Zm-104.728-87.543,12.546,20.58a.166.166,0,0,1,.026.086l.952,31.726a35.845,35.845,0,0,0,35.859,34.8h55.344a35.861,35.861,0,0,0,35.875-35.875v-19.027a35.874,35.874,0,0,0-35.875-35.875h-54.678a.177.177,0,0,1-.1-.031l-22.93-15.952Z" transform="translate(-5765.016 -1227.865)" fill="#451d26"/>
          </g>
        </g>
        <g id="Grupo_1119883" data-name="Grupo 1119883" transform="translate(14.485 2.358)">
          <g id="Grupo_1119880" data-name="Grupo 1119880">
            <g id="Grupo_1119879" data-name="Grupo 1119879">
              <path id="Trazado_917377" data-name="Trazado 917377" d="M5748.985,1184.3c-6.31-.973-8.3-5.786-20.227-3.353C5730.315,1187.6,5739.3,1190.679,5748.985,1184.3Z" transform="translate(-5728.759 -1180.266)" fill="#824648"/>
            </g>
          </g>
          <g id="Grupo_1119882" data-name="Grupo 1119882" transform="translate(0 0.679)">
            <g id="Grupo_1119881" data-name="Grupo 1119881">
              <path id="Trazado_917378" data-name="Trazado 917378" d="M5748.985,1186.872c-7.434,1.081-10.459-1.731-20.227-3.353C5730.315,1190.17,5739.3,1193.252,5748.985,1186.872Z" transform="translate(-5728.759 -1183.519)" fill="#451d26"/>
            </g>
          </g>
        </g>
        <g id="Grupo_1119885" data-name="Grupo 1119885" transform="translate(0.175 2.961)">
          <g id="Grupo_1119884" data-name="Grupo 1119884">
            <path id="Trazado_917379" data-name="Trazado 917379" d="M5694.721,1183.15c-3.775,0-10.115,3.1-10.115,3.1l-24.334,15.422c-.6,7.311,5.908,11.817,12.518,10.916a48.329,48.329,0,0,1,9.5-.19,17.27,17.27,0,1,0,12.432-29.252Z" transform="translate(-5660.233 -1183.15)" fill="#824648"/>
          </g>
        </g>
        <g id="Grupo_1119887" data-name="Grupo 1119887" transform="translate(0 2.785)">
          <g id="Grupo_1119886" data-name="Grupo 1119886">
            <path id="Trazado_917380" data-name="Trazado 917380" d="M5694.056,1217.208a17.3,17.3,0,0,1-12.511-5.3,48.509,48.509,0,0,0-9.4.193,11.836,11.836,0,0,1-9.7-2.944,9.888,9.888,0,0,1-3.018-8.16.175.175,0,0,1,.082-.134l24.334-15.422c.277-.137,6.436-3.131,10.209-3.131a.176.176,0,0,1,0,.352c-3.691,0-9.974,3.055-10.038,3.086l-24.243,15.365a9.532,9.532,0,0,0,2.915,7.789,11.48,11.48,0,0,0,9.41,2.851,49.029,49.029,0,0,1,9.535-.191.178.178,0,0,1,.115.053,16.952,16.952,0,0,0,12.3,5.244,17.174,17.174,0,0,0,14.777-8.49.176.176,0,0,1,.3.177A17.527,17.527,0,0,1,5694.056,1217.208Z" transform="translate(-5659.393 -1182.307)" fill="#451d26"/>
          </g>
        </g>
        <g id="Grupo_1119889" data-name="Grupo 1119889" transform="translate(0.038 21.31)">
          <g id="Grupo_1119888" data-name="Grupo 1119888">
            <path id="Trazado_917381" data-name="Trazado 917381" d="M5663.21,1272.915a6.9,6.9,0,0,1-1.566-.17c-1.143-.268-1.9-.815-2.063-1.5a.176.176,0,0,1,.342-.084c.134.544.808,1.009,1.8,1.242a8.326,8.326,0,0,0,4.478-.365.176.176,0,1,1,.116.332A9.554,9.554,0,0,1,5663.21,1272.915Z" transform="translate(-5659.575 -1271.025)" fill="#451d26"/>
          </g>
        </g>
        <g id="Grupo_1119891" data-name="Grupo 1119891" transform="translate(1.722 22.613)">
          <g id="Grupo_1119890" data-name="Grupo 1119890">
            <path id="Trazado_917382" data-name="Trazado 917382" d="M5669.537,1284.374a.176.176,0,0,1-.154-.09,12.8,12.8,0,0,1-1.724-6.862.176.176,0,0,1,.35.033,12.693,12.693,0,0,0,1.682,6.658.177.177,0,0,1-.068.239A.175.175,0,0,1,5669.537,1284.374Z" transform="translate(-5667.64 -1277.262)" fill="#451d26"/>
          </g>
        </g>
        <g id="Grupo_1119893" data-name="Grupo 1119893" transform="translate(21.594 14.627)">
          <g id="Grupo_1119892" data-name="Grupo 1119892" transform="translate(0 0)">
            <circle id="Elipse_11888" data-name="Elipse 11888" cx="1.702" cy="1.702" r="1.702" transform="translate(0 3.361) rotate(-80.782)" fill="#451d26"/>
          </g>
        </g>
        <g id="Grupo_1119898" data-name="Grupo 1119898" transform="translate(38.268 0)">
          <g id="Grupo_1119895" data-name="Grupo 1119895">
            <g id="Grupo_1119894" data-name="Grupo 1119894">
              <path id="Trazado_917383" data-name="Trazado 917383" d="M5842.653,1176.439c7.311-1.8,9.614-10.715,23.434-6.209C5864.284,1182.547,5853.869,1188.255,5842.653,1176.439Z" transform="translate(-5842.653 -1168.972)" fill="#824648"/>
            </g>
          </g>
          <g id="Grupo_1119897" data-name="Grupo 1119897" transform="translate(0 1.258)">
            <g id="Grupo_1119896" data-name="Grupo 1119896">
              <path id="Trazado_917384" data-name="Trazado 917384" d="M5842.653,1181.2c8.612,2,12.118-3.2,23.434-6.209C5864.284,1187.314,5853.869,1193.022,5842.653,1181.2Z" transform="translate(-5842.653 -1174.996)" fill="#451d26"/>
            </g>
          </g>
        </g>
        <g id="Grupo_1119900" data-name="Grupo 1119900" transform="translate(146.245 32.726)">
          <g id="Grupo_1119899" data-name="Grupo 1119899" transform="translate(0 0)">
            <circle id="Elipse_11889" data-name="Elipse 11889" cx="9.614" cy="9.614" r="9.614" transform="translate(0 13.596) rotate(-45)" fill="#e6be9f"/>
          </g>
        </g>
        <g id="Grupo_1119909" data-name="Grupo 1119909" transform="translate(71.036 103.124)">
          <g id="Grupo_1119902" data-name="Grupo 1119902" transform="translate(10.204 19.707)">
            <g id="Grupo_1119901" data-name="Grupo 1119901">
              <path id="Trazado_917385" data-name="Trazado 917385" d="M6048.534,1757.2c-.2,1.6,0,43.462,0,43.462h4.807l6.81-8.212.4-33.448Z" transform="translate(-6048.445 -1757.199)" fill="#824648"/>
            </g>
          </g>
          <g id="Grupo_1119904" data-name="Grupo 1119904" transform="translate(0 0)">
            <g id="Grupo_1119903" data-name="Grupo 1119903">
              <circle id="Elipse_11890" data-name="Elipse 11890" cx="12.017" cy="12.017" r="12.017" transform="translate(0 9.198) rotate(-22.5)" fill="#e6be9f"/>
            </g>
          </g>
          <g id="Grupo_1119906" data-name="Grupo 1119906" transform="translate(3.508 3.508)">
            <g id="Grupo_1119905" data-name="Grupo 1119905">
              <path id="Trazado_917386" data-name="Trazado 917386" d="M6028.569,1704.011a12.193,12.193,0,1,1,0-24.386.176.176,0,0,1,0,.352,11.841,11.841,0,1,0,0,23.683.176.176,0,0,1,0,.352Z" transform="translate(-6016.376 -1679.625)" fill="#451d26"/>
            </g>
          </g>
          <g id="Grupo_1119908" data-name="Grupo 1119908" transform="translate(10.245 51.152)">
            <g id="Grupo_1119907" data-name="Grupo 1119907">
              <path id="Trazado_917387" data-name="Trazado 917387" d="M6048.64,1907.786c.024,6.807.049,12.017.049,12.017h4.806l6.811-8.212.046-3.805Z" transform="translate(-6048.64 -1907.786)" fill="#451d26"/>
            </g>
          </g>
        </g>
        <g id="Grupo_1119918" data-name="Grupo 1119918" transform="translate(118.489 82.814)">
          <g id="Grupo_1119911" data-name="Grupo 1119911" transform="translate(25.708 40.017)">
            <g id="Grupo_1119910" data-name="Grupo 1119910">
              <path id="Trazado_917388" data-name="Trazado 917388" d="M6350.025,1757.2c-.2,1.6,0,43.462,0,43.462h4.808l6.809-8.212.4-33.448Z" transform="translate(-6349.937 -1757.199)" fill="#824648"/>
            </g>
          </g>
          <g id="Grupo_1119913" data-name="Grupo 1119913" transform="translate(0 0)">
            <g id="Grupo_1119912" data-name="Grupo 1119912">
              <circle id="Elipse_11891" data-name="Elipse 11891" cx="19.728" cy="19.728" r="19.728" transform="translate(0 27.9) rotate(-45)" fill="#e6be9f"/>
            </g>
          </g>
          <g id="Grupo_1119915" data-name="Grupo 1119915" transform="translate(7.996 7.996)">
            <g id="Grupo_1119914" data-name="Grupo 1119914">
              <path id="Trazado_917389" data-name="Trazado 917389" d="M6285.021,1643.66a19.9,19.9,0,1,1,0-39.808.176.176,0,0,1,0,.352,19.552,19.552,0,1,0,0,39.1.176.176,0,0,1,0,.352Z" transform="translate(-6265.116 -1603.852)" fill="#451d26"/>
            </g>
          </g>
          <g id="Grupo_1119917" data-name="Grupo 1119917" transform="translate(25.749 71.462)">
            <g id="Grupo_1119916" data-name="Grupo 1119916">
              <path id="Trazado_917390" data-name="Trazado 917390" d="M6350.133,1907.786c.023,6.807.047,12.017.047,12.017h4.807l6.81-8.212.045-3.805Z" transform="translate(-6350.133 -1907.786)" fill="#451d26"/>
            </g>
          </g>
        </g>
      </g>
      <g id="Grupo_1119924" data-name="Grupo 1119924" transform="translate(4690.98 790.628)">
        <g id="Grupo_1119921" data-name="Grupo 1119921" transform="translate(0 2.175)">
          <g id="Grupo_1119920" data-name="Grupo 1119920">
            <path id="Trazado_917391" data-name="Trazado 917391" d="M5693.727,1803.632c-15.238-15.255-14.765-35.907-14.765-35.907C5690.7,1779.758,5693.727,1803.632,5693.727,1803.632Z" transform="translate(-5678.961 -1767.725)" fill="#83a973"/>
          </g>
        </g>
        <g id="Grupo_1119923" data-name="Grupo 1119923" transform="translate(14.306 0)">
          <g id="Grupo_1119922" data-name="Grupo 1119922">
            <path id="Trazado_917392" data-name="Trazado 917392" d="M5747.469,1795.611c13.334-17.964,10.511-38.3,10.511-38.3C5747.74,1771.425,5747.469,1795.611,5747.469,1795.611Z" transform="translate(-5747.469 -1757.307)" fill="#83a973"/>
          </g>
        </g>
      </g>
      <g id="Grupo_1119929" data-name="Grupo 1119929" transform="translate(4847.724 806.336)">
        <g id="Grupo_1119926" data-name="Grupo 1119926" transform="translate(0 1.361)">
          <g id="Grupo_1119925" data-name="Grupo 1119925">
            <path id="Trazado_917393" data-name="Trazado 917393" d="M6438.833,1861.527c-9.538-9.547-9.241-22.473-9.241-22.473C6436.939,1846.585,6438.833,1861.527,6438.833,1861.527Z" transform="translate(-6429.591 -1839.054)" fill="#83a973"/>
          </g>
        </g>
        <g id="Grupo_1119928" data-name="Grupo 1119928" transform="translate(8.953 0)">
          <g id="Grupo_1119927" data-name="Grupo 1119927">
            <path id="Trazado_917394" data-name="Trazado 917394" d="M6472.467,1856.507a35.608,35.608,0,0,0,6.578-23.973C6472.637,1841.369,6472.467,1856.507,6472.467,1856.507Z" transform="translate(-6472.467 -1832.534)" fill="#83a973"/>
          </g>
        </g>
      </g>
      <g id="Grupo_1119936" data-name="Grupo 1119936" transform="translate(4696.268 610.642)">
        <g id="Grupo_1119932" data-name="Grupo 1119932" transform="translate(0.125 0.124)">
          <g id="Grupo_1119931" data-name="Grupo 1119931" transform="translate(0 0)">
            <g id="Grupo_1119930" data-name="Grupo 1119930">
              <path id="Trazado_917395" data-name="Trazado 917395" d="M5911.711,829.184a7.783,7.783,0,0,1-2.11-5.806v-3.85a7.783,7.783,0,0,1,2.11-5.806,9.6,9.6,0,0,1,11.935,0,7.9,7.9,0,0,1,2.1,5.867v3.788a7.772,7.772,0,0,1-2.11,5.821,9.609,9.609,0,0,1-11.919-.016Zm25.3-17.109h7.668l-23.407,44.783h-7.669ZM5918.7,824.426a2.143,2.143,0,0,0,.354-1.324v-3.388a1.962,1.962,0,0,0-.354-1.247,1.415,1.415,0,0,0-2.064,0,2.078,2.078,0,0,0-.354,1.309V823.1a2.134,2.134,0,0,0,.354,1.34,1.239,1.239,0,0,0,1.032.446A1.223,1.223,0,0,0,5918.7,824.426Zm15.277,30.815a7.779,7.779,0,0,1-2.11-5.806v-3.85a7.78,7.78,0,0,1,2.11-5.806,9.6,9.6,0,0,1,11.935,0,7.9,7.9,0,0,1,2.094,5.867v3.788a7.771,7.771,0,0,1-2.11,5.821,9.609,9.609,0,0,1-11.919-.015Zm6.992-4.759a2.143,2.143,0,0,0,.354-1.324V845.77a1.963,1.963,0,0,0-.354-1.247,1.415,1.415,0,0,0-2.063,0,2.069,2.069,0,0,0-.354,1.309v3.326a2.125,2.125,0,0,0,.354,1.34,1.236,1.236,0,0,0,1.031.447A1.221,1.221,0,0,0,5940.972,850.483Z" transform="translate(-5909.602 -811.644)" fill="#e2e9fb"/>
            </g>
          </g>
        </g>
        <g id="Grupo_1119935" data-name="Grupo 1119935">
          <g id="Grupo_1119934" data-name="Grupo 1119934" transform="translate(0 0)">
            <g id="Grupo_1119933" data-name="Grupo 1119933">
              <path id="Trazado_917396" data-name="Trazado 917396" d="M5939.222,856.727a8.281,8.281,0,0,1-6.047-2.115,7.933,7.933,0,0,1-2.147-5.895v-3.85a7.933,7.933,0,0,1,2.147-5.894,8.281,8.281,0,0,1,6.047-2.115.125.125,0,0,1,0,.249,8.046,8.046,0,0,0-5.873,2.043,7.7,7.7,0,0,0-2.073,5.717v3.85a7.7,7.7,0,0,0,2.073,5.717,9.488,9.488,0,0,0,11.745.015,7.685,7.685,0,0,0,2.073-5.732v-3.788a.125.125,0,1,1,.249,0v3.788a7.924,7.924,0,0,1-2.147,5.91A8.321,8.321,0,0,1,5939.222,856.727Zm-18.666-.462h-7.669a.124.124,0,0,1-.11-.182l23.408-44.783a.125.125,0,1,1,.221.115l-23.312,44.6h7.463a.125.125,0,1,1,0,.249Zm18.666-5.914a.125.125,0,1,1,0-.249,1.1,1.1,0,0,0,.933-.413,2.039,2.039,0,0,0,.328-1.249v-3.388a1.855,1.855,0,0,0-.327-1.17,1.292,1.292,0,0,0-1.868,0,1.961,1.961,0,0,0-.328,1.232v3.326a.125.125,0,0,1-.25,0v-3.326a2.2,2.2,0,0,1,.381-1.386,1.538,1.538,0,0,1,2.259,0,2.091,2.091,0,0,1,.381,1.325v3.388a2.271,2.271,0,0,1-.38,1.4A1.344,1.344,0,0,1,5939.222,850.351Zm-22.269-19.681a8.287,8.287,0,0,1-6.048-2.115,7.937,7.937,0,0,1-2.146-5.894v-3.85a7.937,7.937,0,0,1,2.146-5.895,9.727,9.727,0,0,1,12.111,0,8.054,8.054,0,0,1,2.13,5.956.125.125,0,1,1-.249,0,7.816,7.816,0,0,0-2.057-5.779,9.482,9.482,0,0,0-11.76,0,7.7,7.7,0,0,0-2.073,5.717v3.85a7.7,7.7,0,0,0,2.073,5.717,9.489,9.489,0,0,0,11.745.015.124.124,0,1,1,.174.178A8.32,8.32,0,0,1,5916.954,830.67Zm0-6.376a1.361,1.361,0,0,1-1.13-.494,2.253,2.253,0,0,1-.381-1.417v-3.326a.125.125,0,0,1,.25,0v3.326a2.017,2.017,0,0,0,.328,1.262,1.11,1.11,0,0,0,.934.4,1.1,1.1,0,0,0,.933-.413,2.033,2.033,0,0,0,.329-1.249V819a1.849,1.849,0,0,0-.329-1.17,1.108,1.108,0,0,0-.933-.4.125.125,0,1,1,0-.249,1.362,1.362,0,0,1,1.129.494,2.091,2.091,0,0,1,.381,1.325v3.388a2.268,2.268,0,0,1-.38,1.4A1.344,1.344,0,0,1,5916.954,824.294Z" transform="translate(-5908.759 -810.801)" fill="#451d26"/>
            </g>
          </g>
        </g>
      </g>
      <g id="Grupo_1119938" data-name="Grupo 1119938" transform="translate(4722.293 560.784)">
        <g id="Grupo_1119937" data-name="Grupo 1119937" transform="translate(0 0)">
          <path id="Trazado_917397" data-name="Trazado 917397" d="M5829.095,674.106a.176.176,0,0,1-.125-.3l17.148-17.148a.178.178,0,0,1,.125-.052h59.294a.176.176,0,0,1,0,.352h-59.222l-17.1,17.1A.173.173,0,0,1,5829.095,674.106Z" transform="translate(-5828.919 -656.606)" fill="#451d26"/>
        </g>
      </g>
      <g id="Grupo_1119940" data-name="Grupo 1119940" transform="translate(4740.316 544.442)">
        <g id="Grupo_1119939" data-name="Grupo 1119939" transform="translate(0 0)">
          <circle id="Elipse_11892" data-name="Elipse 11892" cx="4.132" cy="4.132" r="4.132" transform="translate(0 5.844) rotate(-45)" fill="#e9595c"/>
        </g>
      </g>
      <g id="Grupo_1119942" data-name="Grupo 1119942" transform="translate(4755.801 546.704)">
        <g id="Grupo_1119941" data-name="Grupo 1119941" transform="translate(0 0)">
          <path id="Trazado_917398" data-name="Trazado 917398" d="M6016.037,596.2H5992.9a3.508,3.508,0,0,1-3.511-3.512h0a3.511,3.511,0,0,1,3.511-3.512h23.141a3.511,3.511,0,0,1,3.512,3.512h0a3.51,3.51,0,0,1-3.512,3.512Z" transform="translate(-5989.385 -589.18)" fill="#e2e9fb"/>
        </g>
      </g>
    </g>
  </g>
</svg>
