<svg xmlns="http://www.w3.org/2000/svg" width="71" height="71" viewBox="0 0 71 71">
  <g id="Grupo_1119946" data-name="Grupo 1119946" transform="translate(-299.543 -10733)">
    <circle id="Elipse_11626" data-name="Elipse 11626" cx="35.5" cy="35.5" r="35.5" transform="translate(299.543 10733)" fill="#fff"/>
    <g id="filled_outline" data-name="filled outline" transform="translate(310.543 10745)">
      <path id="Trazado_917399" data-name="Trazado 917399" d="M160.352,79.285l.832,6.653L160,94.226l14.037,2.442,2.116-7.4L179.1,90a3.326,3.326,0,0,0,4.114-2.869l.938-8.679,2.81.641.832.19-.832-2.079-1.927-4.819-.568-1.418,1.663-10.811-3.853-1.926A21.127,21.127,0,0,0,172.826,56a12.475,12.475,0,0,0-12.474,12.474Z" transform="translate(-152.867 -55.168)" fill="#fec093"/>
      <path id="Trazado_917400" data-name="Trazado 917400" d="M278.932,368.93l-.462,3.23,14.137,3.327.991-3.468Z" transform="translate(-270.985 -335.569)" fill="#24447f"/>
      <path id="Trazado_917401" data-name="Trazado 917401" d="M160,79.285l3.814,1.43a2.495,2.495,0,0,0,3.337-1.926l1.165-6.989h4.158l.832,5.821a3.326,3.326,0,0,0,3.326-3.326V70.137l2.495-5.405,3.826.574a3.91,3.91,0,0,0,4.49-3.866.728.728,0,0,0-.4-.651l-5.114-2.557A21.136,21.136,0,0,0,172.474,56,12.474,12.474,0,0,0,160,68.474Z" transform="translate(-152.515 -55.168)" fill="#bc6549"/>
      <path id="Trazado_917402" data-name="Trazado 917402" d="M300.37,207.484h.168a.822.822,0,0,0,.822-.822v-5.34A1.322,1.322,0,0,0,300.038,200h-2.166a1.871,1.871,0,0,0-1.827,2.277l.47,2.115A3.949,3.949,0,0,0,300.37,207.484Z" transform="translate(-280.569 -184.199)" fill="#f5af7d"/>
      <path id="Trazado_917403" data-name="Trazado 917403" d="M114.859,253.362l-.789,7.3,3.949,2.463,5.256-8.426-5.606-3.5V254Z" transform="translate(-83.573 -230.077)" fill="#e51c23"/>
      <path id="Trazado_917404" data-name="Trazado 917404" d="M244.547,196.965V187a2.358,2.358,0,0,1,.48-1.441l-4.391-2.739-5.257,8.427Z" transform="translate(-217.936 -168.805)" fill="#e51c23"/>
      <path id="Trazado_917405" data-name="Trazado 917405" d="M168,200.972l7,4.369v-1.365a2.5,2.5,0,0,0-1.283-2.181l-.645-.359-2.005-1.113A2.39,2.39,0,0,0,168,200.972Z" transform="translate(-140.908 -184.218)" fill="#f5af7d"/>
      <path id="Trazado_917406" data-name="Trazado 917406" d="M203.2,312.894l6.17,4.112.56.7a3.323,3.323,0,0,0,2.345-2.826l.149-1.38-3.886-2.424v.941l-2.488-1.492A2.5,2.5,0,0,0,203,310.9a1.3,1.3,0,0,0,.2,1.995Z" transform="translate(-181.923 -282.916)" fill="#f5af7d"/>
      <path id="Trazado_917407" data-name="Trazado 917407" d="M168,210.611v9.965L171.886,223l.789-7.3,2.81.641v-2.8l-7-4.369A2.358,2.358,0,0,0,168,210.611Z" transform="translate(-141.388 -192.416)" fill="#c9191f"/>
      <path id="Trazado_917408" data-name="Trazado 917408" d="M25.467,200.389l2.649,1.472a2.5,2.5,0,0,1,1.283,2.181V215.88l14.137,14.969H32.726l-9.979-12.474-6.17-4.113a1.3,1.3,0,0,1-.2-1.994,2.5,2.5,0,0,1,3.048-.375l2.488,1.493V202.479a2.391,2.391,0,0,1,3.552-2.09Z" transform="translate(6.36 -184.279)" fill="#fec093"/>
      <path id="Trazado_917409" data-name="Trazado 917409" d="M104,403.816V408.6h39.917a3.1,3.1,0,0,0-2.438-3.025l-16.689-3.628-14.137-3.326A5.354,5.354,0,0,0,104,403.816Z" transform="translate(-103.168 -362.03)" fill="#3f51b5"/>
      <path id="Trazado_917410" data-name="Trazado 917410" d="M20.553,84.909a6.14,6.14,0,0,1,4.4-1.282l.695-4.865-.818-6.542h0a.842.842,0,0,1-.008-.1V61.306A13.307,13.307,0,0,1,38.132,48a22.072,22.072,0,0,1,9.825,2.32l5.112,2.556a1.558,1.558,0,0,1,.864,1.4,4.742,4.742,0,0,1-2.492,4.174l-.782,5.08,2.4,1.331a3.328,3.328,0,0,1,1.71,2.908V69.7l3.551,2.215a.832.832,0,0,1,.265,1.146l-3.817,6.119v.092l13.08,13.9-1.211,1.14L53.328,80.171a.832.832,0,0,1-.226-.57V67.763a1.664,1.664,0,0,0-.855-1.454l-2.653-1.474c-.023-.013-.047-.025-.071-.036l-.012-.006A1.559,1.559,0,0,0,47.28,66.2V77.106a.832.832,0,0,1-1.259.713l-2.487-1.493a1.663,1.663,0,0,0-2.032.249.464.464,0,0,0,.071.714l6.17,4.113a.831.831,0,0,1,.194.179l6.871,8.746,1.856.4a3.95,3.95,0,0,1,3.093,3.838H58.091a2.277,2.277,0,0,0-1.783-2.212L39.619,88.73l-.014,0h0L25.468,85.4l-.011,0a4.523,4.523,0,0,0-5.62,4.387V94.57H18.174V89.785A6.147,6.147,0,0,1,20.553,84.909ZM56.731,72.885l-1.966-1.226v4.377ZM39.214,86.926l.528-1.847L26.817,82.359l-.228,1.6Zm8-35.119a20.4,20.4,0,0,0-9.08-2.144A11.643,11.643,0,0,0,26.49,61.3V71.54l3.274,1.228a1.663,1.663,0,0,0,2.225-1.284l.861-5.168-.013-.058a2.7,2.7,0,0,1,2.638-3.289h2.166A2.15,2.15,0,0,1,39,63.447l1.168-1.873a.832.832,0,0,1,1.146-.265l.642.4,2.074-4.494a.832.832,0,0,1,.878-.474l3.827.574a3.078,3.078,0,0,0,3.534-2.979ZM34.931,68.013a3.109,3.109,0,0,0,.511,1.141l2.644-4.239a.488.488,0,0,0-.444-.282H35.476A1.039,1.039,0,0,0,34.461,65.9Zm12.195-4.541a3.214,3.214,0,0,1,1.933-.489l.615-4a4.742,4.742,0,0,1-1.185-.027l-3.209-.481-1.9,4.118L46.2,64.355A3.224,3.224,0,0,1,47.126,63.472ZM45.617,75.638V66.2c0-.081,0-.162.01-.242l-4.487-2.8-4.376,7.017ZM40.65,78.675a2.127,2.127,0,0,1-.324-3.274,3.336,3.336,0,0,1,.759-.569l-4.942-3.083a4.769,4.769,0,0,1-2.2-1.85l-.31,1.859a3.322,3.322,0,0,1-4.449,2.568l-2.526-.947.661,5.288a.83.83,0,0,1,0,.221l-.26,1.821L40.2,83.476l.459-1.609a.832.832,0,0,1,1-.578l2.949.737a2.488,2.488,0,0,0,1.1.026Zm11.606,11.1-5.1-6.491a4.111,4.111,0,0,1-2.949.356L42.038,83.1l-1.2,4.2Z" transform="translate(-18.174 -48)"/>
      <path id="Trazado_917411" data-name="Trazado 917411" d="M44.99,320H40v1.663h4.99Z" transform="translate(2.412 -291.725)"/>
      <path id="Trazado_917412" data-name="Trazado 917412" d="M0,5.576H1.662V0H0Z" transform="matrix(-0.447, -0.894, 0.894, -0.447, 42.799, 26.519)"/>
      <path id="Trazado_917413" data-name="Trazado 917413" d="M0,1.662H5.576V0H0Z" transform="matrix(-0.894, -0.447, 0.447, -0.894, 47.04, 35.656)"/>
    </g>
  </g>
</svg>
